<?xml version="1.0" encoding="UTF-8" standalone="no"?>
<!DOCTYPE svg PUBLIC "-//W3C//DTD SVG 1.1//EN"
 "http://www.w3.org/Graphics/SVG/1.1/DTD/svg11.dtd">
<!-- Generated by graphviz version 7.0.0 (20221106.0712)
 -->
<!-- Pages: 1 -->
<svg width="1184pt" height="796pt"
 viewBox="0.00 0.00 1184.06 795.80" xmlns="http://www.w3.org/2000/svg" xmlns:xlink="http://www.w3.org/1999/xlink">
<g id="graph0" class="graph" transform="scale(1 1) rotate(0) translate(4 791.8)">
<polygon fill="white" stroke="none" points="-4,4 -4,-791.8 1180.06,-791.8 1180.06,4 -4,4"/>
<text text-anchor="middle" x="588.03" y="-771.2" font-family="Arial" font-size="14.00">Software Supply Chain Attack Tree &#45; Continuous Integration System</text>
<!-- reality -->
<g id="node1" class="node">
<title>reality</title>
<path fill="#272727" stroke="none" d="M510.99,-762.9C510.99,-762.9 464.41,-762.9 464.41,-762.9 458.41,-762.9 452.41,-756.9 452.41,-750.9 452.41,-750.9 452.41,-730.3 452.41,-730.3 452.41,-724.3 458.41,-718.3 464.41,-718.3 464.41,-718.3 510.99,-718.3 510.99,-718.3 516.99,-718.3 522.99,-724.3 522.99,-730.3 522.99,-730.3 522.99,-750.9 522.99,-750.9 522.99,-756.9 516.99,-762.9 510.99,-762.9"/>
<text text-anchor="middle" x="487.7" y="-736.4" font-family="Arial" font-size="14.00" fill="#ffffff">Reality</text>
</g>
<!-- uses_gha -->
<g id="node2" class="node">
<title>uses_gha</title>
<path fill="#d2d5dd" stroke="none" d="M554.36,-689.1C554.36,-689.1 421.04,-689.1 421.04,-689.1 415.04,-689.1 409.04,-683.1 409.04,-677.1 409.04,-677.1 409.04,-656.5 409.04,-656.5 409.04,-650.5 415.04,-644.5 421.04,-644.5 421.04,-644.5 554.36,-644.5 554.36,-644.5 560.36,-644.5 566.36,-650.5 566.36,-656.5 566.36,-656.5 566.36,-677.1 566.36,-677.1 566.36,-683.1 560.36,-689.1 554.36,-689.1"/>
<text text-anchor="middle" x="487.7" y="-662.6" font-family="Arial" font-size="14.00">Uses GitHub Actions</text>
</g>
<!-- reality&#45;&gt;uses_gha -->
<g id="edge25" class="edge">
<title>reality&#45;&gt;uses_gha</title>
<path fill="none" stroke="#2b303a" d="M487.7,-718.45C487.7,-712.8 487.7,-706.56 487.7,-700.45"/>
<polygon fill="#2b303a" stroke="#2b303a" points="491.2,-700.56 487.7,-690.56 484.2,-700.56 491.2,-700.56"/>
</g>
<!-- public_repo -->
<g id="node3" class="node">
<title>public_repo</title>
<path fill="#d2d5dd" stroke="none" d="M393.69,-598.5C393.69,-598.5 285.71,-598.5 285.71,-598.5 279.71,-598.5 273.71,-592.5 273.71,-586.5 273.71,-586.5 273.71,-565.9 273.71,-565.9 273.71,-559.9 279.71,-553.9 285.71,-553.9 285.71,-553.9 393.69,-553.9 393.69,-553.9 399.69,-553.9 405.69,-559.9 405.69,-565.9 405.69,-565.9 405.69,-586.5 405.69,-586.5 405.69,-592.5 399.69,-598.5 393.69,-598.5"/>
<text text-anchor="middle" x="339.7" y="-572" font-family="Arial" font-size="14.00">Public repository</text>
</g>
<!-- uses_gha&#45;&gt;public_repo -->
<g id="edge26" class="edge">
<title>uses_gha&#45;&gt;public_repo</title>
<path fill="none" stroke="#2b303a" d="M452.25,-644.58C432,-632.46 406.42,-617.14 384.76,-604.17"/>
<polygon fill="#2b303a" stroke="#2b303a" points="386.79,-601.31 376.41,-599.18 383.2,-607.32 386.79,-601.31"/>
</g>
<!-- private_repo -->
<g id="node4" class="node">
<title>private_repo</title>
<path fill="#d2d5dd" stroke="none" d="M544.13,-598.5C544.13,-598.5 431.27,-598.5 431.27,-598.5 425.27,-598.5 419.27,-592.5 419.27,-586.5 419.27,-586.5 419.27,-565.9 419.27,-565.9 419.27,-559.9 425.27,-553.9 431.27,-553.9 431.27,-553.9 544.13,-553.9 544.13,-553.9 550.13,-553.9 556.13,-559.9 556.13,-565.9 556.13,-565.9 556.13,-586.5 556.13,-586.5 556.13,-592.5 550.13,-598.5 544.13,-598.5"/>
<text text-anchor="middle" x="487.7" y="-572" font-family="Arial" font-size="14.00">Private repository</text>
</g>
<!-- uses_gha&#45;&gt;private_repo -->
<g id="edge27" class="edge">
<title>uses_gha&#45;&gt;private_repo</title>
<path fill="none" stroke="#2b303a" d="M487.7,-644.8C487.7,-634.29 487.7,-621.32 487.7,-609.57"/>
<polygon fill="#2b303a" stroke="#2b303a" points="491.2,-609.87 487.7,-599.87 484.2,-609.87 491.2,-609.87"/>
</g>
<!-- has_perm_to_create_new_repo -->
<g id="node10" class="node">
<title>has_perm_to_create_new_repo</title>
<path fill="#d2d5dd" stroke="none" d="M697.74,-615.6C697.74,-615.6 581.66,-615.6 581.66,-615.6 575.66,-615.6 569.66,-609.6 569.66,-603.6 569.66,-603.6 569.66,-548.8 569.66,-548.8 569.66,-542.8 575.66,-536.8 581.66,-536.8 581.66,-536.8 697.74,-536.8 697.74,-536.8 703.74,-536.8 709.74,-542.8 709.74,-548.8 709.74,-548.8 709.74,-603.6 709.74,-603.6 709.74,-609.6 703.74,-615.6 697.74,-615.6"/>
<text text-anchor="middle" x="639.7" y="-588.8" font-family="Arial" font-size="14.00">Has permission to</text>
<text text-anchor="middle" x="639.7" y="-572" font-family="Arial" font-size="14.00">create new</text>
<text text-anchor="middle" x="639.7" y="-555.2" font-family="Arial" font-size="14.00">repository</text>
</g>
<!-- uses_gha&#45;&gt;has_perm_to_create_new_repo -->
<g id="edge33" class="edge">
<title>uses_gha&#45;&gt;has_perm_to_create_new_repo</title>
<path fill="none" stroke="#2b303a" d="M524.11,-644.58C536.24,-637.51 550.24,-629.35 564.21,-621.2"/>
<polygon fill="#2b303a" stroke="#2b303a" points="565.68,-624.4 572.55,-616.34 562.15,-618.35 565.68,-624.4"/>
</g>
<!-- public_repo&#45;&gt;private_repo -->
<!-- gha_on_pull_request_from_fork -->
<g id="node5" class="node">
<title>gha_on_pull_request_from_fork</title>
<path fill="#d2d5dd" stroke="none" d="M240.11,-408.8C240.11,-408.8 121.29,-408.8 121.29,-408.8 115.29,-408.8 109.29,-402.8 109.29,-396.8 109.29,-396.8 109.29,-359.6 109.29,-359.6 109.29,-353.6 115.29,-347.6 121.29,-347.6 121.29,-347.6 240.11,-347.6 240.11,-347.6 246.11,-347.6 252.11,-353.6 252.11,-359.6 252.11,-359.6 252.11,-396.8 252.11,-396.8 252.11,-402.8 246.11,-408.8 240.11,-408.8"/>
<text text-anchor="middle" x="180.7" y="-382.4" font-family="Arial" font-size="14.00">pull_request event</text>
<text text-anchor="middle" x="180.7" y="-365.6" font-family="Arial" font-size="14.00">(From fork)</text>
</g>
<!-- public_repo&#45;&gt;gha_on_pull_request_from_fork -->
<g id="edge28" class="edge">
<title>public_repo&#45;&gt;gha_on_pull_request_from_fork</title>
<path fill="none" stroke="#2b303a" d="M322.68,-554.22C296.24,-521.63 244.89,-458.33 211.73,-417.46"/>
<polygon fill="#2b303a" stroke="#2b303a" points="214.51,-415.33 205.49,-409.76 209.08,-419.74 214.51,-415.33"/>
</g>
<!-- gha_on_pull_request_target_from_fork -->
<g id="node6" class="node">
<title>gha_on_pull_request_target_from_fork</title>
<path fill="#d2d5dd" stroke="none" d="M401.56,-417.6C401.56,-417.6 277.84,-417.6 277.84,-417.6 271.84,-417.6 265.84,-411.6 265.84,-405.6 265.84,-405.6 265.84,-350.8 265.84,-350.8 265.84,-344.8 271.84,-338.8 277.84,-338.8 277.84,-338.8 401.56,-338.8 401.56,-338.8 407.56,-338.8 413.56,-344.8 413.56,-350.8 413.56,-350.8 413.56,-405.6 413.56,-405.6 413.56,-411.6 407.56,-417.6 401.56,-417.6"/>
<text text-anchor="middle" x="339.7" y="-390.8" font-family="Arial" font-size="14.00">pull_request_target</text>
<text text-anchor="middle" x="339.7" y="-374" font-family="Arial" font-size="14.00">event</text>
<text text-anchor="middle" x="339.7" y="-357.2" font-family="Arial" font-size="14.00">(From fork)</text>
</g>
<!-- public_repo&#45;&gt;gha_on_pull_request_target_from_fork -->
<g id="edge29" class="edge">
<title>public_repo&#45;&gt;gha_on_pull_request_target_from_fork</title>
<path fill="none" stroke="#2b303a" d="M339.7,-554.22C339.7,-524.5 339.7,-469.23 339.7,-428.73"/>
<polygon fill="#2b303a" stroke="#2b303a" points="343.2,-428.98 339.7,-418.98 336.2,-428.98 343.2,-428.98"/>
</g>
<!-- gha_on_pull_request_from_branch -->
<g id="node7" class="node">
<title>gha_on_pull_request_from_branch</title>
<path fill="#d2d5dd" stroke="none" d="M547.11,-499.5C547.11,-499.5 428.29,-499.5 428.29,-499.5 422.29,-499.5 416.29,-493.5 416.29,-487.5 416.29,-487.5 416.29,-466.9 416.29,-466.9 416.29,-460.9 422.29,-454.9 428.29,-454.9 428.29,-454.9 547.11,-454.9 547.11,-454.9 553.11,-454.9 559.11,-460.9 559.11,-466.9 559.11,-466.9 559.11,-487.5 559.11,-487.5 559.11,-493.5 553.11,-499.5 547.11,-499.5"/>
<text text-anchor="middle" x="487.7" y="-473" font-family="Arial" font-size="14.00">pull_request event</text>
</g>
<!-- private_repo&#45;&gt;gha_on_pull_request_from_branch -->
<g id="edge30" class="edge">
<title>private_repo&#45;&gt;gha_on_pull_request_from_branch</title>
<path fill="none" stroke="#2b303a" d="M487.7,-554.15C487.7,-541.44 487.7,-524.98 487.7,-510.63"/>
<polygon fill="#2b303a" stroke="#2b303a" points="491.2,-510.72 487.7,-500.72 484.2,-510.72 491.2,-510.72"/>
</g>
<!-- private_repo&#45;&gt;has_perm_to_create_new_repo -->
<!-- gha_on_pull_request_from_fork&#45;&gt;gha_on_pull_request_target_from_fork -->
<!-- convince_maintainer -->
<g id="node11" class="node">
<title>convince_maintainer</title>
<path fill="#ff92cc" stroke="none" d="M109.6,-310.1C109.6,-310.1 11.8,-310.1 11.8,-310.1 5.8,-310.1 -0.2,-304.1 -0.2,-298.1 -0.2,-298.1 -0.2,-226.7 -0.2,-226.7 -0.2,-220.7 5.8,-214.7 11.8,-214.7 11.8,-214.7 109.6,-214.7 109.6,-214.7 115.6,-214.7 121.6,-220.7 121.6,-226.7 121.6,-226.7 121.6,-298.1 121.6,-298.1 121.6,-304.1 115.6,-310.1 109.6,-310.1"/>
<text text-anchor="middle" x="60.7" y="-283.4" font-family="Arial" font-size="14.00">Convince</text>
<text text-anchor="middle" x="60.7" y="-266.6" font-family="Arial" font-size="14.00">maintainer to</text>
<text text-anchor="middle" x="60.7" y="-249.8" font-family="Arial" font-size="14.00">accept pipeline</text>
<text text-anchor="middle" x="60.7" y="-233" font-family="Arial" font-size="14.00">changes</text>
</g>
<!-- gha_on_pull_request_from_fork&#45;&gt;convince_maintainer -->
<g id="edge12" class="edge">
<title>gha_on_pull_request_from_fork&#45;&gt;convince_maintainer</title>
<path fill="none" stroke="#2b303a" d="M149.8,-347.89C140.06,-338.66 128.97,-328.14 118,-317.74"/>
<polygon fill="#2b303a" stroke="#2b303a" points="120.42,-315.21 110.76,-310.87 115.61,-320.29 120.42,-315.21"/>
</g>
<!-- use_sast -->
<g id="node21" class="node">
<title>use_sast</title>
<path fill="#b9d6f2" stroke="none" d="M216.55,-284.7C216.55,-284.7 146.85,-284.7 146.85,-284.7 140.85,-284.7 134.85,-278.7 134.85,-272.7 134.85,-272.7 134.85,-252.1 134.85,-252.1 134.85,-246.1 140.85,-240.1 146.85,-240.1 146.85,-240.1 216.55,-240.1 216.55,-240.1 222.55,-240.1 228.55,-246.1 228.55,-252.1 228.55,-252.1 228.55,-272.7 228.55,-272.7 228.55,-278.7 222.55,-284.7 216.55,-284.7"/>
<text text-anchor="middle" x="181.7" y="-258.2" font-family="Arial" font-size="14.00">Use SAST</text>
</g>
<!-- gha_on_pull_request_from_fork&#45;&gt;use_sast -->
<g id="edge22" class="edge">
<title>gha_on_pull_request_from_fork&#45;&gt;use_sast</title>
<path fill="none" stroke="#2b303a" d="M180.96,-347.89C181.1,-331.89 181.27,-312.04 181.42,-295.61"/>
<polygon fill="#2b303a" stroke="#2b303a" points="184.91,-295.89 181.5,-285.86 177.91,-295.83 184.91,-295.89"/>
</g>
<!-- avoid_risky_pr_target_checkout -->
<g id="node22" class="node">
<title>avoid_risky_pr_target_checkout</title>
<path fill="#b9d6f2" stroke="none" d="M349.22,-301.8C349.22,-301.8 254.18,-301.8 254.18,-301.8 248.18,-301.8 242.18,-295.8 242.18,-289.8 242.18,-289.8 242.18,-235 242.18,-235 242.18,-229 248.18,-223 254.18,-223 254.18,-223 349.22,-223 349.22,-223 355.22,-223 361.22,-229 361.22,-235 361.22,-235 361.22,-289.8 361.22,-289.8 361.22,-295.8 355.22,-301.8 349.22,-301.8"/>
<text text-anchor="middle" x="301.7" y="-275" font-family="Arial" font-size="14.00">Avoid risky PR</text>
<text text-anchor="middle" x="301.7" y="-258.2" font-family="Arial" font-size="14.00">target code</text>
<text text-anchor="middle" x="301.7" y="-241.4" font-family="Arial" font-size="14.00">checkout</text>
</g>
<!-- gha_on_pull_request_target_from_fork&#45;&gt;avoid_risky_pr_target_checkout -->
<g id="edge23" class="edge">
<title>gha_on_pull_request_target_from_fork&#45;&gt;avoid_risky_pr_target_checkout</title>
<path fill="none" stroke="#2b303a" d="M326.94,-338.99C324.09,-330.45 321.03,-321.28 318.05,-312.38"/>
<polygon fill="#2b303a" stroke="#2b303a" points="321.46,-311.52 314.97,-303.14 314.82,-313.73 321.46,-311.52"/>
</g>
<!-- repo_has_no_branch_protection -->
<g id="node8" class="node">
<title>repo_has_no_branch_protection</title>
<path fill="#d2d5dd" stroke="none" d="M521.84,-408.8C521.84,-408.8 451.56,-408.8 451.56,-408.8 445.56,-408.8 439.56,-402.8 439.56,-396.8 439.56,-396.8 439.56,-359.6 439.56,-359.6 439.56,-353.6 445.56,-347.6 451.56,-347.6 451.56,-347.6 521.84,-347.6 521.84,-347.6 527.84,-347.6 533.84,-353.6 533.84,-359.6 533.84,-359.6 533.84,-396.8 533.84,-396.8 533.84,-402.8 527.84,-408.8 521.84,-408.8"/>
<text text-anchor="middle" x="486.7" y="-382.4" font-family="Arial" font-size="14.00">No Branch</text>
<text text-anchor="middle" x="486.7" y="-365.6" font-family="Arial" font-size="14.00">Protection</text>
</g>
<!-- gha_on_pull_request_from_branch&#45;&gt;repo_has_no_branch_protection -->
<g id="edge31" class="edge">
<title>gha_on_pull_request_from_branch&#45;&gt;repo_has_no_branch_protection</title>
<path fill="none" stroke="#2b303a" d="M487.48,-455.15C487.38,-444.85 487.24,-432.08 487.12,-419.97"/>
<polygon fill="#2b303a" stroke="#2b303a" points="490.62,-420.15 487.02,-410.18 483.62,-420.22 490.62,-420.15"/>
</g>
<!-- repo_has_sufficient_branch_protection -->
<g id="node9" class="node">
<title>repo_has_sufficient_branch_protection</title>
<path fill="#d2d5dd" stroke="none" d="M669.53,-408.8C669.53,-408.8 559.87,-408.8 559.87,-408.8 553.87,-408.8 547.87,-402.8 547.87,-396.8 547.87,-396.8 547.87,-359.6 547.87,-359.6 547.87,-353.6 553.87,-347.6 559.87,-347.6 559.87,-347.6 669.53,-347.6 669.53,-347.6 675.53,-347.6 681.53,-353.6 681.53,-359.6 681.53,-359.6 681.53,-396.8 681.53,-396.8 681.53,-402.8 675.53,-408.8 669.53,-408.8"/>
<text text-anchor="middle" x="614.7" y="-382.4" font-family="Arial" font-size="14.00">Sufficient Branch</text>
<text text-anchor="middle" x="614.7" y="-365.6" font-family="Arial" font-size="14.00">Protection</text>
</g>
<!-- gha_on_pull_request_from_branch&#45;&gt;repo_has_sufficient_branch_protection -->
<g id="edge32" class="edge">
<title>gha_on_pull_request_from_branch&#45;&gt;repo_has_sufficient_branch_protection</title>
<path fill="none" stroke="#2b303a" d="M515.57,-454.91C530.74,-443.33 549.93,-428.67 567.37,-415.35"/>
<polygon fill="#2b303a" stroke="#2b303a" points="569.27,-418.3 575.09,-409.45 565.02,-412.74 569.27,-418.3"/>
</g>
<!-- repo_has_no_branch_protection&#45;&gt;repo_has_sufficient_branch_protection -->
<!-- pwn_build_artifact -->
<g id="node24" class="node">
<title>pwn_build_artifact</title>
<path fill="#5f00c2" stroke="none" d="M443.07,-61.4C443.07,-61.4 324.33,-61.4 324.33,-61.4 318.33,-61.4 312.33,-55.4 312.33,-49.4 312.33,-49.4 312.33,-12.2 312.33,-12.2 312.33,-6.2 318.33,-0.2 324.33,-0.2 324.33,-0.2 443.07,-0.2 443.07,-0.2 449.07,-0.2 455.07,-6.2 455.07,-12.2 455.07,-12.2 455.07,-49.4 455.07,-49.4 455.07,-55.4 449.07,-61.4 443.07,-61.4"/>
<text text-anchor="middle" x="383.7" y="-35" font-family="Arial" font-size="14.00" fill="#ffffff">Compromise Build</text>
<text text-anchor="middle" x="383.7" y="-18.2" font-family="Arial" font-size="14.00" fill="#ffffff">artifact</text>
</g>
<!-- repo_has_no_branch_protection&#45;&gt;pwn_build_artifact -->
<g id="edge7" class="edge">
<title>repo_has_no_branch_protection&#45;&gt;pwn_build_artifact</title>
<path fill="none" stroke="#2b303a" d="M439.89,-352.64C424,-341.8 407.95,-327.5 398.7,-310 377.54,-269.96 379.31,-139.65 381.79,-72.55"/>
<polygon fill="#2b303a" stroke="#2b303a" points="385.28,-72.82 382.17,-62.69 378.28,-72.54 385.28,-72.82"/>
<text text-anchor="middle" x="358.01" y="-212" font-family="Arial" font-size="12.00" fill="#010065">#yolosec</text>
</g>
<!-- repo_has_sufficient_branch_protection&#45;&gt;convince_maintainer -->
<g id="edge11" class="edge">
<title>repo_has_sufficient_branch_protection&#45;&gt;convince_maintainer</title>
<path fill="none" stroke="#2b303a" d="M564.05,-347.69C556.42,-344.24 548.5,-341.19 540.7,-339 367.07,-290.33 303.78,-367.95 131.98,-311.14"/>
<polygon fill="#2b303a" stroke="#2b303a" points="133.34,-307.91 122.74,-307.98 131.07,-314.53 133.34,-307.91"/>
</g>
<!-- exfil_repo_secrets -->
<g id="node14" class="node">
<title>exfil_repo_secrets</title>
<path fill="#ff92cc" stroke="none" d="M532.19,-293C532.19,-293 417.21,-293 417.21,-293 411.21,-293 405.21,-287 405.21,-281 405.21,-281 405.21,-243.8 405.21,-243.8 405.21,-237.8 411.21,-231.8 417.21,-231.8 417.21,-231.8 532.19,-231.8 532.19,-231.8 538.19,-231.8 544.19,-237.8 544.19,-243.8 544.19,-243.8 544.19,-281 544.19,-281 544.19,-287 538.19,-293 532.19,-293"/>
<text text-anchor="middle" x="474.7" y="-266.6" font-family="Arial" font-size="14.00">Exfiltrate</text>
<text text-anchor="middle" x="474.7" y="-249.8" font-family="Arial" font-size="14.00">repo&#45;level secrets</text>
</g>
<!-- repo_has_sufficient_branch_protection&#45;&gt;exfil_repo_secrets -->
<g id="edge15" class="edge">
<title>repo_has_sufficient_branch_protection&#45;&gt;exfil_repo_secrets</title>
<path fill="none" stroke="#2b303a" d="M578.65,-347.89C560.6,-333.23 538.59,-315.33 519.47,-299.79"/>
<polygon fill="#2b303a" stroke="#2b303a" points="521.77,-297.15 511.81,-293.56 517.36,-302.59 521.77,-297.15"/>
</g>
<!-- exfil_pat -->
<g id="node16" class="node">
<title>exfil_pat</title>
<path fill="#ff92cc" stroke="none" d="M659.28,-284.7C659.28,-284.7 570.12,-284.7 570.12,-284.7 564.12,-284.7 558.12,-278.7 558.12,-272.7 558.12,-272.7 558.12,-252.1 558.12,-252.1 558.12,-246.1 564.12,-240.1 570.12,-240.1 570.12,-240.1 659.28,-240.1 659.28,-240.1 665.28,-240.1 671.28,-246.1 671.28,-252.1 671.28,-252.1 671.28,-272.7 671.28,-272.7 671.28,-278.7 665.28,-284.7 659.28,-284.7"/>
<text text-anchor="middle" x="614.7" y="-258.2" font-family="Arial" font-size="14.00">Exfiltrate PAT</text>
</g>
<!-- repo_has_sufficient_branch_protection&#45;&gt;exfil_pat -->
<g id="edge17" class="edge">
<title>repo_has_sufficient_branch_protection&#45;&gt;exfil_pat</title>
<path fill="none" stroke="#2b303a" d="M614.7,-347.89C614.7,-331.89 614.7,-312.04 614.7,-295.61"/>
<polygon fill="#2b303a" stroke="#2b303a" points="618.2,-295.86 614.7,-285.86 611.2,-295.86 618.2,-295.86"/>
</g>
<!-- gha_use_env_prot_rule -->
<g id="node19" class="node">
<title>gha_use_env_prot_rule</title>
<path fill="#b9d6f2" stroke="none" d="M808.58,-293C808.58,-293 696.82,-293 696.82,-293 690.82,-293 684.82,-287 684.82,-281 684.82,-281 684.82,-243.8 684.82,-243.8 684.82,-237.8 690.82,-231.8 696.82,-231.8 696.82,-231.8 808.58,-231.8 808.58,-231.8 814.58,-231.8 820.58,-237.8 820.58,-243.8 820.58,-243.8 820.58,-281 820.58,-281 820.58,-287 814.58,-293 808.58,-293"/>
<text text-anchor="middle" x="752.7" y="-266.6" font-family="Arial" font-size="14.00">Use Environment</text>
<text text-anchor="middle" x="752.7" y="-249.8" font-family="Arial" font-size="14.00">Protection Rule</text>
</g>
<!-- repo_has_sufficient_branch_protection&#45;&gt;gha_use_env_prot_rule -->
<g id="edge20" class="edge">
<title>repo_has_sufficient_branch_protection&#45;&gt;gha_use_env_prot_rule</title>
<path fill="none" stroke="#2b303a" d="M650.24,-347.89C668.03,-333.23 689.73,-315.33 708.57,-299.79"/>
<polygon fill="#2b303a" stroke="#2b303a" points="710.63,-302.63 716.11,-293.57 706.17,-297.23 710.63,-302.63"/>
</g>
<!-- gha_use_oidc_with_branch_filter -->
<g id="node20" class="node">
<title>gha_use_oidc_with_branch_filter</title>
<path fill="#b9d6f2" stroke="none" d="M975.08,-293C975.08,-293 846.32,-293 846.32,-293 840.32,-293 834.32,-287 834.32,-281 834.32,-281 834.32,-243.8 834.32,-243.8 834.32,-237.8 840.32,-231.8 846.32,-231.8 846.32,-231.8 975.08,-231.8 975.08,-231.8 981.08,-231.8 987.08,-237.8 987.08,-243.8 987.08,-243.8 987.08,-281 987.08,-281 987.08,-287 981.08,-293 975.08,-293"/>
<text text-anchor="middle" x="910.7" y="-266.6" font-family="Arial" font-size="14.00">Use OIDC with &#39;sub&#39;</text>
<text text-anchor="middle" x="910.7" y="-249.8" font-family="Arial" font-size="14.00">branch filter</text>
</g>
<!-- repo_has_sufficient_branch_protection&#45;&gt;gha_use_oidc_with_branch_filter -->
<g id="edge21" class="edge">
<title>repo_has_sufficient_branch_protection&#45;&gt;gha_use_oidc_with_branch_filter</title>
<path fill="none" stroke="#2b303a" d="M681.23,-360.03C723.89,-348.09 780.02,-330.64 827.7,-310 835.7,-306.54 843.92,-302.52 851.94,-298.33"/>
<polygon fill="#2b303a" stroke="#2b303a" points="853.46,-301.49 860.62,-293.68 850.15,-295.32 853.46,-301.49"/>
</g>
<!-- use_cache_isolation -->
<g id="node23" class="node">
<title>use_cache_isolation</title>
<path fill="#b9d6f2" stroke="none" d="M1138.6,-284.7C1138.6,-284.7 1012.8,-284.7 1012.8,-284.7 1006.8,-284.7 1000.8,-278.7 1000.8,-272.7 1000.8,-272.7 1000.8,-252.1 1000.8,-252.1 1000.8,-246.1 1006.8,-240.1 1012.8,-240.1 1012.8,-240.1 1138.6,-240.1 1138.6,-240.1 1144.6,-240.1 1150.6,-246.1 1150.6,-252.1 1150.6,-252.1 1150.6,-272.7 1150.6,-272.7 1150.6,-278.7 1144.6,-284.7 1138.6,-284.7"/>
<text text-anchor="middle" x="1075.7" y="-258.2" font-family="Arial" font-size="14.00">Use cache isolation</text>
</g>
<!-- repo_has_sufficient_branch_protection&#45;&gt;use_cache_isolation -->
<g id="edge24" class="edge">
<title>repo_has_sufficient_branch_protection&#45;&gt;use_cache_isolation</title>
<path fill="none" stroke="#2b303a" d="M681.52,-372.27C758.65,-365.02 888.41,-347.97 993.7,-310 1007.56,-305 1021.8,-297.76 1034.45,-290.48"/>
<polygon fill="#2b303a" stroke="#2b303a" points="1036.11,-293.56 1042.91,-285.44 1032.52,-287.55 1036.11,-293.56"/>
</g>
<!-- create_new_repo -->
<g id="node18" class="node">
<title>create_new_repo</title>
<path fill="#ff92cc" stroke="none" d="M943.29,-507.8C943.29,-507.8 868.11,-507.8 868.11,-507.8 862.11,-507.8 856.11,-501.8 856.11,-495.8 856.11,-495.8 856.11,-458.6 856.11,-458.6 856.11,-452.6 862.11,-446.6 868.11,-446.6 868.11,-446.6 943.29,-446.6 943.29,-446.6 949.29,-446.6 955.29,-452.6 955.29,-458.6 955.29,-458.6 955.29,-495.8 955.29,-495.8 955.29,-501.8 949.29,-507.8 943.29,-507.8"/>
<text text-anchor="middle" x="905.7" y="-481.4" font-family="Arial" font-size="14.00">Create new</text>
<text text-anchor="middle" x="905.7" y="-464.6" font-family="Arial" font-size="14.00">repository</text>
</g>
<!-- has_perm_to_create_new_repo&#45;&gt;create_new_repo -->
<g id="edge19" class="edge">
<title>has_perm_to_create_new_repo&#45;&gt;create_new_repo</title>
<path fill="none" stroke="#2b303a" d="M709.59,-549.71C751.89,-534.29 805.28,-514.82 845.66,-500.09"/>
<polygon fill="#2b303a" stroke="#2b303a" points="846.81,-503.4 855,-496.69 844.41,-496.82 846.81,-503.4"/>
</g>
<!-- convince_maintainer&#45;&gt;exfil_repo_secrets -->
<!-- convince_maintainer&#45;&gt;use_sast -->
<!-- convince_maintainer&#45;&gt;pwn_build_artifact -->
<g id="edge1" class="edge">
<title>convince_maintainer&#45;&gt;pwn_build_artifact</title>
<path fill="none" stroke="#2b303a" d="M51.85,-214.75C47.47,-176.52 48.45,-123.55 78.7,-90.6 108.13,-58.54 221.7,-43.53 301.6,-36.82"/>
<polygon fill="#2b303a" stroke="#2b303a" points="301.45,-40.34 311.13,-36.05 300.88,-33.37 301.45,-40.34"/>
</g>
<!-- gha_injection_vuln -->
<g id="node12" class="node">
<title>gha_injection_vuln</title>
<path fill="#ff92cc" stroke="none" d="M199.48,-168.8C199.48,-168.8 97.92,-168.8 97.92,-168.8 91.92,-168.8 85.92,-162.8 85.92,-156.8 85.92,-156.8 85.92,-119.6 85.92,-119.6 85.92,-113.6 91.92,-107.6 97.92,-107.6 97.92,-107.6 199.48,-107.6 199.48,-107.6 205.48,-107.6 211.48,-113.6 211.48,-119.6 211.48,-119.6 211.48,-156.8 211.48,-156.8 211.48,-162.8 205.48,-168.8 199.48,-168.8"/>
<text text-anchor="middle" x="148.7" y="-142.4" font-family="Arial" font-size="14.00">Exploit injection</text>
<text text-anchor="middle" x="148.7" y="-125.6" font-family="Arial" font-size="14.00">vulnerability</text>
</g>
<!-- gha_injection_vuln&#45;&gt;pwn_build_artifact -->
<g id="edge2" class="edge">
<title>gha_injection_vuln&#45;&gt;pwn_build_artifact</title>
<path fill="none" stroke="#2b303a" d="M189.52,-107.62C198.85,-101.54 208.91,-95.51 218.7,-90.6 244.98,-77.42 274.94,-65.81 302.05,-56.46"/>
<polygon fill="#2b303a" stroke="#2b303a" points="302.9,-59.87 311.25,-53.35 300.65,-53.24 302.9,-59.87"/>
</g>
<!-- gha_dangerous_pr_target -->
<g id="node13" class="node">
<title>gha_dangerous_pr_target</title>
<path fill="#ff92cc" stroke="none" d="M350.1,-185.9C350.1,-185.9 237.3,-185.9 237.3,-185.9 231.3,-185.9 225.3,-179.9 225.3,-173.9 225.3,-173.9 225.3,-102.5 225.3,-102.5 225.3,-96.5 231.3,-90.5 237.3,-90.5 237.3,-90.5 350.1,-90.5 350.1,-90.5 356.1,-90.5 362.1,-96.5 362.1,-102.5 362.1,-102.5 362.1,-173.9 362.1,-173.9 362.1,-179.9 356.1,-185.9 350.1,-185.9"/>
<text text-anchor="middle" x="293.7" y="-159.2" font-family="Arial" font-size="14.00">Exploit using</text>
<text text-anchor="middle" x="293.7" y="-142.4" font-family="Arial" font-size="14.00">elevated</text>
<text text-anchor="middle" x="293.7" y="-125.6" font-family="Arial" font-size="14.00">GITHUB_TOKEN</text>
<text text-anchor="middle" x="293.7" y="-108.8" font-family="Arial" font-size="14.00">privileges</text>
</g>
<!-- gha_dangerous_pr_target&#45;&gt;pwn_build_artifact -->
<g id="edge3" class="edge">
<title>gha_dangerous_pr_target&#45;&gt;pwn_build_artifact</title>
<path fill="none" stroke="#2b303a" d="M333.44,-90.66C339.46,-83.61 345.62,-76.4 351.46,-69.56"/>
<polygon fill="#2b303a" stroke="#2b303a" points="353.84,-72.16 357.67,-62.28 348.52,-67.61 353.84,-72.16"/>
</g>
<!-- exfil_repo_secrets&#45;&gt;exfil_pat -->
<!-- exfil_repo_secrets&#45;&gt;pwn_build_artifact -->
<g id="edge4" class="edge">
<title>exfil_repo_secrets&#45;&gt;pwn_build_artifact</title>
<path fill="none" stroke="#2b303a" d="M456.53,-231.93C448.56,-218.22 439.48,-201.51 432.7,-185.8 416.55,-148.41 402.96,-103.9 394.22,-72.37"/>
<polygon fill="#2b303a" stroke="#2b303a" points="397.63,-71.57 391.62,-62.84 390.88,-73.41 397.63,-71.57"/>
</g>
<!-- pivot -->
<g id="node25" class="node">
<title>pivot</title>
<path fill="#5f00c2" stroke="none" d="M719.19,-61.4C719.19,-61.4 632.21,-61.4 632.21,-61.4 626.21,-61.4 620.21,-55.4 620.21,-49.4 620.21,-49.4 620.21,-12.2 620.21,-12.2 620.21,-6.2 626.21,-0.2 632.21,-0.2 632.21,-0.2 719.19,-0.2 719.19,-0.2 725.19,-0.2 731.19,-6.2 731.19,-12.2 731.19,-12.2 731.19,-49.4 731.19,-49.4 731.19,-55.4 725.19,-61.4 719.19,-61.4"/>
<text text-anchor="middle" x="675.7" y="-35" font-family="Arial" font-size="14.00" fill="#ffffff">Pivot to other</text>
<text text-anchor="middle" x="675.7" y="-18.2" font-family="Arial" font-size="14.00" fill="#ffffff">resources</text>
</g>
<!-- exfil_repo_secrets&#45;&gt;pivot -->
<g id="edge8" class="edge">
<title>exfil_repo_secrets&#45;&gt;pivot</title>
<path fill="none" stroke="#2b303a" d="M519.27,-232.01C529.39,-225.92 540.24,-219.84 550.7,-214.8 584.77,-198.39 604.93,-213.48 630.7,-185.8 660.67,-153.61 645.26,-132.78 657.7,-90.6 659.45,-84.65 661.34,-78.37 663.21,-72.21"/>
<polygon fill="#2b303a" stroke="#2b303a" points="666.5,-73.41 666.07,-62.82 659.81,-71.37 666.5,-73.41"/>
</g>
<!-- exfil_org_secrets -->
<g id="node15" class="node">
<title>exfil_org_secrets</title>
<path fill="#ff92cc" stroke="none" d="M875.9,-168.8C875.9,-168.8 769.5,-168.8 769.5,-168.8 763.5,-168.8 757.5,-162.8 757.5,-156.8 757.5,-156.8 757.5,-119.6 757.5,-119.6 757.5,-113.6 763.5,-107.6 769.5,-107.6 769.5,-107.6 875.9,-107.6 875.9,-107.6 881.9,-107.6 887.9,-113.6 887.9,-119.6 887.9,-119.6 887.9,-156.8 887.9,-156.8 887.9,-162.8 881.9,-168.8 875.9,-168.8"/>
<text text-anchor="middle" x="822.7" y="-142.4" font-family="Arial" font-size="14.00">Exiltrate</text>
<text text-anchor="middle" x="822.7" y="-125.6" font-family="Arial" font-size="14.00">org&#45;level secrets</text>
</g>
<!-- exfil_org_secrets&#45;&gt;pwn_build_artifact -->
<g id="edge5" class="edge">
<title>exfil_org_secrets&#45;&gt;pwn_build_artifact</title>
<path fill="none" stroke="#2b303a" d="M757.84,-121.38C720.64,-112.33 673.06,-100.78 630.7,-90.6 575.83,-77.41 514.06,-62.71 466.02,-51.3"/>
<polygon fill="#2b303a" stroke="#2b303a" points="467.07,-47.95 456.53,-49.05 465.45,-54.76 467.07,-47.95"/>
</g>
<!-- exfil_org_secrets&#45;&gt;pivot -->
<g id="edge9" class="edge">
<title>exfil_org_secrets&#45;&gt;pivot</title>
<path fill="none" stroke="#2b303a" d="M781.75,-107.84C764.53,-95.5 744.33,-81.01 726.2,-68.01"/>
<polygon fill="#2b303a" stroke="#2b303a" points="728.33,-65.23 718.17,-62.25 724.26,-70.92 728.33,-65.23"/>
</g>
<!-- exfil_pat&#45;&gt;gha_use_env_prot_rule -->
<!-- exfil_pat&#45;&gt;pivot -->
<g id="edge10" class="edge">
<title>exfil_pat&#45;&gt;pivot</title>
<path fill="none" stroke="#2b303a" d="M629.36,-240.26C638.75,-225.63 650.33,-205.36 656.7,-185.8 668.8,-148.67 673.29,-104.2 674.9,-72.62"/>
<polygon fill="#2b303a" stroke="#2b303a" points="678.4,-72.84 675.33,-62.7 671.4,-72.54 678.4,-72.84"/>
</g>
<!-- poison_cache -->
<g id="node17" class="node">
<title>poison_cache</title>
<path fill="#ff92cc" stroke="none" d="M611.33,-168.8C611.33,-168.8 508.07,-168.8 508.07,-168.8 502.07,-168.8 496.07,-162.8 496.07,-156.8 496.07,-156.8 496.07,-119.6 496.07,-119.6 496.07,-113.6 502.07,-107.6 508.07,-107.6 508.07,-107.6 611.33,-107.6 611.33,-107.6 617.33,-107.6 623.33,-113.6 623.33,-119.6 623.33,-119.6 623.33,-156.8 623.33,-156.8 623.33,-162.8 617.33,-168.8 611.33,-168.8"/>
<text text-anchor="middle" x="559.7" y="-142.4" font-family="Arial" font-size="14.00">Poison the build</text>
<text text-anchor="middle" x="559.7" y="-125.6" font-family="Arial" font-size="14.00">cache</text>
</g>
<!-- poison_cache&#45;&gt;pwn_build_artifact -->
<g id="edge6" class="edge">
<title>poison_cache&#45;&gt;pwn_build_artifact</title>
<path fill="none" stroke="#2b303a" d="M512.62,-107.66C503.39,-101.95 493.76,-96.05 484.7,-90.6 471.88,-82.89 458.08,-74.75 444.91,-67.06"/>
<polygon fill="#2b303a" stroke="#2b303a" points="446.7,-64.05 436.3,-62.04 443.18,-70.1 446.7,-64.05"/>
</g>
<!-- create_new_repo&#45;&gt;exfil_org_secrets -->
<g id="edge16" class="edge">
<title>create_new_repo&#45;&gt;exfil_org_secrets</title>
<path fill="none" stroke="#2b303a" d="M955.24,-454.94C1048.54,-411.96 1234.36,-310.69 1157.7,-214.8 1125.96,-175.09 987.86,-154.74 899.18,-145.58"/>
<polygon fill="#2b303a" stroke="#2b303a" points="899.62,-142.1 889.32,-144.59 898.92,-149.07 899.62,-142.1"/>
</g>
<!-- gha_use_env_prot_rule&#45;&gt;gha_use_oidc_with_branch_filter -->
<!-- gha_use_env_prot_rule&#45;&gt;pwn_build_artifact -->
<!-- gha_use_env_prot_rule&#45;&gt;pivot -->
<!-- gha_use_oidc_with_branch_filter&#45;&gt;use_cache_isolation -->
<!-- gha_use_oidc_with_branch_filter&#45;&gt;pwn_build_artifact -->
<!-- gha_use_oidc_with_branch_filter&#45;&gt;pivot -->
<!-- use_sast&#45;&gt;gha_injection_vuln -->
<g id="edge13" class="edge">
<title>use_sast&#45;&gt;gha_injection_vuln</title>
<path fill="none" stroke="#2b303a" d="M175.95,-240.11C171.43,-223.38 165.01,-199.59 159.53,-179.32"/>
<polygon fill="#2b303a" stroke="#2b303a" points="162.99,-178.68 157,-169.94 156.23,-180.51 162.99,-178.68"/>
</g>
<!-- avoid_risky_pr_target_checkout&#45;&gt;gha_dangerous_pr_target -->
<g id="edge14" class="edge">
<title>avoid_risky_pr_target_checkout&#45;&gt;gha_dangerous_pr_target</title>
<path fill="none" stroke="#2b303a" d="M299.19,-223.07C298.64,-214.7 298.05,-205.67 297.47,-196.74"/>
<polygon fill="#2b303a" stroke="#2b303a" points="300.98,-196.8 296.83,-187.05 293.99,-197.26 300.98,-196.8"/>
</g>
<!-- use_cache_isolation&#45;&gt;poison_cache -->
<g id="edge18" class="edge">
<title>use_cache_isolation&#45;&gt;poison_cache</title>
<path fill="none" stroke="#2b303a" d="M1045.14,-240.16C1030.27,-230.86 1011.74,-220.73 993.7,-214.8 890.38,-180.82 857.73,-205.17 750.7,-185.8 711.91,-178.78 669.24,-168.61 634.09,-159.56"/>
<polygon fill="#2b303a" stroke="#2b303a" points="634.98,-156.17 624.42,-157.05 633.22,-162.95 634.98,-156.17"/>
</g>
</g>
</svg>
