<?xml version="1.0" encoding="UTF-8" standalone="no"?>
<!DOCTYPE svg PUBLIC "-//W3C//DTD SVG 1.1//EN"
 "http://www.w3.org/Graphics/SVG/1.1/DTD/svg11.dtd">
<!-- Generated by graphviz version 7.0.0 (20221106.0712)
 -->
<!-- Pages: 1 -->
<svg width="1374pt" height="779pt"
 viewBox="0.00 0.00 1374.12 779.00" xmlns="http://www.w3.org/2000/svg" xmlns:xlink="http://www.w3.org/1999/xlink">
<g id="graph0" class="graph" transform="scale(1 1) rotate(0) translate(4 775)">
<polygon fill="white" stroke="none" points="-4,4 -4,-775 1370.12,-775 1370.12,4 -4,4"/>
<text text-anchor="middle" x="683.06" y="-754.4" font-family="Arial" font-size="14.00">Software Supply Chain Attack Tree &#45; Continuous Integration System</text>
<!-- reality -->
<g id="node1" class="node">
<title>reality</title>
<path fill="#272727" stroke="none" d="M714.17,-746.1C714.17,-746.1 667.58,-746.1 667.58,-746.1 661.58,-746.1 655.58,-740.1 655.58,-734.1 655.58,-734.1 655.58,-713.5 655.58,-713.5 655.58,-707.5 661.58,-701.5 667.58,-701.5 667.58,-701.5 714.17,-701.5 714.17,-701.5 720.17,-701.5 726.17,-707.5 726.17,-713.5 726.17,-713.5 726.17,-734.1 726.17,-734.1 726.17,-740.1 720.17,-746.1 714.17,-746.1"/>
<text text-anchor="middle" x="690.88" y="-719.6" font-family="Arial" font-size="14.00" fill="#ffffff">Reality</text>
</g>
<!-- uses_gha -->
<g id="node2" class="node">
<title>uses_gha</title>
<path fill="#d2d5dd" stroke="none" d="M757.53,-672.3C757.53,-672.3 624.22,-672.3 624.22,-672.3 618.22,-672.3 612.22,-666.3 612.22,-660.3 612.22,-660.3 612.22,-639.7 612.22,-639.7 612.22,-633.7 618.22,-627.7 624.22,-627.7 624.22,-627.7 757.53,-627.7 757.53,-627.7 763.53,-627.7 769.53,-633.7 769.53,-639.7 769.53,-639.7 769.53,-660.3 769.53,-660.3 769.53,-666.3 763.53,-672.3 757.53,-672.3"/>
<text text-anchor="middle" x="690.88" y="-645.8" font-family="Arial" font-size="14.00">Uses GitHub Actions</text>
</g>
<!-- reality&#45;&gt;uses_gha -->
<g id="edge27" class="edge">
<title>reality&#45;&gt;uses_gha</title>
<path fill="none" stroke="#2b303a" d="M690.88,-701.65C690.88,-696 690.88,-689.76 690.88,-683.65"/>
<polygon fill="#2b303a" stroke="#2b303a" points="694.38,-683.76 690.88,-673.76 687.38,-683.76 694.38,-683.76"/>
</g>
<!-- public_repo -->
<g id="node3" class="node">
<title>public_repo</title>
<path fill="#d2d5dd" stroke="none" d="M596.87,-581.7C596.87,-581.7 488.89,-581.7 488.89,-581.7 482.89,-581.7 476.89,-575.7 476.89,-569.7 476.89,-569.7 476.89,-549.1 476.89,-549.1 476.89,-543.1 482.89,-537.1 488.89,-537.1 488.89,-537.1 596.87,-537.1 596.87,-537.1 602.87,-537.1 608.87,-543.1 608.87,-549.1 608.87,-549.1 608.87,-569.7 608.87,-569.7 608.87,-575.7 602.87,-581.7 596.87,-581.7"/>
<text text-anchor="middle" x="542.88" y="-555.2" font-family="Arial" font-size="14.00">Public repository</text>
</g>
<!-- uses_gha&#45;&gt;public_repo -->
<g id="edge28" class="edge">
<title>uses_gha&#45;&gt;public_repo</title>
<path fill="none" stroke="#2b303a" d="M655.43,-627.78C635.18,-615.66 609.6,-600.34 587.94,-587.37"/>
<polygon fill="#2b303a" stroke="#2b303a" points="589.97,-584.51 579.59,-582.38 586.37,-590.52 589.97,-584.51"/>
</g>
<!-- private_repo -->
<g id="node4" class="node">
<title>private_repo</title>
<path fill="#d2d5dd" stroke="none" d="M747.31,-581.7C747.31,-581.7 634.45,-581.7 634.45,-581.7 628.45,-581.7 622.45,-575.7 622.45,-569.7 622.45,-569.7 622.45,-549.1 622.45,-549.1 622.45,-543.1 628.45,-537.1 634.45,-537.1 634.45,-537.1 747.31,-537.1 747.31,-537.1 753.31,-537.1 759.31,-543.1 759.31,-549.1 759.31,-549.1 759.31,-569.7 759.31,-569.7 759.31,-575.7 753.31,-581.7 747.31,-581.7"/>
<text text-anchor="middle" x="690.88" y="-555.2" font-family="Arial" font-size="14.00">Private repository</text>
</g>
<!-- uses_gha&#45;&gt;private_repo -->
<g id="edge29" class="edge">
<title>uses_gha&#45;&gt;private_repo</title>
<path fill="none" stroke="#2b303a" d="M690.88,-628C690.88,-617.49 690.88,-604.52 690.88,-592.77"/>
<polygon fill="#2b303a" stroke="#2b303a" points="694.38,-593.07 690.88,-583.07 687.38,-593.07 694.38,-593.07"/>
</g>
<!-- has_perm_to_create_new_repo -->
<g id="node10" class="node">
<title>has_perm_to_create_new_repo</title>
<path fill="#d2d5dd" stroke="none" d="M900.92,-598.8C900.92,-598.8 784.84,-598.8 784.84,-598.8 778.84,-598.8 772.84,-592.8 772.84,-586.8 772.84,-586.8 772.84,-532 772.84,-532 772.84,-526 778.84,-520 784.84,-520 784.84,-520 900.92,-520 900.92,-520 906.92,-520 912.92,-526 912.92,-532 912.92,-532 912.92,-586.8 912.92,-586.8 912.92,-592.8 906.92,-598.8 900.92,-598.8"/>
<text text-anchor="middle" x="842.88" y="-572" font-family="Arial" font-size="14.00">Has permission to</text>
<text text-anchor="middle" x="842.88" y="-555.2" font-family="Arial" font-size="14.00">create new</text>
<text text-anchor="middle" x="842.88" y="-538.4" font-family="Arial" font-size="14.00">repository</text>
</g>
<!-- uses_gha&#45;&gt;has_perm_to_create_new_repo -->
<g id="edge35" class="edge">
<title>uses_gha&#45;&gt;has_perm_to_create_new_repo</title>
<path fill="none" stroke="#2b303a" d="M727.28,-627.78C739.42,-620.71 753.41,-612.55 767.39,-604.4"/>
<polygon fill="#2b303a" stroke="#2b303a" points="768.85,-607.6 775.73,-599.54 765.33,-601.55 768.85,-607.6"/>
</g>
<!-- public_repo&#45;&gt;private_repo -->
<!-- gha_on_pull_request_from_fork -->
<g id="node5" class="node">
<title>gha_on_pull_request_from_fork</title>
<path fill="#d2d5dd" stroke="none" d="M443.29,-392C443.29,-392 324.46,-392 324.46,-392 318.46,-392 312.46,-386 312.46,-380 312.46,-380 312.46,-342.8 312.46,-342.8 312.46,-336.8 318.46,-330.8 324.46,-330.8 324.46,-330.8 443.29,-330.8 443.29,-330.8 449.29,-330.8 455.29,-336.8 455.29,-342.8 455.29,-342.8 455.29,-380 455.29,-380 455.29,-386 449.29,-392 443.29,-392"/>
<text text-anchor="middle" x="383.88" y="-365.6" font-family="Arial" font-size="14.00">pull_request event</text>
<text text-anchor="middle" x="383.88" y="-348.8" font-family="Arial" font-size="14.00">(From fork)</text>
</g>
<!-- public_repo&#45;&gt;gha_on_pull_request_from_fork -->
<g id="edge30" class="edge">
<title>public_repo&#45;&gt;gha_on_pull_request_from_fork</title>
<path fill="none" stroke="#2b303a" d="M525.86,-537.42C499.42,-504.83 448.07,-441.53 414.91,-400.66"/>
<polygon fill="#2b303a" stroke="#2b303a" points="417.69,-398.53 408.67,-392.96 412.25,-402.94 417.69,-398.53"/>
</g>
<!-- gha_on_pull_request_target_from_fork -->
<g id="node6" class="node">
<title>gha_on_pull_request_target_from_fork</title>
<path fill="#d2d5dd" stroke="none" d="M604.74,-400.8C604.74,-400.8 481.02,-400.8 481.02,-400.8 475.02,-400.8 469.02,-394.8 469.02,-388.8 469.02,-388.8 469.02,-334 469.02,-334 469.02,-328 475.02,-322 481.02,-322 481.02,-322 604.74,-322 604.74,-322 610.74,-322 616.74,-328 616.74,-334 616.74,-334 616.74,-388.8 616.74,-388.8 616.74,-394.8 610.74,-400.8 604.74,-400.8"/>
<text text-anchor="middle" x="542.88" y="-374" font-family="Arial" font-size="14.00">pull_request_target</text>
<text text-anchor="middle" x="542.88" y="-357.2" font-family="Arial" font-size="14.00">event</text>
<text text-anchor="middle" x="542.88" y="-340.4" font-family="Arial" font-size="14.00">(From fork)</text>
</g>
<!-- public_repo&#45;&gt;gha_on_pull_request_target_from_fork -->
<g id="edge31" class="edge">
<title>public_repo&#45;&gt;gha_on_pull_request_target_from_fork</title>
<path fill="none" stroke="#2b303a" d="M542.88,-537.42C542.88,-507.7 542.88,-452.43 542.88,-411.93"/>
<polygon fill="#2b303a" stroke="#2b303a" points="546.38,-412.18 542.88,-402.18 539.38,-412.18 546.38,-412.18"/>
</g>
<!-- gha_on_pull_request_from_branch -->
<g id="node7" class="node">
<title>gha_on_pull_request_from_branch</title>
<path fill="#d2d5dd" stroke="none" d="M750.29,-482.7C750.29,-482.7 631.46,-482.7 631.46,-482.7 625.46,-482.7 619.46,-476.7 619.46,-470.7 619.46,-470.7 619.46,-450.1 619.46,-450.1 619.46,-444.1 625.46,-438.1 631.46,-438.1 631.46,-438.1 750.29,-438.1 750.29,-438.1 756.29,-438.1 762.29,-444.1 762.29,-450.1 762.29,-450.1 762.29,-470.7 762.29,-470.7 762.29,-476.7 756.29,-482.7 750.29,-482.7"/>
<text text-anchor="middle" x="690.88" y="-456.2" font-family="Arial" font-size="14.00">pull_request event</text>
</g>
<!-- private_repo&#45;&gt;gha_on_pull_request_from_branch -->
<g id="edge32" class="edge">
<title>private_repo&#45;&gt;gha_on_pull_request_from_branch</title>
<path fill="none" stroke="#2b303a" d="M690.88,-537.35C690.88,-524.64 690.88,-508.18 690.88,-493.83"/>
<polygon fill="#2b303a" stroke="#2b303a" points="694.38,-493.92 690.88,-483.92 687.38,-493.92 694.38,-493.92"/>
</g>
<!-- private_repo&#45;&gt;has_perm_to_create_new_repo -->
<!-- gha_on_pull_request_from_fork&#45;&gt;gha_on_pull_request_target_from_fork -->
<!-- convince_maintainer -->
<g id="node13" class="node">
<title>convince_maintainer</title>
<path fill="#ff92cc" stroke="none" d="M581.78,-293.3C581.78,-293.3 483.98,-293.3 483.98,-293.3 477.98,-293.3 471.98,-287.3 471.98,-281.3 471.98,-281.3 471.98,-209.9 471.98,-209.9 471.98,-203.9 477.98,-197.9 483.98,-197.9 483.98,-197.9 581.78,-197.9 581.78,-197.9 587.78,-197.9 593.78,-203.9 593.78,-209.9 593.78,-209.9 593.78,-281.3 593.78,-281.3 593.78,-287.3 587.78,-293.3 581.78,-293.3"/>
<text text-anchor="middle" x="532.88" y="-266.6" font-family="Arial" font-size="14.00">Convince</text>
<text text-anchor="middle" x="532.88" y="-249.8" font-family="Arial" font-size="14.00">maintainer to</text>
<text text-anchor="middle" x="532.88" y="-233" font-family="Arial" font-size="14.00">accept pipeline</text>
<text text-anchor="middle" x="532.88" y="-216.2" font-family="Arial" font-size="14.00">changes</text>
</g>
<!-- gha_on_pull_request_from_fork&#45;&gt;convince_maintainer -->
<g id="edge14" class="edge">
<title>gha_on_pull_request_from_fork&#45;&gt;convince_maintainer</title>
<path fill="none" stroke="#2b303a" d="M422.25,-331.09C434.82,-321.5 449.19,-310.51 463.33,-299.72"/>
<polygon fill="#2b303a" stroke="#2b303a" points="465.06,-302.8 470.88,-293.95 460.81,-297.24 465.06,-302.8"/>
</g>
<!-- gha_injection_vuln -->
<g id="node11" class="node">
<title>gha_injection_vuln</title>
<path fill="#ff92cc" stroke="none" d="M198.65,-276.2C198.65,-276.2 97.1,-276.2 97.1,-276.2 91.1,-276.2 85.1,-270.2 85.1,-264.2 85.1,-264.2 85.1,-227 85.1,-227 85.1,-221 91.1,-215 97.1,-215 97.1,-215 198.65,-215 198.65,-215 204.65,-215 210.65,-221 210.65,-227 210.65,-227 210.65,-264.2 210.65,-264.2 210.65,-270.2 204.65,-276.2 198.65,-276.2"/>
<text text-anchor="middle" x="147.88" y="-249.8" font-family="Arial" font-size="14.00">Exploit injection</text>
<text text-anchor="middle" x="147.88" y="-233" font-family="Arial" font-size="14.00">vulnerability</text>
</g>
<!-- gha_on_pull_request_target_from_fork&#45;&gt;gha_injection_vuln -->
<g id="edge11" class="edge">
<title>gha_on_pull_request_target_from_fork&#45;&gt;gha_injection_vuln</title>
<path fill="none" stroke="#2b303a" d="M469.09,-324.44C466.68,-323.64 464.27,-322.89 461.88,-322.2 357.34,-292.17 321.06,-330.48 218.88,-293.2 210.98,-290.32 203.08,-286.41 195.57,-282.07"/>
<polygon fill="#2b303a" stroke="#2b303a" points="197.59,-279.21 187.24,-276.97 193.93,-285.18 197.59,-279.21"/>
</g>
<!-- gha_dangerous_pr_target -->
<g id="node12" class="node">
<title>gha_dangerous_pr_target</title>
<path fill="#ff92cc" stroke="none" d="M350.28,-293.3C350.28,-293.3 237.47,-293.3 237.47,-293.3 231.47,-293.3 225.47,-287.3 225.47,-281.3 225.47,-281.3 225.47,-209.9 225.47,-209.9 225.47,-203.9 231.47,-197.9 237.47,-197.9 237.47,-197.9 350.28,-197.9 350.28,-197.9 356.28,-197.9 362.28,-203.9 362.28,-209.9 362.28,-209.9 362.28,-281.3 362.28,-281.3 362.28,-287.3 356.28,-293.3 350.28,-293.3"/>
<text text-anchor="middle" x="293.88" y="-266.6" font-family="Arial" font-size="14.00">Exploit using</text>
<text text-anchor="middle" x="293.88" y="-249.8" font-family="Arial" font-size="14.00">elevated</text>
<text text-anchor="middle" x="293.88" y="-233" font-family="Arial" font-size="14.00">GITHUB_TOKEN</text>
<text text-anchor="middle" x="293.88" y="-216.2" font-family="Arial" font-size="14.00">privileges</text>
</g>
<!-- gha_on_pull_request_target_from_fork&#45;&gt;gha_dangerous_pr_target -->
<g id="edge12" class="edge">
<title>gha_on_pull_request_target_from_fork&#45;&gt;gha_dangerous_pr_target</title>
<path fill="none" stroke="#2b303a" d="M469.18,-325.58C466.72,-324.43 464.28,-323.31 461.88,-322.2 432.77,-308.79 400.71,-294.3 372.47,-281.62"/>
<polygon fill="#2b303a" stroke="#2b303a" points="374.19,-278.56 363.64,-277.66 371.33,-284.94 374.19,-278.56"/>
</g>
<!-- repo_has_no_branch_protection -->
<g id="node8" class="node">
<title>repo_has_no_branch_protection</title>
<path fill="#d2d5dd" stroke="none" d="M287.02,-392C287.02,-392 216.73,-392 216.73,-392 210.73,-392 204.73,-386 204.73,-380 204.73,-380 204.73,-342.8 204.73,-342.8 204.73,-336.8 210.73,-330.8 216.73,-330.8 216.73,-330.8 287.02,-330.8 287.02,-330.8 293.02,-330.8 299.02,-336.8 299.02,-342.8 299.02,-342.8 299.02,-380 299.02,-380 299.02,-386 293.02,-392 287.02,-392"/>
<text text-anchor="middle" x="251.88" y="-365.6" font-family="Arial" font-size="14.00">No Branch</text>
<text text-anchor="middle" x="251.88" y="-348.8" font-family="Arial" font-size="14.00">Protection</text>
</g>
<!-- gha_on_pull_request_from_branch&#45;&gt;repo_has_no_branch_protection -->
<g id="edge33" class="edge">
<title>gha_on_pull_request_from_branch&#45;&gt;repo_has_no_branch_protection</title>
<path fill="none" stroke="#2b303a" d="M619.82,-458.27C540.55,-454.82 409.8,-442.55 305.88,-400.6 303.54,-399.66 301.21,-398.6 298.9,-397.44"/>
<polygon fill="#2b303a" stroke="#2b303a" points="300.7,-394.44 290.26,-392.62 297.29,-400.55 300.7,-394.44"/>
</g>
<!-- repo_has_sufficient_branch_protection -->
<g id="node9" class="node">
<title>repo_has_sufficient_branch_protection</title>
<path fill="#d2d5dd" stroke="none" d="M752.71,-392C752.71,-392 643.04,-392 643.04,-392 637.04,-392 631.04,-386 631.04,-380 631.04,-380 631.04,-342.8 631.04,-342.8 631.04,-336.8 637.04,-330.8 643.04,-330.8 643.04,-330.8 752.71,-330.8 752.71,-330.8 758.71,-330.8 764.71,-336.8 764.71,-342.8 764.71,-342.8 764.71,-380 764.71,-380 764.71,-386 758.71,-392 752.71,-392"/>
<text text-anchor="middle" x="697.88" y="-365.6" font-family="Arial" font-size="14.00">Sufficient Branch</text>
<text text-anchor="middle" x="697.88" y="-348.8" font-family="Arial" font-size="14.00">Protection</text>
</g>
<!-- gha_on_pull_request_from_branch&#45;&gt;repo_has_sufficient_branch_protection -->
<g id="edge34" class="edge">
<title>gha_on_pull_request_from_branch&#45;&gt;repo_has_sufficient_branch_protection</title>
<path fill="none" stroke="#2b303a" d="M692.4,-438.35C693.14,-428.05 694.06,-415.28 694.93,-403.17"/>
<polygon fill="#2b303a" stroke="#2b303a" points="698.41,-403.61 695.64,-393.38 691.43,-403.1 698.41,-403.61"/>
</g>
<!-- repo_has_no_branch_protection&#45;&gt;repo_has_sufficient_branch_protection -->
<!-- pwn_build_artifact -->
<g id="node26" class="node">
<title>pwn_build_artifact</title>
<path fill="#5f00c2" stroke="none" d="M437.25,-61.4C437.25,-61.4 318.5,-61.4 318.5,-61.4 312.5,-61.4 306.5,-55.4 306.5,-49.4 306.5,-49.4 306.5,-12.2 306.5,-12.2 306.5,-6.2 312.5,-0.2 318.5,-0.2 318.5,-0.2 437.25,-0.2 437.25,-0.2 443.25,-0.2 449.25,-6.2 449.25,-12.2 449.25,-12.2 449.25,-49.4 449.25,-49.4 449.25,-55.4 443.25,-61.4 437.25,-61.4"/>
<text text-anchor="middle" x="377.88" y="-35" font-family="Arial" font-size="14.00" fill="#ffffff">Compromise Build</text>
<text text-anchor="middle" x="377.88" y="-18.2" font-family="Arial" font-size="14.00" fill="#ffffff">artifact</text>
</g>
<!-- repo_has_no_branch_protection&#45;&gt;pwn_build_artifact -->
<g id="edge7" class="edge">
<title>repo_has_no_branch_protection&#45;&gt;pwn_build_artifact</title>
<path fill="none" stroke="#2b303a" d="M204.82,-352.98C166.16,-344.61 112.35,-327.42 77.88,-293.2 12.13,-227.93 -30.94,-161.34 28.88,-90.6 62.34,-51.02 203.28,-38.07 295.5,-33.84"/>
<polygon fill="#2b303a" stroke="#2b303a" points="295.42,-37.35 305.26,-33.42 295.12,-30.36 295.42,-37.35"/>
</g>
<!-- repo_has_sufficient_branch_protection&#45;&gt;convince_maintainer -->
<g id="edge13" class="edge">
<title>repo_has_sufficient_branch_protection&#45;&gt;convince_maintainer</title>
<path fill="none" stroke="#2b303a" d="M655.39,-331.09C639.37,-320.05 620.69,-307.17 602.82,-294.84"/>
<polygon fill="#2b303a" stroke="#2b303a" points="605.04,-292.12 594.82,-289.32 601.06,-297.88 605.04,-292.12"/>
</g>
<!-- poison_cache -->
<g id="node14" class="node">
<title>poison_cache</title>
<path fill="#ff92cc" stroke="none" d="M749.5,-276.2C749.5,-276.2 646.25,-276.2 646.25,-276.2 640.25,-276.2 634.25,-270.2 634.25,-264.2 634.25,-264.2 634.25,-227 634.25,-227 634.25,-221 640.25,-215 646.25,-215 646.25,-215 749.5,-215 749.5,-215 755.5,-215 761.5,-221 761.5,-227 761.5,-227 761.5,-264.2 761.5,-264.2 761.5,-270.2 755.5,-276.2 749.5,-276.2"/>
<text text-anchor="middle" x="697.88" y="-249.8" font-family="Arial" font-size="14.00">Poison the build</text>
<text text-anchor="middle" x="697.88" y="-233" font-family="Arial" font-size="14.00">cache</text>
</g>
<!-- repo_has_sufficient_branch_protection&#45;&gt;poison_cache -->
<g id="edge15" class="edge">
<title>repo_has_sufficient_branch_protection&#45;&gt;poison_cache</title>
<path fill="none" stroke="#2b303a" d="M697.88,-331.09C697.88,-317.69 697.88,-301.58 697.88,-287.05"/>
<polygon fill="#2b303a" stroke="#2b303a" points="701.38,-287.32 697.88,-277.32 694.38,-287.32 701.38,-287.32"/>
</g>
<!-- exfil_repo_secrets -->
<g id="node15" class="node">
<title>exfil_repo_secrets</title>
<path fill="#ff92cc" stroke="none" d="M920.37,-276.2C920.37,-276.2 805.39,-276.2 805.39,-276.2 799.39,-276.2 793.39,-270.2 793.39,-264.2 793.39,-264.2 793.39,-227 793.39,-227 793.39,-221 799.39,-215 805.39,-215 805.39,-215 920.37,-215 920.37,-215 926.37,-215 932.37,-221 932.37,-227 932.37,-227 932.37,-264.2 932.37,-264.2 932.37,-270.2 926.37,-276.2 920.37,-276.2"/>
<text text-anchor="middle" x="862.88" y="-249.8" font-family="Arial" font-size="14.00">Exfiltrate</text>
<text text-anchor="middle" x="862.88" y="-233" font-family="Arial" font-size="14.00">repo&#45;level secrets</text>
</g>
<!-- repo_has_sufficient_branch_protection&#45;&gt;exfil_repo_secrets -->
<g id="edge16" class="edge">
<title>repo_has_sufficient_branch_protection&#45;&gt;exfil_repo_secrets</title>
<path fill="none" stroke="#2b303a" d="M740.37,-331.09C761.94,-316.22 788.32,-298.02 811.07,-282.33"/>
<polygon fill="#2b303a" stroke="#2b303a" points="812.75,-285.42 819,-276.86 808.78,-279.66 812.75,-285.42"/>
</g>
<!-- exfil_pat -->
<g id="node17" class="node">
<title>exfil_pat</title>
<path fill="#ff92cc" stroke="none" d="M1192.46,-267.9C1192.46,-267.9 1103.3,-267.9 1103.3,-267.9 1097.3,-267.9 1091.3,-261.9 1091.3,-255.9 1091.3,-255.9 1091.3,-235.3 1091.3,-235.3 1091.3,-229.3 1097.3,-223.3 1103.3,-223.3 1103.3,-223.3 1192.46,-223.3 1192.46,-223.3 1198.46,-223.3 1204.46,-229.3 1204.46,-235.3 1204.46,-235.3 1204.46,-255.9 1204.46,-255.9 1204.46,-261.9 1198.46,-267.9 1192.46,-267.9"/>
<text text-anchor="middle" x="1147.88" y="-241.4" font-family="Arial" font-size="14.00">Exfiltrate PAT</text>
</g>
<!-- repo_has_sufficient_branch_protection&#45;&gt;exfil_pat -->
<g id="edge18" class="edge">
<title>repo_has_sufficient_branch_protection&#45;&gt;exfil_pat</title>
<path fill="none" stroke="#2b303a" d="M764.64,-357.93C843.71,-352.98 978.03,-338.06 1083.88,-293.2 1094.79,-288.57 1105.62,-281.78 1115.17,-274.79"/>
<polygon fill="#2b303a" stroke="#2b303a" points="1117.26,-277.61 1123.06,-268.75 1113,-272.05 1117.26,-277.61"/>
</g>
<!-- create_new_repo -->
<g id="node18" class="node">
<title>create_new_repo</title>
<path fill="#ff92cc" stroke="none" d="M922.47,-491C922.47,-491 847.28,-491 847.28,-491 841.28,-491 835.28,-485 835.28,-479 835.28,-479 835.28,-441.8 835.28,-441.8 835.28,-435.8 841.28,-429.8 847.28,-429.8 847.28,-429.8 922.47,-429.8 922.47,-429.8 928.47,-429.8 934.47,-435.8 934.47,-441.8 934.47,-441.8 934.47,-479 934.47,-479 934.47,-485 928.47,-491 922.47,-491"/>
<text text-anchor="middle" x="884.88" y="-464.6" font-family="Arial" font-size="14.00">Create new</text>
<text text-anchor="middle" x="884.88" y="-447.8" font-family="Arial" font-size="14.00">repository</text>
</g>
<!-- has_perm_to_create_new_repo&#45;&gt;create_new_repo -->
<g id="edge19" class="edge">
<title>has_perm_to_create_new_repo&#45;&gt;create_new_repo</title>
<path fill="none" stroke="#2b303a" d="M859.48,-520.06C862.18,-513.82 864.98,-507.34 867.7,-501.07"/>
<polygon fill="#2b303a" stroke="#2b303a" points="870.79,-502.74 871.55,-492.17 864.37,-499.96 870.79,-502.74"/>
</g>
<!-- gha_injection_vuln&#45;&gt;gha_dangerous_pr_target -->
<!-- gha_sast_detects_injection -->
<g id="node22" class="node">
<title>gha_sast_detects_injection</title>
<path fill="#b9d6f2" stroke="none" d="M210.32,-160.4C210.32,-160.4 83.43,-160.4 83.43,-160.4 77.43,-160.4 71.43,-154.4 71.43,-148.4 71.43,-148.4 71.43,-111.2 71.43,-111.2 71.43,-105.2 77.43,-99.2 83.43,-99.2 83.43,-99.2 210.32,-99.2 210.32,-99.2 216.32,-99.2 222.32,-105.2 222.32,-111.2 222.32,-111.2 222.32,-148.4 222.32,-148.4 222.32,-154.4 216.32,-160.4 210.32,-160.4"/>
<text text-anchor="middle" x="146.88" y="-134" font-family="Arial" font-size="14.00">Use SAST to detect</text>
<text text-anchor="middle" x="146.88" y="-117.2" font-family="Arial" font-size="14.00">injection</text>
</g>
<!-- gha_injection_vuln&#45;&gt;gha_sast_detects_injection -->
<g id="edge23" class="edge">
<title>gha_injection_vuln&#45;&gt;gha_sast_detects_injection</title>
<path fill="none" stroke="#2b303a" d="M147.62,-215.29C147.5,-201.89 147.36,-185.78 147.23,-171.25"/>
<polygon fill="#2b303a" stroke="#2b303a" points="150.73,-171.49 147.15,-161.52 143.73,-171.55 150.73,-171.49"/>
</g>
<!-- gha_injection_vuln&#45;&gt;pwn_build_artifact -->
<g id="edge2" class="edge">
<title>gha_injection_vuln&#45;&gt;pwn_build_artifact</title>
<path fill="none" stroke="#2b303a" d="M89.3,-215.07C72.12,-203.26 55.39,-187.9 45.88,-169 30.21,-137.88 23.49,-117.3 45.88,-90.6 77.13,-53.32 207.76,-39.66 295.54,-34.67"/>
<polygon fill="#2b303a" stroke="#2b303a" points="295.52,-38.18 305.31,-34.14 295.14,-31.19 295.52,-38.18"/>
</g>
<!-- avoid_risky_pr_target_checkout -->
<g id="node23" class="node">
<title>avoid_risky_pr_target_checkout</title>
<path fill="#b9d6f2" stroke="none" d="M343.4,-169.2C343.4,-169.2 248.36,-169.2 248.36,-169.2 242.36,-169.2 236.36,-163.2 236.36,-157.2 236.36,-157.2 236.36,-102.4 236.36,-102.4 236.36,-96.4 242.36,-90.4 248.36,-90.4 248.36,-90.4 343.4,-90.4 343.4,-90.4 349.4,-90.4 355.4,-96.4 355.4,-102.4 355.4,-102.4 355.4,-157.2 355.4,-157.2 355.4,-163.2 349.4,-169.2 343.4,-169.2"/>
<text text-anchor="middle" x="295.88" y="-142.4" font-family="Arial" font-size="14.00">Avoid risky PR</text>
<text text-anchor="middle" x="295.88" y="-125.6" font-family="Arial" font-size="14.00">target code</text>
<text text-anchor="middle" x="295.88" y="-108.8" font-family="Arial" font-size="14.00">checkout</text>
</g>
<!-- gha_dangerous_pr_target&#45;&gt;avoid_risky_pr_target_checkout -->
<g id="edge24" class="edge">
<title>gha_dangerous_pr_target&#45;&gt;avoid_risky_pr_target_checkout</title>
<path fill="none" stroke="#2b303a" d="M294.7,-197.98C294.8,-192.15 294.9,-186.17 295.01,-180.29"/>
<polygon fill="#2b303a" stroke="#2b303a" points="298.5,-180.76 295.18,-170.7 291.5,-180.64 298.5,-180.76"/>
</g>
<!-- gha_dangerous_pr_target&#45;&gt;pwn_build_artifact -->
<g id="edge3" class="edge">
<title>gha_dangerous_pr_target&#45;&gt;pwn_build_artifact</title>
<path fill="none" stroke="#2b303a" d="M225.69,-201.26C223.08,-200.1 220.48,-199 217.88,-198 153.32,-173.06 109.02,-222.3 64.88,-169 42.65,-142.16 42.63,-117.42 64.88,-90.6 93.62,-55.95 212.44,-41.59 295.12,-35.73"/>
<polygon fill="#2b303a" stroke="#2b303a" points="295.28,-39.23 305.02,-35.06 294.8,-32.24 295.28,-39.23"/>
</g>
<!-- convince_maintainer&#45;&gt;poison_cache -->
<!-- two_person_review -->
<g id="node19" class="node">
<title>two_person_review</title>
<path fill="#b9d6f2" stroke="none" d="M594.14,-152.1C594.14,-152.1 471.61,-152.1 471.61,-152.1 465.61,-152.1 459.61,-146.1 459.61,-140.1 459.61,-140.1 459.61,-119.5 459.61,-119.5 459.61,-113.5 465.61,-107.5 471.61,-107.5 471.61,-107.5 594.14,-107.5 594.14,-107.5 600.14,-107.5 606.14,-113.5 606.14,-119.5 606.14,-119.5 606.14,-140.1 606.14,-140.1 606.14,-146.1 600.14,-152.1 594.14,-152.1"/>
<text text-anchor="middle" x="532.88" y="-125.6" font-family="Arial" font-size="14.00">Two&#45;person review</text>
</g>
<!-- convince_maintainer&#45;&gt;two_person_review -->
<g id="edge20" class="edge">
<title>convince_maintainer&#45;&gt;two_person_review</title>
<path fill="none" stroke="#2b303a" d="M532.88,-197.98C532.88,-186.39 532.88,-174.2 532.88,-163.44"/>
<polygon fill="#2b303a" stroke="#2b303a" points="536.38,-163.52 532.88,-153.52 529.38,-163.52 536.38,-163.52"/>
</g>
<!-- convince_maintainer&#45;&gt;pwn_build_artifact -->
<g id="edge1" class="edge">
<title>convince_maintainer&#45;&gt;pwn_build_artifact</title>
<path fill="none" stroke="#2b303a" d="M472.28,-225.15C444.93,-213.26 414.81,-195.19 396.88,-169 377.65,-140.93 373.87,-101.97 374.34,-72.74"/>
<polygon fill="#2b303a" stroke="#2b303a" points="377.84,-72.89 374.69,-62.78 370.84,-72.65 377.84,-72.89"/>
</g>
<!-- poison_cache&#45;&gt;exfil_repo_secrets -->
<!-- use_cache_isolation -->
<g id="node24" class="node">
<title>use_cache_isolation</title>
<path fill="#b9d6f2" stroke="none" d="M787.78,-152.1C787.78,-152.1 661.98,-152.1 661.98,-152.1 655.98,-152.1 649.98,-146.1 649.98,-140.1 649.98,-140.1 649.98,-119.5 649.98,-119.5 649.98,-113.5 655.98,-107.5 661.98,-107.5 661.98,-107.5 787.78,-107.5 787.78,-107.5 793.78,-107.5 799.78,-113.5 799.78,-119.5 799.78,-119.5 799.78,-140.1 799.78,-140.1 799.78,-146.1 793.78,-152.1 787.78,-152.1"/>
<text text-anchor="middle" x="724.88" y="-125.6" font-family="Arial" font-size="14.00">Use cache isolation</text>
</g>
<!-- poison_cache&#45;&gt;use_cache_isolation -->
<g id="edge25" class="edge">
<title>poison_cache&#45;&gt;use_cache_isolation</title>
<path fill="none" stroke="#2b303a" d="M704.83,-215.29C708.66,-199.13 713.43,-179.06 717.35,-162.53"/>
<polygon fill="#2b303a" stroke="#2b303a" points="720.65,-163.76 719.56,-153.22 713.84,-162.14 720.65,-163.76"/>
</g>
<!-- poison_cache&#45;&gt;pwn_build_artifact -->
<g id="edge6" class="edge">
<title>poison_cache&#45;&gt;pwn_build_artifact</title>
<path fill="none" stroke="#2b303a" d="M643.32,-215.08C629.76,-208.67 615.04,-202.48 600.88,-198 526.13,-174.34 487.02,-219.29 426.88,-169 422.94,-165.71 404.29,-111.41 391.17,-72.12"/>
<polygon fill="#2b303a" stroke="#2b303a" points="394.51,-71.06 388.03,-62.68 387.86,-73.27 394.51,-71.06"/>
</g>
<!-- exfil_repo_secrets&#45;&gt;exfil_pat -->
<!-- gha_use_env_prot_rule -->
<g id="node20" class="node">
<title>gha_use_env_prot_rule</title>
<path fill="#b9d6f2" stroke="none" d="M936.76,-160.4C936.76,-160.4 825,-160.4 825,-160.4 819,-160.4 813,-154.4 813,-148.4 813,-148.4 813,-111.2 813,-111.2 813,-105.2 819,-99.2 825,-99.2 825,-99.2 936.76,-99.2 936.76,-99.2 942.76,-99.2 948.76,-105.2 948.76,-111.2 948.76,-111.2 948.76,-148.4 948.76,-148.4 948.76,-154.4 942.76,-160.4 936.76,-160.4"/>
<text text-anchor="middle" x="880.88" y="-134" font-family="Arial" font-size="14.00">Use Environment</text>
<text text-anchor="middle" x="880.88" y="-117.2" font-family="Arial" font-size="14.00">Protection Rule</text>
</g>
<!-- exfil_repo_secrets&#45;&gt;gha_use_env_prot_rule -->
<g id="edge21" class="edge">
<title>exfil_repo_secrets&#45;&gt;gha_use_env_prot_rule</title>
<path fill="none" stroke="#2b303a" d="M867.51,-215.29C869.63,-201.89 872.18,-185.78 874.48,-171.25"/>
<polygon fill="#2b303a" stroke="#2b303a" points="877.92,-171.93 876.02,-161.5 871,-170.83 877.92,-171.93"/>
</g>
<!-- gha_use_oidc_with_branch_filter -->
<g id="node21" class="node">
<title>gha_use_oidc_with_branch_filter</title>
<path fill="#b9d6f2" stroke="none" d="M1103.26,-160.4C1103.26,-160.4 974.5,-160.4 974.5,-160.4 968.5,-160.4 962.5,-154.4 962.5,-148.4 962.5,-148.4 962.5,-111.2 962.5,-111.2 962.5,-105.2 968.5,-99.2 974.5,-99.2 974.5,-99.2 1103.26,-99.2 1103.26,-99.2 1109.26,-99.2 1115.26,-105.2 1115.26,-111.2 1115.26,-111.2 1115.26,-148.4 1115.26,-148.4 1115.26,-154.4 1109.26,-160.4 1103.26,-160.4"/>
<text text-anchor="middle" x="1038.88" y="-134" font-family="Arial" font-size="14.00">Use OIDC with &#39;sub&#39;</text>
<text text-anchor="middle" x="1038.88" y="-117.2" font-family="Arial" font-size="14.00">branch filter</text>
</g>
<!-- exfil_repo_secrets&#45;&gt;gha_use_oidc_with_branch_filter -->
<g id="edge22" class="edge">
<title>exfil_repo_secrets&#45;&gt;gha_use_oidc_with_branch_filter</title>
<path fill="none" stroke="#2b303a" d="M908.2,-215.29C931.31,-200.35 959.6,-182.06 983.94,-166.32"/>
<polygon fill="#2b303a" stroke="#2b303a" points="985.63,-169.4 992.13,-161.03 981.83,-163.52 985.63,-169.4"/>
</g>
<!-- exfil_repo_secrets&#45;&gt;pwn_build_artifact -->
<g id="edge4" class="edge">
<title>exfil_repo_secrets&#45;&gt;pwn_build_artifact</title>
<path fill="none" stroke="#2b303a" d="M812.04,-215.16C798.42,-208.46 783.42,-202.12 768.88,-198 701.03,-178.79 509.08,-211.59 452.88,-169 423.14,-146.47 441.07,-123.17 422.88,-90.6 419,-83.66 414.37,-76.63 409.57,-69.98"/>
<polygon fill="#2b303a" stroke="#2b303a" points="412.68,-68.29 403.89,-62.38 407.08,-72.48 412.68,-68.29"/>
</g>
<!-- pivot -->
<g id="node27" class="node">
<title>pivot</title>
<path fill="#5f00c2" stroke="none" d="M1354.37,-61.4C1354.37,-61.4 1267.39,-61.4 1267.39,-61.4 1261.39,-61.4 1255.39,-55.4 1255.39,-49.4 1255.39,-49.4 1255.39,-12.2 1255.39,-12.2 1255.39,-6.2 1261.39,-0.2 1267.39,-0.2 1267.39,-0.2 1354.37,-0.2 1354.37,-0.2 1360.37,-0.2 1366.37,-6.2 1366.37,-12.2 1366.37,-12.2 1366.37,-49.4 1366.37,-49.4 1366.37,-55.4 1360.37,-61.4 1354.37,-61.4"/>
<text text-anchor="middle" x="1310.88" y="-35" font-family="Arial" font-size="14.00" fill="#ffffff">Pivot to other</text>
<text text-anchor="middle" x="1310.88" y="-18.2" font-family="Arial" font-size="14.00" fill="#ffffff">resources</text>
</g>
<!-- exfil_repo_secrets&#45;&gt;pivot -->
<g id="edge8" class="edge">
<title>exfil_repo_secrets&#45;&gt;pivot</title>
<path fill="none" stroke="#2b303a" d="M904.97,-215.15C915.92,-208.62 927.99,-202.35 939.88,-198 1016.79,-169.83 1058.27,-220.61 1121.88,-169 1150.85,-145.49 1125.35,-116.83 1151.88,-90.6 1176.87,-65.89 1213.14,-51.44 1244.74,-43.05"/>
<polygon fill="#2b303a" stroke="#2b303a" points="1245.36,-46.5 1254.22,-40.69 1243.67,-39.71 1245.36,-46.5"/>
</g>
<!-- exfil_org_secrets -->
<g id="node16" class="node">
<title>exfil_org_secrets</title>
<path fill="#ff92cc" stroke="none" d="M1065.08,-276.2C1065.08,-276.2 958.67,-276.2 958.67,-276.2 952.67,-276.2 946.67,-270.2 946.67,-264.2 946.67,-264.2 946.67,-227 946.67,-227 946.67,-221 952.67,-215 958.67,-215 958.67,-215 1065.08,-215 1065.08,-215 1071.08,-215 1077.08,-221 1077.08,-227 1077.08,-227 1077.08,-264.2 1077.08,-264.2 1077.08,-270.2 1071.08,-276.2 1065.08,-276.2"/>
<text text-anchor="middle" x="1011.88" y="-249.8" font-family="Arial" font-size="14.00">Exiltrate</text>
<text text-anchor="middle" x="1011.88" y="-233" font-family="Arial" font-size="14.00">org&#45;level secrets</text>
</g>
<!-- avoid_sensitive_org_secrets -->
<g id="node25" class="node">
<title>avoid_sensitive_org_secrets</title>
<path fill="#b9d6f2" stroke="none" d="M1277.08,-169.2C1277.08,-169.2 1170.67,-169.2 1170.67,-169.2 1164.67,-169.2 1158.67,-163.2 1158.67,-157.2 1158.67,-157.2 1158.67,-102.4 1158.67,-102.4 1158.67,-96.4 1164.67,-90.4 1170.67,-90.4 1170.67,-90.4 1277.08,-90.4 1277.08,-90.4 1283.08,-90.4 1289.08,-96.4 1289.08,-102.4 1289.08,-102.4 1289.08,-157.2 1289.08,-157.2 1289.08,-163.2 1283.08,-169.2 1277.08,-169.2"/>
<text text-anchor="middle" x="1223.88" y="-142.4" font-family="Arial" font-size="14.00">Avoid storing</text>
<text text-anchor="middle" x="1223.88" y="-125.6" font-family="Arial" font-size="14.00">sensitive</text>
<text text-anchor="middle" x="1223.88" y="-108.8" font-family="Arial" font-size="14.00">org&#45;level secrets</text>
</g>
<!-- exfil_org_secrets&#45;&gt;avoid_sensitive_org_secrets -->
<g id="edge26" class="edge">
<title>exfil_org_secrets&#45;&gt;avoid_sensitive_org_secrets</title>
<path fill="none" stroke="#2b303a" d="M1055.03,-215.19C1064.38,-209.24 1074.34,-203.21 1083.88,-198 1111.28,-183.03 1119.7,-182.46 1147.88,-169 1148.1,-168.89 1148.33,-168.78 1148.55,-168.68"/>
<polygon fill="#2b303a" stroke="#2b303a" points="1150.03,-171.85 1157.51,-164.35 1146.98,-165.55 1150.03,-171.85"/>
</g>
<!-- exfil_org_secrets&#45;&gt;pwn_build_artifact -->
<g id="edge5" class="edge">
<title>exfil_org_secrets&#45;&gt;pwn_build_artifact</title>
<path fill="none" stroke="#2b303a" d="M973.08,-215.11C962.49,-208.41 950.67,-202.08 938.88,-198 876.41,-176.4 695.43,-209.08 642.88,-169 613.21,-146.38 640.8,-115.35 612.88,-90.6 571.27,-53.72 509.97,-39.25 460.4,-33.88"/>
<polygon fill="#2b303a" stroke="#2b303a" points="460.85,-30.41 450.56,-32.93 460.17,-37.37 460.85,-30.41"/>
</g>
<!-- exfil_org_secrets&#45;&gt;pivot -->
<g id="edge9" class="edge">
<title>exfil_org_secrets&#45;&gt;pivot</title>
<path fill="none" stroke="#2b303a" d="M1050.58,-215.17C1060.93,-208.55 1072.43,-202.25 1083.88,-198 1128.46,-181.46 1262.71,-203.07 1295.88,-169 1320.18,-144.03 1321.71,-103.16 1318.5,-72.5"/>
<polygon fill="#2b303a" stroke="#2b303a" points="1322,-72.29 1317.27,-62.81 1315.06,-73.18 1322,-72.29"/>
</g>
<!-- exfil_pat&#45;&gt;pivot -->
<g id="edge10" class="edge">
<title>exfil_pat&#45;&gt;pivot</title>
<path fill="none" stroke="#2b303a" d="M1204.13,-236.53C1244.42,-227.49 1295.96,-208.52 1321.88,-169 1340.59,-140.47 1335.01,-101.1 1326.41,-71.84"/>
<polygon fill="#2b303a" stroke="#2b303a" points="1329.84,-71.08 1323.47,-62.61 1323.17,-73.2 1329.84,-71.08"/>
</g>
<!-- create_new_repo&#45;&gt;exfil_org_secrets -->
<g id="edge17" class="edge">
<title>create_new_repo&#45;&gt;exfil_org_secrets</title>
<path fill="none" stroke="#2b303a" d="M902.54,-429.81C924.95,-392.25 963.68,-327.35 988.52,-285.73"/>
<polygon fill="#2b303a" stroke="#2b303a" points="991.47,-287.62 993.59,-277.24 985.46,-284.03 991.47,-287.62"/>
</g>
<!-- two_person_review&#45;&gt;pwn_build_artifact -->
<!-- two_person_review&#45;&gt;pivot -->
<!-- gha_use_env_prot_rule&#45;&gt;gha_use_oidc_with_branch_filter -->
<!-- gha_use_env_prot_rule&#45;&gt;pwn_build_artifact -->
<!-- gha_use_env_prot_rule&#45;&gt;pivot -->
<!-- gha_use_oidc_with_branch_filter&#45;&gt;pwn_build_artifact -->
<!-- gha_use_oidc_with_branch_filter&#45;&gt;pivot -->
<!-- gha_sast_detects_injection&#45;&gt;pwn_build_artifact -->
<!-- gha_sast_detects_injection&#45;&gt;pivot -->
<!-- avoid_risky_pr_target_checkout&#45;&gt;pwn_build_artifact -->
<!-- avoid_risky_pr_target_checkout&#45;&gt;pivot -->
<!-- use_cache_isolation&#45;&gt;pwn_build_artifact -->
<!-- use_cache_isolation&#45;&gt;pivot -->
<!-- avoid_sensitive_org_secrets&#45;&gt;pwn_build_artifact -->
<!-- avoid_sensitive_org_secrets&#45;&gt;pivot -->
</g>
</svg>
