<?xml version="1.0" encoding="UTF-8" standalone="no"?>
<!DOCTYPE svg PUBLIC "-//W3C//DTD SVG 1.1//EN"
 "http://www.w3.org/Graphics/SVG/1.1/DTD/svg11.dtd">
<!-- Generated by graphviz version 7.0.0 (20221106.0712)
 -->
<!-- Pages: 1 -->
<svg width="1243pt" height="796pt"
 viewBox="0.00 0.00 1243.11 795.80" xmlns="http://www.w3.org/2000/svg" xmlns:xlink="http://www.w3.org/1999/xlink">
<g id="graph0" class="graph" transform="scale(1 1) rotate(0) translate(4 791.8)">
<polygon fill="white" stroke="none" points="-4,4 -4,-791.8 1239.11,-791.8 1239.11,4 -4,4"/>
<text text-anchor="middle" x="617.55" y="-771.2" font-family="Arial" font-size="14.00">Software Supply Chain Attack Tree &#45; Continuous Integration System</text>
<!-- reality -->
<g id="node1" class="node">
<title>reality</title>
<path fill="#272727" stroke="none" d="M547.99,-762.9C547.99,-762.9 501.41,-762.9 501.41,-762.9 495.41,-762.9 489.41,-756.9 489.41,-750.9 489.41,-750.9 489.41,-730.3 489.41,-730.3 489.41,-724.3 495.41,-718.3 501.41,-718.3 501.41,-718.3 547.99,-718.3 547.99,-718.3 553.99,-718.3 559.99,-724.3 559.99,-730.3 559.99,-730.3 559.99,-750.9 559.99,-750.9 559.99,-756.9 553.99,-762.9 547.99,-762.9"/>
<text text-anchor="middle" x="524.7" y="-736.4" font-family="Arial" font-size="14.00" fill="#ffffff">Reality</text>
</g>
<!-- uses_gha -->
<g id="node2" class="node">
<title>uses_gha</title>
<path fill="#d2d5dd" stroke="none" d="M591.36,-689.1C591.36,-689.1 458.04,-689.1 458.04,-689.1 452.04,-689.1 446.04,-683.1 446.04,-677.1 446.04,-677.1 446.04,-656.5 446.04,-656.5 446.04,-650.5 452.04,-644.5 458.04,-644.5 458.04,-644.5 591.36,-644.5 591.36,-644.5 597.36,-644.5 603.36,-650.5 603.36,-656.5 603.36,-656.5 603.36,-677.1 603.36,-677.1 603.36,-683.1 597.36,-689.1 591.36,-689.1"/>
<text text-anchor="middle" x="524.7" y="-662.6" font-family="Arial" font-size="14.00">Uses GitHub Actions</text>
</g>
<!-- reality&#45;&gt;uses_gha -->
<g id="edge25" class="edge">
<title>reality&#45;&gt;uses_gha</title>
<path fill="none" stroke="#2b303a" d="M524.7,-718.45C524.7,-712.8 524.7,-706.56 524.7,-700.45"/>
<polygon fill="#2b303a" stroke="#2b303a" points="528.2,-700.56 524.7,-690.56 521.2,-700.56 528.2,-700.56"/>
</g>
<!-- public_repo -->
<g id="node3" class="node">
<title>public_repo</title>
<path fill="#d2d5dd" stroke="none" d="M428.69,-598.5C428.69,-598.5 320.71,-598.5 320.71,-598.5 314.71,-598.5 308.71,-592.5 308.71,-586.5 308.71,-586.5 308.71,-565.9 308.71,-565.9 308.71,-559.9 314.71,-553.9 320.71,-553.9 320.71,-553.9 428.69,-553.9 428.69,-553.9 434.69,-553.9 440.69,-559.9 440.69,-565.9 440.69,-565.9 440.69,-586.5 440.69,-586.5 440.69,-592.5 434.69,-598.5 428.69,-598.5"/>
<text text-anchor="middle" x="374.7" y="-572" font-family="Arial" font-size="14.00">Public repository</text>
</g>
<!-- uses_gha&#45;&gt;public_repo -->
<g id="edge26" class="edge">
<title>uses_gha&#45;&gt;public_repo</title>
<path fill="none" stroke="#2b303a" d="M488.77,-644.58C468.25,-632.46 442.32,-617.14 420.37,-604.17"/>
<polygon fill="#2b303a" stroke="#2b303a" points="422.29,-601.24 411.9,-599.17 418.73,-607.27 422.29,-601.24"/>
</g>
<!-- private_repo -->
<g id="node4" class="node">
<title>private_repo</title>
<path fill="#d2d5dd" stroke="none" d="M581.13,-598.5C581.13,-598.5 468.27,-598.5 468.27,-598.5 462.27,-598.5 456.27,-592.5 456.27,-586.5 456.27,-586.5 456.27,-565.9 456.27,-565.9 456.27,-559.9 462.27,-553.9 468.27,-553.9 468.27,-553.9 581.13,-553.9 581.13,-553.9 587.13,-553.9 593.13,-559.9 593.13,-565.9 593.13,-565.9 593.13,-586.5 593.13,-586.5 593.13,-592.5 587.13,-598.5 581.13,-598.5"/>
<text text-anchor="middle" x="524.7" y="-572" font-family="Arial" font-size="14.00">Private repository</text>
</g>
<!-- uses_gha&#45;&gt;private_repo -->
<g id="edge27" class="edge">
<title>uses_gha&#45;&gt;private_repo</title>
<path fill="none" stroke="#2b303a" d="M524.7,-644.8C524.7,-634.29 524.7,-621.32 524.7,-609.57"/>
<polygon fill="#2b303a" stroke="#2b303a" points="528.2,-609.87 524.7,-599.87 521.2,-609.87 528.2,-609.87"/>
</g>
<!-- has_perm_to_create_new_repo -->
<g id="node10" class="node">
<title>has_perm_to_create_new_repo</title>
<path fill="#d2d5dd" stroke="none" d="M734.74,-615.6C734.74,-615.6 618.66,-615.6 618.66,-615.6 612.66,-615.6 606.66,-609.6 606.66,-603.6 606.66,-603.6 606.66,-548.8 606.66,-548.8 606.66,-542.8 612.66,-536.8 618.66,-536.8 618.66,-536.8 734.74,-536.8 734.74,-536.8 740.74,-536.8 746.74,-542.8 746.74,-548.8 746.74,-548.8 746.74,-603.6 746.74,-603.6 746.74,-609.6 740.74,-615.6 734.74,-615.6"/>
<text text-anchor="middle" x="676.7" y="-588.8" font-family="Arial" font-size="14.00">Has permission to</text>
<text text-anchor="middle" x="676.7" y="-572" font-family="Arial" font-size="14.00">create new</text>
<text text-anchor="middle" x="676.7" y="-555.2" font-family="Arial" font-size="14.00">repository</text>
</g>
<!-- uses_gha&#45;&gt;has_perm_to_create_new_repo -->
<g id="edge33" class="edge">
<title>uses_gha&#45;&gt;has_perm_to_create_new_repo</title>
<path fill="none" stroke="#2b303a" d="M561.11,-644.58C573.24,-637.51 587.24,-629.35 601.21,-621.2"/>
<polygon fill="#2b303a" stroke="#2b303a" points="602.68,-624.4 609.55,-616.34 599.15,-618.35 602.68,-624.4"/>
</g>
<!-- public_repo&#45;&gt;private_repo -->
<!-- gha_on_pull_request_from_fork -->
<g id="node5" class="node">
<title>gha_on_pull_request_from_fork</title>
<path fill="#d2d5dd" stroke="none" d="M270.11,-408.8C270.11,-408.8 151.29,-408.8 151.29,-408.8 145.29,-408.8 139.29,-402.8 139.29,-396.8 139.29,-396.8 139.29,-359.6 139.29,-359.6 139.29,-353.6 145.29,-347.6 151.29,-347.6 151.29,-347.6 270.11,-347.6 270.11,-347.6 276.11,-347.6 282.11,-353.6 282.11,-359.6 282.11,-359.6 282.11,-396.8 282.11,-396.8 282.11,-402.8 276.11,-408.8 270.11,-408.8"/>
<text text-anchor="middle" x="210.7" y="-382.4" font-family="Arial" font-size="14.00">pull_request event</text>
<text text-anchor="middle" x="210.7" y="-365.6" font-family="Arial" font-size="14.00">(From fork)</text>
</g>
<!-- public_repo&#45;&gt;gha_on_pull_request_from_fork -->
<g id="edge28" class="edge">
<title>public_repo&#45;&gt;gha_on_pull_request_from_fork</title>
<path fill="none" stroke="#2b303a" d="M357.15,-554.22C329.82,-521.56 276.69,-458.07 242.49,-417.2"/>
<polygon fill="#2b303a" stroke="#2b303a" points="245.36,-415.17 236.26,-409.75 240,-419.67 245.36,-415.17"/>
</g>
<!-- gha_on_pull_request_target_from_fork -->
<g id="node6" class="node">
<title>gha_on_pull_request_target_from_fork</title>
<path fill="#d2d5dd" stroke="none" d="M431.56,-417.6C431.56,-417.6 307.84,-417.6 307.84,-417.6 301.84,-417.6 295.84,-411.6 295.84,-405.6 295.84,-405.6 295.84,-350.8 295.84,-350.8 295.84,-344.8 301.84,-338.8 307.84,-338.8 307.84,-338.8 431.56,-338.8 431.56,-338.8 437.56,-338.8 443.56,-344.8 443.56,-350.8 443.56,-350.8 443.56,-405.6 443.56,-405.6 443.56,-411.6 437.56,-417.6 431.56,-417.6"/>
<text text-anchor="middle" x="369.7" y="-390.8" font-family="Arial" font-size="14.00">pull_request_target</text>
<text text-anchor="middle" x="369.7" y="-374" font-family="Arial" font-size="14.00">event</text>
<text text-anchor="middle" x="369.7" y="-357.2" font-family="Arial" font-size="14.00">(From fork)</text>
</g>
<!-- public_repo&#45;&gt;gha_on_pull_request_target_from_fork -->
<g id="edge29" class="edge">
<title>public_repo&#45;&gt;gha_on_pull_request_target_from_fork</title>
<path fill="none" stroke="#2b303a" d="M374.16,-554.22C373.41,-524.5 372,-469.23 370.96,-428.73"/>
<polygon fill="#2b303a" stroke="#2b303a" points="374.47,-428.89 370.71,-418.98 367.47,-429.07 374.47,-428.89"/>
</g>
<!-- gha_on_pull_request_from_branch -->
<g id="node7" class="node">
<title>gha_on_pull_request_from_branch</title>
<path fill="#d2d5dd" stroke="none" d="M594.11,-499.5C594.11,-499.5 475.29,-499.5 475.29,-499.5 469.29,-499.5 463.29,-493.5 463.29,-487.5 463.29,-487.5 463.29,-466.9 463.29,-466.9 463.29,-460.9 469.29,-454.9 475.29,-454.9 475.29,-454.9 594.11,-454.9 594.11,-454.9 600.11,-454.9 606.11,-460.9 606.11,-466.9 606.11,-466.9 606.11,-487.5 606.11,-487.5 606.11,-493.5 600.11,-499.5 594.11,-499.5"/>
<text text-anchor="middle" x="534.7" y="-473" font-family="Arial" font-size="14.00">pull_request event</text>
</g>
<!-- private_repo&#45;&gt;gha_on_pull_request_from_branch -->
<g id="edge30" class="edge">
<title>private_repo&#45;&gt;gha_on_pull_request_from_branch</title>
<path fill="none" stroke="#2b303a" d="M526.87,-554.15C528.18,-541.44 529.88,-524.98 531.36,-510.63"/>
<polygon fill="#2b303a" stroke="#2b303a" points="534.83,-511.02 532.38,-500.71 527.87,-510.3 534.83,-511.02"/>
</g>
<!-- private_repo&#45;&gt;has_perm_to_create_new_repo -->
<!-- gha_on_pull_request_from_fork&#45;&gt;gha_on_pull_request_target_from_fork -->
<!-- convince_maintainer -->
<g id="node11" class="node">
<title>convince_maintainer</title>
<path fill="#ff92cc" stroke="none" d="M109.6,-310.1C109.6,-310.1 11.8,-310.1 11.8,-310.1 5.8,-310.1 -0.2,-304.1 -0.2,-298.1 -0.2,-298.1 -0.2,-226.7 -0.2,-226.7 -0.2,-220.7 5.8,-214.7 11.8,-214.7 11.8,-214.7 109.6,-214.7 109.6,-214.7 115.6,-214.7 121.6,-220.7 121.6,-226.7 121.6,-226.7 121.6,-298.1 121.6,-298.1 121.6,-304.1 115.6,-310.1 109.6,-310.1"/>
<text text-anchor="middle" x="60.7" y="-283.4" font-family="Arial" font-size="14.00">Convince</text>
<text text-anchor="middle" x="60.7" y="-266.6" font-family="Arial" font-size="14.00">maintainer to</text>
<text text-anchor="middle" x="60.7" y="-249.8" font-family="Arial" font-size="14.00">accept pipeline</text>
<text text-anchor="middle" x="60.7" y="-233" font-family="Arial" font-size="14.00">changes</text>
</g>
<!-- gha_on_pull_request_from_fork&#45;&gt;convince_maintainer -->
<g id="edge12" class="edge">
<title>gha_on_pull_request_from_fork&#45;&gt;convince_maintainer</title>
<path fill="none" stroke="#2b303a" d="M172.07,-347.89C159.28,-338.19 144.62,-327.06 130.23,-316.15"/>
<polygon fill="#2b303a" stroke="#2b303a" points="132.61,-313.56 122.53,-310.31 128.38,-319.14 132.61,-313.56"/>
</g>
<!-- use_sast_to_detection_injection -->
<g id="node21" class="node">
<title>use_sast_to_detection_injection</title>
<path fill="#b9d6f2" stroke="none" d="M274.14,-293C274.14,-293 147.26,-293 147.26,-293 141.26,-293 135.26,-287 135.26,-281 135.26,-281 135.26,-243.8 135.26,-243.8 135.26,-237.8 141.26,-231.8 147.26,-231.8 147.26,-231.8 274.14,-231.8 274.14,-231.8 280.14,-231.8 286.14,-237.8 286.14,-243.8 286.14,-243.8 286.14,-281 286.14,-281 286.14,-287 280.14,-293 274.14,-293"/>
<text text-anchor="middle" x="210.7" y="-266.6" font-family="Arial" font-size="14.00">Use SAST to detect</text>
<text text-anchor="middle" x="210.7" y="-249.8" font-family="Arial" font-size="14.00">injection</text>
</g>
<!-- gha_on_pull_request_from_fork&#45;&gt;use_sast_to_detection_injection -->
<g id="edge22" class="edge">
<title>gha_on_pull_request_from_fork&#45;&gt;use_sast_to_detection_injection</title>
<path fill="none" stroke="#2b303a" d="M210.7,-347.89C210.7,-334.49 210.7,-318.38 210.7,-303.85"/>
<polygon fill="#2b303a" stroke="#2b303a" points="214.2,-304.12 210.7,-294.12 207.2,-304.12 214.2,-304.12"/>
</g>
<!-- avoid_risky_pr_target_checkout -->
<g id="node22" class="node">
<title>avoid_risky_pr_target_checkout</title>
<path fill="#b9d6f2" stroke="none" d="M407.22,-301.8C407.22,-301.8 312.18,-301.8 312.18,-301.8 306.18,-301.8 300.18,-295.8 300.18,-289.8 300.18,-289.8 300.18,-235 300.18,-235 300.18,-229 306.18,-223 312.18,-223 312.18,-223 407.22,-223 407.22,-223 413.22,-223 419.22,-229 419.22,-235 419.22,-235 419.22,-289.8 419.22,-289.8 419.22,-295.8 413.22,-301.8 407.22,-301.8"/>
<text text-anchor="middle" x="359.7" y="-275" font-family="Arial" font-size="14.00">Avoid risky PR</text>
<text text-anchor="middle" x="359.7" y="-258.2" font-family="Arial" font-size="14.00">target code</text>
<text text-anchor="middle" x="359.7" y="-241.4" font-family="Arial" font-size="14.00">checkout</text>
</g>
<!-- gha_on_pull_request_target_from_fork&#45;&gt;avoid_risky_pr_target_checkout -->
<g id="edge23" class="edge">
<title>gha_on_pull_request_target_from_fork&#45;&gt;avoid_risky_pr_target_checkout</title>
<path fill="none" stroke="#2b303a" d="M366.34,-338.99C365.61,-330.64 364.82,-321.68 364.05,-312.96"/>
<polygon fill="#2b303a" stroke="#2b303a" points="367.56,-312.87 363.2,-303.21 360.59,-313.48 367.56,-312.87"/>
</g>
<!-- repo_has_no_branch_protection -->
<g id="node8" class="node">
<title>repo_has_no_branch_protection</title>
<path fill="#d2d5dd" stroke="none" d="M569.84,-408.8C569.84,-408.8 499.56,-408.8 499.56,-408.8 493.56,-408.8 487.56,-402.8 487.56,-396.8 487.56,-396.8 487.56,-359.6 487.56,-359.6 487.56,-353.6 493.56,-347.6 499.56,-347.6 499.56,-347.6 569.84,-347.6 569.84,-347.6 575.84,-347.6 581.84,-353.6 581.84,-359.6 581.84,-359.6 581.84,-396.8 581.84,-396.8 581.84,-402.8 575.84,-408.8 569.84,-408.8"/>
<text text-anchor="middle" x="534.7" y="-382.4" font-family="Arial" font-size="14.00">No Branch</text>
<text text-anchor="middle" x="534.7" y="-365.6" font-family="Arial" font-size="14.00">Protection</text>
</g>
<!-- gha_on_pull_request_from_branch&#45;&gt;repo_has_no_branch_protection -->
<g id="edge31" class="edge">
<title>gha_on_pull_request_from_branch&#45;&gt;repo_has_no_branch_protection</title>
<path fill="none" stroke="#2b303a" d="M534.7,-455.15C534.7,-444.85 534.7,-432.08 534.7,-419.97"/>
<polygon fill="#2b303a" stroke="#2b303a" points="538.2,-420.18 534.7,-410.18 531.2,-420.18 538.2,-420.18"/>
</g>
<!-- repo_has_sufficient_branch_protection -->
<g id="node9" class="node">
<title>repo_has_sufficient_branch_protection</title>
<path fill="#d2d5dd" stroke="none" d="M722.53,-408.8C722.53,-408.8 612.87,-408.8 612.87,-408.8 606.87,-408.8 600.87,-402.8 600.87,-396.8 600.87,-396.8 600.87,-359.6 600.87,-359.6 600.87,-353.6 606.87,-347.6 612.87,-347.6 612.87,-347.6 722.53,-347.6 722.53,-347.6 728.53,-347.6 734.53,-353.6 734.53,-359.6 734.53,-359.6 734.53,-396.8 734.53,-396.8 734.53,-402.8 728.53,-408.8 722.53,-408.8"/>
<text text-anchor="middle" x="667.7" y="-382.4" font-family="Arial" font-size="14.00">Sufficient Branch</text>
<text text-anchor="middle" x="667.7" y="-365.6" font-family="Arial" font-size="14.00">Protection</text>
</g>
<!-- gha_on_pull_request_from_branch&#45;&gt;repo_has_sufficient_branch_protection -->
<g id="edge32" class="edge">
<title>gha_on_pull_request_from_branch&#45;&gt;repo_has_sufficient_branch_protection</title>
<path fill="none" stroke="#2b303a" d="M563.89,-454.91C579.78,-443.32 599.88,-428.66 618.16,-415.33"/>
<polygon fill="#2b303a" stroke="#2b303a" points="619.99,-418.33 626.01,-409.61 615.87,-412.67 619.99,-418.33"/>
</g>
<!-- repo_has_no_branch_protection&#45;&gt;repo_has_sufficient_branch_protection -->
<!-- pwn_build_artifact -->
<g id="node24" class="node">
<title>pwn_build_artifact</title>
<path fill="#5f00c2" stroke="none" d="M501.07,-61.4C501.07,-61.4 382.33,-61.4 382.33,-61.4 376.33,-61.4 370.33,-55.4 370.33,-49.4 370.33,-49.4 370.33,-12.2 370.33,-12.2 370.33,-6.2 376.33,-0.2 382.33,-0.2 382.33,-0.2 501.07,-0.2 501.07,-0.2 507.07,-0.2 513.07,-6.2 513.07,-12.2 513.07,-12.2 513.07,-49.4 513.07,-49.4 513.07,-55.4 507.07,-61.4 501.07,-61.4"/>
<text text-anchor="middle" x="441.7" y="-35" font-family="Arial" font-size="14.00" fill="#ffffff">Compromise Build</text>
<text text-anchor="middle" x="441.7" y="-18.2" font-family="Arial" font-size="14.00" fill="#ffffff">artifact</text>
</g>
<!-- repo_has_no_branch_protection&#45;&gt;pwn_build_artifact -->
<g id="edge7" class="edge">
<title>repo_has_no_branch_protection&#45;&gt;pwn_build_artifact</title>
<path fill="none" stroke="#2b303a" d="M488.2,-347.63C475.8,-337.31 463.87,-324.6 456.7,-310 418.86,-233 426.26,-129.14 434.37,-72.61"/>
<polygon fill="#2b303a" stroke="#2b303a" points="437.82,-73.2 435.87,-62.79 430.9,-72.15 437.82,-73.2"/>
<text text-anchor="middle" x="406.26" y="-210.92" font-family="Arial" font-size="12.00" fill="#010065">#yolosec</text>
</g>
<!-- repo_has_sufficient_branch_protection&#45;&gt;convince_maintainer -->
<g id="edge11" class="edge">
<title>repo_has_sufficient_branch_protection&#45;&gt;convince_maintainer</title>
<path fill="none" stroke="#2b303a" d="M613.5,-347.65C605.37,-344.21 596.95,-341.17 588.7,-339 394.14,-287.93 324.88,-373.55 132.19,-310.78"/>
<polygon fill="#2b303a" stroke="#2b303a" points="133.45,-307.51 122.86,-307.65 131.22,-314.15 133.45,-307.51"/>
</g>
<!-- exfil_repo_secrets -->
<g id="node14" class="node">
<title>exfil_repo_secrets</title>
<path fill="#ff92cc" stroke="none" d="M590.19,-293C590.19,-293 475.21,-293 475.21,-293 469.21,-293 463.21,-287 463.21,-281 463.21,-281 463.21,-243.8 463.21,-243.8 463.21,-237.8 469.21,-231.8 475.21,-231.8 475.21,-231.8 590.19,-231.8 590.19,-231.8 596.19,-231.8 602.19,-237.8 602.19,-243.8 602.19,-243.8 602.19,-281 602.19,-281 602.19,-287 596.19,-293 590.19,-293"/>
<text text-anchor="middle" x="532.7" y="-266.6" font-family="Arial" font-size="14.00">Exfiltrate</text>
<text text-anchor="middle" x="532.7" y="-249.8" font-family="Arial" font-size="14.00">repo&#45;level secrets</text>
</g>
<!-- repo_has_sufficient_branch_protection&#45;&gt;exfil_repo_secrets -->
<g id="edge15" class="edge">
<title>repo_has_sufficient_branch_protection&#45;&gt;exfil_repo_secrets</title>
<path fill="none" stroke="#2b303a" d="M632.93,-347.89C615.61,-333.29 594.5,-315.49 576.12,-300"/>
<polygon fill="#2b303a" stroke="#2b303a" points="578.41,-297.35 568.5,-293.58 573.9,-302.7 578.41,-297.35"/>
</g>
<!-- exfil_pat -->
<g id="node16" class="node">
<title>exfil_pat</title>
<path fill="#ff92cc" stroke="none" d="M717.28,-284.7C717.28,-284.7 628.12,-284.7 628.12,-284.7 622.12,-284.7 616.12,-278.7 616.12,-272.7 616.12,-272.7 616.12,-252.1 616.12,-252.1 616.12,-246.1 622.12,-240.1 628.12,-240.1 628.12,-240.1 717.28,-240.1 717.28,-240.1 723.28,-240.1 729.28,-246.1 729.28,-252.1 729.28,-252.1 729.28,-272.7 729.28,-272.7 729.28,-278.7 723.28,-284.7 717.28,-284.7"/>
<text text-anchor="middle" x="672.7" y="-258.2" font-family="Arial" font-size="14.00">Exfiltrate PAT</text>
</g>
<!-- repo_has_sufficient_branch_protection&#45;&gt;exfil_pat -->
<g id="edge17" class="edge">
<title>repo_has_sufficient_branch_protection&#45;&gt;exfil_pat</title>
<path fill="none" stroke="#2b303a" d="M668.99,-347.89C669.69,-331.89 670.56,-312.04 671.28,-295.61"/>
<polygon fill="#2b303a" stroke="#2b303a" points="674.77,-296 671.71,-285.86 667.78,-295.69 674.77,-296"/>
</g>
<!-- gha_use_env_prot_rule -->
<g id="node19" class="node">
<title>gha_use_env_prot_rule</title>
<path fill="#b9d6f2" stroke="none" d="M866.58,-293C866.58,-293 754.82,-293 754.82,-293 748.82,-293 742.82,-287 742.82,-281 742.82,-281 742.82,-243.8 742.82,-243.8 742.82,-237.8 748.82,-231.8 754.82,-231.8 754.82,-231.8 866.58,-231.8 866.58,-231.8 872.58,-231.8 878.58,-237.8 878.58,-243.8 878.58,-243.8 878.58,-281 878.58,-281 878.58,-287 872.58,-293 866.58,-293"/>
<text text-anchor="middle" x="810.7" y="-266.6" font-family="Arial" font-size="14.00">Use Environment</text>
<text text-anchor="middle" x="810.7" y="-249.8" font-family="Arial" font-size="14.00">Protection Rule</text>
</g>
<!-- repo_has_sufficient_branch_protection&#45;&gt;gha_use_env_prot_rule -->
<g id="edge20" class="edge">
<title>repo_has_sufficient_branch_protection&#45;&gt;gha_use_env_prot_rule</title>
<path fill="none" stroke="#2b303a" d="M704.53,-347.89C723.04,-333.16 745.65,-315.17 765.24,-299.58"/>
<polygon fill="#2b303a" stroke="#2b303a" points="767.17,-302.52 772.81,-293.55 762.81,-297.04 767.17,-302.52"/>
</g>
<!-- gha_use_oidc_with_branch_filter -->
<g id="node20" class="node">
<title>gha_use_oidc_with_branch_filter</title>
<path fill="#b9d6f2" stroke="none" d="M1033.08,-293C1033.08,-293 904.32,-293 904.32,-293 898.32,-293 892.32,-287 892.32,-281 892.32,-281 892.32,-243.8 892.32,-243.8 892.32,-237.8 898.32,-231.8 904.32,-231.8 904.32,-231.8 1033.08,-231.8 1033.08,-231.8 1039.08,-231.8 1045.08,-237.8 1045.08,-243.8 1045.08,-243.8 1045.08,-281 1045.08,-281 1045.08,-287 1039.08,-293 1033.08,-293"/>
<text text-anchor="middle" x="968.7" y="-266.6" font-family="Arial" font-size="14.00">Use OIDC with &#39;sub&#39;</text>
<text text-anchor="middle" x="968.7" y="-249.8" font-family="Arial" font-size="14.00">branch filter</text>
</g>
<!-- repo_has_sufficient_branch_protection&#45;&gt;gha_use_oidc_with_branch_filter -->
<g id="edge21" class="edge">
<title>repo_has_sufficient_branch_protection&#45;&gt;gha_use_oidc_with_branch_filter</title>
<path fill="none" stroke="#2b303a" d="M734.35,-360.61C778.2,-348.75 836.38,-331.16 885.7,-310 893.82,-306.52 902.16,-302.46 910.28,-298.22"/>
<polygon fill="#2b303a" stroke="#2b303a" points="911.93,-301.3 919.09,-293.49 908.62,-295.14 911.93,-301.3"/>
</g>
<!-- use_cache_isolation -->
<g id="node23" class="node">
<title>use_cache_isolation</title>
<path fill="#b9d6f2" stroke="none" d="M1196.6,-284.7C1196.6,-284.7 1070.8,-284.7 1070.8,-284.7 1064.8,-284.7 1058.8,-278.7 1058.8,-272.7 1058.8,-272.7 1058.8,-252.1 1058.8,-252.1 1058.8,-246.1 1064.8,-240.1 1070.8,-240.1 1070.8,-240.1 1196.6,-240.1 1196.6,-240.1 1202.6,-240.1 1208.6,-246.1 1208.6,-252.1 1208.6,-252.1 1208.6,-272.7 1208.6,-272.7 1208.6,-278.7 1202.6,-284.7 1196.6,-284.7"/>
<text text-anchor="middle" x="1133.7" y="-258.2" font-family="Arial" font-size="14.00">Use cache isolation</text>
</g>
<!-- repo_has_sufficient_branch_protection&#45;&gt;use_cache_isolation -->
<g id="edge24" class="edge">
<title>repo_has_sufficient_branch_protection&#45;&gt;use_cache_isolation</title>
<path fill="none" stroke="#2b303a" d="M734.35,-372.5C812.37,-365.43 944.54,-348.51 1051.7,-310 1065.56,-305.02 1079.81,-297.78 1092.45,-290.5"/>
<polygon fill="#2b303a" stroke="#2b303a" points="1094.11,-293.58 1100.91,-285.45 1090.53,-287.57 1094.11,-293.58"/>
</g>
<!-- create_new_repo -->
<g id="node18" class="node">
<title>create_new_repo</title>
<path fill="#ff92cc" stroke="none" d="M715.29,-507.8C715.29,-507.8 640.11,-507.8 640.11,-507.8 634.11,-507.8 628.11,-501.8 628.11,-495.8 628.11,-495.8 628.11,-458.6 628.11,-458.6 628.11,-452.6 634.11,-446.6 640.11,-446.6 640.11,-446.6 715.29,-446.6 715.29,-446.6 721.29,-446.6 727.29,-452.6 727.29,-458.6 727.29,-458.6 727.29,-495.8 727.29,-495.8 727.29,-501.8 721.29,-507.8 715.29,-507.8"/>
<text text-anchor="middle" x="677.7" y="-481.4" font-family="Arial" font-size="14.00">Create new</text>
<text text-anchor="middle" x="677.7" y="-464.6" font-family="Arial" font-size="14.00">repository</text>
</g>
<!-- has_perm_to_create_new_repo&#45;&gt;create_new_repo -->
<g id="edge19" class="edge">
<title>has_perm_to_create_new_repo&#45;&gt;create_new_repo</title>
<path fill="none" stroke="#2b303a" d="M677.09,-536.86C677.16,-530.93 677.22,-524.78 677.28,-518.79"/>
<polygon fill="#2b303a" stroke="#2b303a" points="680.78,-519.13 677.38,-509.1 673.78,-519.06 680.78,-519.13"/>
</g>
<!-- convince_maintainer&#45;&gt;exfil_repo_secrets -->
<!-- convince_maintainer&#45;&gt;use_sast_to_detection_injection -->
<!-- convince_maintainer&#45;&gt;pwn_build_artifact -->
<g id="edge1" class="edge">
<title>convince_maintainer&#45;&gt;pwn_build_artifact</title>
<path fill="none" stroke="#2b303a" d="M69.01,-214.93C78.52,-175.75 98.07,-121.29 136.7,-90.6 170.46,-63.79 281.02,-47.53 359.28,-39.1"/>
<polygon fill="#2b303a" stroke="#2b303a" points="359.5,-42.6 369.07,-38.07 358.76,-35.64 359.5,-42.6"/>
</g>
<!-- gha_injection_vuln -->
<g id="node12" class="node">
<title>gha_injection_vuln</title>
<path fill="#ff92cc" stroke="none" d="M257.48,-168.8C257.48,-168.8 155.92,-168.8 155.92,-168.8 149.92,-168.8 143.92,-162.8 143.92,-156.8 143.92,-156.8 143.92,-119.6 143.92,-119.6 143.92,-113.6 149.92,-107.6 155.92,-107.6 155.92,-107.6 257.48,-107.6 257.48,-107.6 263.48,-107.6 269.48,-113.6 269.48,-119.6 269.48,-119.6 269.48,-156.8 269.48,-156.8 269.48,-162.8 263.48,-168.8 257.48,-168.8"/>
<text text-anchor="middle" x="206.7" y="-142.4" font-family="Arial" font-size="14.00">Exploit injection</text>
<text text-anchor="middle" x="206.7" y="-125.6" font-family="Arial" font-size="14.00">vulnerability</text>
</g>
<!-- gha_injection_vuln&#45;&gt;pwn_build_artifact -->
<g id="edge2" class="edge">
<title>gha_injection_vuln&#45;&gt;pwn_build_artifact</title>
<path fill="none" stroke="#2b303a" d="M247.52,-107.62C256.85,-101.54 266.91,-95.51 276.7,-90.6 302.98,-77.42 332.94,-65.81 360.05,-56.46"/>
<polygon fill="#2b303a" stroke="#2b303a" points="360.9,-59.87 369.25,-53.35 358.65,-53.24 360.9,-59.87"/>
</g>
<!-- gha_dangerous_pr_target -->
<g id="node13" class="node">
<title>gha_dangerous_pr_target</title>
<path fill="#ff92cc" stroke="none" d="M408.1,-185.9C408.1,-185.9 295.3,-185.9 295.3,-185.9 289.3,-185.9 283.3,-179.9 283.3,-173.9 283.3,-173.9 283.3,-102.5 283.3,-102.5 283.3,-96.5 289.3,-90.5 295.3,-90.5 295.3,-90.5 408.1,-90.5 408.1,-90.5 414.1,-90.5 420.1,-96.5 420.1,-102.5 420.1,-102.5 420.1,-173.9 420.1,-173.9 420.1,-179.9 414.1,-185.9 408.1,-185.9"/>
<text text-anchor="middle" x="351.7" y="-159.2" font-family="Arial" font-size="14.00">Exploit using</text>
<text text-anchor="middle" x="351.7" y="-142.4" font-family="Arial" font-size="14.00">elevated</text>
<text text-anchor="middle" x="351.7" y="-125.6" font-family="Arial" font-size="14.00">GITHUB_TOKEN</text>
<text text-anchor="middle" x="351.7" y="-108.8" font-family="Arial" font-size="14.00">privileges</text>
</g>
<!-- gha_dangerous_pr_target&#45;&gt;pwn_build_artifact -->
<g id="edge3" class="edge">
<title>gha_dangerous_pr_target&#45;&gt;pwn_build_artifact</title>
<path fill="none" stroke="#2b303a" d="M391.44,-90.66C397.46,-83.61 403.62,-76.4 409.46,-69.56"/>
<polygon fill="#2b303a" stroke="#2b303a" points="411.84,-72.16 415.67,-62.28 406.52,-67.61 411.84,-72.16"/>
</g>
<!-- exfil_repo_secrets&#45;&gt;exfil_pat -->
<!-- exfil_repo_secrets&#45;&gt;pwn_build_artifact -->
<g id="edge4" class="edge">
<title>exfil_repo_secrets&#45;&gt;pwn_build_artifact</title>
<path fill="none" stroke="#2b303a" d="M514.53,-231.93C506.56,-218.22 497.48,-201.51 490.7,-185.8 474.55,-148.41 460.96,-103.9 452.22,-72.37"/>
<polygon fill="#2b303a" stroke="#2b303a" points="455.63,-71.57 449.62,-62.84 448.88,-73.41 455.63,-71.57"/>
</g>
<!-- pivot -->
<g id="node25" class="node">
<title>pivot</title>
<path fill="#5f00c2" stroke="none" d="M777.19,-61.4C777.19,-61.4 690.21,-61.4 690.21,-61.4 684.21,-61.4 678.21,-55.4 678.21,-49.4 678.21,-49.4 678.21,-12.2 678.21,-12.2 678.21,-6.2 684.21,-0.2 690.21,-0.2 690.21,-0.2 777.19,-0.2 777.19,-0.2 783.19,-0.2 789.19,-6.2 789.19,-12.2 789.19,-12.2 789.19,-49.4 789.19,-49.4 789.19,-55.4 783.19,-61.4 777.19,-61.4"/>
<text text-anchor="middle" x="733.7" y="-35" font-family="Arial" font-size="14.00" fill="#ffffff">Pivot to other</text>
<text text-anchor="middle" x="733.7" y="-18.2" font-family="Arial" font-size="14.00" fill="#ffffff">resources</text>
</g>
<!-- exfil_repo_secrets&#45;&gt;pivot -->
<g id="edge8" class="edge">
<title>exfil_repo_secrets&#45;&gt;pivot</title>
<path fill="none" stroke="#2b303a" d="M577.27,-232.01C587.39,-225.92 598.24,-219.84 608.7,-214.8 642.77,-198.39 662.93,-213.48 688.7,-185.8 718.67,-153.61 703.26,-132.78 715.7,-90.6 717.45,-84.65 719.34,-78.37 721.21,-72.21"/>
<polygon fill="#2b303a" stroke="#2b303a" points="724.5,-73.41 724.07,-62.82 717.81,-71.37 724.5,-73.41"/>
</g>
<!-- exfil_org_secrets -->
<g id="node15" class="node">
<title>exfil_org_secrets</title>
<path fill="#ff92cc" stroke="none" d="M933.9,-168.8C933.9,-168.8 827.5,-168.8 827.5,-168.8 821.5,-168.8 815.5,-162.8 815.5,-156.8 815.5,-156.8 815.5,-119.6 815.5,-119.6 815.5,-113.6 821.5,-107.6 827.5,-107.6 827.5,-107.6 933.9,-107.6 933.9,-107.6 939.9,-107.6 945.9,-113.6 945.9,-119.6 945.9,-119.6 945.9,-156.8 945.9,-156.8 945.9,-162.8 939.9,-168.8 933.9,-168.8"/>
<text text-anchor="middle" x="880.7" y="-142.4" font-family="Arial" font-size="14.00">Exiltrate</text>
<text text-anchor="middle" x="880.7" y="-125.6" font-family="Arial" font-size="14.00">org&#45;level secrets</text>
</g>
<!-- exfil_org_secrets&#45;&gt;pwn_build_artifact -->
<g id="edge5" class="edge">
<title>exfil_org_secrets&#45;&gt;pwn_build_artifact</title>
<path fill="none" stroke="#2b303a" d="M815.84,-121.38C778.64,-112.33 731.06,-100.78 688.7,-90.6 633.83,-77.41 572.06,-62.71 524.02,-51.3"/>
<polygon fill="#2b303a" stroke="#2b303a" points="525.07,-47.95 514.53,-49.05 523.45,-54.76 525.07,-47.95"/>
</g>
<!-- exfil_org_secrets&#45;&gt;pivot -->
<g id="edge9" class="edge">
<title>exfil_org_secrets&#45;&gt;pivot</title>
<path fill="none" stroke="#2b303a" d="M839.75,-107.84C822.53,-95.5 802.33,-81.01 784.2,-68.01"/>
<polygon fill="#2b303a" stroke="#2b303a" points="786.33,-65.23 776.17,-62.25 782.26,-70.92 786.33,-65.23"/>
</g>
<!-- exfil_pat&#45;&gt;gha_use_env_prot_rule -->
<!-- exfil_pat&#45;&gt;pivot -->
<g id="edge10" class="edge">
<title>exfil_pat&#45;&gt;pivot</title>
<path fill="none" stroke="#2b303a" d="M687.36,-240.26C696.75,-225.63 708.33,-205.36 714.7,-185.8 726.8,-148.67 731.29,-104.2 732.9,-72.62"/>
<polygon fill="#2b303a" stroke="#2b303a" points="736.4,-72.84 733.33,-62.7 729.4,-72.54 736.4,-72.84"/>
</g>
<!-- poison_cache -->
<g id="node17" class="node">
<title>poison_cache</title>
<path fill="#ff92cc" stroke="none" d="M669.33,-168.8C669.33,-168.8 566.07,-168.8 566.07,-168.8 560.07,-168.8 554.07,-162.8 554.07,-156.8 554.07,-156.8 554.07,-119.6 554.07,-119.6 554.07,-113.6 560.07,-107.6 566.07,-107.6 566.07,-107.6 669.33,-107.6 669.33,-107.6 675.33,-107.6 681.33,-113.6 681.33,-119.6 681.33,-119.6 681.33,-156.8 681.33,-156.8 681.33,-162.8 675.33,-168.8 669.33,-168.8"/>
<text text-anchor="middle" x="617.7" y="-142.4" font-family="Arial" font-size="14.00">Poison the build</text>
<text text-anchor="middle" x="617.7" y="-125.6" font-family="Arial" font-size="14.00">cache</text>
</g>
<!-- poison_cache&#45;&gt;pwn_build_artifact -->
<g id="edge6" class="edge">
<title>poison_cache&#45;&gt;pwn_build_artifact</title>
<path fill="none" stroke="#2b303a" d="M570.62,-107.66C561.39,-101.95 551.76,-96.05 542.7,-90.6 529.88,-82.89 516.08,-74.75 502.91,-67.06"/>
<polygon fill="#2b303a" stroke="#2b303a" points="504.7,-64.05 494.3,-62.04 501.18,-70.1 504.7,-64.05"/>
</g>
<!-- create_new_repo&#45;&gt;exfil_org_secrets -->
<g id="edge16" class="edge">
<title>create_new_repo&#45;&gt;exfil_org_secrets</title>
<path fill="none" stroke="#2b303a" d="M727.05,-468.49C848.51,-448.42 1156.36,-390.44 1215.7,-310 1240.82,-275.95 1242.12,-247.85 1215.7,-214.8 1183.96,-175.09 1045.86,-154.74 957.18,-145.58"/>
<polygon fill="#2b303a" stroke="#2b303a" points="957.62,-142.1 947.32,-144.59 956.92,-149.07 957.62,-142.1"/>
</g>
<!-- gha_use_env_prot_rule&#45;&gt;gha_use_oidc_with_branch_filter -->
<!-- gha_use_env_prot_rule&#45;&gt;pwn_build_artifact -->
<!-- gha_use_env_prot_rule&#45;&gt;pivot -->
<!-- gha_use_oidc_with_branch_filter&#45;&gt;use_cache_isolation -->
<!-- gha_use_oidc_with_branch_filter&#45;&gt;pwn_build_artifact -->
<!-- gha_use_oidc_with_branch_filter&#45;&gt;pivot -->
<!-- use_sast_to_detection_injection&#45;&gt;gha_injection_vuln -->
<g id="edge13" class="edge">
<title>use_sast_to_detection_injection&#45;&gt;gha_injection_vuln</title>
<path fill="none" stroke="#2b303a" d="M209.73,-231.82C209.22,-216.21 208.59,-196.82 208.03,-179.82"/>
<polygon fill="#2b303a" stroke="#2b303a" points="211.53,-179.9 207.71,-170.02 204.54,-180.13 211.53,-179.9"/>
</g>
<!-- avoid_risky_pr_target_checkout&#45;&gt;gha_dangerous_pr_target -->
<g id="edge14" class="edge">
<title>avoid_risky_pr_target_checkout&#45;&gt;gha_dangerous_pr_target</title>
<path fill="none" stroke="#2b303a" d="M357.19,-223.07C356.64,-214.7 356.05,-205.67 355.47,-196.74"/>
<polygon fill="#2b303a" stroke="#2b303a" points="358.98,-196.8 354.83,-187.05 351.99,-197.26 358.98,-196.8"/>
</g>
<!-- use_cache_isolation&#45;&gt;poison_cache -->
<g id="edge18" class="edge">
<title>use_cache_isolation&#45;&gt;poison_cache</title>
<path fill="none" stroke="#2b303a" d="M1103.14,-240.16C1088.27,-230.86 1069.74,-220.73 1051.7,-214.8 948.38,-180.82 915.73,-205.17 808.7,-185.8 769.91,-178.78 727.24,-168.61 692.09,-159.56"/>
<polygon fill="#2b303a" stroke="#2b303a" points="692.98,-156.17 682.42,-157.05 691.22,-162.95 692.98,-156.17"/>
</g>
</g>
</svg>
