<?xml version="1.0" encoding="UTF-8" standalone="no"?>
<!DOCTYPE svg PUBLIC "-//W3C//DTD SVG 1.1//EN"
 "http://www.w3.org/Graphics/SVG/1.1/DTD/svg11.dtd">
<!-- Generated by graphviz version 7.0.0 (20221106.0712)
 -->
<!-- Pages: 1 -->
<svg width="2263pt" height="779pt"
 viewBox="0.00 0.00 2263.42 779.00" xmlns="http://www.w3.org/2000/svg" xmlns:xlink="http://www.w3.org/1999/xlink">
<g id="graph0" class="graph" transform="scale(1 1) rotate(0) translate(4 775)">
<polygon fill="white" stroke="none" points="-4,4 -4,-775 2259.42,-775 2259.42,4 -4,4"/>
<text text-anchor="middle" x="1127.71" y="-754.4" font-family="Arial" font-size="14.00">Software Supply Chain Attack Tree &#45; Continuous Integration System</text>
<!-- reality -->
<g id="node1" class="node">
<title>reality</title>
<path fill="#272727" stroke="none" d="M1288.47,-746.1C1288.47,-746.1 1241.89,-746.1 1241.89,-746.1 1235.89,-746.1 1229.89,-740.1 1229.89,-734.1 1229.89,-734.1 1229.89,-713.5 1229.89,-713.5 1229.89,-707.5 1235.89,-701.5 1241.89,-701.5 1241.89,-701.5 1288.47,-701.5 1288.47,-701.5 1294.47,-701.5 1300.47,-707.5 1300.47,-713.5 1300.47,-713.5 1300.47,-734.1 1300.47,-734.1 1300.47,-740.1 1294.47,-746.1 1288.47,-746.1"/>
<text text-anchor="middle" x="1265.18" y="-719.6" font-family="Arial" font-size="14.00" fill="#ffffff">Reality</text>
</g>
<!-- uses_gha -->
<g id="node2" class="node">
<title>uses_gha</title>
<path fill="#d2d5dd" stroke="none" d="M1331.84,-672.3C1331.84,-672.3 1198.52,-672.3 1198.52,-672.3 1192.52,-672.3 1186.52,-666.3 1186.52,-660.3 1186.52,-660.3 1186.52,-639.7 1186.52,-639.7 1186.52,-633.7 1192.52,-627.7 1198.52,-627.7 1198.52,-627.7 1331.84,-627.7 1331.84,-627.7 1337.84,-627.7 1343.84,-633.7 1343.84,-639.7 1343.84,-639.7 1343.84,-660.3 1343.84,-660.3 1343.84,-666.3 1337.84,-672.3 1331.84,-672.3"/>
<text text-anchor="middle" x="1265.18" y="-645.8" font-family="Arial" font-size="14.00">Uses GitHub Actions</text>
</g>
<!-- reality&#45;&gt;uses_gha -->
<g id="edge38" class="edge">
<title>reality&#45;&gt;uses_gha</title>
<path fill="none" stroke="#2b303a" d="M1265.18,-701.65C1265.18,-696 1265.18,-689.76 1265.18,-683.65"/>
<polygon fill="#2b303a" stroke="#2b303a" points="1268.68,-683.76 1265.18,-673.76 1261.68,-683.76 1268.68,-683.76"/>
</g>
<!-- public_repo -->
<g id="node3" class="node">
<title>public_repo</title>
<path fill="#d2d5dd" stroke="none" d="M1171.17,-581.7C1171.17,-581.7 1063.19,-581.7 1063.19,-581.7 1057.19,-581.7 1051.19,-575.7 1051.19,-569.7 1051.19,-569.7 1051.19,-549.1 1051.19,-549.1 1051.19,-543.1 1057.19,-537.1 1063.19,-537.1 1063.19,-537.1 1171.17,-537.1 1171.17,-537.1 1177.17,-537.1 1183.17,-543.1 1183.17,-549.1 1183.17,-549.1 1183.17,-569.7 1183.17,-569.7 1183.17,-575.7 1177.17,-581.7 1171.17,-581.7"/>
<text text-anchor="middle" x="1117.18" y="-555.2" font-family="Arial" font-size="14.00">Public repository</text>
</g>
<!-- uses_gha&#45;&gt;public_repo -->
<g id="edge39" class="edge">
<title>uses_gha&#45;&gt;public_repo</title>
<path fill="none" stroke="#2b303a" d="M1229.73,-627.78C1209.48,-615.66 1183.9,-600.34 1162.24,-587.37"/>
<polygon fill="#2b303a" stroke="#2b303a" points="1164.27,-584.51 1153.89,-582.38 1160.68,-590.52 1164.27,-584.51"/>
</g>
<!-- private_repo -->
<g id="node4" class="node">
<title>private_repo</title>
<path fill="#d2d5dd" stroke="none" d="M1321.61,-581.7C1321.61,-581.7 1208.75,-581.7 1208.75,-581.7 1202.75,-581.7 1196.75,-575.7 1196.75,-569.7 1196.75,-569.7 1196.75,-549.1 1196.75,-549.1 1196.75,-543.1 1202.75,-537.1 1208.75,-537.1 1208.75,-537.1 1321.61,-537.1 1321.61,-537.1 1327.61,-537.1 1333.61,-543.1 1333.61,-549.1 1333.61,-549.1 1333.61,-569.7 1333.61,-569.7 1333.61,-575.7 1327.61,-581.7 1321.61,-581.7"/>
<text text-anchor="middle" x="1265.18" y="-555.2" font-family="Arial" font-size="14.00">Private repository</text>
</g>
<!-- uses_gha&#45;&gt;private_repo -->
<g id="edge40" class="edge">
<title>uses_gha&#45;&gt;private_repo</title>
<path fill="none" stroke="#2b303a" d="M1265.18,-628C1265.18,-617.49 1265.18,-604.52 1265.18,-592.77"/>
<polygon fill="#2b303a" stroke="#2b303a" points="1268.68,-593.07 1265.18,-583.07 1261.68,-593.07 1268.68,-593.07"/>
</g>
<!-- has_perm_to_create_new_repo -->
<g id="node10" class="node">
<title>has_perm_to_create_new_repo</title>
<path fill="#d2d5dd" stroke="none" d="M1481.22,-598.8C1481.22,-598.8 1365.14,-598.8 1365.14,-598.8 1359.14,-598.8 1353.14,-592.8 1353.14,-586.8 1353.14,-586.8 1353.14,-532 1353.14,-532 1353.14,-526 1359.14,-520 1365.14,-520 1365.14,-520 1481.22,-520 1481.22,-520 1487.22,-520 1493.22,-526 1493.22,-532 1493.22,-532 1493.22,-586.8 1493.22,-586.8 1493.22,-592.8 1487.22,-598.8 1481.22,-598.8"/>
<text text-anchor="middle" x="1423.18" y="-572" font-family="Arial" font-size="14.00">Has permission to</text>
<text text-anchor="middle" x="1423.18" y="-555.2" font-family="Arial" font-size="14.00">create new</text>
<text text-anchor="middle" x="1423.18" y="-538.4" font-family="Arial" font-size="14.00">repository</text>
</g>
<!-- uses_gha&#45;&gt;has_perm_to_create_new_repo -->
<g id="edge46" class="edge">
<title>uses_gha&#45;&gt;has_perm_to_create_new_repo</title>
<path fill="none" stroke="#2b303a" d="M1303.02,-627.78C1315.63,-620.71 1330.19,-612.55 1344.71,-604.4"/>
<polygon fill="#2b303a" stroke="#2b303a" points="1346.41,-607.46 1353.42,-599.52 1342.99,-601.36 1346.41,-607.46"/>
</g>
<!-- public_repo&#45;&gt;private_repo -->
<!-- gha_on_pull_request_from_fork -->
<g id="node5" class="node">
<title>gha_on_pull_request_from_fork</title>
<path fill="#d2d5dd" stroke="none" d="M899.59,-392C899.59,-392 780.77,-392 780.77,-392 774.77,-392 768.77,-386 768.77,-380 768.77,-380 768.77,-342.8 768.77,-342.8 768.77,-336.8 774.77,-330.8 780.77,-330.8 780.77,-330.8 899.59,-330.8 899.59,-330.8 905.59,-330.8 911.59,-336.8 911.59,-342.8 911.59,-342.8 911.59,-380 911.59,-380 911.59,-386 905.59,-392 899.59,-392"/>
<text text-anchor="middle" x="840.18" y="-365.6" font-family="Arial" font-size="14.00">pull_request event</text>
<text text-anchor="middle" x="840.18" y="-348.8" font-family="Arial" font-size="14.00">(From fork)</text>
</g>
<!-- public_repo&#45;&gt;gha_on_pull_request_from_fork -->
<g id="edge41" class="edge">
<title>public_repo&#45;&gt;gha_on_pull_request_from_fork</title>
<path fill="none" stroke="#2b303a" d="M1087.27,-537.24C1040.23,-503.95 948.39,-438.97 890.89,-398.28"/>
<polygon fill="#2b303a" stroke="#2b303a" points="893.04,-395.52 882.86,-392.6 889,-401.23 893.04,-395.52"/>
</g>
<!-- gha_on_pull_request_target_from_fork -->
<g id="node6" class="node">
<title>gha_on_pull_request_target_from_fork</title>
<path fill="#d2d5dd" stroke="none" d="M1091.04,-400.8C1091.04,-400.8 967.32,-400.8 967.32,-400.8 961.32,-400.8 955.32,-394.8 955.32,-388.8 955.32,-388.8 955.32,-334 955.32,-334 955.32,-328 961.32,-322 967.32,-322 967.32,-322 1091.04,-322 1091.04,-322 1097.04,-322 1103.04,-328 1103.04,-334 1103.04,-334 1103.04,-388.8 1103.04,-388.8 1103.04,-394.8 1097.04,-400.8 1091.04,-400.8"/>
<text text-anchor="middle" x="1029.18" y="-374" font-family="Arial" font-size="14.00">pull_request_target</text>
<text text-anchor="middle" x="1029.18" y="-357.2" font-family="Arial" font-size="14.00">event</text>
<text text-anchor="middle" x="1029.18" y="-340.4" font-family="Arial" font-size="14.00">(From fork)</text>
</g>
<!-- public_repo&#45;&gt;gha_on_pull_request_target_from_fork -->
<g id="edge42" class="edge">
<title>public_repo&#45;&gt;gha_on_pull_request_target_from_fork</title>
<path fill="none" stroke="#2b303a" d="M1107.76,-537.42C1094.33,-507.51 1069.28,-451.72 1051.07,-411.15"/>
<polygon fill="#2b303a" stroke="#2b303a" points="1054.27,-409.74 1046.98,-402.05 1047.89,-412.61 1054.27,-409.74"/>
</g>
<!-- extract_sensitive_tokens_from_actions_logs -->
<g id="node12" class="node">
<title>extract_sensitive_tokens_from_actions_logs</title>
<path fill="#ff92cc" stroke="none" d="M1511.07,-400.8C1511.07,-400.8 1385.29,-400.8 1385.29,-400.8 1379.29,-400.8 1373.29,-394.8 1373.29,-388.8 1373.29,-388.8 1373.29,-334 1373.29,-334 1373.29,-328 1379.29,-322 1385.29,-322 1385.29,-322 1511.07,-322 1511.07,-322 1517.07,-322 1523.07,-328 1523.07,-334 1523.07,-334 1523.07,-388.8 1523.07,-388.8 1523.07,-394.8 1517.07,-400.8 1511.07,-400.8"/>
<text text-anchor="middle" x="1448.18" y="-374" font-family="Arial" font-size="14.00">Extract sensitive</text>
<text text-anchor="middle" x="1448.18" y="-357.2" font-family="Arial" font-size="14.00">tokens from actions</text>
<text text-anchor="middle" x="1448.18" y="-340.4" font-family="Arial" font-size="14.00">logs</text>
</g>
<!-- public_repo&#45;&gt;extract_sensitive_tokens_from_actions_logs -->
<g id="edge14" class="edge">
<title>public_repo&#45;&gt;extract_sensitive_tokens_from_actions_logs</title>
<path fill="none" stroke="#2b303a" d="M1152.64,-537.21C1164.28,-530.98 1177.49,-524.65 1190.18,-520.2 1253.85,-497.88 1285.67,-532.29 1339.18,-491.2 1363.33,-472.65 1350.52,-453.66 1369.18,-429.6 1374.89,-422.24 1381.52,-415.1 1388.46,-408.41"/>
<polygon fill="#2b303a" stroke="#2b303a" points="1390.65,-411.15 1395.61,-401.79 1385.9,-406.02 1390.65,-411.15"/>
</g>
<!-- gha_on_pull_request_from_branch -->
<g id="node7" class="node">
<title>gha_on_pull_request_from_branch</title>
<path fill="#d2d5dd" stroke="none" d="M1320.59,-482.7C1320.59,-482.7 1201.77,-482.7 1201.77,-482.7 1195.77,-482.7 1189.77,-476.7 1189.77,-470.7 1189.77,-470.7 1189.77,-450.1 1189.77,-450.1 1189.77,-444.1 1195.77,-438.1 1201.77,-438.1 1201.77,-438.1 1320.59,-438.1 1320.59,-438.1 1326.59,-438.1 1332.59,-444.1 1332.59,-450.1 1332.59,-450.1 1332.59,-470.7 1332.59,-470.7 1332.59,-476.7 1326.59,-482.7 1320.59,-482.7"/>
<text text-anchor="middle" x="1261.18" y="-456.2" font-family="Arial" font-size="14.00">pull_request event</text>
</g>
<!-- private_repo&#45;&gt;gha_on_pull_request_from_branch -->
<g id="edge43" class="edge">
<title>private_repo&#45;&gt;gha_on_pull_request_from_branch</title>
<path fill="none" stroke="#2b303a" d="M1264.31,-537.35C1263.79,-524.64 1263.11,-508.18 1262.52,-493.83"/>
<polygon fill="#2b303a" stroke="#2b303a" points="1266.02,-493.77 1262.11,-483.92 1259.02,-494.05 1266.02,-493.77"/>
</g>
<!-- private_repo&#45;&gt;has_perm_to_create_new_repo -->
<!-- gha_on_pull_request_from_fork&#45;&gt;gha_on_pull_request_target_from_fork -->
<!-- convince_maintainer -->
<g id="node15" class="node">
<title>convince_maintainer</title>
<path fill="#ff92cc" stroke="none" d="M925.08,-293.3C925.08,-293.3 827.28,-293.3 827.28,-293.3 821.28,-293.3 815.28,-287.3 815.28,-281.3 815.28,-281.3 815.28,-209.9 815.28,-209.9 815.28,-203.9 821.28,-197.9 827.28,-197.9 827.28,-197.9 925.08,-197.9 925.08,-197.9 931.08,-197.9 937.08,-203.9 937.08,-209.9 937.08,-209.9 937.08,-281.3 937.08,-281.3 937.08,-287.3 931.08,-293.3 925.08,-293.3"/>
<text text-anchor="middle" x="876.18" y="-266.6" font-family="Arial" font-size="14.00">Convince</text>
<text text-anchor="middle" x="876.18" y="-249.8" font-family="Arial" font-size="14.00">maintainer to</text>
<text text-anchor="middle" x="876.18" y="-233" font-family="Arial" font-size="14.00">accept pipeline</text>
<text text-anchor="middle" x="876.18" y="-216.2" font-family="Arial" font-size="14.00">changes</text>
</g>
<!-- gha_on_pull_request_from_fork&#45;&gt;convince_maintainer -->
<g id="edge18" class="edge">
<title>gha_on_pull_request_from_fork&#45;&gt;convince_maintainer</title>
<path fill="none" stroke="#2b303a" d="M849.45,-331.09C852.09,-322.76 855.05,-313.39 858.02,-304"/>
<polygon fill="#2b303a" stroke="#2b303a" points="861.36,-305.06 861.03,-294.47 854.68,-302.95 861.36,-305.06"/>
</g>
<!-- gha_on_pull_request_target_from_fork&#45;&gt;extract_sensitive_tokens_from_actions_logs -->
<!-- gha_injection_vuln -->
<g id="node13" class="node">
<title>gha_injection_vuln</title>
<path fill="#ff92cc" stroke="none" d="M344.96,-276.2C344.96,-276.2 243.4,-276.2 243.4,-276.2 237.4,-276.2 231.4,-270.2 231.4,-264.2 231.4,-264.2 231.4,-227 231.4,-227 231.4,-221 237.4,-215 243.4,-215 243.4,-215 344.96,-215 344.96,-215 350.96,-215 356.96,-221 356.96,-227 356.96,-227 356.96,-264.2 356.96,-264.2 356.96,-270.2 350.96,-276.2 344.96,-276.2"/>
<text text-anchor="middle" x="294.18" y="-249.8" font-family="Arial" font-size="14.00">Exploit injection</text>
<text text-anchor="middle" x="294.18" y="-233" font-family="Arial" font-size="14.00">vulnerability</text>
</g>
<!-- gha_on_pull_request_target_from_fork&#45;&gt;gha_injection_vuln -->
<g id="edge15" class="edge">
<title>gha_on_pull_request_target_from_fork&#45;&gt;gha_injection_vuln</title>
<path fill="none" stroke="#2b303a" d="M955.58,-325.39C951.77,-324.19 947.95,-323.11 944.18,-322.2 703.66,-264.05 627.55,-355.9 388.18,-293.2 376.96,-290.26 365.51,-285.9 354.64,-281.01"/>
<polygon fill="#2b303a" stroke="#2b303a" points="356.32,-277.94 345.78,-276.84 353.33,-284.27 356.32,-277.94"/>
</g>
<!-- gha_dangerous_pr_target -->
<g id="node14" class="node">
<title>gha_dangerous_pr_target</title>
<path fill="#ff92cc" stroke="none" d="M563.67,-285C563.67,-285 406.69,-285 406.69,-285 400.69,-285 394.69,-279 394.69,-273 394.69,-273 394.69,-218.2 394.69,-218.2 394.69,-212.2 400.69,-206.2 406.69,-206.2 406.69,-206.2 563.67,-206.2 563.67,-206.2 569.67,-206.2 575.67,-212.2 575.67,-218.2 575.67,-218.2 575.67,-273 575.67,-273 575.67,-279 569.67,-285 563.67,-285"/>
<text text-anchor="middle" x="485.18" y="-258.2" font-family="Arial" font-size="14.00">Abuse GITHUB_TOKEN</text>
<text text-anchor="middle" x="485.18" y="-241.4" font-family="Arial" font-size="14.00">privileges and</text>
<text text-anchor="middle" x="485.18" y="-224.6" font-family="Arial" font-size="14.00">secrets</text>
</g>
<!-- gha_on_pull_request_target_from_fork&#45;&gt;gha_dangerous_pr_target -->
<g id="edge16" class="edge">
<title>gha_on_pull_request_target_from_fork&#45;&gt;gha_dangerous_pr_target</title>
<path fill="none" stroke="#2b303a" d="M955.44,-325.91C951.66,-324.57 947.9,-323.32 944.18,-322.2 879.08,-302.57 701.02,-276.06 586.78,-260.21"/>
<polygon fill="#2b303a" stroke="#2b303a" points="587.47,-256.77 577.08,-258.87 586.51,-263.7 587.47,-256.77"/>
</g>
<!-- repo_has_no_branch_protection -->
<g id="node8" class="node">
<title>repo_has_no_branch_protection</title>
<path fill="#d2d5dd" stroke="none" d="M1199.32,-392C1199.32,-392 1129.03,-392 1129.03,-392 1123.03,-392 1117.03,-386 1117.03,-380 1117.03,-380 1117.03,-342.8 1117.03,-342.8 1117.03,-336.8 1123.03,-330.8 1129.03,-330.8 1129.03,-330.8 1199.32,-330.8 1199.32,-330.8 1205.32,-330.8 1211.32,-336.8 1211.32,-342.8 1211.32,-342.8 1211.32,-380 1211.32,-380 1211.32,-386 1205.32,-392 1199.32,-392"/>
<text text-anchor="middle" x="1164.18" y="-365.6" font-family="Arial" font-size="14.00">No Branch</text>
<text text-anchor="middle" x="1164.18" y="-348.8" font-family="Arial" font-size="14.00">Protection</text>
</g>
<!-- gha_on_pull_request_from_branch&#45;&gt;repo_has_no_branch_protection -->
<g id="edge44" class="edge">
<title>gha_on_pull_request_from_branch&#45;&gt;repo_has_no_branch_protection</title>
<path fill="none" stroke="#2b303a" d="M1240.13,-438.35C1228.87,-427.09 1214.67,-412.89 1201.6,-399.82"/>
<polygon fill="#2b303a" stroke="#2b303a" points="1204.27,-397.54 1194.72,-392.94 1199.32,-402.49 1204.27,-397.54"/>
</g>
<!-- repo_has_sufficient_branch_protection -->
<g id="node9" class="node">
<title>repo_has_sufficient_branch_protection</title>
<path fill="#d2d5dd" stroke="none" d="M1347.01,-392C1347.01,-392 1237.35,-392 1237.35,-392 1231.35,-392 1225.35,-386 1225.35,-380 1225.35,-380 1225.35,-342.8 1225.35,-342.8 1225.35,-336.8 1231.35,-330.8 1237.35,-330.8 1237.35,-330.8 1347.01,-330.8 1347.01,-330.8 1353.01,-330.8 1359.01,-336.8 1359.01,-342.8 1359.01,-342.8 1359.01,-380 1359.01,-380 1359.01,-386 1353.01,-392 1347.01,-392"/>
<text text-anchor="middle" x="1292.18" y="-365.6" font-family="Arial" font-size="14.00">Sufficient Branch</text>
<text text-anchor="middle" x="1292.18" y="-348.8" font-family="Arial" font-size="14.00">Protection</text>
</g>
<!-- gha_on_pull_request_from_branch&#45;&gt;repo_has_sufficient_branch_protection -->
<g id="edge45" class="edge">
<title>gha_on_pull_request_from_branch&#45;&gt;repo_has_sufficient_branch_protection</title>
<path fill="none" stroke="#2b303a" d="M1267.91,-438.35C1271.23,-427.94 1275.36,-415.02 1279.27,-402.8"/>
<polygon fill="#2b303a" stroke="#2b303a" points="1282.59,-403.9 1282.3,-393.31 1275.92,-401.77 1282.59,-403.9"/>
</g>
<!-- repo_has_no_branch_protection&#45;&gt;repo_has_sufficient_branch_protection -->
<!-- pwn_build_artifact -->
<g id="node36" class="node">
<title>pwn_build_artifact</title>
<path fill="#5f00c2" stroke="none" d="M1084.55,-61.4C1084.55,-61.4 965.81,-61.4 965.81,-61.4 959.81,-61.4 953.81,-55.4 953.81,-49.4 953.81,-49.4 953.81,-12.2 953.81,-12.2 953.81,-6.2 959.81,-0.2 965.81,-0.2 965.81,-0.2 1084.55,-0.2 1084.55,-0.2 1090.55,-0.2 1096.55,-6.2 1096.55,-12.2 1096.55,-12.2 1096.55,-49.4 1096.55,-49.4 1096.55,-55.4 1090.55,-61.4 1084.55,-61.4"/>
<text text-anchor="middle" x="1025.18" y="-35" font-family="Arial" font-size="14.00" fill="#ffffff">Compromise Build</text>
<text text-anchor="middle" x="1025.18" y="-18.2" font-family="Arial" font-size="14.00" fill="#ffffff">artifact</text>
</g>
<!-- repo_has_no_branch_protection&#45;&gt;pwn_build_artifact -->
<g id="edge9" class="edge">
<title>repo_has_no_branch_protection&#45;&gt;pwn_build_artifact</title>
<path fill="none" stroke="#2b303a" d="M1123.91,-330.97C1119.34,-327.91 1114.7,-324.93 1110.18,-322.2 1085.85,-307.51 1070.37,-315.84 1053.18,-293.2 1004.22,-228.72 1009.67,-128.09 1017.63,-72.37"/>
<polygon fill="#2b303a" stroke="#2b303a" points="1021.06,-73.1 1019.12,-62.69 1014.14,-72.04 1021.06,-73.1"/>
</g>
<!-- repo_has_sufficient_branch_protection&#45;&gt;convince_maintainer -->
<g id="edge17" class="edge">
<title>repo_has_sufficient_branch_protection&#45;&gt;convince_maintainer</title>
<path fill="none" stroke="#2b303a" d="M1239.67,-330.86C1232.59,-327.61 1225.3,-324.6 1218.18,-322.2 1147.63,-298.41 1125.91,-309.14 1053.18,-293.2 1018.33,-285.56 980.01,-275.66 947.96,-266.95"/>
<polygon fill="#2b303a" stroke="#2b303a" points="948.93,-263.59 938.36,-264.33 947.08,-270.34 948.93,-263.59"/>
</g>
<!-- poison_cache -->
<g id="node16" class="node">
<title>poison_cache</title>
<path fill="#ff92cc" stroke="none" d="M1307.81,-276.2C1307.81,-276.2 1204.55,-276.2 1204.55,-276.2 1198.55,-276.2 1192.55,-270.2 1192.55,-264.2 1192.55,-264.2 1192.55,-227 1192.55,-227 1192.55,-221 1198.55,-215 1204.55,-215 1204.55,-215 1307.81,-215 1307.81,-215 1313.81,-215 1319.81,-221 1319.81,-227 1319.81,-227 1319.81,-264.2 1319.81,-264.2 1319.81,-270.2 1313.81,-276.2 1307.81,-276.2"/>
<text text-anchor="middle" x="1256.18" y="-249.8" font-family="Arial" font-size="14.00">Poison the build</text>
<text text-anchor="middle" x="1256.18" y="-233" font-family="Arial" font-size="14.00">cache</text>
</g>
<!-- repo_has_sufficient_branch_protection&#45;&gt;poison_cache -->
<g id="edge19" class="edge">
<title>repo_has_sufficient_branch_protection&#45;&gt;poison_cache</title>
<path fill="none" stroke="#2b303a" d="M1282.91,-331.09C1278.63,-317.55 1273.47,-301.26 1268.84,-286.62"/>
<polygon fill="#2b303a" stroke="#2b303a" points="1272.23,-285.73 1265.88,-277.25 1265.55,-287.84 1272.23,-285.73"/>
</g>
<!-- exfil_repo_secrets -->
<g id="node17" class="node">
<title>exfil_repo_secrets</title>
<path fill="#ff92cc" stroke="none" d="M1477.67,-276.2C1477.67,-276.2 1362.69,-276.2 1362.69,-276.2 1356.69,-276.2 1350.69,-270.2 1350.69,-264.2 1350.69,-264.2 1350.69,-227 1350.69,-227 1350.69,-221 1356.69,-215 1362.69,-215 1362.69,-215 1477.67,-215 1477.67,-215 1483.67,-215 1489.67,-221 1489.67,-227 1489.67,-227 1489.67,-264.2 1489.67,-264.2 1489.67,-270.2 1483.67,-276.2 1477.67,-276.2"/>
<text text-anchor="middle" x="1420.18" y="-249.8" font-family="Arial" font-size="14.00">Exfiltrate</text>
<text text-anchor="middle" x="1420.18" y="-233" font-family="Arial" font-size="14.00">repo&#45;level secrets</text>
</g>
<!-- repo_has_sufficient_branch_protection&#45;&gt;exfil_repo_secrets -->
<g id="edge20" class="edge">
<title>repo_has_sufficient_branch_protection&#45;&gt;exfil_repo_secrets</title>
<path fill="none" stroke="#2b303a" d="M1325.14,-331.09C1341.57,-316.49 1361.59,-298.69 1379.01,-283.2"/>
<polygon fill="#2b303a" stroke="#2b303a" points="1381.05,-286.07 1386.2,-276.81 1376.4,-280.84 1381.05,-286.07"/>
</g>
<!-- exfil_pat -->
<g id="node19" class="node">
<title>exfil_pat</title>
<path fill="#ff92cc" stroke="none" d="M1667.76,-267.9C1667.76,-267.9 1578.6,-267.9 1578.6,-267.9 1572.6,-267.9 1566.6,-261.9 1566.6,-255.9 1566.6,-255.9 1566.6,-235.3 1566.6,-235.3 1566.6,-229.3 1572.6,-223.3 1578.6,-223.3 1578.6,-223.3 1667.76,-223.3 1667.76,-223.3 1673.76,-223.3 1679.76,-229.3 1679.76,-235.3 1679.76,-235.3 1679.76,-255.9 1679.76,-255.9 1679.76,-261.9 1673.76,-267.9 1667.76,-267.9"/>
<text text-anchor="middle" x="1623.18" y="-241.4" font-family="Arial" font-size="14.00">Exfiltrate PAT</text>
</g>
<!-- repo_has_sufficient_branch_protection&#45;&gt;exfil_pat -->
<g id="edge22" class="edge">
<title>repo_has_sufficient_branch_protection&#45;&gt;exfil_pat</title>
<path fill="none" stroke="#2b303a" d="M1345.2,-330.98C1352.14,-327.74 1359.25,-324.71 1366.18,-322.2 1421.83,-302.01 1439.38,-309.88 1496.18,-293.2 1517.1,-287.06 1539.54,-279.24 1559.65,-271.78"/>
<polygon fill="#2b303a" stroke="#2b303a" points="1560.7,-275.12 1568.83,-268.33 1558.24,-268.57 1560.7,-275.12"/>
</g>
<!-- self_approve_pr -->
<g id="node21" class="node">
<title>self_approve_pr</title>
<path fill="#ff92cc" stroke="none" d="M1817.06,-276.2C1817.06,-276.2 1705.3,-276.2 1705.3,-276.2 1699.3,-276.2 1693.3,-270.2 1693.3,-264.2 1693.3,-264.2 1693.3,-227 1693.3,-227 1693.3,-221 1699.3,-215 1705.3,-215 1705.3,-215 1817.06,-215 1817.06,-215 1823.06,-215 1829.06,-221 1829.06,-227 1829.06,-227 1829.06,-264.2 1829.06,-264.2 1829.06,-270.2 1823.06,-276.2 1817.06,-276.2"/>
<text text-anchor="middle" x="1761.18" y="-249.8" font-family="Arial" font-size="14.00">Workflow</text>
<text text-anchor="middle" x="1761.18" y="-233" font-family="Arial" font-size="14.00">self&#45;approves PR</text>
</g>
<!-- repo_has_sufficient_branch_protection&#45;&gt;self_approve_pr -->
<g id="edge24" class="edge">
<title>repo_has_sufficient_branch_protection&#45;&gt;self_approve_pr</title>
<path fill="none" stroke="#2b303a" d="M1343.28,-330.84C1350.77,-327.45 1358.54,-324.42 1366.18,-322.2 1503.72,-282.16 1551.48,-339.08 1687.18,-293.2 1695.57,-290.36 1703.99,-286.4 1711.97,-281.96"/>
<polygon fill="#2b303a" stroke="#2b303a" points="1713.69,-285.02 1720.52,-276.92 1710.13,-278.99 1713.69,-285.02"/>
</g>
<!-- create_new_repo -->
<g id="node20" class="node">
<title>create_new_repo</title>
<path fill="#ff92cc" stroke="none" d="M1463.77,-491C1463.77,-491 1388.59,-491 1388.59,-491 1382.59,-491 1376.59,-485 1376.59,-479 1376.59,-479 1376.59,-441.8 1376.59,-441.8 1376.59,-435.8 1382.59,-429.8 1388.59,-429.8 1388.59,-429.8 1463.77,-429.8 1463.77,-429.8 1469.77,-429.8 1475.77,-435.8 1475.77,-441.8 1475.77,-441.8 1475.77,-479 1475.77,-479 1475.77,-485 1469.77,-491 1463.77,-491"/>
<text text-anchor="middle" x="1426.18" y="-464.6" font-family="Arial" font-size="14.00">Create new</text>
<text text-anchor="middle" x="1426.18" y="-447.8" font-family="Arial" font-size="14.00">repository</text>
</g>
<!-- has_perm_to_create_new_repo&#45;&gt;create_new_repo -->
<g id="edge23" class="edge">
<title>has_perm_to_create_new_repo&#45;&gt;create_new_repo</title>
<path fill="none" stroke="#2b303a" d="M1424.37,-520.06C1424.55,-514.13 1424.74,-507.98 1424.92,-501.99"/>
<polygon fill="#2b303a" stroke="#2b303a" points="1428.41,-502.4 1425.22,-492.3 1421.42,-502.18 1428.41,-502.4"/>
</g>
<!-- limit_default_org_member_privileges -->
<g id="node31" class="node">
<title>limit_default_org_member_privileges</title>
<path fill="#b9d6f2" stroke="none" d="M1620.55,-491C1620.55,-491 1501.81,-491 1501.81,-491 1495.81,-491 1489.81,-485 1489.81,-479 1489.81,-479 1489.81,-441.8 1489.81,-441.8 1489.81,-435.8 1495.81,-429.8 1501.81,-429.8 1501.81,-429.8 1620.55,-429.8 1620.55,-429.8 1626.55,-429.8 1632.55,-435.8 1632.55,-441.8 1632.55,-441.8 1632.55,-479 1632.55,-479 1632.55,-485 1626.55,-491 1620.55,-491"/>
<text text-anchor="middle" x="1561.18" y="-464.6" font-family="Arial" font-size="14.00">Limit default Org.</text>
<text text-anchor="middle" x="1561.18" y="-447.8" font-family="Arial" font-size="14.00">member privileges</text>
</g>
<!-- has_perm_to_create_new_repo&#45;&gt;limit_default_org_member_privileges -->
<g id="edge34" class="edge">
<title>has_perm_to_create_new_repo&#45;&gt;limit_default_org_member_privileges</title>
<path fill="none" stroke="#2b303a" d="M1477.72,-520.06C1488.44,-512.53 1499.65,-504.65 1510.25,-497.2"/>
<polygon fill="#2b303a" stroke="#2b303a" points="1511.97,-500.27 1518.14,-491.65 1507.94,-494.54 1511.97,-500.27"/>
</g>
<!-- gha_use_self_hosted_runner -->
<g id="node11" class="node">
<title>gha_use_self_hosted_runner</title>
<path fill="#d2d5dd" stroke="none" d="M132.95,-160.4C132.95,-160.4 31.41,-160.4 31.41,-160.4 25.41,-160.4 19.41,-154.4 19.41,-148.4 19.41,-148.4 19.41,-111.2 19.41,-111.2 19.41,-105.2 25.41,-99.2 31.41,-99.2 31.41,-99.2 132.95,-99.2 132.95,-99.2 138.95,-99.2 144.95,-105.2 144.95,-111.2 144.95,-111.2 144.95,-148.4 144.95,-148.4 144.95,-154.4 138.95,-160.4 132.95,-160.4"/>
<text text-anchor="middle" x="82.18" y="-134" font-family="Arial" font-size="14.00">Use self&#45;hosted</text>
<text text-anchor="middle" x="82.18" y="-117.2" font-family="Arial" font-size="14.00">runner</text>
</g>
<!-- gha_sast_detects_injection -->
<g id="node26" class="node">
<title>gha_sast_detects_injection</title>
<path fill="#b9d6f2" stroke="none" d="M357.62,-160.4C357.62,-160.4 230.74,-160.4 230.74,-160.4 224.74,-160.4 218.74,-154.4 218.74,-148.4 218.74,-148.4 218.74,-111.2 218.74,-111.2 218.74,-105.2 224.74,-99.2 230.74,-99.2 230.74,-99.2 357.62,-99.2 357.62,-99.2 363.62,-99.2 369.62,-105.2 369.62,-111.2 369.62,-111.2 369.62,-148.4 369.62,-148.4 369.62,-154.4 363.62,-160.4 357.62,-160.4"/>
<text text-anchor="middle" x="294.18" y="-134" font-family="Arial" font-size="14.00">Use SAST to detect</text>
<text text-anchor="middle" x="294.18" y="-117.2" font-family="Arial" font-size="14.00">injection</text>
</g>
<!-- gha_use_self_hosted_runner&#45;&gt;gha_sast_detects_injection -->
<!-- gha_drop_privs -->
<g id="node27" class="node">
<title>gha_drop_privs</title>
<path fill="#b9d6f2" stroke="none" d="M474.37,-169.2C474.37,-169.2 395.99,-169.2 395.99,-169.2 389.99,-169.2 383.99,-163.2 383.99,-157.2 383.99,-157.2 383.99,-102.4 383.99,-102.4 383.99,-96.4 389.99,-90.4 395.99,-90.4 395.99,-90.4 474.37,-90.4 474.37,-90.4 480.37,-90.4 486.37,-96.4 486.37,-102.4 486.37,-102.4 486.37,-157.2 486.37,-157.2 486.37,-163.2 480.37,-169.2 474.37,-169.2"/>
<text text-anchor="middle" x="435.18" y="-142.4" font-family="Arial" font-size="14.00">Use Least</text>
<text text-anchor="middle" x="435.18" y="-125.6" font-family="Arial" font-size="14.00">Privileged</text>
<text text-anchor="middle" x="435.18" y="-108.8" font-family="Arial" font-size="14.00">permissions</text>
</g>
<!-- gha_use_self_hosted_runner&#45;&gt;gha_drop_privs -->
<!-- pwn_self_hosted_runner -->
<g id="node35" class="node">
<title>pwn_self_hosted_runner</title>
<path fill="#5f00c2" stroke="none" d="M140.52,-61.4C140.52,-61.4 23.84,-61.4 23.84,-61.4 17.84,-61.4 11.84,-55.4 11.84,-49.4 11.84,-49.4 11.84,-12.2 11.84,-12.2 11.84,-6.2 17.84,-0.2 23.84,-0.2 23.84,-0.2 140.52,-0.2 140.52,-0.2 146.52,-0.2 152.52,-6.2 152.52,-12.2 152.52,-12.2 152.52,-49.4 152.52,-49.4 152.52,-55.4 146.52,-61.4 140.52,-61.4"/>
<text text-anchor="middle" x="82.18" y="-35" font-family="Arial" font-size="14.00" fill="#ffffff">Compromise</text>
<text text-anchor="middle" x="82.18" y="-18.2" font-family="Arial" font-size="14.00" fill="#ffffff">self&#45;hosted runner</text>
</g>
<!-- gha_use_self_hosted_runner&#45;&gt;pwn_self_hosted_runner -->
<g id="edge1" class="edge">
<title>gha_use_self_hosted_runner&#45;&gt;pwn_self_hosted_runner</title>
<path fill="none" stroke="#2b303a" d="M82.18,-99.43C82.18,-90.89 82.18,-81.4 82.18,-72.29"/>
<polygon fill="#2b303a" stroke="#2b303a" points="85.68,-72.58 82.18,-62.58 78.68,-72.58 85.68,-72.58"/>
</g>
<!-- mask_dynamic_secrets -->
<g id="node34" class="node">
<title>mask_dynamic_secrets</title>
<path fill="#b9d6f2" stroke="none" d="M1166.16,-276.2C1166.16,-276.2 1072.2,-276.2 1072.2,-276.2 1066.2,-276.2 1060.2,-270.2 1060.2,-264.2 1060.2,-264.2 1060.2,-227 1060.2,-227 1060.2,-221 1066.2,-215 1072.2,-215 1072.2,-215 1166.16,-215 1166.16,-215 1172.16,-215 1178.16,-221 1178.16,-227 1178.16,-227 1178.16,-264.2 1178.16,-264.2 1178.16,-270.2 1172.16,-276.2 1166.16,-276.2"/>
<text text-anchor="middle" x="1119.18" y="-249.8" font-family="Arial" font-size="14.00">Mask dynamic</text>
<text text-anchor="middle" x="1119.18" y="-233" font-family="Arial" font-size="14.00">secrets in logs</text>
</g>
<!-- extract_sensitive_tokens_from_actions_logs&#45;&gt;mask_dynamic_secrets -->
<g id="edge37" class="edge">
<title>extract_sensitive_tokens_from_actions_logs&#45;&gt;mask_dynamic_secrets</title>
<path fill="none" stroke="#2b303a" d="M1373.44,-324.57C1371,-323.73 1368.58,-322.94 1366.18,-322.2 1288.29,-298.33 1260.63,-323.93 1185.18,-293.2 1178.11,-290.32 1171.06,-286.56 1164.35,-282.42"/>
<polygon fill="#2b303a" stroke="#2b303a" points="1166.33,-279.54 1156.05,-276.98 1162.49,-285.39 1166.33,-279.54"/>
</g>
<!-- pivot -->
<g id="node37" class="node">
<title>pivot</title>
<path fill="#5f00c2" stroke="none" d="M2243.67,-61.4C2243.67,-61.4 2156.69,-61.4 2156.69,-61.4 2150.69,-61.4 2144.69,-55.4 2144.69,-49.4 2144.69,-49.4 2144.69,-12.2 2144.69,-12.2 2144.69,-6.2 2150.69,-0.2 2156.69,-0.2 2156.69,-0.2 2243.67,-0.2 2243.67,-0.2 2249.67,-0.2 2255.67,-6.2 2255.67,-12.2 2255.67,-12.2 2255.67,-49.4 2255.67,-49.4 2255.67,-55.4 2249.67,-61.4 2243.67,-61.4"/>
<text text-anchor="middle" x="2200.18" y="-35" font-family="Arial" font-size="14.00" fill="#ffffff">Pivot to other</text>
<text text-anchor="middle" x="2200.18" y="-18.2" font-family="Arial" font-size="14.00" fill="#ffffff">resources</text>
</g>
<!-- extract_sensitive_tokens_from_actions_logs&#45;&gt;pivot -->
<g id="edge13" class="edge">
<title>extract_sensitive_tokens_from_actions_logs&#45;&gt;pivot</title>
<path fill="none" stroke="#2b303a" d="M1522.9,-359.7C1673.59,-357.19 2008.09,-345.68 2108.18,-293.2 2172.45,-259.5 2189.07,-237.09 2214.18,-169 2225.65,-137.9 2220.62,-100.32 2213.58,-72.36"/>
<polygon fill="#2b303a" stroke="#2b303a" points="2217,-71.58 2210.99,-62.85 2210.24,-73.42 2217,-71.58"/>
</g>
<!-- gha_injection_vuln&#45;&gt;gha_use_self_hosted_runner -->
<g id="edge47" class="edge">
<title>gha_injection_vuln&#45;&gt;gha_use_self_hosted_runner</title>
<path fill="none" stroke="#2b303a" d="M239.31,-215.15C211.09,-200 176.52,-181.44 146.99,-165.59"/>
<polygon fill="#2b303a" stroke="#2b303a" points="148.99,-162.69 138.52,-161.04 145.68,-168.86 148.99,-162.69"/>
</g>
<!-- gha_injection_vuln&#45;&gt;gha_dangerous_pr_target -->
<!-- gha_injection_vuln&#45;&gt;gha_sast_detects_injection -->
<g id="edge29" class="edge">
<title>gha_injection_vuln&#45;&gt;gha_sast_detects_injection</title>
<path fill="none" stroke="#2b303a" d="M294.18,-215.29C294.18,-201.89 294.18,-185.78 294.18,-171.25"/>
<polygon fill="#2b303a" stroke="#2b303a" points="297.68,-171.52 294.18,-161.52 290.68,-171.52 297.68,-171.52"/>
</g>
<!-- gha_injection_vuln&#45;&gt;pwn_build_artifact -->
<g id="edge4" class="edge">
<title>gha_injection_vuln&#45;&gt;pwn_build_artifact</title>
<path fill="none" stroke="#2b303a" d="M249.46,-215.08C234.73,-202.77 220.11,-187.09 212.18,-169 198.19,-137.09 188.45,-116.11 212.18,-90.6 261.2,-37.9 745.78,-31.83 942.66,-31.55"/>
<polygon fill="#2b303a" stroke="#2b303a" points="942.57,-35.05 952.56,-31.55 942.56,-28.05 942.57,-35.05"/>
</g>
<!-- gha_dangerous_pr_target&#45;&gt;gha_use_self_hosted_runner -->
<g id="edge48" class="edge">
<title>gha_dangerous_pr_target&#45;&gt;gha_use_self_hosted_runner</title>
<path fill="none" stroke="#2b303a" d="M395,-207.55C384.71,-204.02 374.28,-200.74 364.18,-198 286.81,-177.04 263.71,-189.35 186.18,-169 176.1,-166.35 165.63,-163.12 155.38,-159.66"/>
<polygon fill="#2b303a" stroke="#2b303a" points="156.84,-156.46 146.24,-156.48 154.54,-163.07 156.84,-156.46"/>
</g>
<!-- gha_dangerous_pr_target&#45;&gt;gha_drop_privs -->
<g id="edge30" class="edge">
<title>gha_dangerous_pr_target&#45;&gt;gha_drop_privs</title>
<path fill="none" stroke="#2b303a" d="M468.39,-206.39C464.6,-197.76 460.52,-188.48 456.57,-179.48"/>
<polygon fill="#2b303a" stroke="#2b303a" points="459.84,-178.24 452.62,-170.49 453.44,-181.05 459.84,-178.24"/>
</g>
<!-- avoid_risky_pr_target_checkout -->
<g id="node28" class="node">
<title>avoid_risky_pr_target_checkout</title>
<path fill="#b9d6f2" stroke="none" d="M637.7,-169.2C637.7,-169.2 542.66,-169.2 542.66,-169.2 536.66,-169.2 530.66,-163.2 530.66,-157.2 530.66,-157.2 530.66,-102.4 530.66,-102.4 530.66,-96.4 536.66,-90.4 542.66,-90.4 542.66,-90.4 637.7,-90.4 637.7,-90.4 643.7,-90.4 649.7,-96.4 649.7,-102.4 649.7,-102.4 649.7,-157.2 649.7,-157.2 649.7,-163.2 643.7,-169.2 637.7,-169.2"/>
<text text-anchor="middle" x="590.18" y="-142.4" font-family="Arial" font-size="14.00">Avoid risky PR</text>
<text text-anchor="middle" x="590.18" y="-125.6" font-family="Arial" font-size="14.00">target code</text>
<text text-anchor="middle" x="590.18" y="-108.8" font-family="Arial" font-size="14.00">checkout</text>
</g>
<!-- gha_dangerous_pr_target&#45;&gt;avoid_risky_pr_target_checkout -->
<g id="edge31" class="edge">
<title>gha_dangerous_pr_target&#45;&gt;avoid_risky_pr_target_checkout</title>
<path fill="none" stroke="#2b303a" d="M520.44,-206.39C529.01,-197.1 538.27,-187.06 547.15,-177.43"/>
<polygon fill="#2b303a" stroke="#2b303a" points="549.6,-179.94 553.81,-170.22 544.46,-175.19 549.6,-179.94"/>
</g>
<!-- gha_dangerous_pr_target&#45;&gt;pwn_build_artifact -->
<g id="edge5" class="edge">
<title>gha_dangerous_pr_target&#45;&gt;pwn_build_artifact</title>
<path fill="none" stroke="#2b303a" d="M489.61,-206.49C495.15,-165.98 506.04,-105.72 523.18,-90.6 553.97,-63.44 808.09,-44.56 942.5,-36.38"/>
<polygon fill="#2b303a" stroke="#2b303a" points="942.66,-39.87 952.43,-35.78 942.24,-32.89 942.66,-39.87"/>
</g>
<!-- convince_maintainer&#45;&gt;poison_cache -->
<!-- two_person_review -->
<g id="node23" class="node">
<title>two_person_review</title>
<path fill="#b9d6f2" stroke="none" d="M798.44,-152.1C798.44,-152.1 675.92,-152.1 675.92,-152.1 669.92,-152.1 663.92,-146.1 663.92,-140.1 663.92,-140.1 663.92,-119.5 663.92,-119.5 663.92,-113.5 669.92,-107.5 675.92,-107.5 675.92,-107.5 798.44,-107.5 798.44,-107.5 804.44,-107.5 810.44,-113.5 810.44,-119.5 810.44,-119.5 810.44,-140.1 810.44,-140.1 810.44,-146.1 804.44,-152.1 798.44,-152.1"/>
<text text-anchor="middle" x="737.18" y="-125.6" font-family="Arial" font-size="14.00">Two&#45;person review</text>
</g>
<!-- convince_maintainer&#45;&gt;two_person_review -->
<g id="edge26" class="edge">
<title>convince_maintainer&#45;&gt;two_person_review</title>
<path fill="none" stroke="#2b303a" d="M819.24,-197.98C803.1,-184.77 786.02,-170.79 771.65,-159.02"/>
<polygon fill="#2b303a" stroke="#2b303a" points="774.21,-156.59 764.25,-152.97 769.77,-162.01 774.21,-156.59"/>
</g>
<!-- gha_limit_allowed_actions -->
<g id="node32" class="node">
<title>gha_limit_allowed_actions</title>
<path fill="#b9d6f2" stroke="none" d="M975.71,-160.4C975.71,-160.4 866.65,-160.4 866.65,-160.4 860.65,-160.4 854.65,-154.4 854.65,-148.4 854.65,-148.4 854.65,-111.2 854.65,-111.2 854.65,-105.2 860.65,-99.2 866.65,-99.2 866.65,-99.2 975.71,-99.2 975.71,-99.2 981.71,-99.2 987.71,-105.2 987.71,-111.2 987.71,-111.2 987.71,-148.4 987.71,-148.4 987.71,-154.4 981.71,-160.4 975.71,-160.4"/>
<text text-anchor="middle" x="921.18" y="-134" font-family="Arial" font-size="14.00">Set policy to limit</text>
<text text-anchor="middle" x="921.18" y="-117.2" font-family="Arial" font-size="14.00">allowed actions</text>
</g>
<!-- convince_maintainer&#45;&gt;gha_limit_allowed_actions -->
<g id="edge35" class="edge">
<title>convince_maintainer&#45;&gt;gha_limit_allowed_actions</title>
<path fill="none" stroke="#2b303a" d="M894.61,-197.98C898.16,-189.01 901.85,-179.68 905.31,-170.93"/>
<polygon fill="#2b303a" stroke="#2b303a" points="908.56,-172.22 908.99,-161.63 902.05,-169.65 908.56,-172.22"/>
</g>
<!-- convince_maintainer&#45;&gt;pwn_build_artifact -->
<g id="edge3" class="edge">
<title>convince_maintainer&#45;&gt;pwn_build_artifact</title>
<path fill="none" stroke="#2b303a" d="M850.28,-198.11C835.79,-165.25 824.71,-121.69 847.18,-90.6 869.21,-60.12 907.61,-45.18 943.13,-37.96"/>
<polygon fill="#2b303a" stroke="#2b303a" points="943.34,-41.47 952.54,-36.23 942.08,-34.59 943.34,-41.47"/>
</g>
<!-- poison_cache&#45;&gt;exfil_repo_secrets -->
<!-- avoid_using_cache_in_sensitive_workflows -->
<g id="node29" class="node">
<title>avoid_using_cache_in_sensitive_workflows</title>
<path fill="#b9d6f2" stroke="none" d="M1206.59,-169.2C1206.59,-169.2 1073.77,-169.2 1073.77,-169.2 1067.77,-169.2 1061.77,-163.2 1061.77,-157.2 1061.77,-157.2 1061.77,-102.4 1061.77,-102.4 1061.77,-96.4 1067.77,-90.4 1073.77,-90.4 1073.77,-90.4 1206.59,-90.4 1206.59,-90.4 1212.59,-90.4 1218.59,-96.4 1218.59,-102.4 1218.59,-102.4 1218.59,-157.2 1218.59,-157.2 1218.59,-163.2 1212.59,-169.2 1206.59,-169.2"/>
<text text-anchor="middle" x="1140.18" y="-142.4" font-family="Arial" font-size="14.00">Avoid using cache in</text>
<text text-anchor="middle" x="1140.18" y="-125.6" font-family="Arial" font-size="14.00">sensitive</text>
<text text-anchor="middle" x="1140.18" y="-108.8" font-family="Arial" font-size="14.00">workflows</text>
</g>
<!-- poison_cache&#45;&gt;avoid_using_cache_in_sensitive_workflows -->
<g id="edge32" class="edge">
<title>poison_cache&#45;&gt;avoid_using_cache_in_sensitive_workflows</title>
<path fill="none" stroke="#2b303a" d="M1226.31,-215.29C1214.41,-203.62 1200.43,-189.91 1187.24,-176.96"/>
<polygon fill="#2b303a" stroke="#2b303a" points="1189.82,-174.59 1180.23,-170.09 1184.91,-179.59 1189.82,-174.59"/>
</g>
<!-- poison_cache&#45;&gt;pwn_build_artifact -->
<g id="edge8" class="edge">
<title>poison_cache&#45;&gt;pwn_build_artifact</title>
<path fill="none" stroke="#2b303a" d="M1253.84,-215.07C1250.11,-175.58 1241.53,-108.45 1225.18,-90.6 1195.34,-58.04 1148.51,-43.16 1107.66,-36.5"/>
<polygon fill="#2b303a" stroke="#2b303a" points="1108.22,-33.05 1097.81,-35.06 1107.2,-39.97 1108.22,-33.05"/>
</g>
<!-- exfil_repo_secrets&#45;&gt;exfil_pat -->
<!-- gha_use_env_prot_rule -->
<g id="node24" class="node">
<title>gha_use_env_prot_rule</title>
<path fill="#b9d6f2" stroke="none" d="M1386.06,-160.4C1386.06,-160.4 1274.3,-160.4 1274.3,-160.4 1268.3,-160.4 1262.3,-154.4 1262.3,-148.4 1262.3,-148.4 1262.3,-111.2 1262.3,-111.2 1262.3,-105.2 1268.3,-99.2 1274.3,-99.2 1274.3,-99.2 1386.06,-99.2 1386.06,-99.2 1392.06,-99.2 1398.06,-105.2 1398.06,-111.2 1398.06,-111.2 1398.06,-148.4 1398.06,-148.4 1398.06,-154.4 1392.06,-160.4 1386.06,-160.4"/>
<text text-anchor="middle" x="1330.18" y="-134" font-family="Arial" font-size="14.00">Use Environment</text>
<text text-anchor="middle" x="1330.18" y="-117.2" font-family="Arial" font-size="14.00">Protection Rule</text>
</g>
<!-- exfil_repo_secrets&#45;&gt;gha_use_env_prot_rule -->
<g id="edge27" class="edge">
<title>exfil_repo_secrets&#45;&gt;gha_use_env_prot_rule</title>
<path fill="none" stroke="#2b303a" d="M1397,-215.29C1385.77,-201.09 1372.14,-183.86 1360.13,-168.67"/>
<polygon fill="#2b303a" stroke="#2b303a" points="1363.17,-166.87 1354.22,-161.19 1357.68,-171.21 1363.17,-166.87"/>
</g>
<!-- gha_use_oidc_with_branch_filter -->
<g id="node25" class="node">
<title>gha_use_oidc_with_branch_filter</title>
<path fill="#b9d6f2" stroke="none" d="M1582.56,-160.4C1582.56,-160.4 1453.8,-160.4 1453.8,-160.4 1447.8,-160.4 1441.8,-154.4 1441.8,-148.4 1441.8,-148.4 1441.8,-111.2 1441.8,-111.2 1441.8,-105.2 1447.8,-99.2 1453.8,-99.2 1453.8,-99.2 1582.56,-99.2 1582.56,-99.2 1588.56,-99.2 1594.56,-105.2 1594.56,-111.2 1594.56,-111.2 1594.56,-148.4 1594.56,-148.4 1594.56,-154.4 1588.56,-160.4 1582.56,-160.4"/>
<text text-anchor="middle" x="1518.18" y="-134" font-family="Arial" font-size="14.00">Use OIDC with &#39;sub&#39;</text>
<text text-anchor="middle" x="1518.18" y="-117.2" font-family="Arial" font-size="14.00">branch filter</text>
</g>
<!-- exfil_repo_secrets&#45;&gt;gha_use_oidc_with_branch_filter -->
<g id="edge28" class="edge">
<title>exfil_repo_secrets&#45;&gt;gha_use_oidc_with_branch_filter</title>
<path fill="none" stroke="#2b303a" d="M1445.42,-215.29C1457.65,-201.09 1472.49,-183.86 1485.56,-168.67"/>
<polygon fill="#2b303a" stroke="#2b303a" points="1488.17,-171.02 1492.04,-161.15 1482.86,-166.45 1488.17,-171.02"/>
</g>
<!-- exfil_repo_secrets&#45;&gt;pwn_build_artifact -->
<g id="edge6" class="edge">
<title>exfil_repo_secrets&#45;&gt;pwn_build_artifact</title>
<path fill="none" stroke="#2b303a" d="M1426.91,-215.07C1432.89,-180.47 1436.45,-123.69 1405.18,-90.6 1365.66,-48.79 1207.11,-36.62 1107.71,-33.14"/>
<polygon fill="#2b303a" stroke="#2b303a" points="1108.12,-29.65 1098.01,-32.82 1107.89,-36.65 1108.12,-29.65"/>
</g>
<!-- exfil_repo_secrets&#45;&gt;pivot -->
<g id="edge10" class="edge">
<title>exfil_repo_secrets&#45;&gt;pivot</title>
<path fill="none" stroke="#2b303a" d="M1489.56,-217.29C1511.5,-209.76 1536.06,-202.44 1559.18,-198 1672.18,-176.3 1972.36,-218.63 2076.18,-169 2120.34,-147.89 2155.88,-103.27 2177.4,-70.62"/>
<polygon fill="#2b303a" stroke="#2b303a" points="2180.09,-72.92 2182.55,-62.61 2174.2,-69.14 2180.09,-72.92"/>
</g>
<!-- exfil_org_secrets -->
<g id="node18" class="node">
<title>exfil_org_secrets</title>
<path fill="#ff92cc" stroke="none" d="M2089.38,-276.2C2089.38,-276.2 1982.98,-276.2 1982.98,-276.2 1976.98,-276.2 1970.98,-270.2 1970.98,-264.2 1970.98,-264.2 1970.98,-227 1970.98,-227 1970.98,-221 1976.98,-215 1982.98,-215 1982.98,-215 2089.38,-215 2089.38,-215 2095.38,-215 2101.38,-221 2101.38,-227 2101.38,-227 2101.38,-264.2 2101.38,-264.2 2101.38,-270.2 2095.38,-276.2 2089.38,-276.2"/>
<text text-anchor="middle" x="2036.18" y="-249.8" font-family="Arial" font-size="14.00">Exiltrate</text>
<text text-anchor="middle" x="2036.18" y="-233" font-family="Arial" font-size="14.00">org&#45;level secrets</text>
</g>
<!-- avoid_sensitive_org_secrets -->
<g id="node30" class="node">
<title>avoid_sensitive_org_secrets</title>
<path fill="#b9d6f2" stroke="none" d="M2031.38,-169.2C2031.38,-169.2 1924.98,-169.2 1924.98,-169.2 1918.98,-169.2 1912.98,-163.2 1912.98,-157.2 1912.98,-157.2 1912.98,-102.4 1912.98,-102.4 1912.98,-96.4 1918.98,-90.4 1924.98,-90.4 1924.98,-90.4 2031.38,-90.4 2031.38,-90.4 2037.38,-90.4 2043.38,-96.4 2043.38,-102.4 2043.38,-102.4 2043.38,-157.2 2043.38,-157.2 2043.38,-163.2 2037.38,-169.2 2031.38,-169.2"/>
<text text-anchor="middle" x="1978.18" y="-142.4" font-family="Arial" font-size="14.00">Avoid storing</text>
<text text-anchor="middle" x="1978.18" y="-125.6" font-family="Arial" font-size="14.00">sensitive</text>
<text text-anchor="middle" x="1978.18" y="-108.8" font-family="Arial" font-size="14.00">org&#45;level secrets</text>
</g>
<!-- exfil_org_secrets&#45;&gt;avoid_sensitive_org_secrets -->
<g id="edge33" class="edge">
<title>exfil_org_secrets&#45;&gt;avoid_sensitive_org_secrets</title>
<path fill="none" stroke="#2b303a" d="M2021.24,-215.29C2015.63,-204.28 2009.09,-191.45 2002.83,-179.17"/>
<polygon fill="#2b303a" stroke="#2b303a" points="2006.01,-177.7 1998.35,-170.38 1999.77,-180.88 2006.01,-177.7"/>
</g>
<!-- exfil_org_secrets&#45;&gt;pwn_build_artifact -->
<g id="edge7" class="edge">
<title>exfil_org_secrets&#45;&gt;pwn_build_artifact</title>
<path fill="none" stroke="#2b303a" d="M2050.6,-215.07C2065.15,-180.47 2081.42,-123.69 2050.18,-90.6 2017.97,-56.49 1345.38,-38.71 1107.58,-33.48"/>
<polygon fill="#2b303a" stroke="#2b303a" points="1107.84,-29.98 1097.76,-33.26 1107.69,-36.98 1107.84,-29.98"/>
</g>
<!-- exfil_org_secrets&#45;&gt;pivot -->
<g id="edge11" class="edge">
<title>exfil_org_secrets&#45;&gt;pivot</title>
<path fill="none" stroke="#2b303a" d="M2101.25,-231.1C2135.59,-220.36 2174.9,-201.52 2196.18,-169 2214.72,-140.66 2213.91,-101.49 2209.51,-72.26"/>
<polygon fill="#2b303a" stroke="#2b303a" points="2213.01,-71.95 2207.87,-62.69 2206.11,-73.13 2213.01,-71.95"/>
</g>
<!-- exfil_pat&#45;&gt;self_approve_pr -->
<!-- use_fined_grained_pats -->
<g id="node33" class="node">
<title>use_fined_grained_pats</title>
<path fill="#b9d6f2" stroke="none" d="M1727.4,-160.4C1727.4,-160.4 1620.96,-160.4 1620.96,-160.4 1614.96,-160.4 1608.96,-154.4 1608.96,-148.4 1608.96,-148.4 1608.96,-111.2 1608.96,-111.2 1608.96,-105.2 1614.96,-99.2 1620.96,-99.2 1620.96,-99.2 1727.4,-99.2 1727.4,-99.2 1733.4,-99.2 1739.4,-105.2 1739.4,-111.2 1739.4,-111.2 1739.4,-148.4 1739.4,-148.4 1739.4,-154.4 1733.4,-160.4 1727.4,-160.4"/>
<text text-anchor="middle" x="1674.18" y="-134" font-family="Arial" font-size="14.00">Use fine&#45;grained</text>
<text text-anchor="middle" x="1674.18" y="-117.2" font-family="Arial" font-size="14.00">PATs</text>
</g>
<!-- exfil_pat&#45;&gt;use_fined_grained_pats -->
<g id="edge36" class="edge">
<title>exfil_pat&#45;&gt;use_fined_grained_pats</title>
<path fill="none" stroke="#2b303a" d="M1632.65,-223.46C1639.32,-208.59 1648.43,-188.25 1656.43,-170.41"/>
<polygon fill="#2b303a" stroke="#2b303a" points="1659.59,-171.91 1660.49,-161.36 1653.2,-169.05 1659.59,-171.91"/>
</g>
<!-- exfil_pat&#45;&gt;pivot -->
<g id="edge12" class="edge">
<title>exfil_pat&#45;&gt;pivot</title>
<path fill="none" stroke="#2b303a" d="M1645.21,-223.36C1656.53,-213.81 1671.09,-203.48 1686.18,-198 1736.4,-179.75 2125.11,-203.18 2166.18,-169 2180.94,-156.71 2190.37,-108.14 2195.46,-72.26"/>
<polygon fill="#2b303a" stroke="#2b303a" points="2198.89,-73 2196.76,-62.62 2191.95,-72.06 2198.89,-73"/>
</g>
<!-- create_new_repo&#45;&gt;exfil_org_secrets -->
<g id="edge21" class="edge">
<title>create_new_repo&#45;&gt;exfil_org_secrets</title>
<path fill="none" stroke="#2b303a" d="M1475.69,-432.91C1478.21,-431.76 1480.71,-430.65 1483.18,-429.6 1649.28,-359.25 1852.39,-298.09 1960.29,-267.47"/>
<polygon fill="#2b303a" stroke="#2b303a" points="1960.94,-270.92 1969.61,-264.83 1959.04,-264.19 1960.94,-270.92"/>
</g>
<!-- create_new_repo&#45;&gt;limit_default_org_member_privileges -->
<!-- limit_workflow_perms -->
<g id="node22" class="node">
<title>limit_workflow_perms</title>
<path fill="#b9d6f2" stroke="none" d="M1887.08,-160.4C1887.08,-160.4 1795.28,-160.4 1795.28,-160.4 1789.28,-160.4 1783.28,-154.4 1783.28,-148.4 1783.28,-148.4 1783.28,-111.2 1783.28,-111.2 1783.28,-105.2 1789.28,-99.2 1795.28,-99.2 1795.28,-99.2 1887.08,-99.2 1887.08,-99.2 1893.08,-99.2 1899.08,-105.2 1899.08,-111.2 1899.08,-111.2 1899.08,-148.4 1899.08,-148.4 1899.08,-154.4 1893.08,-160.4 1887.08,-160.4"/>
<text text-anchor="middle" x="1841.18" y="-134" font-family="Arial" font-size="14.00">Limit workflow</text>
<text text-anchor="middle" x="1841.18" y="-117.2" font-family="Arial" font-size="14.00">permissions</text>
</g>
<!-- self_approve_pr&#45;&gt;limit_workflow_perms -->
<g id="edge25" class="edge">
<title>self_approve_pr&#45;&gt;limit_workflow_perms</title>
<path fill="none" stroke="#2b303a" d="M1781.78,-215.29C1791.67,-201.22 1803.65,-184.18 1814.25,-169.1"/>
<polygon fill="#2b303a" stroke="#2b303a" points="1816.89,-171.44 1819.78,-161.25 1811.16,-167.41 1816.89,-171.44"/>
</g>
<!-- self_approve_pr&#45;&gt;pwn_build_artifact -->
<g id="edge2" class="edge">
<title>self_approve_pr&#45;&gt;pwn_build_artifact</title>
<path fill="none" stroke="#2b303a" d="M1768.2,-215.29C1774.64,-180.37 1778.82,-122.73 1746.18,-90.6 1701.49,-46.61 1287.62,-35.47 1107.87,-32.7"/>
<polygon fill="#2b303a" stroke="#2b303a" points="1107.94,-29.2 1097.88,-32.55 1107.83,-36.2 1107.94,-29.2"/>
</g>
<!-- limit_workflow_perms&#45;&gt;pwn_self_hosted_runner -->
<!-- limit_workflow_perms&#45;&gt;pwn_build_artifact -->
<!-- limit_workflow_perms&#45;&gt;pivot -->
<!-- two_person_review&#45;&gt;gha_limit_allowed_actions -->
<!-- two_person_review&#45;&gt;pwn_self_hosted_runner -->
<!-- two_person_review&#45;&gt;pwn_build_artifact -->
<!-- two_person_review&#45;&gt;pivot -->
<!-- gha_use_env_prot_rule&#45;&gt;gha_use_oidc_with_branch_filter -->
<!-- gha_use_env_prot_rule&#45;&gt;pwn_self_hosted_runner -->
<!-- gha_use_env_prot_rule&#45;&gt;pwn_build_artifact -->
<!-- gha_use_env_prot_rule&#45;&gt;pivot -->
<!-- gha_use_oidc_with_branch_filter&#45;&gt;pwn_self_hosted_runner -->
<!-- gha_use_oidc_with_branch_filter&#45;&gt;pwn_build_artifact -->
<!-- gha_use_oidc_with_branch_filter&#45;&gt;pivot -->
<!-- gha_sast_detects_injection&#45;&gt;pwn_self_hosted_runner -->
<!-- gha_sast_detects_injection&#45;&gt;pwn_build_artifact -->
<!-- gha_sast_detects_injection&#45;&gt;pivot -->
<!-- gha_drop_privs&#45;&gt;avoid_risky_pr_target_checkout -->
<!-- gha_drop_privs&#45;&gt;pwn_self_hosted_runner -->
<!-- gha_drop_privs&#45;&gt;pwn_build_artifact -->
<!-- gha_drop_privs&#45;&gt;pivot -->
<!-- avoid_risky_pr_target_checkout&#45;&gt;pwn_self_hosted_runner -->
<!-- avoid_risky_pr_target_checkout&#45;&gt;pwn_build_artifact -->
<!-- avoid_risky_pr_target_checkout&#45;&gt;pivot -->
<!-- avoid_using_cache_in_sensitive_workflows&#45;&gt;pwn_self_hosted_runner -->
<!-- avoid_using_cache_in_sensitive_workflows&#45;&gt;pwn_build_artifact -->
<!-- avoid_using_cache_in_sensitive_workflows&#45;&gt;pivot -->
<!-- avoid_sensitive_org_secrets&#45;&gt;pwn_self_hosted_runner -->
<!-- avoid_sensitive_org_secrets&#45;&gt;pwn_build_artifact -->
<!-- avoid_sensitive_org_secrets&#45;&gt;pivot -->
<!-- limit_default_org_member_privileges&#45;&gt;pwn_self_hosted_runner -->
<!-- limit_default_org_member_privileges&#45;&gt;pwn_build_artifact -->
<!-- limit_default_org_member_privileges&#45;&gt;pivot -->
<!-- gha_limit_allowed_actions&#45;&gt;pwn_self_hosted_runner -->
<!-- gha_limit_allowed_actions&#45;&gt;pwn_build_artifact -->
<!-- gha_limit_allowed_actions&#45;&gt;pivot -->
<!-- use_fined_grained_pats&#45;&gt;pwn_self_hosted_runner -->
<!-- use_fined_grained_pats&#45;&gt;pwn_build_artifact -->
<!-- use_fined_grained_pats&#45;&gt;pivot -->
<!-- mask_dynamic_secrets&#45;&gt;pwn_self_hosted_runner -->
<!-- mask_dynamic_secrets&#45;&gt;pwn_build_artifact -->
<!-- mask_dynamic_secrets&#45;&gt;pivot -->
</g>
</svg>
