<?xml version="1.0" encoding="UTF-8" standalone="no"?>
<!DOCTYPE svg PUBLIC "-//W3C//DTD SVG 1.1//EN"
 "http://www.w3.org/Graphics/SVG/1.1/DTD/svg11.dtd">
<!-- Generated by graphviz version 2.46.1 (20210214.0559)
 -->
<!-- Pages: 1 -->
<svg width="1915pt" height="779pt"
 viewBox="0.00 0.00 1915.02 779.00" xmlns="http://www.w3.org/2000/svg" xmlns:xlink="http://www.w3.org/1999/xlink">
<g id="graph0" class="graph" transform="scale(1 1) rotate(0) translate(4 775)">
<polygon fill="white" stroke="transparent" points="-4,4 -4,-775 1911.02,-775 1911.02,4 -4,4"/>
<text text-anchor="middle" x="953.51" y="-754.4" font-family="Arial" font-size="14.00">Software Supply Chain Attack Tree &#45; Continuous Integration System</text>
<!-- reality -->
<g id="node1" class="node">
<title>reality</title>
<path fill="#272727" stroke="transparent" d="M1097.68,-746.1C1097.68,-746.1 1051.13,-746.1 1051.13,-746.1 1045.13,-746.1 1039.13,-740.1 1039.13,-734.1 1039.13,-734.1 1039.13,-713.5 1039.13,-713.5 1039.13,-707.5 1045.13,-701.5 1051.13,-701.5 1051.13,-701.5 1097.68,-701.5 1097.68,-701.5 1103.68,-701.5 1109.68,-707.5 1109.68,-713.5 1109.68,-713.5 1109.68,-734.1 1109.68,-734.1 1109.68,-740.1 1103.68,-746.1 1097.68,-746.1"/>
<text text-anchor="middle" x="1074.4" y="-719.6" font-family="Arial" font-size="14.00" fill="#ffffff">Reality</text>
</g>
<!-- uses_gha -->
<g id="node2" class="node">
<title>uses_gha</title>
<path fill="#d2d5dd" stroke="transparent" d="M1141.03,-672.3C1141.03,-672.3 1007.77,-672.3 1007.77,-672.3 1001.77,-672.3 995.77,-666.3 995.77,-660.3 995.77,-660.3 995.77,-639.7 995.77,-639.7 995.77,-633.7 1001.77,-627.7 1007.77,-627.7 1007.77,-627.7 1141.03,-627.7 1141.03,-627.7 1147.03,-627.7 1153.03,-633.7 1153.03,-639.7 1153.03,-639.7 1153.03,-660.3 1153.03,-660.3 1153.03,-666.3 1147.03,-672.3 1141.03,-672.3"/>
<text text-anchor="middle" x="1074.4" y="-645.8" font-family="Arial" font-size="14.00">Uses GitHub Actions</text>
</g>
<!-- reality&#45;&gt;uses_gha -->
<g id="edge42" class="edge">
<title>reality&#45;&gt;uses_gha</title>
<path fill="none" stroke="#2b303a" d="M1074.4,-701.26C1074.4,-695.44 1074.4,-689.01 1074.4,-682.76"/>
<polygon fill="#2b303a" stroke="#2b303a" points="1077.9,-682.53 1074.4,-672.53 1070.9,-682.53 1077.9,-682.53"/>
</g>
<!-- public_repo -->
<g id="node3" class="node">
<title>public_repo</title>
<path fill="#d2d5dd" stroke="transparent" d="M980.36,-581.7C980.36,-581.7 872.45,-581.7 872.45,-581.7 866.45,-581.7 860.45,-575.7 860.45,-569.7 860.45,-569.7 860.45,-549.1 860.45,-549.1 860.45,-543.1 866.45,-537.1 872.45,-537.1 872.45,-537.1 980.36,-537.1 980.36,-537.1 986.36,-537.1 992.36,-543.1 992.36,-549.1 992.36,-549.1 992.36,-569.7 992.36,-569.7 992.36,-575.7 986.36,-581.7 980.36,-581.7"/>
<text text-anchor="middle" x="926.4" y="-555.2" font-family="Arial" font-size="14.00">Public repository</text>
</g>
<!-- uses_gha&#45;&gt;public_repo -->
<g id="edge43" class="edge">
<title>uses_gha&#45;&gt;public_repo</title>
<path fill="none" stroke="#2b303a" d="M1038.58,-627.55C1018.2,-615.35 992.5,-599.97 970.85,-587.01"/>
<polygon fill="#2b303a" stroke="#2b303a" points="972.53,-583.94 962.15,-581.8 968.94,-589.94 972.53,-583.94"/>
</g>
<!-- private_repo -->
<g id="node4" class="node">
<title>private_repo</title>
<path fill="#d2d5dd" stroke="transparent" d="M1130.8,-581.7C1130.8,-581.7 1018,-581.7 1018,-581.7 1012,-581.7 1006,-575.7 1006,-569.7 1006,-569.7 1006,-549.1 1006,-549.1 1006,-543.1 1012,-537.1 1018,-537.1 1018,-537.1 1130.8,-537.1 1130.8,-537.1 1136.8,-537.1 1142.8,-543.1 1142.8,-549.1 1142.8,-549.1 1142.8,-569.7 1142.8,-569.7 1142.8,-575.7 1136.8,-581.7 1130.8,-581.7"/>
<text text-anchor="middle" x="1074.4" y="-555.2" font-family="Arial" font-size="14.00">Private repository</text>
</g>
<!-- uses_gha&#45;&gt;private_repo -->
<g id="edge44" class="edge">
<title>uses_gha&#45;&gt;private_repo</title>
<path fill="none" stroke="#2b303a" d="M1074.4,-627.55C1074.4,-616.97 1074.4,-603.98 1074.4,-592.26"/>
<polygon fill="#2b303a" stroke="#2b303a" points="1077.9,-591.96 1074.4,-581.96 1070.9,-591.96 1077.9,-591.96"/>
</g>
<!-- has_perm_to_create_new_repo -->
<g id="node10" class="node">
<title>has_perm_to_create_new_repo</title>
<path fill="#d2d5dd" stroke="transparent" d="M1290.41,-598.8C1290.41,-598.8 1174.39,-598.8 1174.39,-598.8 1168.39,-598.8 1162.39,-592.8 1162.39,-586.8 1162.39,-586.8 1162.39,-532 1162.39,-532 1162.39,-526 1168.39,-520 1174.39,-520 1174.39,-520 1290.41,-520 1290.41,-520 1296.41,-520 1302.41,-526 1302.41,-532 1302.41,-532 1302.41,-586.8 1302.41,-586.8 1302.41,-592.8 1296.41,-598.8 1290.41,-598.8"/>
<text text-anchor="middle" x="1232.4" y="-572" font-family="Arial" font-size="14.00">Has permission to</text>
<text text-anchor="middle" x="1232.4" y="-555.2" font-family="Arial" font-size="14.00">create new</text>
<text text-anchor="middle" x="1232.4" y="-538.4" font-family="Arial" font-size="14.00">repository</text>
</g>
<!-- uses_gha&#45;&gt;has_perm_to_create_new_repo -->
<g id="edge50" class="edge">
<title>uses_gha&#45;&gt;has_perm_to_create_new_repo</title>
<path fill="none" stroke="#2b303a" d="M1112.65,-627.55C1125.63,-620.27 1140.63,-611.86 1155.53,-603.51"/>
<polygon fill="#2b303a" stroke="#2b303a" points="1157.26,-606.55 1164.27,-598.61 1153.84,-600.44 1157.26,-606.55"/>
</g>
<!-- public_repo&#45;&gt;private_repo -->
<!-- gha_on_pull_request_from_fork -->
<g id="node5" class="node">
<title>gha_on_pull_request_from_fork</title>
<path fill="#d2d5dd" stroke="transparent" d="M775.77,-392C775.77,-392 657.03,-392 657.03,-392 651.03,-392 645.03,-386 645.03,-380 645.03,-380 645.03,-342.8 645.03,-342.8 645.03,-336.8 651.03,-330.8 657.03,-330.8 657.03,-330.8 775.77,-330.8 775.77,-330.8 781.77,-330.8 787.77,-336.8 787.77,-342.8 787.77,-342.8 787.77,-380 787.77,-380 787.77,-386 781.77,-392 775.77,-392"/>
<text text-anchor="middle" x="716.4" y="-365.6" font-family="Arial" font-size="14.00">pull_request event</text>
<text text-anchor="middle" x="716.4" y="-348.8" font-family="Arial" font-size="14.00">(From fork)</text>
</g>
<!-- public_repo&#45;&gt;gha_on_pull_request_from_fork -->
<g id="edge45" class="edge">
<title>public_repo&#45;&gt;gha_on_pull_request_from_fork</title>
<path fill="none" stroke="#2b303a" d="M903.53,-537.05C868.13,-504.01 799.62,-440.07 756.04,-399.4"/>
<polygon fill="#2b303a" stroke="#2b303a" points="758.17,-396.6 748.48,-392.34 753.4,-401.72 758.17,-396.6"/>
</g>
<!-- gha_on_pull_request_target_from_fork -->
<g id="node6" class="node">
<title>gha_on_pull_request_target_from_fork</title>
<path fill="#d2d5dd" stroke="transparent" d="M937.22,-400.8C937.22,-400.8 813.59,-400.8 813.59,-400.8 807.59,-400.8 801.59,-394.8 801.59,-388.8 801.59,-388.8 801.59,-334 801.59,-334 801.59,-328 807.59,-322 813.59,-322 813.59,-322 937.22,-322 937.22,-322 943.22,-322 949.22,-328 949.22,-334 949.22,-334 949.22,-388.8 949.22,-388.8 949.22,-394.8 943.22,-400.8 937.22,-400.8"/>
<text text-anchor="middle" x="875.4" y="-374" font-family="Arial" font-size="14.00">pull_request_target</text>
<text text-anchor="middle" x="875.4" y="-357.2" font-family="Arial" font-size="14.00">event</text>
<text text-anchor="middle" x="875.4" y="-340.4" font-family="Arial" font-size="14.00">(From fork)</text>
</g>
<!-- public_repo&#45;&gt;gha_on_pull_request_target_from_fork -->
<g id="edge46" class="edge">
<title>public_repo&#45;&gt;gha_on_pull_request_target_from_fork</title>
<path fill="none" stroke="#2b303a" d="M920.85,-537.05C913.02,-506.96 898.52,-451.23 888,-410.8"/>
<polygon fill="#2b303a" stroke="#2b303a" points="891.32,-409.67 885.41,-400.88 884.54,-411.43 891.32,-409.67"/>
</g>
<!-- extract_sensitive_tokens_from_actions_logs -->
<g id="node12" class="node">
<title>extract_sensitive_tokens_from_actions_logs</title>
<path fill="#ff92cc" stroke="transparent" d="M1561.26,-400.8C1561.26,-400.8 1435.54,-400.8 1435.54,-400.8 1429.54,-400.8 1423.54,-394.8 1423.54,-388.8 1423.54,-388.8 1423.54,-334 1423.54,-334 1423.54,-328 1429.54,-322 1435.54,-322 1435.54,-322 1561.26,-322 1561.26,-322 1567.26,-322 1573.26,-328 1573.26,-334 1573.26,-334 1573.26,-388.8 1573.26,-388.8 1573.26,-394.8 1567.26,-400.8 1561.26,-400.8"/>
<text text-anchor="middle" x="1498.4" y="-374" font-family="Arial" font-size="14.00">Extract sensitive</text>
<text text-anchor="middle" x="1498.4" y="-357.2" font-family="Arial" font-size="14.00">tokens from actions</text>
<text text-anchor="middle" x="1498.4" y="-340.4" font-family="Arial" font-size="14.00">logs</text>
</g>
<!-- public_repo&#45;&gt;extract_sensitive_tokens_from_actions_logs -->
<g id="edge18" class="edge">
<title>public_repo&#45;&gt;extract_sensitive_tokens_from_actions_logs</title>
<path fill="none" stroke="#2b303a" d="M962.23,-537.01C973.78,-530.85 986.85,-524.6 999.4,-520.2 1063.07,-497.88 1094.9,-532.29 1148.4,-491.2 1172.55,-472.65 1153.76,-447.49 1178.4,-429.6 1253.93,-374.76 1295.6,-422.21 1386.4,-400.6 1395.45,-398.45 1404.8,-395.86 1414.06,-393.06"/>
<polygon fill="#2b303a" stroke="#2b303a" points="1415.16,-396.39 1423.67,-390.08 1413.08,-389.7 1415.16,-396.39"/>
</g>
<!-- gha_on_pull_request_from_branch -->
<g id="node7" class="node">
<title>gha_on_pull_request_from_branch</title>
<path fill="#d2d5dd" stroke="transparent" d="M1129.77,-482.7C1129.77,-482.7 1011.03,-482.7 1011.03,-482.7 1005.03,-482.7 999.03,-476.7 999.03,-470.7 999.03,-470.7 999.03,-450.1 999.03,-450.1 999.03,-444.1 1005.03,-438.1 1011.03,-438.1 1011.03,-438.1 1129.77,-438.1 1129.77,-438.1 1135.77,-438.1 1141.77,-444.1 1141.77,-450.1 1141.77,-450.1 1141.77,-470.7 1141.77,-470.7 1141.77,-476.7 1135.77,-482.7 1129.77,-482.7"/>
<text text-anchor="middle" x="1070.4" y="-456.2" font-family="Arial" font-size="14.00">pull_request event</text>
</g>
<!-- private_repo&#45;&gt;gha_on_pull_request_from_branch -->
<g id="edge47" class="edge">
<title>private_repo&#45;&gt;gha_on_pull_request_from_branch</title>
<path fill="none" stroke="#2b303a" d="M1073.51,-536.87C1072.99,-524.06 1072.31,-507.57 1071.72,-493.28"/>
<polygon fill="#2b303a" stroke="#2b303a" points="1075.2,-492.71 1071.29,-482.87 1068.2,-493 1075.2,-492.71"/>
</g>
<!-- private_repo&#45;&gt;has_perm_to_create_new_repo -->
<!-- gha_on_pull_request_from_fork&#45;&gt;gha_on_pull_request_target_from_fork -->
<!-- convince_maintainer -->
<g id="node15" class="node">
<title>convince_maintainer</title>
<path fill="#ff92cc" stroke="transparent" d="M868.26,-293.3C868.26,-293.3 770.54,-293.3 770.54,-293.3 764.54,-293.3 758.54,-287.3 758.54,-281.3 758.54,-281.3 758.54,-209.9 758.54,-209.9 758.54,-203.9 764.54,-197.9 770.54,-197.9 770.54,-197.9 868.26,-197.9 868.26,-197.9 874.26,-197.9 880.26,-203.9 880.26,-209.9 880.26,-209.9 880.26,-281.3 880.26,-281.3 880.26,-287.3 874.26,-293.3 868.26,-293.3"/>
<text text-anchor="middle" x="819.4" y="-266.6" font-family="Arial" font-size="14.00">Convince</text>
<text text-anchor="middle" x="819.4" y="-249.8" font-family="Arial" font-size="14.00">maintainer to</text>
<text text-anchor="middle" x="819.4" y="-233" font-family="Arial" font-size="14.00">accept pipeline</text>
<text text-anchor="middle" x="819.4" y="-216.2" font-family="Arial" font-size="14.00">changes</text>
</g>
<!-- gha_on_pull_request_from_fork&#45;&gt;convince_maintainer -->
<g id="edge22" class="edge">
<title>gha_on_pull_request_from_fork&#45;&gt;convince_maintainer</title>
<path fill="none" stroke="#2b303a" d="M743.19,-330.8C751.54,-321.58 761.02,-311.1 770.39,-300.75"/>
<polygon fill="#2b303a" stroke="#2b303a" points="773.06,-303.02 777.18,-293.25 767.87,-298.32 773.06,-303.02"/>
</g>
<!-- gha_on_pull_request_target_from_fork&#45;&gt;extract_sensitive_tokens_from_actions_logs -->
<!-- gha_injection_vuln -->
<g id="node13" class="node">
<title>gha_injection_vuln</title>
<path fill="#ff92cc" stroke="transparent" d="M273.14,-276.2C273.14,-276.2 171.66,-276.2 171.66,-276.2 165.66,-276.2 159.66,-270.2 159.66,-264.2 159.66,-264.2 159.66,-227 159.66,-227 159.66,-221 165.66,-215 171.66,-215 171.66,-215 273.14,-215 273.14,-215 279.14,-215 285.14,-221 285.14,-227 285.14,-227 285.14,-264.2 285.14,-264.2 285.14,-270.2 279.14,-276.2 273.14,-276.2"/>
<text text-anchor="middle" x="222.4" y="-249.8" font-family="Arial" font-size="14.00">Exploit injection</text>
<text text-anchor="middle" x="222.4" y="-233" font-family="Arial" font-size="14.00">vulnerability</text>
</g>
<!-- gha_on_pull_request_target_from_fork&#45;&gt;gha_injection_vuln -->
<g id="edge19" class="edge">
<title>gha_on_pull_request_target_from_fork&#45;&gt;gha_injection_vuln</title>
<path fill="none" stroke="#2b303a" d="M801.21,-324.11C798.94,-323.41 796.66,-322.78 794.4,-322.2 577.82,-267.08 504.36,-364.04 292.4,-293.2 284.05,-290.41 275.75,-286.35 267.94,-281.77"/>
<polygon fill="#2b303a" stroke="#2b303a" points="269.69,-278.74 259.35,-276.42 265.99,-284.68 269.69,-278.74"/>
</g>
<!-- gha_dangerous_pr_target -->
<g id="node14" class="node">
<title>gha_dangerous_pr_target</title>
<path fill="#ff92cc" stroke="transparent" d="M467.87,-285C467.87,-285 310.94,-285 310.94,-285 304.94,-285 298.94,-279 298.94,-273 298.94,-273 298.94,-218.2 298.94,-218.2 298.94,-212.2 304.94,-206.2 310.94,-206.2 310.94,-206.2 467.87,-206.2 467.87,-206.2 473.87,-206.2 479.87,-212.2 479.87,-218.2 479.87,-218.2 479.87,-273 479.87,-273 479.87,-279 473.87,-285 467.87,-285"/>
<text text-anchor="middle" x="389.4" y="-258.2" font-family="Arial" font-size="14.00">Abuse GITHUB_TOKEN</text>
<text text-anchor="middle" x="389.4" y="-241.4" font-family="Arial" font-size="14.00">privileges and</text>
<text text-anchor="middle" x="389.4" y="-224.6" font-family="Arial" font-size="14.00">secrets</text>
</g>
<!-- gha_on_pull_request_target_from_fork&#45;&gt;gha_dangerous_pr_target -->
<g id="edge20" class="edge">
<title>gha_on_pull_request_target_from_fork&#45;&gt;gha_dangerous_pr_target</title>
<path fill="none" stroke="#2b303a" d="M801.58,-324.55C799.18,-323.72 796.78,-322.93 794.4,-322.2 714.42,-297.66 690.68,-308.36 608.4,-293.2 569.45,-286.02 526.81,-277.18 489.59,-269.13"/>
<polygon fill="#2b303a" stroke="#2b303a" points="490.26,-265.69 479.75,-266.99 488.78,-272.53 490.26,-265.69"/>
</g>
<!-- repo_has_no_branch_protection -->
<g id="node8" class="node">
<title>repo_has_no_branch_protection</title>
<path fill="#d2d5dd" stroke="transparent" d="M1075.53,-392C1075.53,-392 1005.28,-392 1005.28,-392 999.28,-392 993.28,-386 993.28,-380 993.28,-380 993.28,-342.8 993.28,-342.8 993.28,-336.8 999.28,-330.8 1005.28,-330.8 1005.28,-330.8 1075.53,-330.8 1075.53,-330.8 1081.53,-330.8 1087.53,-336.8 1087.53,-342.8 1087.53,-342.8 1087.53,-380 1087.53,-380 1087.53,-386 1081.53,-392 1075.53,-392"/>
<text text-anchor="middle" x="1040.4" y="-365.6" font-family="Arial" font-size="14.00">No Branch</text>
<text text-anchor="middle" x="1040.4" y="-348.8" font-family="Arial" font-size="14.00">Protection</text>
</g>
<!-- gha_on_pull_request_from_branch&#45;&gt;repo_has_no_branch_protection -->
<g id="edge48" class="edge">
<title>gha_on_pull_request_from_branch&#45;&gt;repo_has_no_branch_protection</title>
<path fill="none" stroke="#2b303a" d="M1063.74,-437.87C1060.47,-427.3 1056.43,-414.23 1052.63,-401.94"/>
<polygon fill="#2b303a" stroke="#2b303a" points="1055.96,-400.85 1049.66,-392.33 1049.27,-402.92 1055.96,-400.85"/>
</g>
<!-- repo_has_sufficient_branch_protection -->
<g id="node9" class="node">
<title>repo_has_sufficient_branch_protection</title>
<path fill="#d2d5dd" stroke="transparent" d="M1223.21,-392C1223.21,-392 1113.6,-392 1113.6,-392 1107.6,-392 1101.6,-386 1101.6,-380 1101.6,-380 1101.6,-342.8 1101.6,-342.8 1101.6,-336.8 1107.6,-330.8 1113.6,-330.8 1113.6,-330.8 1223.21,-330.8 1223.21,-330.8 1229.21,-330.8 1235.21,-336.8 1235.21,-342.8 1235.21,-342.8 1235.21,-380 1235.21,-380 1235.21,-386 1229.21,-392 1223.21,-392"/>
<text text-anchor="middle" x="1168.4" y="-365.6" font-family="Arial" font-size="14.00">Sufficient Branch</text>
<text text-anchor="middle" x="1168.4" y="-348.8" font-family="Arial" font-size="14.00">Protection</text>
</g>
<!-- gha_on_pull_request_from_branch&#45;&gt;repo_has_sufficient_branch_protection -->
<g id="edge49" class="edge">
<title>gha_on_pull_request_from_branch&#45;&gt;repo_has_sufficient_branch_protection</title>
<path fill="none" stroke="#2b303a" d="M1092.15,-437.87C1103.57,-426.57 1117.88,-412.4 1131.02,-399.4"/>
<polygon fill="#2b303a" stroke="#2b303a" points="1133.52,-401.85 1138.17,-392.33 1128.6,-396.87 1133.52,-401.85"/>
</g>
<!-- repo_has_no_branch_protection&#45;&gt;repo_has_sufficient_branch_protection -->
<!-- pwn_build_artifact -->
<g id="node36" class="node">
<title>pwn_build_artifact</title>
<path fill="#5f00c2" stroke="transparent" d="M967.73,-61.4C967.73,-61.4 849.07,-61.4 849.07,-61.4 843.07,-61.4 837.07,-55.4 837.07,-49.4 837.07,-49.4 837.07,-12.2 837.07,-12.2 837.07,-6.2 843.07,-0.2 849.07,-0.2 849.07,-0.2 967.73,-0.2 967.73,-0.2 973.73,-0.2 979.73,-6.2 979.73,-12.2 979.73,-12.2 979.73,-49.4 979.73,-49.4 979.73,-55.4 973.73,-61.4 967.73,-61.4"/>
<text text-anchor="middle" x="908.4" y="-35" font-family="Arial" font-size="14.00" fill="#ffffff">Compromise Build</text>
<text text-anchor="middle" x="908.4" y="-18.2" font-family="Arial" font-size="14.00" fill="#ffffff">artifact</text>
</g>
<!-- repo_has_no_branch_protection&#45;&gt;pwn_build_artifact -->
<g id="edge12" class="edge">
<title>repo_has_no_branch_protection&#45;&gt;pwn_build_artifact</title>
<path fill="none" stroke="#2b303a" d="M996,-330.76C971.33,-314.11 945.22,-296.08 943.4,-293.2 900.26,-224.74 900,-126.24 903.98,-71.79"/>
<polygon fill="#2b303a" stroke="#2b303a" points="907.5,-71.76 904.82,-61.51 900.52,-71.19 907.5,-71.76"/>
</g>
<!-- repo_has_sufficient_branch_protection&#45;&gt;convince_maintainer -->
<g id="edge21" class="edge">
<title>repo_has_sufficient_branch_protection&#45;&gt;convince_maintainer</title>
<path fill="none" stroke="#2b303a" d="M1115.45,-330.78C1108.5,-327.58 1101.37,-324.61 1094.4,-322.2 1029.82,-299.85 1009.18,-311.73 943.4,-293.2 925.75,-288.23 907.07,-281.83 889.7,-275.38"/>
<polygon fill="#2b303a" stroke="#2b303a" points="890.8,-272.06 880.21,-271.8 888.33,-278.61 890.8,-272.06"/>
</g>
<!-- poison_cache -->
<g id="node16" class="node">
<title>poison_cache</title>
<path fill="#ff92cc" stroke="transparent" d="M1065.99,-276.2C1065.99,-276.2 962.81,-276.2 962.81,-276.2 956.81,-276.2 950.81,-270.2 950.81,-264.2 950.81,-264.2 950.81,-227 950.81,-227 950.81,-221 956.81,-215 962.81,-215 962.81,-215 1065.99,-215 1065.99,-215 1071.99,-215 1077.99,-221 1077.99,-227 1077.99,-227 1077.99,-264.2 1077.99,-264.2 1077.99,-270.2 1071.99,-276.2 1065.99,-276.2"/>
<text text-anchor="middle" x="1014.4" y="-249.8" font-family="Arial" font-size="14.00">Poison the build</text>
<text text-anchor="middle" x="1014.4" y="-233" font-family="Arial" font-size="14.00">cache</text>
</g>
<!-- repo_has_sufficient_branch_protection&#45;&gt;poison_cache -->
<g id="edge23" class="edge">
<title>repo_has_sufficient_branch_protection&#45;&gt;poison_cache</title>
<path fill="none" stroke="#2b303a" d="M1128.34,-330.8C1108.28,-315.97 1083.83,-297.91 1062.73,-282.32"/>
<polygon fill="#2b303a" stroke="#2b303a" points="1064.65,-279.38 1054.53,-276.25 1060.49,-285.01 1064.65,-279.38"/>
</g>
<!-- exfil_repo_secrets -->
<g id="node17" class="node">
<title>exfil_repo_secrets</title>
<path fill="#ff92cc" stroke="transparent" d="M1225.86,-276.2C1225.86,-276.2 1110.95,-276.2 1110.95,-276.2 1104.95,-276.2 1098.95,-270.2 1098.95,-264.2 1098.95,-264.2 1098.95,-227 1098.95,-227 1098.95,-221 1104.95,-215 1110.95,-215 1110.95,-215 1225.86,-215 1225.86,-215 1231.86,-215 1237.86,-221 1237.86,-227 1237.86,-227 1237.86,-264.2 1237.86,-264.2 1237.86,-270.2 1231.86,-276.2 1225.86,-276.2"/>
<text text-anchor="middle" x="1168.4" y="-249.8" font-family="Arial" font-size="14.00">Exfiltrate</text>
<text text-anchor="middle" x="1168.4" y="-233" font-family="Arial" font-size="14.00">repo&#45;level secrets</text>
</g>
<!-- repo_has_sufficient_branch_protection&#45;&gt;exfil_repo_secrets -->
<g id="edge24" class="edge">
<title>repo_has_sufficient_branch_protection&#45;&gt;exfil_repo_secrets</title>
<path fill="none" stroke="#2b303a" d="M1168.4,-330.8C1168.4,-317.34 1168.4,-301.21 1168.4,-286.68"/>
<polygon fill="#2b303a" stroke="#2b303a" points="1171.9,-286.45 1168.4,-276.45 1164.9,-286.45 1171.9,-286.45"/>
</g>
<!-- exfil_pat -->
<g id="node19" class="node">
<title>exfil_pat</title>
<path fill="#ff92cc" stroke="transparent" d="M1352.97,-267.9C1352.97,-267.9 1263.84,-267.9 1263.84,-267.9 1257.84,-267.9 1251.84,-261.9 1251.84,-255.9 1251.84,-255.9 1251.84,-235.3 1251.84,-235.3 1251.84,-229.3 1257.84,-223.3 1263.84,-223.3 1263.84,-223.3 1352.97,-223.3 1352.97,-223.3 1358.97,-223.3 1364.97,-229.3 1364.97,-235.3 1364.97,-235.3 1364.97,-255.9 1364.97,-255.9 1364.97,-261.9 1358.97,-267.9 1352.97,-267.9"/>
<text text-anchor="middle" x="1308.4" y="-241.4" font-family="Arial" font-size="14.00">Exfiltrate PAT</text>
</g>
<!-- repo_has_sufficient_branch_protection&#45;&gt;exfil_pat -->
<g id="edge26" class="edge">
<title>repo_has_sufficient_branch_protection&#45;&gt;exfil_pat</title>
<path fill="none" stroke="#2b303a" d="M1204.82,-330.8C1226.13,-313.47 1252.89,-291.72 1273.87,-274.67"/>
<polygon fill="#2b303a" stroke="#2b303a" points="1276.34,-277.17 1281.9,-268.15 1271.93,-271.74 1276.34,-277.17"/>
</g>
<!-- self_approve_pr -->
<g id="node21" class="node">
<title>self_approve_pr</title>
<path fill="#ff92cc" stroke="transparent" d="M1502.25,-276.2C1502.25,-276.2 1390.55,-276.2 1390.55,-276.2 1384.55,-276.2 1378.55,-270.2 1378.55,-264.2 1378.55,-264.2 1378.55,-227 1378.55,-227 1378.55,-221 1384.55,-215 1390.55,-215 1390.55,-215 1502.25,-215 1502.25,-215 1508.25,-215 1514.25,-221 1514.25,-227 1514.25,-227 1514.25,-264.2 1514.25,-264.2 1514.25,-270.2 1508.25,-276.2 1502.25,-276.2"/>
<text text-anchor="middle" x="1446.4" y="-249.8" font-family="Arial" font-size="14.00">Workflow</text>
<text text-anchor="middle" x="1446.4" y="-233" font-family="Arial" font-size="14.00">self&#45;approves PR</text>
</g>
<!-- repo_has_sufficient_branch_protection&#45;&gt;self_approve_pr -->
<g id="edge28" class="edge">
<title>repo_has_sufficient_branch_protection&#45;&gt;self_approve_pr</title>
<path fill="none" stroke="#2b303a" d="M1221.83,-330.79C1228.64,-327.62 1235.61,-324.67 1242.4,-322.2 1298.05,-302.01 1317.67,-315.75 1372.4,-293.2 1380.27,-289.96 1388.24,-285.9 1395.9,-281.54"/>
<polygon fill="#2b303a" stroke="#2b303a" points="1397.89,-284.43 1404.71,-276.32 1394.32,-278.41 1397.89,-284.43"/>
</g>
<!-- create_new_repo -->
<g id="node20" class="node">
<title>create_new_repo</title>
<path fill="#ff92cc" stroke="transparent" d="M1272.97,-491C1272.97,-491 1197.83,-491 1197.83,-491 1191.83,-491 1185.83,-485 1185.83,-479 1185.83,-479 1185.83,-441.8 1185.83,-441.8 1185.83,-435.8 1191.83,-429.8 1197.83,-429.8 1197.83,-429.8 1272.97,-429.8 1272.97,-429.8 1278.97,-429.8 1284.97,-435.8 1284.97,-441.8 1284.97,-441.8 1284.97,-479 1284.97,-479 1284.97,-485 1278.97,-491 1272.97,-491"/>
<text text-anchor="middle" x="1235.4" y="-464.6" font-family="Arial" font-size="14.00">Create new</text>
<text text-anchor="middle" x="1235.4" y="-447.8" font-family="Arial" font-size="14.00">repository</text>
</g>
<!-- has_perm_to_create_new_repo&#45;&gt;create_new_repo -->
<g id="edge27" class="edge">
<title>has_perm_to_create_new_repo&#45;&gt;create_new_repo</title>
<path fill="none" stroke="#2b303a" d="M1233.59,-520.06C1233.78,-513.89 1233.98,-507.48 1234.17,-501.27"/>
<polygon fill="#2b303a" stroke="#2b303a" points="1237.67,-501.19 1234.48,-491.08 1230.68,-500.97 1237.67,-501.19"/>
</g>
<!-- limit_default_org_member_privileges -->
<g id="node31" class="node">
<title>limit_default_org_member_privileges</title>
<path fill="#b9d6f2" stroke="transparent" d="M1429.73,-491C1429.73,-491 1311.07,-491 1311.07,-491 1305.07,-491 1299.07,-485 1299.07,-479 1299.07,-479 1299.07,-441.8 1299.07,-441.8 1299.07,-435.8 1305.07,-429.8 1311.07,-429.8 1311.07,-429.8 1429.73,-429.8 1429.73,-429.8 1435.73,-429.8 1441.73,-435.8 1441.73,-441.8 1441.73,-441.8 1441.73,-479 1441.73,-479 1441.73,-485 1435.73,-491 1429.73,-491"/>
<text text-anchor="middle" x="1370.4" y="-464.6" font-family="Arial" font-size="14.00">Limit default Org.</text>
<text text-anchor="middle" x="1370.4" y="-447.8" font-family="Arial" font-size="14.00">member privileges</text>
</g>
<!-- has_perm_to_create_new_repo&#45;&gt;limit_default_org_member_privileges -->
<g id="edge38" class="edge">
<title>has_perm_to_create_new_repo&#45;&gt;limit_default_org_member_privileges</title>
<path fill="none" stroke="#2b303a" d="M1286.94,-520.06C1297.76,-512.46 1309.08,-504.5 1319.76,-497"/>
<polygon fill="#2b303a" stroke="#2b303a" points="1322,-499.7 1328.17,-491.08 1317.98,-493.97 1322,-499.7"/>
</g>
<!-- gha_use_self_hosted_runner -->
<g id="node11" class="node">
<title>gha_use_self_hosted_runner</title>
<path fill="#d2d5dd" stroke="transparent" d="M121.14,-160.4C121.14,-160.4 19.66,-160.4 19.66,-160.4 13.66,-160.4 7.66,-154.4 7.66,-148.4 7.66,-148.4 7.66,-111.2 7.66,-111.2 7.66,-105.2 13.66,-99.2 19.66,-99.2 19.66,-99.2 121.14,-99.2 121.14,-99.2 127.14,-99.2 133.14,-105.2 133.14,-111.2 133.14,-111.2 133.14,-148.4 133.14,-148.4 133.14,-154.4 127.14,-160.4 121.14,-160.4"/>
<text text-anchor="middle" x="70.4" y="-134" font-family="Arial" font-size="14.00">Use self&#45;hosted</text>
<text text-anchor="middle" x="70.4" y="-117.2" font-family="Arial" font-size="14.00">runner</text>
</g>
<!-- gha_sast_detects_injection -->
<g id="node26" class="node">
<title>gha_sast_detects_injection</title>
<path fill="#b9d6f2" stroke="transparent" d="M285.83,-160.4C285.83,-160.4 158.98,-160.4 158.98,-160.4 152.98,-160.4 146.98,-154.4 146.98,-148.4 146.98,-148.4 146.98,-111.2 146.98,-111.2 146.98,-105.2 152.98,-99.2 158.98,-99.2 158.98,-99.2 285.83,-99.2 285.83,-99.2 291.83,-99.2 297.83,-105.2 297.83,-111.2 297.83,-111.2 297.83,-148.4 297.83,-148.4 297.83,-154.4 291.83,-160.4 285.83,-160.4"/>
<text text-anchor="middle" x="222.4" y="-134" font-family="Arial" font-size="14.00">Use SAST to detect</text>
<text text-anchor="middle" x="222.4" y="-117.2" font-family="Arial" font-size="14.00">injection</text>
</g>
<!-- gha_use_self_hosted_runner&#45;&gt;gha_sast_detects_injection -->
<!-- gha_drop_privs -->
<g id="node27" class="node">
<title>gha_drop_privs</title>
<path fill="#b9d6f2" stroke="transparent" d="M402.57,-169.2C402.57,-169.2 324.24,-169.2 324.24,-169.2 318.24,-169.2 312.24,-163.2 312.24,-157.2 312.24,-157.2 312.24,-102.4 312.24,-102.4 312.24,-96.4 318.24,-90.4 324.24,-90.4 324.24,-90.4 402.57,-90.4 402.57,-90.4 408.57,-90.4 414.57,-96.4 414.57,-102.4 414.57,-102.4 414.57,-157.2 414.57,-157.2 414.57,-163.2 408.57,-169.2 402.57,-169.2"/>
<text text-anchor="middle" x="363.4" y="-142.4" font-family="Arial" font-size="14.00">Use Least</text>
<text text-anchor="middle" x="363.4" y="-125.6" font-family="Arial" font-size="14.00">Privileged</text>
<text text-anchor="middle" x="363.4" y="-108.8" font-family="Arial" font-size="14.00">permissions</text>
</g>
<!-- gha_use_self_hosted_runner&#45;&gt;gha_drop_privs -->
<!-- pwn_self_hosted_runner -->
<g id="node35" class="node">
<title>pwn_self_hosted_runner</title>
<path fill="#5f00c2" stroke="transparent" d="M128.71,-61.4C128.71,-61.4 12.1,-61.4 12.1,-61.4 6.1,-61.4 0.1,-55.4 0.1,-49.4 0.1,-49.4 0.1,-12.2 0.1,-12.2 0.1,-6.2 6.1,-0.2 12.1,-0.2 12.1,-0.2 128.71,-0.2 128.71,-0.2 134.71,-0.2 140.71,-6.2 140.71,-12.2 140.71,-12.2 140.71,-49.4 140.71,-49.4 140.71,-55.4 134.71,-61.4 128.71,-61.4"/>
<text text-anchor="middle" x="70.4" y="-35" font-family="Arial" font-size="14.00" fill="#ffffff">Compromise</text>
<text text-anchor="middle" x="70.4" y="-18.2" font-family="Arial" font-size="14.00" fill="#ffffff">self&#45;hosted runner</text>
</g>
<!-- gha_use_self_hosted_runner&#45;&gt;pwn_self_hosted_runner -->
<g id="edge1" class="edge">
<title>gha_use_self_hosted_runner&#45;&gt;pwn_self_hosted_runner</title>
<path fill="none" stroke="#2b303a" d="M70.4,-99.17C70.4,-90.51 70.4,-80.89 70.4,-71.7"/>
<polygon fill="#2b303a" stroke="#2b303a" points="73.9,-71.58 70.4,-61.58 66.9,-71.58 73.9,-71.58"/>
</g>
<!-- mask_dynamic_secrets -->
<g id="node34" class="node">
<title>mask_dynamic_secrets</title>
<path fill="#b9d6f2" stroke="transparent" d="M1835.36,-276.2C1835.36,-276.2 1741.44,-276.2 1741.44,-276.2 1735.44,-276.2 1729.44,-270.2 1729.44,-264.2 1729.44,-264.2 1729.44,-227 1729.44,-227 1729.44,-221 1735.44,-215 1741.44,-215 1741.44,-215 1835.36,-215 1835.36,-215 1841.36,-215 1847.36,-221 1847.36,-227 1847.36,-227 1847.36,-264.2 1847.36,-264.2 1847.36,-270.2 1841.36,-276.2 1835.36,-276.2"/>
<text text-anchor="middle" x="1788.4" y="-249.8" font-family="Arial" font-size="14.00">Mask dynamic</text>
<text text-anchor="middle" x="1788.4" y="-233" font-family="Arial" font-size="14.00">secrets in logs</text>
</g>
<!-- extract_sensitive_tokens_from_actions_logs&#45;&gt;mask_dynamic_secrets -->
<g id="edge41" class="edge">
<title>extract_sensitive_tokens_from_actions_logs&#45;&gt;mask_dynamic_secrets</title>
<path fill="none" stroke="#2b303a" d="M1573.1,-334.84C1607.26,-322.79 1648.11,-307.86 1684.4,-293.2 1696.05,-288.49 1708.33,-283.25 1720.19,-278.03"/>
<polygon fill="#2b303a" stroke="#2b303a" points="1721.88,-281.11 1729.61,-273.86 1719.05,-274.71 1721.88,-281.11"/>
</g>
<!-- gha_injection_vuln&#45;&gt;gha_use_self_hosted_runner -->
<g id="edge51" class="edge">
<title>gha_injection_vuln&#45;&gt;gha_use_self_hosted_runner</title>
<path fill="none" stroke="#2b303a" d="M182.86,-215C163.06,-200.17 138.93,-182.11 118.11,-166.52"/>
<polygon fill="#2b303a" stroke="#2b303a" points="120.11,-163.64 110.01,-160.45 115.91,-169.25 120.11,-163.64"/>
</g>
<!-- gha_injection_vuln&#45;&gt;gha_dangerous_pr_target -->
<!-- gha_injection_vuln&#45;&gt;gha_sast_detects_injection -->
<g id="edge33" class="edge">
<title>gha_injection_vuln&#45;&gt;gha_sast_detects_injection</title>
<path fill="none" stroke="#2b303a" d="M222.4,-215C222.4,-201.54 222.4,-185.41 222.4,-170.88"/>
<polygon fill="#2b303a" stroke="#2b303a" points="225.9,-170.65 222.4,-160.65 218.9,-170.65 225.9,-170.65"/>
</g>
<!-- gha_dangerous_pr_target&#45;&gt;gha_use_self_hosted_runner -->
<g id="edge52" class="edge">
<title>gha_dangerous_pr_target&#45;&gt;gha_use_self_hosted_runner</title>
<path fill="none" stroke="#2b303a" d="M314.73,-206.39C307.29,-203.29 299.77,-200.43 292.4,-198 227.08,-176.48 205.15,-192.2 140.4,-169 136.87,-167.73 133.3,-166.31 129.75,-164.77"/>
<polygon fill="#2b303a" stroke="#2b303a" points="130.94,-161.47 120.39,-160.47 128.01,-167.83 130.94,-161.47"/>
</g>
<!-- gha_dangerous_pr_target&#45;&gt;gha_drop_privs -->
<g id="edge34" class="edge">
<title>gha_dangerous_pr_target&#45;&gt;gha_drop_privs</title>
<path fill="none" stroke="#2b303a" d="M380.67,-206.39C378.66,-197.57 376.49,-188.08 374.39,-178.9"/>
<polygon fill="#2b303a" stroke="#2b303a" points="377.79,-178.07 372.15,-169.1 370.97,-179.63 377.79,-178.07"/>
</g>
<!-- avoid_risky_pr_target_checkout -->
<g id="node28" class="node">
<title>avoid_risky_pr_target_checkout</title>
<path fill="#b9d6f2" stroke="transparent" d="M565.9,-169.2C565.9,-169.2 470.9,-169.2 470.9,-169.2 464.9,-169.2 458.9,-163.2 458.9,-157.2 458.9,-157.2 458.9,-102.4 458.9,-102.4 458.9,-96.4 464.9,-90.4 470.9,-90.4 470.9,-90.4 565.9,-90.4 565.9,-90.4 571.9,-90.4 577.9,-96.4 577.9,-102.4 577.9,-102.4 577.9,-157.2 577.9,-157.2 577.9,-163.2 571.9,-169.2 565.9,-169.2"/>
<text text-anchor="middle" x="518.4" y="-142.4" font-family="Arial" font-size="14.00">Avoid risky PR</text>
<text text-anchor="middle" x="518.4" y="-125.6" font-family="Arial" font-size="14.00">target code</text>
<text text-anchor="middle" x="518.4" y="-108.8" font-family="Arial" font-size="14.00">checkout</text>
</g>
<!-- gha_dangerous_pr_target&#45;&gt;avoid_risky_pr_target_checkout -->
<g id="edge35" class="edge">
<title>gha_dangerous_pr_target&#45;&gt;avoid_risky_pr_target_checkout</title>
<path fill="none" stroke="#2b303a" d="M432.72,-206.39C443.78,-196.63 455.77,-186.05 467.19,-175.98"/>
<polygon fill="#2b303a" stroke="#2b303a" points="469.8,-178.34 474.98,-169.1 465.17,-173.09 469.8,-178.34"/>
</g>
<!-- convince_maintainer&#45;&gt;poison_cache -->
<!-- two_person_review -->
<g id="node23" class="node">
<title>two_person_review</title>
<path fill="#b9d6f2" stroke="transparent" d="M726.62,-152.1C726.62,-152.1 604.18,-152.1 604.18,-152.1 598.18,-152.1 592.18,-146.1 592.18,-140.1 592.18,-140.1 592.18,-119.5 592.18,-119.5 592.18,-113.5 598.18,-107.5 604.18,-107.5 604.18,-107.5 726.62,-107.5 726.62,-107.5 732.62,-107.5 738.62,-113.5 738.62,-119.5 738.62,-119.5 738.62,-140.1 738.62,-140.1 738.62,-146.1 732.62,-152.1 726.62,-152.1"/>
<text text-anchor="middle" x="665.4" y="-125.6" font-family="Arial" font-size="14.00">Two&#45;person review</text>
</g>
<!-- convince_maintainer&#45;&gt;two_person_review -->
<g id="edge30" class="edge">
<title>convince_maintainer&#45;&gt;two_person_review</title>
<path fill="none" stroke="#2b303a" d="M758.54,-199.62C739.78,-185.76 719.68,-170.91 702.98,-158.57"/>
<polygon fill="#2b303a" stroke="#2b303a" points="704.7,-155.49 694.58,-152.36 700.54,-161.12 704.7,-155.49"/>
</g>
<!-- gha_limit_allowed_actions -->
<g id="node32" class="node">
<title>gha_limit_allowed_actions</title>
<path fill="#b9d6f2" stroke="transparent" d="M873.91,-160.4C873.91,-160.4 764.9,-160.4 764.9,-160.4 758.9,-160.4 752.9,-154.4 752.9,-148.4 752.9,-148.4 752.9,-111.2 752.9,-111.2 752.9,-105.2 758.9,-99.2 764.9,-99.2 764.9,-99.2 873.91,-99.2 873.91,-99.2 879.91,-99.2 885.91,-105.2 885.91,-111.2 885.91,-111.2 885.91,-148.4 885.91,-148.4 885.91,-154.4 879.91,-160.4 873.91,-160.4"/>
<text text-anchor="middle" x="819.4" y="-134" font-family="Arial" font-size="14.00">Set policy to limit</text>
<text text-anchor="middle" x="819.4" y="-117.2" font-family="Arial" font-size="14.00">allowed actions</text>
</g>
<!-- convince_maintainer&#45;&gt;gha_limit_allowed_actions -->
<g id="edge39" class="edge">
<title>convince_maintainer&#45;&gt;gha_limit_allowed_actions</title>
<path fill="none" stroke="#2b303a" d="M819.4,-197.98C819.4,-188.9 819.4,-179.45 819.4,-170.6"/>
<polygon fill="#2b303a" stroke="#2b303a" points="822.9,-170.56 819.4,-160.56 815.9,-170.56 822.9,-170.56"/>
</g>
<!-- poison_cache&#45;&gt;exfil_repo_secrets -->
<!-- avoid_using_cache_in_sensitive_workflows -->
<g id="node29" class="node">
<title>avoid_using_cache_in_sensitive_workflows</title>
<path fill="#b9d6f2" stroke="transparent" d="M1074.77,-169.2C1074.77,-169.2 942.03,-169.2 942.03,-169.2 936.03,-169.2 930.03,-163.2 930.03,-157.2 930.03,-157.2 930.03,-102.4 930.03,-102.4 930.03,-96.4 936.03,-90.4 942.03,-90.4 942.03,-90.4 1074.77,-90.4 1074.77,-90.4 1080.77,-90.4 1086.77,-96.4 1086.77,-102.4 1086.77,-102.4 1086.77,-157.2 1086.77,-157.2 1086.77,-163.2 1080.77,-169.2 1074.77,-169.2"/>
<text text-anchor="middle" x="1008.4" y="-142.4" font-family="Arial" font-size="14.00">Avoid using cache in</text>
<text text-anchor="middle" x="1008.4" y="-125.6" font-family="Arial" font-size="14.00">sensitive</text>
<text text-anchor="middle" x="1008.4" y="-108.8" font-family="Arial" font-size="14.00">workflows</text>
</g>
<!-- poison_cache&#45;&gt;avoid_using_cache_in_sensitive_workflows -->
<g id="edge36" class="edge">
<title>poison_cache&#45;&gt;avoid_using_cache_in_sensitive_workflows</title>
<path fill="none" stroke="#2b303a" d="M1012.84,-215C1012.27,-204.09 1011.6,-191.43 1010.96,-179.29"/>
<polygon fill="#2b303a" stroke="#2b303a" points="1014.45,-179.07 1010.43,-169.27 1007.46,-179.44 1014.45,-179.07"/>
</g>
<!-- exfil_repo_secrets&#45;&gt;exfil_pat -->
<!-- gha_use_env_prot_rule -->
<g id="node24" class="node">
<title>gha_use_env_prot_rule</title>
<path fill="#b9d6f2" stroke="transparent" d="M1224.25,-160.4C1224.25,-160.4 1112.55,-160.4 1112.55,-160.4 1106.55,-160.4 1100.55,-154.4 1100.55,-148.4 1100.55,-148.4 1100.55,-111.2 1100.55,-111.2 1100.55,-105.2 1106.55,-99.2 1112.55,-99.2 1112.55,-99.2 1224.25,-99.2 1224.25,-99.2 1230.25,-99.2 1236.25,-105.2 1236.25,-111.2 1236.25,-111.2 1236.25,-148.4 1236.25,-148.4 1236.25,-154.4 1230.25,-160.4 1224.25,-160.4"/>
<text text-anchor="middle" x="1168.4" y="-134" font-family="Arial" font-size="14.00">Use Environment</text>
<text text-anchor="middle" x="1168.4" y="-117.2" font-family="Arial" font-size="14.00">Protection Rule</text>
</g>
<!-- exfil_repo_secrets&#45;&gt;gha_use_env_prot_rule -->
<g id="edge31" class="edge">
<title>exfil_repo_secrets&#45;&gt;gha_use_env_prot_rule</title>
<path fill="none" stroke="#2b303a" d="M1168.4,-215C1168.4,-201.54 1168.4,-185.41 1168.4,-170.88"/>
<polygon fill="#2b303a" stroke="#2b303a" points="1171.9,-170.65 1168.4,-160.65 1164.9,-170.65 1171.9,-170.65"/>
</g>
<!-- gha_use_oidc_with_branch_filter -->
<g id="node25" class="node">
<title>gha_use_oidc_with_branch_filter</title>
<path fill="#b9d6f2" stroke="transparent" d="M1391.09,-160.4C1391.09,-160.4 1261.71,-160.4 1261.71,-160.4 1255.71,-160.4 1249.71,-154.4 1249.71,-148.4 1249.71,-148.4 1249.71,-111.2 1249.71,-111.2 1249.71,-105.2 1255.71,-99.2 1261.71,-99.2 1261.71,-99.2 1391.09,-99.2 1391.09,-99.2 1397.09,-99.2 1403.09,-105.2 1403.09,-111.2 1403.09,-111.2 1403.09,-148.4 1403.09,-148.4 1403.09,-154.4 1397.09,-160.4 1391.09,-160.4"/>
<text text-anchor="middle" x="1326.4" y="-134" font-family="Arial" font-size="14.00">Use OIDC with &#39;sub&#39;</text>
<text text-anchor="middle" x="1326.4" y="-117.2" font-family="Arial" font-size="14.00">branch filter</text>
</g>
<!-- exfil_repo_secrets&#45;&gt;gha_use_oidc_with_branch_filter -->
<g id="edge32" class="edge">
<title>exfil_repo_secrets&#45;&gt;gha_use_oidc_with_branch_filter</title>
<path fill="none" stroke="#2b303a" d="M1209.5,-215C1230.18,-200.11 1255.39,-181.95 1277.1,-166.31"/>
<polygon fill="#2b303a" stroke="#2b303a" points="1279.16,-169.14 1285.23,-160.45 1275.07,-163.46 1279.16,-169.14"/>
</g>
<!-- exfil_org_secrets -->
<g id="node18" class="node">
<title>exfil_org_secrets</title>
<path fill="#ff92cc" stroke="transparent" d="M1367.57,-392C1367.57,-392 1261.23,-392 1261.23,-392 1255.23,-392 1249.23,-386 1249.23,-380 1249.23,-380 1249.23,-342.8 1249.23,-342.8 1249.23,-336.8 1255.23,-330.8 1261.23,-330.8 1261.23,-330.8 1367.57,-330.8 1367.57,-330.8 1373.57,-330.8 1379.57,-336.8 1379.57,-342.8 1379.57,-342.8 1379.57,-380 1379.57,-380 1379.57,-386 1373.57,-392 1367.57,-392"/>
<text text-anchor="middle" x="1314.4" y="-365.6" font-family="Arial" font-size="14.00">Exiltrate</text>
<text text-anchor="middle" x="1314.4" y="-348.8" font-family="Arial" font-size="14.00">org&#45;level secrets</text>
</g>
<!-- avoid_sensitive_org_secrets -->
<g id="node30" class="node">
<title>avoid_sensitive_org_secrets</title>
<path fill="#b9d6f2" stroke="transparent" d="M1665.57,-169.2C1665.57,-169.2 1559.23,-169.2 1559.23,-169.2 1553.23,-169.2 1547.23,-163.2 1547.23,-157.2 1547.23,-157.2 1547.23,-102.4 1547.23,-102.4 1547.23,-96.4 1553.23,-90.4 1559.23,-90.4 1559.23,-90.4 1665.57,-90.4 1665.57,-90.4 1671.57,-90.4 1677.57,-96.4 1677.57,-102.4 1677.57,-102.4 1677.57,-157.2 1677.57,-157.2 1677.57,-163.2 1671.57,-169.2 1665.57,-169.2"/>
<text text-anchor="middle" x="1612.4" y="-142.4" font-family="Arial" font-size="14.00">Avoid storing</text>
<text text-anchor="middle" x="1612.4" y="-125.6" font-family="Arial" font-size="14.00">sensitive</text>
<text text-anchor="middle" x="1612.4" y="-108.8" font-family="Arial" font-size="14.00">org&#45;level secrets</text>
</g>
<!-- exfil_org_secrets&#45;&gt;avoid_sensitive_org_secrets -->
<g id="edge37" class="edge">
<title>exfil_org_secrets&#45;&gt;avoid_sensitive_org_secrets</title>
<path fill="none" stroke="#2b303a" d="M1369.74,-330.62C1376.59,-327.52 1383.58,-324.63 1390.4,-322.2 1446.58,-302.21 1473.53,-328.76 1521.4,-293.2 1559.51,-264.89 1583.84,-215.61 1597.66,-178.74"/>
<polygon fill="#2b303a" stroke="#2b303a" points="1601.01,-179.77 1601.12,-169.17 1594.43,-177.39 1601.01,-179.77"/>
</g>
<!-- exfil_pat&#45;&gt;self_approve_pr -->
<!-- use_fined_grained_pats -->
<g id="node33" class="node">
<title>use_fined_grained_pats</title>
<path fill="#b9d6f2" stroke="transparent" d="M1810.59,-160.4C1810.59,-160.4 1704.22,-160.4 1704.22,-160.4 1698.22,-160.4 1692.22,-154.4 1692.22,-148.4 1692.22,-148.4 1692.22,-111.2 1692.22,-111.2 1692.22,-105.2 1698.22,-99.2 1704.22,-99.2 1704.22,-99.2 1810.59,-99.2 1810.59,-99.2 1816.59,-99.2 1822.59,-105.2 1822.59,-111.2 1822.59,-111.2 1822.59,-148.4 1822.59,-148.4 1822.59,-154.4 1816.59,-160.4 1810.59,-160.4"/>
<text text-anchor="middle" x="1757.4" y="-134" font-family="Arial" font-size="14.00">Use fine&#45;grained</text>
<text text-anchor="middle" x="1757.4" y="-117.2" font-family="Arial" font-size="14.00">PATs</text>
</g>
<!-- exfil_pat&#45;&gt;use_fined_grained_pats -->
<g id="edge40" class="edge">
<title>exfil_pat&#45;&gt;use_fined_grained_pats</title>
<path fill="none" stroke="#2b303a" d="M1331.09,-223.08C1342.34,-213.72 1356.66,-203.63 1371.4,-198 1501.92,-148.18 1550.42,-208.58 1684.4,-169 1688.68,-167.73 1693.01,-166.21 1697.3,-164.51"/>
<polygon fill="#2b303a" stroke="#2b303a" points="1698.79,-167.68 1706.61,-160.53 1696.04,-161.24 1698.79,-167.68"/>
</g>
<!-- create_new_repo&#45;&gt;exfil_org_secrets -->
<g id="edge25" class="edge">
<title>create_new_repo&#45;&gt;exfil_org_secrets</title>
<path fill="none" stroke="#2b303a" d="M1259.53,-429.77C1267.2,-420.36 1275.77,-409.83 1283.83,-399.94"/>
<polygon fill="#2b303a" stroke="#2b303a" points="1286.54,-402.15 1290.15,-392.18 1281.12,-397.73 1286.54,-402.15"/>
</g>
<!-- create_new_repo&#45;&gt;limit_default_org_member_privileges -->
<!-- limit_workflow_perms -->
<g id="node22" class="node">
<title>limit_workflow_perms</title>
<path fill="#b9d6f2" stroke="transparent" d="M1521.28,-160.4C1521.28,-160.4 1429.53,-160.4 1429.53,-160.4 1423.53,-160.4 1417.53,-154.4 1417.53,-148.4 1417.53,-148.4 1417.53,-111.2 1417.53,-111.2 1417.53,-105.2 1423.53,-99.2 1429.53,-99.2 1429.53,-99.2 1521.28,-99.2 1521.28,-99.2 1527.28,-99.2 1533.28,-105.2 1533.28,-111.2 1533.28,-111.2 1533.28,-148.4 1533.28,-148.4 1533.28,-154.4 1527.28,-160.4 1521.28,-160.4"/>
<text text-anchor="middle" x="1475.4" y="-134" font-family="Arial" font-size="14.00">Limit workflow</text>
<text text-anchor="middle" x="1475.4" y="-117.2" font-family="Arial" font-size="14.00">permissions</text>
</g>
<!-- self_approve_pr&#45;&gt;limit_workflow_perms -->
<g id="edge29" class="edge">
<title>self_approve_pr&#45;&gt;limit_workflow_perms</title>
<path fill="none" stroke="#2b303a" d="M1453.95,-215C1457.41,-201.41 1461.57,-185.09 1465.3,-170.46"/>
<polygon fill="#2b303a" stroke="#2b303a" points="1468.72,-171.2 1467.8,-160.65 1461.93,-169.48 1468.72,-171.2"/>
</g>
<!-- limit_workflow_perms&#45;&gt;pwn_build_artifact -->
<g id="edge2" class="edge">
<title>limit_workflow_perms&#45;&gt;pwn_build_artifact</title>
<path fill="none" stroke="#2b303a" d="M1430.37,-99.18C1423.87,-95.85 1417.1,-92.85 1410.4,-90.6 1267.85,-42.73 1091.21,-32.6 989.99,-31.14"/>
<polygon fill="#2b303a" stroke="#2b303a" points="989.87,-27.63 979.83,-31.01 989.79,-34.63 989.87,-27.63"/>
</g>
<!-- two_person_review&#45;&gt;gha_limit_allowed_actions -->
<!-- two_person_review&#45;&gt;pwn_build_artifact -->
<g id="edge3" class="edge">
<title>two_person_review&#45;&gt;pwn_build_artifact</title>
<path fill="none" stroke="#2b303a" d="M708.23,-107.39C720.15,-101.69 733.19,-95.7 745.4,-90.6 771.85,-79.55 801.2,-68.57 827.62,-59.15"/>
<polygon fill="#2b303a" stroke="#2b303a" points="828.95,-62.39 837.21,-55.76 826.61,-55.8 828.95,-62.39"/>
</g>
<!-- gha_use_env_prot_rule&#45;&gt;gha_use_oidc_with_branch_filter -->
<!-- gha_use_env_prot_rule&#45;&gt;pwn_build_artifact -->
<g id="edge8" class="edge">
<title>gha_use_env_prot_rule&#45;&gt;pwn_build_artifact</title>
<path fill="none" stroke="#2b303a" d="M1112.35,-99.01C1106.03,-96.02 1099.62,-93.15 1093.4,-90.6 1060.06,-76.92 1022.29,-64.41 989.61,-54.47"/>
<polygon fill="#2b303a" stroke="#2b303a" points="990.23,-51.01 979.65,-51.48 988.22,-57.71 990.23,-51.01"/>
</g>
<!-- pivot -->
<g id="node37" class="node">
<title>pivot</title>
<path fill="#5f00c2" stroke="transparent" d="M1655.87,-61.4C1655.87,-61.4 1568.93,-61.4 1568.93,-61.4 1562.93,-61.4 1556.93,-55.4 1556.93,-49.4 1556.93,-49.4 1556.93,-12.2 1556.93,-12.2 1556.93,-6.2 1562.93,-0.2 1568.93,-0.2 1568.93,-0.2 1655.87,-0.2 1655.87,-0.2 1661.87,-0.2 1667.87,-6.2 1667.87,-12.2 1667.87,-12.2 1667.87,-49.4 1667.87,-49.4 1667.87,-55.4 1661.87,-61.4 1655.87,-61.4"/>
<text text-anchor="middle" x="1612.4" y="-35" font-family="Arial" font-size="14.00" fill="#ffffff">Pivot to other</text>
<text text-anchor="middle" x="1612.4" y="-18.2" font-family="Arial" font-size="14.00" fill="#ffffff">resources</text>
</g>
<!-- gha_use_env_prot_rule&#45;&gt;pivot -->
<g id="edge13" class="edge">
<title>gha_use_env_prot_rule&#45;&gt;pivot</title>
<path fill="none" stroke="#2b303a" d="M1220.87,-99.15C1227.96,-95.91 1235.26,-92.94 1242.4,-90.6 1345.55,-56.75 1471.47,-42.05 1546.62,-35.91"/>
<polygon fill="#2b303a" stroke="#2b303a" points="1547.19,-39.38 1556.88,-35.1 1546.64,-32.4 1547.19,-39.38"/>
</g>
<!-- gha_use_oidc_with_branch_filter&#45;&gt;pwn_build_artifact -->
<g id="edge9" class="edge">
<title>gha_use_oidc_with_branch_filter&#45;&gt;pwn_build_artifact</title>
<path fill="none" stroke="#2b303a" d="M1266.83,-99.18C1259.06,-95.98 1251.12,-93.01 1243.4,-90.6 1158.96,-64.24 1058.63,-48.6 989.92,-40.15"/>
<polygon fill="#2b303a" stroke="#2b303a" points="989.94,-36.63 979.59,-38.91 989.1,-43.58 989.94,-36.63"/>
</g>
<!-- gha_use_oidc_with_branch_filter&#45;&gt;pivot -->
<g id="edge14" class="edge">
<title>gha_use_oidc_with_branch_filter&#45;&gt;pivot</title>
<path fill="none" stroke="#2b303a" d="M1389.29,-99.03C1396.35,-96.04 1403.49,-93.16 1410.4,-90.6 1455.23,-73.98 1507.03,-58.98 1546.96,-48.29"/>
<polygon fill="#2b303a" stroke="#2b303a" points="1548.07,-51.62 1556.84,-45.67 1546.27,-44.85 1548.07,-51.62"/>
</g>
<!-- gha_sast_detects_injection&#45;&gt;pwn_build_artifact -->
<g id="edge5" class="edge">
<title>gha_sast_detects_injection&#45;&gt;pwn_build_artifact</title>
<path fill="none" stroke="#2b303a" d="M280.44,-99.16C288.66,-95.83 297.13,-92.84 305.4,-90.6 486.99,-41.46 709.17,-32.28 826.6,-31.21"/>
<polygon fill="#2b303a" stroke="#2b303a" points="826.96,-34.71 836.94,-31.14 826.91,-27.71 826.96,-34.71"/>
</g>
<!-- gha_drop_privs&#45;&gt;avoid_risky_pr_target_checkout -->
<!-- gha_drop_privs&#45;&gt;pwn_build_artifact -->
<g id="edge6" class="edge">
<title>gha_drop_privs&#45;&gt;pwn_build_artifact</title>
<path fill="none" stroke="#2b303a" d="M414.64,-103.69C426.48,-98.69 439.2,-93.96 451.4,-90.6 579.82,-55.23 734.52,-41 826.98,-35.37"/>
<polygon fill="#2b303a" stroke="#2b303a" points="827.34,-38.85 837.12,-34.77 826.93,-31.86 827.34,-38.85"/>
</g>
<!-- avoid_risky_pr_target_checkout&#45;&gt;pwn_build_artifact -->
<g id="edge7" class="edge">
<title>avoid_risky_pr_target_checkout&#45;&gt;pwn_build_artifact</title>
<path fill="none" stroke="#2b303a" d="M578.2,-93.44C580.61,-92.42 583.01,-91.47 585.4,-90.6 664.75,-61.72 760.43,-46.57 826.96,-38.94"/>
<polygon fill="#2b303a" stroke="#2b303a" points="827.43,-42.41 836.98,-37.82 826.65,-35.45 827.43,-42.41"/>
</g>
<!-- avoid_using_cache_in_sensitive_workflows&#45;&gt;pwn_build_artifact -->
<g id="edge11" class="edge">
<title>avoid_using_cache_in_sensitive_workflows&#45;&gt;pwn_build_artifact</title>
<path fill="none" stroke="#2b303a" d="M968.88,-90.46C961.43,-83.23 953.65,-75.69 946.25,-68.51"/>
<polygon fill="#2b303a" stroke="#2b303a" points="948.62,-65.93 939,-61.48 943.74,-70.96 948.62,-65.93"/>
</g>
<!-- avoid_sensitive_org_secrets&#45;&gt;pwn_build_artifact -->
<g id="edge10" class="edge">
<title>avoid_sensitive_org_secrets&#45;&gt;pwn_build_artifact</title>
<path fill="none" stroke="#2b303a" d="M1546.93,-92.74C1544.75,-91.96 1542.57,-91.25 1540.4,-90.6 1439.48,-60.45 1136.88,-42.54 990.07,-35.4"/>
<polygon fill="#2b303a" stroke="#2b303a" points="989.93,-31.89 979.77,-34.91 989.59,-38.88 989.93,-31.89"/>
</g>
<!-- avoid_sensitive_org_secrets&#45;&gt;pivot -->
<g id="edge15" class="edge">
<title>avoid_sensitive_org_secrets&#45;&gt;pivot</title>
<path fill="none" stroke="#2b303a" d="M1612.4,-90.46C1612.4,-84.29 1612.4,-77.88 1612.4,-71.67"/>
<polygon fill="#2b303a" stroke="#2b303a" points="1615.9,-71.48 1612.4,-61.48 1608.9,-71.48 1615.9,-71.48"/>
</g>
<!-- limit_default_org_member_privileges&#45;&gt;pwn_self_hosted_runner -->
<!-- limit_default_org_member_privileges&#45;&gt;pwn_build_artifact -->
<!-- limit_default_org_member_privileges&#45;&gt;pivot -->
<!-- gha_limit_allowed_actions&#45;&gt;pwn_build_artifact -->
<g id="edge4" class="edge">
<title>gha_limit_allowed_actions&#45;&gt;pwn_build_artifact</title>
<path fill="none" stroke="#2b303a" d="M846.59,-99.17C855.31,-89.67 865.07,-79.02 874.22,-69.05"/>
<polygon fill="#2b303a" stroke="#2b303a" points="876.89,-71.32 881.08,-61.58 871.74,-66.59 876.89,-71.32"/>
</g>
<!-- use_fined_grained_pats&#45;&gt;pivot -->
<g id="edge16" class="edge">
<title>use_fined_grained_pats&#45;&gt;pivot</title>
<path fill="none" stroke="#2b303a" d="M1713.11,-99.17C1698,-89.06 1680.96,-77.66 1665.24,-67.15"/>
<polygon fill="#2b303a" stroke="#2b303a" points="1666.93,-64.07 1656.67,-61.42 1663.04,-69.89 1666.93,-64.07"/>
</g>
<!-- mask_dynamic_secrets&#45;&gt;pivot -->
<g id="edge17" class="edge">
<title>mask_dynamic_secrets&#45;&gt;pivot</title>
<path fill="none" stroke="#2b303a" d="M1824.02,-214.69C1836.43,-202.03 1848.87,-186.22 1855.4,-169 1867.76,-136.42 1876.95,-117.98 1855.4,-90.6 1833.65,-62.96 1742.04,-46.75 1677.74,-38.57"/>
<polygon fill="#2b303a" stroke="#2b303a" points="1678.03,-35.08 1667.67,-37.33 1677.17,-42.03 1678.03,-35.08"/>
</g>
</g>
</svg>
