<?xml version="1.0" encoding="UTF-8" standalone="no"?>
<!DOCTYPE svg PUBLIC "-//W3C//DTD SVG 1.1//EN"
 "http://www.w3.org/Graphics/SVG/1.1/DTD/svg11.dtd">
<!-- Generated by graphviz version 2.46.1 (20210214.0559)
 -->
<!-- Pages: 1 -->
<svg width="1842pt" height="779pt"
 viewBox="0.00 0.00 1842.13 779.00" xmlns="http://www.w3.org/2000/svg" xmlns:xlink="http://www.w3.org/1999/xlink">
<g id="graph0" class="graph" transform="scale(1 1) rotate(0) translate(4 775)">
<polygon fill="white" stroke="transparent" points="-4,4 -4,-775 1838.13,-775 1838.13,4 -4,4"/>
<text text-anchor="middle" x="917.07" y="-754.4" font-family="Arial" font-size="14.00">Software Supply Chain Attack Tree &#45; Continuous Integration System</text>
<!-- reality -->
<g id="node1" class="node">
<title>reality</title>
<path fill="#272727" stroke="transparent" d="M1088.68,-746.1C1088.68,-746.1 1042.13,-746.1 1042.13,-746.1 1036.13,-746.1 1030.13,-740.1 1030.13,-734.1 1030.13,-734.1 1030.13,-713.5 1030.13,-713.5 1030.13,-707.5 1036.13,-701.5 1042.13,-701.5 1042.13,-701.5 1088.68,-701.5 1088.68,-701.5 1094.68,-701.5 1100.68,-707.5 1100.68,-713.5 1100.68,-713.5 1100.68,-734.1 1100.68,-734.1 1100.68,-740.1 1094.68,-746.1 1088.68,-746.1"/>
<text text-anchor="middle" x="1065.4" y="-719.6" font-family="Arial" font-size="14.00" fill="#ffffff">Reality</text>
</g>
<!-- uses_gha -->
<g id="node2" class="node">
<title>uses_gha</title>
<path fill="#d2d5dd" stroke="transparent" d="M1132.03,-672.3C1132.03,-672.3 998.77,-672.3 998.77,-672.3 992.77,-672.3 986.77,-666.3 986.77,-660.3 986.77,-660.3 986.77,-639.7 986.77,-639.7 986.77,-633.7 992.77,-627.7 998.77,-627.7 998.77,-627.7 1132.03,-627.7 1132.03,-627.7 1138.03,-627.7 1144.03,-633.7 1144.03,-639.7 1144.03,-639.7 1144.03,-660.3 1144.03,-660.3 1144.03,-666.3 1138.03,-672.3 1132.03,-672.3"/>
<text text-anchor="middle" x="1065.4" y="-645.8" font-family="Arial" font-size="14.00">Uses GitHub Actions</text>
</g>
<!-- reality&#45;&gt;uses_gha -->
<g id="edge42" class="edge">
<title>reality&#45;&gt;uses_gha</title>
<path fill="none" stroke="#2b303a" d="M1065.4,-701.26C1065.4,-695.44 1065.4,-689.01 1065.4,-682.76"/>
<polygon fill="#2b303a" stroke="#2b303a" points="1068.9,-682.53 1065.4,-672.53 1061.9,-682.53 1068.9,-682.53"/>
</g>
<!-- public_repo -->
<g id="node3" class="node">
<title>public_repo</title>
<path fill="#d2d5dd" stroke="transparent" d="M971.36,-581.7C971.36,-581.7 863.45,-581.7 863.45,-581.7 857.45,-581.7 851.45,-575.7 851.45,-569.7 851.45,-569.7 851.45,-549.1 851.45,-549.1 851.45,-543.1 857.45,-537.1 863.45,-537.1 863.45,-537.1 971.36,-537.1 971.36,-537.1 977.36,-537.1 983.36,-543.1 983.36,-549.1 983.36,-549.1 983.36,-569.7 983.36,-569.7 983.36,-575.7 977.36,-581.7 971.36,-581.7"/>
<text text-anchor="middle" x="917.4" y="-555.2" font-family="Arial" font-size="14.00">Public repository</text>
</g>
<!-- uses_gha&#45;&gt;public_repo -->
<g id="edge43" class="edge">
<title>uses_gha&#45;&gt;public_repo</title>
<path fill="none" stroke="#2b303a" d="M1029.58,-627.55C1009.2,-615.35 983.5,-599.97 961.85,-587.01"/>
<polygon fill="#2b303a" stroke="#2b303a" points="963.53,-583.94 953.15,-581.8 959.94,-589.94 963.53,-583.94"/>
</g>
<!-- private_repo -->
<g id="node4" class="node">
<title>private_repo</title>
<path fill="#d2d5dd" stroke="transparent" d="M1121.8,-581.7C1121.8,-581.7 1009,-581.7 1009,-581.7 1003,-581.7 997,-575.7 997,-569.7 997,-569.7 997,-549.1 997,-549.1 997,-543.1 1003,-537.1 1009,-537.1 1009,-537.1 1121.8,-537.1 1121.8,-537.1 1127.8,-537.1 1133.8,-543.1 1133.8,-549.1 1133.8,-549.1 1133.8,-569.7 1133.8,-569.7 1133.8,-575.7 1127.8,-581.7 1121.8,-581.7"/>
<text text-anchor="middle" x="1065.4" y="-555.2" font-family="Arial" font-size="14.00">Private repository</text>
</g>
<!-- uses_gha&#45;&gt;private_repo -->
<g id="edge44" class="edge">
<title>uses_gha&#45;&gt;private_repo</title>
<path fill="none" stroke="#2b303a" d="M1065.4,-627.55C1065.4,-616.97 1065.4,-603.98 1065.4,-592.26"/>
<polygon fill="#2b303a" stroke="#2b303a" points="1068.9,-591.96 1065.4,-581.96 1061.9,-591.96 1068.9,-591.96"/>
</g>
<!-- has_perm_to_create_new_repo -->
<g id="node11" class="node">
<title>has_perm_to_create_new_repo</title>
<path fill="#d2d5dd" stroke="transparent" d="M1275.41,-598.8C1275.41,-598.8 1159.39,-598.8 1159.39,-598.8 1153.39,-598.8 1147.39,-592.8 1147.39,-586.8 1147.39,-586.8 1147.39,-532 1147.39,-532 1147.39,-526 1153.39,-520 1159.39,-520 1159.39,-520 1275.41,-520 1275.41,-520 1281.41,-520 1287.41,-526 1287.41,-532 1287.41,-532 1287.41,-586.8 1287.41,-586.8 1287.41,-592.8 1281.41,-598.8 1275.41,-598.8"/>
<text text-anchor="middle" x="1217.4" y="-572" font-family="Arial" font-size="14.00">Has permission to</text>
<text text-anchor="middle" x="1217.4" y="-555.2" font-family="Arial" font-size="14.00">create new</text>
<text text-anchor="middle" x="1217.4" y="-538.4" font-family="Arial" font-size="14.00">repository</text>
</g>
<!-- uses_gha&#45;&gt;has_perm_to_create_new_repo -->
<g id="edge52" class="edge">
<title>uses_gha&#45;&gt;has_perm_to_create_new_repo</title>
<path fill="none" stroke="#2b303a" d="M1102.2,-627.55C1114.57,-620.34 1128.84,-612.02 1143.04,-603.74"/>
<polygon fill="#2b303a" stroke="#2b303a" points="1144.98,-606.66 1151.86,-598.61 1141.46,-600.62 1144.98,-606.66"/>
</g>
<!-- public_repo&#45;&gt;private_repo -->
<!-- gha_on_pull_request_from_fork -->
<g id="node5" class="node">
<title>gha_on_pull_request_from_fork</title>
<path fill="#d2d5dd" stroke="transparent" d="M760.77,-392C760.77,-392 642.03,-392 642.03,-392 636.03,-392 630.03,-386 630.03,-380 630.03,-380 630.03,-342.8 630.03,-342.8 630.03,-336.8 636.03,-330.8 642.03,-330.8 642.03,-330.8 760.77,-330.8 760.77,-330.8 766.77,-330.8 772.77,-336.8 772.77,-342.8 772.77,-342.8 772.77,-380 772.77,-380 772.77,-386 766.77,-392 760.77,-392"/>
<text text-anchor="middle" x="701.4" y="-365.6" font-family="Arial" font-size="14.00">pull_request event</text>
<text text-anchor="middle" x="701.4" y="-348.8" font-family="Arial" font-size="14.00">(From fork)</text>
</g>
<!-- public_repo&#45;&gt;gha_on_pull_request_from_fork -->
<g id="edge45" class="edge">
<title>public_repo&#45;&gt;gha_on_pull_request_from_fork</title>
<path fill="none" stroke="#2b303a" d="M893.87,-537.05C857.39,-503.94 786.7,-439.8 741.9,-399.15"/>
<polygon fill="#2b303a" stroke="#2b303a" points="744.15,-396.46 734.39,-392.34 739.45,-401.65 744.15,-396.46"/>
</g>
<!-- gha_on_pull_request_target_from_fork -->
<g id="node6" class="node">
<title>gha_on_pull_request_target_from_fork</title>
<path fill="#d2d5dd" stroke="transparent" d="M922.22,-400.8C922.22,-400.8 798.59,-400.8 798.59,-400.8 792.59,-400.8 786.59,-394.8 786.59,-388.8 786.59,-388.8 786.59,-334 786.59,-334 786.59,-328 792.59,-322 798.59,-322 798.59,-322 922.22,-322 922.22,-322 928.22,-322 934.22,-328 934.22,-334 934.22,-334 934.22,-388.8 934.22,-388.8 934.22,-394.8 928.22,-400.8 922.22,-400.8"/>
<text text-anchor="middle" x="860.4" y="-374" font-family="Arial" font-size="14.00">pull_request_target</text>
<text text-anchor="middle" x="860.4" y="-357.2" font-family="Arial" font-size="14.00">event</text>
<text text-anchor="middle" x="860.4" y="-340.4" font-family="Arial" font-size="14.00">(From fork)</text>
</g>
<!-- public_repo&#45;&gt;gha_on_pull_request_target_from_fork -->
<g id="edge46" class="edge">
<title>public_repo&#45;&gt;gha_on_pull_request_target_from_fork</title>
<path fill="none" stroke="#2b303a" d="M911.19,-537.05C902.42,-506.9 886.17,-451 874.4,-410.54"/>
<polygon fill="#2b303a" stroke="#2b303a" points="877.74,-409.5 871.59,-400.88 871.02,-411.46 877.74,-409.5"/>
</g>
<!-- extract_sensitive_tokens_from_actions_logs -->
<g id="node12" class="node">
<title>extract_sensitive_tokens_from_actions_logs</title>
<path fill="#ff92cc" stroke="transparent" d="M1498.26,-400.8C1498.26,-400.8 1372.54,-400.8 1372.54,-400.8 1366.54,-400.8 1360.54,-394.8 1360.54,-388.8 1360.54,-388.8 1360.54,-334 1360.54,-334 1360.54,-328 1366.54,-322 1372.54,-322 1372.54,-322 1498.26,-322 1498.26,-322 1504.26,-322 1510.26,-328 1510.26,-334 1510.26,-334 1510.26,-388.8 1510.26,-388.8 1510.26,-394.8 1504.26,-400.8 1498.26,-400.8"/>
<text text-anchor="middle" x="1435.4" y="-374" font-family="Arial" font-size="14.00">Extract sensitive</text>
<text text-anchor="middle" x="1435.4" y="-357.2" font-family="Arial" font-size="14.00">tokens from actions</text>
<text text-anchor="middle" x="1435.4" y="-340.4" font-family="Arial" font-size="14.00">logs</text>
</g>
<!-- public_repo&#45;&gt;extract_sensitive_tokens_from_actions_logs -->
<g id="edge18" class="edge">
<title>public_repo&#45;&gt;extract_sensitive_tokens_from_actions_logs</title>
<path fill="none" stroke="#2b303a" d="M953.22,-536.98C964.77,-530.81 977.84,-524.57 990.4,-520.2 1055.77,-497.46 1081.44,-522.03 1143.4,-491.2 1179.91,-473.03 1175.02,-448.02 1211.4,-429.6 1266.06,-401.92 1289.87,-418.92 1350.91,-401.12"/>
<polygon fill="#2b303a" stroke="#2b303a" points="1352.11,-404.41 1360.61,-398.09 1350.03,-397.73 1352.11,-404.41"/>
</g>
<!-- gha_on_pull_request_from_branch -->
<g id="node7" class="node">
<title>gha_on_pull_request_from_branch</title>
<path fill="#d2d5dd" stroke="transparent" d="M1124.77,-482.7C1124.77,-482.7 1006.03,-482.7 1006.03,-482.7 1000.03,-482.7 994.03,-476.7 994.03,-470.7 994.03,-470.7 994.03,-450.1 994.03,-450.1 994.03,-444.1 1000.03,-438.1 1006.03,-438.1 1006.03,-438.1 1124.77,-438.1 1124.77,-438.1 1130.77,-438.1 1136.77,-444.1 1136.77,-450.1 1136.77,-450.1 1136.77,-470.7 1136.77,-470.7 1136.77,-476.7 1130.77,-482.7 1124.77,-482.7"/>
<text text-anchor="middle" x="1065.4" y="-456.2" font-family="Arial" font-size="14.00">pull_request event</text>
</g>
<!-- private_repo&#45;&gt;gha_on_pull_request_from_branch -->
<g id="edge47" class="edge">
<title>private_repo&#45;&gt;gha_on_pull_request_from_branch</title>
<path fill="none" stroke="#2b303a" d="M1065.4,-536.87C1065.4,-524.06 1065.4,-507.57 1065.4,-493.28"/>
<polygon fill="#2b303a" stroke="#2b303a" points="1068.9,-492.87 1065.4,-482.87 1061.9,-492.87 1068.9,-492.87"/>
</g>
<!-- private_repo&#45;&gt;has_perm_to_create_new_repo -->
<!-- gha_on_pull_request_from_fork&#45;&gt;gha_on_pull_request_target_from_fork -->
<!-- convince_maintainer -->
<g id="node15" class="node">
<title>convince_maintainer</title>
<path fill="#ff92cc" stroke="transparent" d="M838.26,-293.3C838.26,-293.3 740.54,-293.3 740.54,-293.3 734.54,-293.3 728.54,-287.3 728.54,-281.3 728.54,-281.3 728.54,-209.9 728.54,-209.9 728.54,-203.9 734.54,-197.9 740.54,-197.9 740.54,-197.9 838.26,-197.9 838.26,-197.9 844.26,-197.9 850.26,-203.9 850.26,-209.9 850.26,-209.9 850.26,-281.3 850.26,-281.3 850.26,-287.3 844.26,-293.3 838.26,-293.3"/>
<text text-anchor="middle" x="789.4" y="-266.6" font-family="Arial" font-size="14.00">Convince</text>
<text text-anchor="middle" x="789.4" y="-249.8" font-family="Arial" font-size="14.00">maintainer to</text>
<text text-anchor="middle" x="789.4" y="-233" font-family="Arial" font-size="14.00">accept pipeline</text>
<text text-anchor="middle" x="789.4" y="-216.2" font-family="Arial" font-size="14.00">changes</text>
</g>
<!-- gha_on_pull_request_from_fork&#45;&gt;convince_maintainer -->
<g id="edge22" class="edge">
<title>gha_on_pull_request_from_fork&#45;&gt;convince_maintainer</title>
<path fill="none" stroke="#2b303a" d="M724.29,-330.8C731.28,-321.76 739.21,-311.51 747.06,-301.35"/>
<polygon fill="#2b303a" stroke="#2b303a" points="749.98,-303.3 753.33,-293.25 744.44,-299.02 749.98,-303.3"/>
</g>
<!-- gha_on_pull_request_target_from_fork&#45;&gt;extract_sensitive_tokens_from_actions_logs -->
<!-- gha_injection_vuln -->
<g id="node13" class="node">
<title>gha_injection_vuln</title>
<path fill="#ff92cc" stroke="transparent" d="M273.14,-276.2C273.14,-276.2 171.66,-276.2 171.66,-276.2 165.66,-276.2 159.66,-270.2 159.66,-264.2 159.66,-264.2 159.66,-227 159.66,-227 159.66,-221 165.66,-215 171.66,-215 171.66,-215 273.14,-215 273.14,-215 279.14,-215 285.14,-221 285.14,-227 285.14,-227 285.14,-264.2 285.14,-264.2 285.14,-270.2 279.14,-276.2 273.14,-276.2"/>
<text text-anchor="middle" x="222.4" y="-249.8" font-family="Arial" font-size="14.00">Exploit injection</text>
<text text-anchor="middle" x="222.4" y="-233" font-family="Arial" font-size="14.00">vulnerability</text>
</g>
<!-- gha_on_pull_request_target_from_fork&#45;&gt;gha_injection_vuln -->
<g id="edge19" class="edge">
<title>gha_on_pull_request_target_from_fork&#45;&gt;gha_injection_vuln</title>
<path fill="none" stroke="#2b303a" d="M786.21,-324.11C783.93,-323.42 781.66,-322.78 779.4,-322.2 569.32,-268.54 497.99,-362.11 292.4,-293.2 284.05,-290.4 275.75,-286.34 267.94,-281.76"/>
<polygon fill="#2b303a" stroke="#2b303a" points="269.7,-278.72 259.36,-276.4 265.99,-284.66 269.7,-278.72"/>
</g>
<!-- gha_dangerous_pr_target -->
<g id="node14" class="node">
<title>gha_dangerous_pr_target</title>
<path fill="#ff92cc" stroke="transparent" d="M467.87,-285C467.87,-285 310.94,-285 310.94,-285 304.94,-285 298.94,-279 298.94,-273 298.94,-273 298.94,-218.2 298.94,-218.2 298.94,-212.2 304.94,-206.2 310.94,-206.2 310.94,-206.2 467.87,-206.2 467.87,-206.2 473.87,-206.2 479.87,-212.2 479.87,-218.2 479.87,-218.2 479.87,-273 479.87,-273 479.87,-279 473.87,-285 467.87,-285"/>
<text text-anchor="middle" x="389.4" y="-258.2" font-family="Arial" font-size="14.00">Abuse GITHUB_TOKEN</text>
<text text-anchor="middle" x="389.4" y="-241.4" font-family="Arial" font-size="14.00">privileges and</text>
<text text-anchor="middle" x="389.4" y="-224.6" font-family="Arial" font-size="14.00">secrets</text>
</g>
<!-- gha_on_pull_request_target_from_fork&#45;&gt;gha_dangerous_pr_target -->
<g id="edge20" class="edge">
<title>gha_on_pull_request_target_from_fork&#45;&gt;gha_dangerous_pr_target</title>
<path fill="none" stroke="#2b303a" d="M786.55,-324.67C784.15,-323.8 781.77,-322.97 779.4,-322.2 683.38,-290.8 569.55,-270.58 489.74,-259.03"/>
<polygon fill="#2b303a" stroke="#2b303a" points="490.08,-255.54 479.68,-257.59 489.09,-262.47 490.08,-255.54"/>
</g>
<!-- repo_has_no_branch_protection -->
<g id="node8" class="node">
<title>repo_has_no_branch_protection</title>
<path fill="#d2d5dd" stroke="transparent" d="M1030.53,-392C1030.53,-392 960.28,-392 960.28,-392 954.28,-392 948.28,-386 948.28,-380 948.28,-380 948.28,-342.8 948.28,-342.8 948.28,-336.8 954.28,-330.8 960.28,-330.8 960.28,-330.8 1030.53,-330.8 1030.53,-330.8 1036.53,-330.8 1042.53,-336.8 1042.53,-342.8 1042.53,-342.8 1042.53,-380 1042.53,-380 1042.53,-386 1036.53,-392 1030.53,-392"/>
<text text-anchor="middle" x="995.4" y="-365.6" font-family="Arial" font-size="14.00">No Branch</text>
<text text-anchor="middle" x="995.4" y="-348.8" font-family="Arial" font-size="14.00">Protection</text>
</g>
<!-- gha_on_pull_request_from_branch&#45;&gt;repo_has_no_branch_protection -->
<g id="edge48" class="edge">
<title>gha_on_pull_request_from_branch&#45;&gt;repo_has_no_branch_protection</title>
<path fill="none" stroke="#2b303a" d="M1049.87,-437.87C1041.94,-426.88 1032.05,-413.19 1022.89,-400.49"/>
<polygon fill="#2b303a" stroke="#2b303a" points="1025.69,-398.39 1017,-392.33 1020.01,-402.48 1025.69,-398.39"/>
</g>
<!-- repo_has_sufficient_branch_protection -->
<g id="node9" class="node">
<title>repo_has_sufficient_branch_protection</title>
<path fill="#d2d5dd" stroke="transparent" d="M1178.21,-392C1178.21,-392 1068.6,-392 1068.6,-392 1062.6,-392 1056.6,-386 1056.6,-380 1056.6,-380 1056.6,-342.8 1056.6,-342.8 1056.6,-336.8 1062.6,-330.8 1068.6,-330.8 1068.6,-330.8 1178.21,-330.8 1178.21,-330.8 1184.21,-330.8 1190.21,-336.8 1190.21,-342.8 1190.21,-342.8 1190.21,-380 1190.21,-380 1190.21,-386 1184.21,-392 1178.21,-392"/>
<text text-anchor="middle" x="1123.4" y="-365.6" font-family="Arial" font-size="14.00">Sufficient Branch</text>
<text text-anchor="middle" x="1123.4" y="-348.8" font-family="Arial" font-size="14.00">Protection</text>
</g>
<!-- gha_on_pull_request_from_branch&#45;&gt;repo_has_sufficient_branch_protection -->
<g id="edge49" class="edge">
<title>gha_on_pull_request_from_branch&#45;&gt;repo_has_sufficient_branch_protection</title>
<path fill="none" stroke="#2b303a" d="M1078.27,-437.87C1084.72,-427.09 1092.72,-413.71 1100.19,-401.22"/>
<polygon fill="#2b303a" stroke="#2b303a" points="1103.38,-402.71 1105.51,-392.33 1097.37,-399.11 1103.38,-402.71"/>
</g>
<!-- repo_has_no_branch_protection&#45;&gt;repo_has_sufficient_branch_protection -->
<!-- pwn_build_artifact -->
<g id="node37" class="node">
<title>pwn_build_artifact</title>
<path fill="#5f00c2" stroke="transparent" d="M937.73,-61.4C937.73,-61.4 819.07,-61.4 819.07,-61.4 813.07,-61.4 807.07,-55.4 807.07,-49.4 807.07,-49.4 807.07,-12.2 807.07,-12.2 807.07,-6.2 813.07,-0.2 819.07,-0.2 819.07,-0.2 937.73,-0.2 937.73,-0.2 943.73,-0.2 949.73,-6.2 949.73,-12.2 949.73,-12.2 949.73,-49.4 949.73,-49.4 949.73,-55.4 943.73,-61.4 937.73,-61.4"/>
<text text-anchor="middle" x="878.4" y="-35" font-family="Arial" font-size="14.00" fill="#ffffff">Compromise Build</text>
<text text-anchor="middle" x="878.4" y="-18.2" font-family="Arial" font-size="14.00" fill="#ffffff">artifact</text>
</g>
<!-- repo_has_no_branch_protection&#45;&gt;pwn_build_artifact -->
<g id="edge17" class="edge">
<title>repo_has_no_branch_protection&#45;&gt;pwn_build_artifact</title>
<path fill="none" stroke="#2b303a" d="M953.18,-330.45C932.09,-315.09 910.41,-298.51 907.4,-293.2 867.73,-223.18 868.94,-125.67 873.54,-71.71"/>
<polygon fill="#2b303a" stroke="#2b303a" points="877.05,-71.81 874.5,-61.52 870.08,-71.15 877.05,-71.81"/>
</g>
<!-- repo_has_sufficient_branch_protection&#45;&gt;convince_maintainer -->
<g id="edge21" class="edge">
<title>repo_has_sufficient_branch_protection&#45;&gt;convince_maintainer</title>
<path fill="none" stroke="#2b303a" d="M1070.01,-330.67C1063.2,-327.53 1056.22,-324.6 1049.4,-322.2 988.65,-300.78 969.15,-311.54 907.4,-293.2 891.75,-288.55 875.27,-282.69 859.76,-276.7"/>
<polygon fill="#2b303a" stroke="#2b303a" points="860.83,-273.36 850.24,-272.97 858.27,-279.88 860.83,-273.36"/>
</g>
<!-- poison_cache -->
<g id="node16" class="node">
<title>poison_cache</title>
<path fill="#ff92cc" stroke="transparent" d="M1029.99,-276.2C1029.99,-276.2 926.81,-276.2 926.81,-276.2 920.81,-276.2 914.81,-270.2 914.81,-264.2 914.81,-264.2 914.81,-227 914.81,-227 914.81,-221 920.81,-215 926.81,-215 926.81,-215 1029.99,-215 1029.99,-215 1035.99,-215 1041.99,-221 1041.99,-227 1041.99,-227 1041.99,-264.2 1041.99,-264.2 1041.99,-270.2 1035.99,-276.2 1029.99,-276.2"/>
<text text-anchor="middle" x="978.4" y="-249.8" font-family="Arial" font-size="14.00">Poison the build</text>
<text text-anchor="middle" x="978.4" y="-233" font-family="Arial" font-size="14.00">cache</text>
</g>
<!-- repo_has_sufficient_branch_protection&#45;&gt;poison_cache -->
<g id="edge23" class="edge">
<title>repo_has_sufficient_branch_protection&#45;&gt;poison_cache</title>
<path fill="none" stroke="#2b303a" d="M1085.68,-330.8C1066.88,-316.04 1043.98,-298.07 1024.17,-282.52"/>
<polygon fill="#2b303a" stroke="#2b303a" points="1026.21,-279.67 1016.18,-276.25 1021.89,-285.18 1026.21,-279.67"/>
</g>
<!-- exfil_repo_secrets -->
<g id="node17" class="node">
<title>exfil_repo_secrets</title>
<path fill="#ff92cc" stroke="transparent" d="M1178.19,-276.2C1178.19,-276.2 1068.61,-276.2 1068.61,-276.2 1062.61,-276.2 1056.61,-270.2 1056.61,-264.2 1056.61,-264.2 1056.61,-227 1056.61,-227 1056.61,-221 1062.61,-215 1068.61,-215 1068.61,-215 1178.19,-215 1178.19,-215 1184.19,-215 1190.19,-221 1190.19,-227 1190.19,-227 1190.19,-264.2 1190.19,-264.2 1190.19,-270.2 1184.19,-276.2 1178.19,-276.2"/>
<text text-anchor="middle" x="1123.4" y="-249.8" font-family="Arial" font-size="14.00">Exfiltrate repo</text>
<text text-anchor="middle" x="1123.4" y="-233" font-family="Arial" font-size="14.00">(and org) secrets</text>
</g>
<!-- repo_has_sufficient_branch_protection&#45;&gt;exfil_repo_secrets -->
<g id="edge24" class="edge">
<title>repo_has_sufficient_branch_protection&#45;&gt;exfil_repo_secrets</title>
<path fill="none" stroke="#2b303a" d="M1123.4,-330.8C1123.4,-317.34 1123.4,-301.21 1123.4,-286.68"/>
<polygon fill="#2b303a" stroke="#2b303a" points="1126.9,-286.45 1123.4,-276.45 1119.9,-286.45 1126.9,-286.45"/>
</g>
<!-- exfil_pat -->
<g id="node18" class="node">
<title>exfil_pat</title>
<path fill="#ff92cc" stroke="transparent" d="M1305.97,-267.9C1305.97,-267.9 1216.84,-267.9 1216.84,-267.9 1210.84,-267.9 1204.84,-261.9 1204.84,-255.9 1204.84,-255.9 1204.84,-235.3 1204.84,-235.3 1204.84,-229.3 1210.84,-223.3 1216.84,-223.3 1216.84,-223.3 1305.97,-223.3 1305.97,-223.3 1311.97,-223.3 1317.97,-229.3 1317.97,-235.3 1317.97,-235.3 1317.97,-255.9 1317.97,-255.9 1317.97,-261.9 1311.97,-267.9 1305.97,-267.9"/>
<text text-anchor="middle" x="1261.4" y="-241.4" font-family="Arial" font-size="14.00">Exfiltrate PAT</text>
</g>
<!-- repo_has_sufficient_branch_protection&#45;&gt;exfil_pat -->
<g id="edge25" class="edge">
<title>repo_has_sufficient_branch_protection&#45;&gt;exfil_pat</title>
<path fill="none" stroke="#2b303a" d="M1159.3,-330.8C1180.31,-313.47 1206.68,-291.72 1227.37,-274.67"/>
<polygon fill="#2b303a" stroke="#2b303a" points="1229.79,-277.21 1235.27,-268.15 1225.33,-271.81 1229.79,-277.21"/>
</g>
<!-- self_approve_pr -->
<g id="node19" class="node">
<title>self_approve_pr</title>
<path fill="#ff92cc" stroke="transparent" d="M1455.25,-276.2C1455.25,-276.2 1343.55,-276.2 1343.55,-276.2 1337.55,-276.2 1331.55,-270.2 1331.55,-264.2 1331.55,-264.2 1331.55,-227 1331.55,-227 1331.55,-221 1337.55,-215 1343.55,-215 1343.55,-215 1455.25,-215 1455.25,-215 1461.25,-215 1467.25,-221 1467.25,-227 1467.25,-227 1467.25,-264.2 1467.25,-264.2 1467.25,-270.2 1461.25,-276.2 1455.25,-276.2"/>
<text text-anchor="middle" x="1399.4" y="-249.8" font-family="Arial" font-size="14.00">Workflow</text>
<text text-anchor="middle" x="1399.4" y="-233" font-family="Arial" font-size="14.00">self&#45;approves PR</text>
</g>
<!-- repo_has_sufficient_branch_protection&#45;&gt;self_approve_pr -->
<g id="edge26" class="edge">
<title>repo_has_sufficient_branch_protection&#45;&gt;self_approve_pr</title>
<path fill="none" stroke="#2b303a" d="M1177.25,-330.62C1183.93,-327.52 1190.75,-324.63 1197.4,-322.2 1252.2,-302.22 1271.5,-315.51 1325.4,-293.2 1333.27,-289.95 1341.24,-285.88 1348.89,-281.52"/>
<polygon fill="#2b303a" stroke="#2b303a" points="1350.88,-284.4 1357.7,-276.29 1347.31,-278.38 1350.88,-284.4"/>
</g>
<!-- gha_use_self_hosted_runner -->
<g id="node10" class="node">
<title>gha_use_self_hosted_runner</title>
<path fill="#d2d5dd" stroke="transparent" d="M121.14,-160.4C121.14,-160.4 19.66,-160.4 19.66,-160.4 13.66,-160.4 7.66,-154.4 7.66,-148.4 7.66,-148.4 7.66,-111.2 7.66,-111.2 7.66,-105.2 13.66,-99.2 19.66,-99.2 19.66,-99.2 121.14,-99.2 121.14,-99.2 127.14,-99.2 133.14,-105.2 133.14,-111.2 133.14,-111.2 133.14,-148.4 133.14,-148.4 133.14,-154.4 127.14,-160.4 121.14,-160.4"/>
<text text-anchor="middle" x="70.4" y="-134" font-family="Arial" font-size="14.00">Use self&#45;hosted</text>
<text text-anchor="middle" x="70.4" y="-117.2" font-family="Arial" font-size="14.00">runner</text>
</g>
<!-- gha_sast_detects_injection -->
<g id="node27" class="node">
<title>gha_sast_detects_injection</title>
<path fill="#b9d6f2" stroke="transparent" d="M285.83,-160.4C285.83,-160.4 158.98,-160.4 158.98,-160.4 152.98,-160.4 146.98,-154.4 146.98,-148.4 146.98,-148.4 146.98,-111.2 146.98,-111.2 146.98,-105.2 152.98,-99.2 158.98,-99.2 158.98,-99.2 285.83,-99.2 285.83,-99.2 291.83,-99.2 297.83,-105.2 297.83,-111.2 297.83,-111.2 297.83,-148.4 297.83,-148.4 297.83,-154.4 291.83,-160.4 285.83,-160.4"/>
<text text-anchor="middle" x="222.4" y="-134" font-family="Arial" font-size="14.00">Use SAST to detect</text>
<text text-anchor="middle" x="222.4" y="-117.2" font-family="Arial" font-size="14.00">injection</text>
</g>
<!-- gha_use_self_hosted_runner&#45;&gt;gha_sast_detects_injection -->
<!-- gha_drop_privs -->
<g id="node28" class="node">
<title>gha_drop_privs</title>
<path fill="#b9d6f2" stroke="transparent" d="M402.57,-169.2C402.57,-169.2 324.24,-169.2 324.24,-169.2 318.24,-169.2 312.24,-163.2 312.24,-157.2 312.24,-157.2 312.24,-102.4 312.24,-102.4 312.24,-96.4 318.24,-90.4 324.24,-90.4 324.24,-90.4 402.57,-90.4 402.57,-90.4 408.57,-90.4 414.57,-96.4 414.57,-102.4 414.57,-102.4 414.57,-157.2 414.57,-157.2 414.57,-163.2 408.57,-169.2 402.57,-169.2"/>
<text text-anchor="middle" x="363.4" y="-142.4" font-family="Arial" font-size="14.00">Use Least</text>
<text text-anchor="middle" x="363.4" y="-125.6" font-family="Arial" font-size="14.00">Privileged</text>
<text text-anchor="middle" x="363.4" y="-108.8" font-family="Arial" font-size="14.00">permissions</text>
</g>
<!-- gha_use_self_hosted_runner&#45;&gt;gha_drop_privs -->
<!-- pwn_self_hosted_runner -->
<g id="node36" class="node">
<title>pwn_self_hosted_runner</title>
<path fill="#5f00c2" stroke="transparent" d="M128.71,-61.4C128.71,-61.4 12.1,-61.4 12.1,-61.4 6.1,-61.4 0.1,-55.4 0.1,-49.4 0.1,-49.4 0.1,-12.2 0.1,-12.2 0.1,-6.2 6.1,-0.2 12.1,-0.2 12.1,-0.2 128.71,-0.2 128.71,-0.2 134.71,-0.2 140.71,-6.2 140.71,-12.2 140.71,-12.2 140.71,-49.4 140.71,-49.4 140.71,-55.4 134.71,-61.4 128.71,-61.4"/>
<text text-anchor="middle" x="70.4" y="-35" font-family="Arial" font-size="14.00" fill="#ffffff">Compromise</text>
<text text-anchor="middle" x="70.4" y="-18.2" font-family="Arial" font-size="14.00" fill="#ffffff">self&#45;hosted runner</text>
</g>
<!-- gha_use_self_hosted_runner&#45;&gt;pwn_self_hosted_runner -->
<g id="edge6" class="edge">
<title>gha_use_self_hosted_runner&#45;&gt;pwn_self_hosted_runner</title>
<path fill="none" stroke="#2b303a" d="M70.4,-99.17C70.4,-90.51 70.4,-80.89 70.4,-71.7"/>
<polygon fill="#2b303a" stroke="#2b303a" points="73.9,-71.58 70.4,-61.58 66.9,-71.58 73.9,-71.58"/>
</g>
<!-- create_new_repo -->
<g id="node20" class="node">
<title>create_new_repo</title>
<path fill="#ff92cc" stroke="transparent" d="M1305.97,-491C1305.97,-491 1230.83,-491 1230.83,-491 1224.83,-491 1218.83,-485 1218.83,-479 1218.83,-479 1218.83,-441.8 1218.83,-441.8 1218.83,-435.8 1224.83,-429.8 1230.83,-429.8 1230.83,-429.8 1305.97,-429.8 1305.97,-429.8 1311.97,-429.8 1317.97,-435.8 1317.97,-441.8 1317.97,-441.8 1317.97,-479 1317.97,-479 1317.97,-485 1311.97,-491 1305.97,-491"/>
<text text-anchor="middle" x="1268.4" y="-464.6" font-family="Arial" font-size="14.00">Create new</text>
<text text-anchor="middle" x="1268.4" y="-447.8" font-family="Arial" font-size="14.00">repository</text>
</g>
<!-- has_perm_to_create_new_repo&#45;&gt;create_new_repo -->
<g id="edge27" class="edge">
<title>has_perm_to_create_new_repo&#45;&gt;create_new_repo</title>
<path fill="none" stroke="#2b303a" d="M1237.56,-520.06C1240.96,-513.59 1244.5,-506.86 1247.91,-500.37"/>
<polygon fill="#2b303a" stroke="#2b303a" points="1251.24,-501.56 1252.79,-491.08 1245.04,-498.31 1251.24,-501.56"/>
</g>
<!-- mask_dynamic_secrets -->
<g id="node22" class="node">
<title>mask_dynamic_secrets</title>
<path fill="#b9d6f2" stroke="transparent" d="M1822.36,-276.2C1822.36,-276.2 1728.44,-276.2 1728.44,-276.2 1722.44,-276.2 1716.44,-270.2 1716.44,-264.2 1716.44,-264.2 1716.44,-227 1716.44,-227 1716.44,-221 1722.44,-215 1728.44,-215 1728.44,-215 1822.36,-215 1822.36,-215 1828.36,-215 1834.36,-221 1834.36,-227 1834.36,-227 1834.36,-264.2 1834.36,-264.2 1834.36,-270.2 1828.36,-276.2 1822.36,-276.2"/>
<text text-anchor="middle" x="1775.4" y="-249.8" font-family="Arial" font-size="14.00">Mask dynamic</text>
<text text-anchor="middle" x="1775.4" y="-233" font-family="Arial" font-size="14.00">secrets in logs</text>
</g>
<!-- extract_sensitive_tokens_from_actions_logs&#45;&gt;mask_dynamic_secrets -->
<g id="edge29" class="edge">
<title>extract_sensitive_tokens_from_actions_logs&#45;&gt;mask_dynamic_secrets</title>
<path fill="none" stroke="#2b303a" d="M1510.25,-341.66C1556.59,-329.38 1617.03,-312.13 1669.4,-293.2 1681.76,-288.73 1694.71,-283.51 1707.15,-278.21"/>
<polygon fill="#2b303a" stroke="#2b303a" points="1708.75,-281.33 1716.55,-274.15 1705.98,-274.9 1708.75,-281.33"/>
</g>
<!-- gha_injection_vuln&#45;&gt;gha_use_self_hosted_runner -->
<g id="edge50" class="edge">
<title>gha_injection_vuln&#45;&gt;gha_use_self_hosted_runner</title>
<path fill="none" stroke="#2b303a" d="M182.86,-215C163.06,-200.17 138.93,-182.11 118.11,-166.52"/>
<polygon fill="#2b303a" stroke="#2b303a" points="120.11,-163.64 110.01,-160.45 115.91,-169.25 120.11,-163.64"/>
</g>
<!-- gha_injection_vuln&#45;&gt;gha_dangerous_pr_target -->
<!-- gha_injection_vuln&#45;&gt;gha_sast_detects_injection -->
<g id="edge34" class="edge">
<title>gha_injection_vuln&#45;&gt;gha_sast_detects_injection</title>
<path fill="none" stroke="#2b303a" d="M222.4,-215C222.4,-201.54 222.4,-185.41 222.4,-170.88"/>
<polygon fill="#2b303a" stroke="#2b303a" points="225.9,-170.65 222.4,-160.65 218.9,-170.65 225.9,-170.65"/>
</g>
<!-- gha_dangerous_pr_target&#45;&gt;gha_use_self_hosted_runner -->
<g id="edge51" class="edge">
<title>gha_dangerous_pr_target&#45;&gt;gha_use_self_hosted_runner</title>
<path fill="none" stroke="#2b303a" d="M314.73,-206.39C307.29,-203.29 299.77,-200.43 292.4,-198 227.08,-176.48 205.15,-192.2 140.4,-169 136.87,-167.73 133.3,-166.31 129.75,-164.77"/>
<polygon fill="#2b303a" stroke="#2b303a" points="130.94,-161.47 120.39,-160.47 128.01,-167.83 130.94,-161.47"/>
</g>
<!-- gha_dangerous_pr_target&#45;&gt;gha_drop_privs -->
<g id="edge35" class="edge">
<title>gha_dangerous_pr_target&#45;&gt;gha_drop_privs</title>
<path fill="none" stroke="#2b303a" d="M380.67,-206.39C378.66,-197.57 376.49,-188.08 374.39,-178.9"/>
<polygon fill="#2b303a" stroke="#2b303a" points="377.79,-178.07 372.15,-169.1 370.97,-179.63 377.79,-178.07"/>
</g>
<!-- avoid_risky_pr_target_checkout -->
<g id="node29" class="node">
<title>avoid_risky_pr_target_checkout</title>
<path fill="#b9d6f2" stroke="transparent" d="M535.9,-169.2C535.9,-169.2 440.9,-169.2 440.9,-169.2 434.9,-169.2 428.9,-163.2 428.9,-157.2 428.9,-157.2 428.9,-102.4 428.9,-102.4 428.9,-96.4 434.9,-90.4 440.9,-90.4 440.9,-90.4 535.9,-90.4 535.9,-90.4 541.9,-90.4 547.9,-96.4 547.9,-102.4 547.9,-102.4 547.9,-157.2 547.9,-157.2 547.9,-163.2 541.9,-169.2 535.9,-169.2"/>
<text text-anchor="middle" x="488.4" y="-142.4" font-family="Arial" font-size="14.00">Avoid risky PR</text>
<text text-anchor="middle" x="488.4" y="-125.6" font-family="Arial" font-size="14.00">target code</text>
<text text-anchor="middle" x="488.4" y="-108.8" font-family="Arial" font-size="14.00">checkout</text>
</g>
<!-- gha_dangerous_pr_target&#45;&gt;avoid_risky_pr_target_checkout -->
<g id="edge36" class="edge">
<title>gha_dangerous_pr_target&#45;&gt;avoid_risky_pr_target_checkout</title>
<path fill="none" stroke="#2b303a" d="M422.64,-206.39C430.89,-196.91 439.81,-186.66 448.34,-176.85"/>
<polygon fill="#2b303a" stroke="#2b303a" points="451.16,-178.95 455.08,-169.1 445.88,-174.35 451.16,-178.95"/>
</g>
<!-- convince_maintainer&#45;&gt;poison_cache -->
<!-- two_person_review -->
<g id="node24" class="node">
<title>two_person_review</title>
<path fill="#b9d6f2" stroke="transparent" d="M696.62,-152.1C696.62,-152.1 574.18,-152.1 574.18,-152.1 568.18,-152.1 562.18,-146.1 562.18,-140.1 562.18,-140.1 562.18,-119.5 562.18,-119.5 562.18,-113.5 568.18,-107.5 574.18,-107.5 574.18,-107.5 696.62,-107.5 696.62,-107.5 702.62,-107.5 708.62,-113.5 708.62,-119.5 708.62,-119.5 708.62,-140.1 708.62,-140.1 708.62,-146.1 702.62,-152.1 696.62,-152.1"/>
<text text-anchor="middle" x="635.4" y="-125.6" font-family="Arial" font-size="14.00">Two&#45;person review</text>
</g>
<!-- convince_maintainer&#45;&gt;two_person_review -->
<g id="edge31" class="edge">
<title>convince_maintainer&#45;&gt;two_person_review</title>
<path fill="none" stroke="#2b303a" d="M728.54,-199.62C709.78,-185.76 689.68,-170.91 672.98,-158.57"/>
<polygon fill="#2b303a" stroke="#2b303a" points="674.7,-155.49 664.58,-152.36 670.54,-161.12 674.7,-155.49"/>
</g>
<!-- gha_limit_allowed_actions -->
<g id="node33" class="node">
<title>gha_limit_allowed_actions</title>
<path fill="#b9d6f2" stroke="transparent" d="M843.91,-160.4C843.91,-160.4 734.9,-160.4 734.9,-160.4 728.9,-160.4 722.9,-154.4 722.9,-148.4 722.9,-148.4 722.9,-111.2 722.9,-111.2 722.9,-105.2 728.9,-99.2 734.9,-99.2 734.9,-99.2 843.91,-99.2 843.91,-99.2 849.91,-99.2 855.91,-105.2 855.91,-111.2 855.91,-111.2 855.91,-148.4 855.91,-148.4 855.91,-154.4 849.91,-160.4 843.91,-160.4"/>
<text text-anchor="middle" x="789.4" y="-134" font-family="Arial" font-size="14.00">Set policy to limit</text>
<text text-anchor="middle" x="789.4" y="-117.2" font-family="Arial" font-size="14.00">allowed actions</text>
</g>
<!-- convince_maintainer&#45;&gt;gha_limit_allowed_actions -->
<g id="edge40" class="edge">
<title>convince_maintainer&#45;&gt;gha_limit_allowed_actions</title>
<path fill="none" stroke="#2b303a" d="M789.4,-197.98C789.4,-188.9 789.4,-179.45 789.4,-170.6"/>
<polygon fill="#2b303a" stroke="#2b303a" points="792.9,-170.56 789.4,-160.56 785.9,-170.56 792.9,-170.56"/>
</g>
<!-- poison_cache&#45;&gt;exfil_repo_secrets -->
<!-- avoid_using_cache_in_sensitive_workflows -->
<g id="node30" class="node">
<title>avoid_using_cache_in_sensitive_workflows</title>
<path fill="#b9d6f2" stroke="transparent" d="M1044.77,-169.2C1044.77,-169.2 912.03,-169.2 912.03,-169.2 906.03,-169.2 900.03,-163.2 900.03,-157.2 900.03,-157.2 900.03,-102.4 900.03,-102.4 900.03,-96.4 906.03,-90.4 912.03,-90.4 912.03,-90.4 1044.77,-90.4 1044.77,-90.4 1050.77,-90.4 1056.77,-96.4 1056.77,-102.4 1056.77,-102.4 1056.77,-157.2 1056.77,-157.2 1056.77,-163.2 1050.77,-169.2 1044.77,-169.2"/>
<text text-anchor="middle" x="978.4" y="-142.4" font-family="Arial" font-size="14.00">Avoid using cache in</text>
<text text-anchor="middle" x="978.4" y="-125.6" font-family="Arial" font-size="14.00">sensitive</text>
<text text-anchor="middle" x="978.4" y="-108.8" font-family="Arial" font-size="14.00">workflows</text>
</g>
<!-- poison_cache&#45;&gt;avoid_using_cache_in_sensitive_workflows -->
<g id="edge37" class="edge">
<title>poison_cache&#45;&gt;avoid_using_cache_in_sensitive_workflows</title>
<path fill="none" stroke="#2b303a" d="M978.4,-215C978.4,-204.09 978.4,-191.43 978.4,-179.29"/>
<polygon fill="#2b303a" stroke="#2b303a" points="981.9,-179.27 978.4,-169.27 974.9,-179.27 981.9,-179.27"/>
</g>
<!-- exfil_repo_secrets&#45;&gt;exfil_pat -->
<!-- gha_use_env_prot_rule -->
<g id="node25" class="node">
<title>gha_use_env_prot_rule</title>
<path fill="#b9d6f2" stroke="transparent" d="M1194.25,-160.4C1194.25,-160.4 1082.55,-160.4 1082.55,-160.4 1076.55,-160.4 1070.55,-154.4 1070.55,-148.4 1070.55,-148.4 1070.55,-111.2 1070.55,-111.2 1070.55,-105.2 1076.55,-99.2 1082.55,-99.2 1082.55,-99.2 1194.25,-99.2 1194.25,-99.2 1200.25,-99.2 1206.25,-105.2 1206.25,-111.2 1206.25,-111.2 1206.25,-148.4 1206.25,-148.4 1206.25,-154.4 1200.25,-160.4 1194.25,-160.4"/>
<text text-anchor="middle" x="1138.4" y="-134" font-family="Arial" font-size="14.00">Use Environment</text>
<text text-anchor="middle" x="1138.4" y="-117.2" font-family="Arial" font-size="14.00">Protection Rule</text>
</g>
<!-- exfil_repo_secrets&#45;&gt;gha_use_env_prot_rule -->
<g id="edge32" class="edge">
<title>exfil_repo_secrets&#45;&gt;gha_use_env_prot_rule</title>
<path fill="none" stroke="#2b303a" d="M1127.3,-215C1129.08,-201.54 1131.2,-185.41 1133.12,-170.88"/>
<polygon fill="#2b303a" stroke="#2b303a" points="1136.63,-171.02 1134.47,-160.65 1129.69,-170.11 1136.63,-171.02"/>
</g>
<!-- gha_use_oidc_with_branch_filter -->
<g id="node26" class="node">
<title>gha_use_oidc_with_branch_filter</title>
<path fill="#b9d6f2" stroke="transparent" d="M1492.09,-160.4C1492.09,-160.4 1362.71,-160.4 1362.71,-160.4 1356.71,-160.4 1350.71,-154.4 1350.71,-148.4 1350.71,-148.4 1350.71,-111.2 1350.71,-111.2 1350.71,-105.2 1356.71,-99.2 1362.71,-99.2 1362.71,-99.2 1492.09,-99.2 1492.09,-99.2 1498.09,-99.2 1504.09,-105.2 1504.09,-111.2 1504.09,-111.2 1504.09,-148.4 1504.09,-148.4 1504.09,-154.4 1498.09,-160.4 1492.09,-160.4"/>
<text text-anchor="middle" x="1427.4" y="-134" font-family="Arial" font-size="14.00">Use OIDC with &#39;sub&#39;</text>
<text text-anchor="middle" x="1427.4" y="-117.2" font-family="Arial" font-size="14.00">branch filter</text>
</g>
<!-- exfil_repo_secrets&#45;&gt;gha_use_oidc_with_branch_filter -->
<g id="edge33" class="edge">
<title>exfil_repo_secrets&#45;&gt;gha_use_oidc_with_branch_filter</title>
<path fill="none" stroke="#2b303a" d="M1164.63,-214.94C1174.95,-208.57 1186.26,-202.44 1197.4,-198 1258.86,-173.52 1280.43,-189.27 1343.4,-169 1347.93,-167.54 1352.54,-165.91 1357.14,-164.16"/>
<polygon fill="#2b303a" stroke="#2b303a" points="1358.56,-167.36 1366.58,-160.43 1355.99,-160.85 1358.56,-167.36"/>
</g>
<!-- exfil_pat&#45;&gt;self_approve_pr -->
<!-- use_fined_grained_pats -->
<g id="node34" class="node">
<title>use_fined_grained_pats</title>
<path fill="#b9d6f2" stroke="transparent" d="M1636.59,-160.4C1636.59,-160.4 1530.22,-160.4 1530.22,-160.4 1524.22,-160.4 1518.22,-154.4 1518.22,-148.4 1518.22,-148.4 1518.22,-111.2 1518.22,-111.2 1518.22,-105.2 1524.22,-99.2 1530.22,-99.2 1530.22,-99.2 1636.59,-99.2 1636.59,-99.2 1642.59,-99.2 1648.59,-105.2 1648.59,-111.2 1648.59,-111.2 1648.59,-148.4 1648.59,-148.4 1648.59,-154.4 1642.59,-160.4 1636.59,-160.4"/>
<text text-anchor="middle" x="1583.4" y="-134" font-family="Arial" font-size="14.00">Use fine&#45;grained</text>
<text text-anchor="middle" x="1583.4" y="-117.2" font-family="Arial" font-size="14.00">PATs</text>
</g>
<!-- exfil_pat&#45;&gt;use_fined_grained_pats -->
<g id="edge41" class="edge">
<title>exfil_pat&#45;&gt;use_fined_grained_pats</title>
<path fill="none" stroke="#2b303a" d="M1284.54,-223.25C1295.78,-214.04 1309.96,-204.03 1324.4,-198 1402.02,-165.61 1431.59,-195.52 1511.4,-169 1515.33,-167.69 1519.3,-166.19 1523.25,-164.55"/>
<polygon fill="#2b303a" stroke="#2b303a" points="1524.68,-167.74 1532.41,-160.49 1521.85,-161.34 1524.68,-167.74"/>
</g>
<!-- limit_workflow_perms -->
<g id="node23" class="node">
<title>limit_workflow_perms</title>
<path fill="#b9d6f2" stroke="transparent" d="M1324.28,-160.4C1324.28,-160.4 1232.53,-160.4 1232.53,-160.4 1226.53,-160.4 1220.53,-154.4 1220.53,-148.4 1220.53,-148.4 1220.53,-111.2 1220.53,-111.2 1220.53,-105.2 1226.53,-99.2 1232.53,-99.2 1232.53,-99.2 1324.28,-99.2 1324.28,-99.2 1330.28,-99.2 1336.28,-105.2 1336.28,-111.2 1336.28,-111.2 1336.28,-148.4 1336.28,-148.4 1336.28,-154.4 1330.28,-160.4 1324.28,-160.4"/>
<text text-anchor="middle" x="1278.4" y="-134" font-family="Arial" font-size="14.00">Limit workflow</text>
<text text-anchor="middle" x="1278.4" y="-117.2" font-family="Arial" font-size="14.00">permissions</text>
</g>
<!-- self_approve_pr&#45;&gt;limit_workflow_perms -->
<g id="edge30" class="edge">
<title>self_approve_pr&#45;&gt;limit_workflow_perms</title>
<path fill="none" stroke="#2b303a" d="M1367.93,-215C1352.5,-200.49 1333.78,-182.88 1317.45,-167.53"/>
<polygon fill="#2b303a" stroke="#2b303a" points="1319.82,-164.95 1310.14,-160.65 1315.03,-170.05 1319.82,-164.95"/>
</g>
<!-- limit_default_org_member_privileges -->
<g id="node32" class="node">
<title>limit_default_org_member_privileges</title>
<path fill="#b9d6f2" stroke="transparent" d="M1334.73,-392C1334.73,-392 1216.07,-392 1216.07,-392 1210.07,-392 1204.07,-386 1204.07,-380 1204.07,-380 1204.07,-342.8 1204.07,-342.8 1204.07,-336.8 1210.07,-330.8 1216.07,-330.8 1216.07,-330.8 1334.73,-330.8 1334.73,-330.8 1340.73,-330.8 1346.73,-336.8 1346.73,-342.8 1346.73,-342.8 1346.73,-380 1346.73,-380 1346.73,-386 1340.73,-392 1334.73,-392"/>
<text text-anchor="middle" x="1275.4" y="-365.6" font-family="Arial" font-size="14.00">Limit base org</text>
<text text-anchor="middle" x="1275.4" y="-348.8" font-family="Arial" font-size="14.00">member privileges</text>
</g>
<!-- create_new_repo&#45;&gt;limit_default_org_member_privileges -->
<g id="edge39" class="edge">
<title>create_new_repo&#45;&gt;limit_default_org_member_privileges</title>
<path fill="none" stroke="#2b303a" d="M1270.54,-429.77C1271.17,-421.11 1271.86,-411.49 1272.52,-402.3"/>
<polygon fill="#2b303a" stroke="#2b303a" points="1276.02,-402.41 1273.25,-392.18 1269.04,-401.91 1276.02,-402.41"/>
</g>
<!-- exfil_org_secrets -->
<g id="node21" class="node">
<title>exfil_org_secrets</title>
<path fill="#ff92cc" stroke="transparent" d="M1650.58,-276.2C1650.58,-276.2 1572.23,-276.2 1572.23,-276.2 1566.23,-276.2 1560.23,-270.2 1560.23,-264.2 1560.23,-264.2 1560.23,-227 1560.23,-227 1560.23,-221 1566.23,-215 1572.23,-215 1572.23,-215 1650.58,-215 1650.58,-215 1656.58,-215 1662.58,-221 1662.58,-227 1662.58,-227 1662.58,-264.2 1662.58,-264.2 1662.58,-270.2 1656.58,-276.2 1650.58,-276.2"/>
<text text-anchor="middle" x="1611.4" y="-249.8" font-family="Arial" font-size="14.00">Exiltrate org</text>
<text text-anchor="middle" x="1611.4" y="-233" font-family="Arial" font-size="14.00">secrets</text>
</g>
<!-- avoid_sensitive_org_secrets -->
<g id="node31" class="node">
<title>avoid_sensitive_org_secrets</title>
<path fill="#b9d6f2" stroke="transparent" d="M1781.57,-169.2C1781.57,-169.2 1675.23,-169.2 1675.23,-169.2 1669.23,-169.2 1663.23,-163.2 1663.23,-157.2 1663.23,-157.2 1663.23,-102.4 1663.23,-102.4 1663.23,-96.4 1669.23,-90.4 1675.23,-90.4 1675.23,-90.4 1781.57,-90.4 1781.57,-90.4 1787.57,-90.4 1793.57,-96.4 1793.57,-102.4 1793.57,-102.4 1793.57,-157.2 1793.57,-157.2 1793.57,-163.2 1787.57,-169.2 1781.57,-169.2"/>
<text text-anchor="middle" x="1728.4" y="-142.4" font-family="Arial" font-size="14.00">Avoid storing</text>
<text text-anchor="middle" x="1728.4" y="-125.6" font-family="Arial" font-size="14.00">sensitive</text>
<text text-anchor="middle" x="1728.4" y="-108.8" font-family="Arial" font-size="14.00">org&#45;level secrets</text>
</g>
<!-- exfil_org_secrets&#45;&gt;avoid_sensitive_org_secrets -->
<g id="edge38" class="edge">
<title>exfil_org_secrets&#45;&gt;avoid_sensitive_org_secrets</title>
<path fill="none" stroke="#2b303a" d="M1641.84,-215C1653.95,-203.22 1668.16,-189.39 1681.53,-176.39"/>
<polygon fill="#2b303a" stroke="#2b303a" points="1684.13,-178.75 1688.85,-169.27 1679.25,-173.73 1684.13,-178.75"/>
</g>
<!-- pivot -->
<g id="node35" class="node">
<title>pivot</title>
<path fill="#5f00c2" stroke="transparent" d="M1626.87,-61.4C1626.87,-61.4 1539.93,-61.4 1539.93,-61.4 1533.93,-61.4 1527.93,-55.4 1527.93,-49.4 1527.93,-49.4 1527.93,-12.2 1527.93,-12.2 1527.93,-6.2 1533.93,-0.2 1539.93,-0.2 1539.93,-0.2 1626.87,-0.2 1626.87,-0.2 1632.87,-0.2 1638.87,-6.2 1638.87,-12.2 1638.87,-12.2 1638.87,-49.4 1638.87,-49.4 1638.87,-55.4 1632.87,-61.4 1626.87,-61.4"/>
<text text-anchor="middle" x="1583.4" y="-35" font-family="Arial" font-size="14.00" fill="#ffffff">Pivot to other</text>
<text text-anchor="middle" x="1583.4" y="-18.2" font-family="Arial" font-size="14.00" fill="#ffffff">resources</text>
</g>
<!-- mask_dynamic_secrets&#45;&gt;pivot -->
<g id="edge5" class="edge">
<title>mask_dynamic_secrets&#45;&gt;pivot</title>
<path fill="none" stroke="#2b303a" d="M1792.33,-214.73C1808.87,-181.11 1827.89,-126.53 1800.4,-90.6 1781.94,-66.47 1705.71,-49.95 1648.78,-40.7"/>
<polygon fill="#2b303a" stroke="#2b303a" points="1649.17,-37.22 1638.75,-39.11 1648.08,-44.13 1649.17,-37.22"/>
</g>
<!-- limit_workflow_perms&#45;&gt;pwn_build_artifact -->
<g id="edge7" class="edge">
<title>limit_workflow_perms&#45;&gt;pwn_build_artifact</title>
<path fill="none" stroke="#2b303a" d="M1232.53,-99.17C1226.26,-95.92 1219.79,-92.95 1213.4,-90.6 1129.95,-59.9 1028.75,-44.97 959.57,-37.88"/>
<polygon fill="#2b303a" stroke="#2b303a" points="959.9,-34.4 949.6,-36.89 959.2,-41.36 959.9,-34.4"/>
</g>
<!-- two_person_review&#45;&gt;gha_limit_allowed_actions -->
<!-- two_person_review&#45;&gt;pwn_build_artifact -->
<g id="edge8" class="edge">
<title>two_person_review&#45;&gt;pwn_build_artifact</title>
<path fill="none" stroke="#2b303a" d="M678.23,-107.39C690.15,-101.69 703.19,-95.7 715.4,-90.6 741.85,-79.55 771.2,-68.57 797.62,-59.15"/>
<polygon fill="#2b303a" stroke="#2b303a" points="798.95,-62.39 807.21,-55.76 796.61,-55.8 798.95,-62.39"/>
</g>
<!-- gha_use_env_prot_rule&#45;&gt;gha_use_oidc_with_branch_filter -->
<!-- gha_use_env_prot_rule&#45;&gt;pivot -->
<g id="edge1" class="edge">
<title>gha_use_env_prot_rule&#45;&gt;pivot</title>
<path fill="none" stroke="#2b303a" d="M1191.61,-99.16C1198.79,-95.92 1206.18,-92.95 1213.4,-90.6 1316.64,-57.04 1442.53,-42.24 1517.66,-36.01"/>
<polygon fill="#2b303a" stroke="#2b303a" points="1518.22,-39.48 1527.91,-35.19 1517.66,-32.5 1518.22,-39.48"/>
</g>
<!-- gha_use_env_prot_rule&#45;&gt;pwn_build_artifact -->
<g id="edge13" class="edge">
<title>gha_use_env_prot_rule&#45;&gt;pwn_build_artifact</title>
<path fill="none" stroke="#2b303a" d="M1082.35,-99.01C1076.03,-96.02 1069.62,-93.15 1063.4,-90.6 1030.06,-76.92 992.29,-64.41 959.61,-54.47"/>
<polygon fill="#2b303a" stroke="#2b303a" points="960.23,-51.01 949.65,-51.48 958.22,-57.71 960.23,-51.01"/>
</g>
<!-- gha_use_oidc_with_branch_filter&#45;&gt;pivot -->
<g id="edge2" class="edge">
<title>gha_use_oidc_with_branch_filter&#45;&gt;pivot</title>
<path fill="none" stroke="#2b303a" d="M1475.05,-99.17C1491.46,-88.97 1509.99,-77.45 1527.02,-66.86"/>
<polygon fill="#2b303a" stroke="#2b303a" points="1529.13,-69.67 1535.77,-61.42 1525.43,-63.72 1529.13,-69.67"/>
</g>
<!-- gha_use_oidc_with_branch_filter&#45;&gt;pwn_build_artifact -->
<g id="edge14" class="edge">
<title>gha_use_oidc_with_branch_filter&#45;&gt;pwn_build_artifact</title>
<path fill="none" stroke="#2b303a" d="M1367.66,-99.02C1359.64,-95.8 1351.42,-92.87 1343.4,-90.6 1212.35,-53.44 1053.86,-39.74 959.85,-34.7"/>
<polygon fill="#2b303a" stroke="#2b303a" points="960,-31.2 949.83,-34.18 959.64,-38.2 960,-31.2"/>
</g>
<!-- gha_sast_detects_injection&#45;&gt;pwn_build_artifact -->
<g id="edge10" class="edge">
<title>gha_sast_detects_injection&#45;&gt;pwn_build_artifact</title>
<path fill="none" stroke="#2b303a" d="M280.9,-99.02C288.98,-95.75 297.29,-92.82 305.4,-90.6 475.88,-44 684.07,-33.72 796.65,-31.82"/>
<polygon fill="#2b303a" stroke="#2b303a" points="796.96,-35.31 806.91,-31.66 796.86,-28.32 796.96,-35.31"/>
</g>
<!-- gha_drop_privs&#45;&gt;avoid_risky_pr_target_checkout -->
<!-- gha_drop_privs&#45;&gt;pwn_build_artifact -->
<g id="edge11" class="edge">
<title>gha_drop_privs&#45;&gt;pwn_build_artifact</title>
<path fill="none" stroke="#2b303a" d="M414.63,-93.4C416.88,-92.38 419.14,-91.44 421.4,-90.6 546.83,-44.08 703.4,-33.24 796.91,-31.33"/>
<polygon fill="#2b303a" stroke="#2b303a" points="797.21,-34.82 807.15,-31.15 797.09,-27.82 797.21,-34.82"/>
</g>
<!-- avoid_risky_pr_target_checkout&#45;&gt;pwn_build_artifact -->
<g id="edge12" class="edge">
<title>avoid_risky_pr_target_checkout&#45;&gt;pwn_build_artifact</title>
<path fill="none" stroke="#2b303a" d="M548.2,-93.44C550.61,-92.42 553.01,-91.47 555.4,-90.6 634.75,-61.72 730.43,-46.57 796.96,-38.94"/>
<polygon fill="#2b303a" stroke="#2b303a" points="797.43,-42.41 806.98,-37.82 796.65,-35.45 797.43,-42.41"/>
</g>
<!-- avoid_using_cache_in_sensitive_workflows&#45;&gt;pwn_build_artifact -->
<g id="edge16" class="edge">
<title>avoid_using_cache_in_sensitive_workflows&#45;&gt;pwn_build_artifact</title>
<path fill="none" stroke="#2b303a" d="M938.88,-90.46C931.43,-83.23 923.65,-75.69 916.25,-68.51"/>
<polygon fill="#2b303a" stroke="#2b303a" points="918.62,-65.93 909,-61.48 913.74,-70.96 918.62,-65.93"/>
</g>
<!-- avoid_sensitive_org_secrets&#45;&gt;pivot -->
<g id="edge3" class="edge">
<title>avoid_sensitive_org_secrets&#45;&gt;pivot</title>
<path fill="none" stroke="#2b303a" d="M1671.09,-90.46C1659.61,-82.78 1647.6,-74.75 1636.28,-67.17"/>
<polygon fill="#2b303a" stroke="#2b303a" points="1638.03,-64.14 1627.77,-61.48 1634.14,-69.95 1638.03,-64.14"/>
</g>
<!-- avoid_sensitive_org_secrets&#45;&gt;pwn_build_artifact -->
<g id="edge15" class="edge">
<title>avoid_sensitive_org_secrets&#45;&gt;pwn_build_artifact</title>
<path fill="none" stroke="#2b303a" d="M1662.85,-92.98C1660.37,-92.11 1657.88,-91.31 1655.4,-90.6 1526.53,-53.71 1131.55,-38.7 959.69,-33.8"/>
<polygon fill="#2b303a" stroke="#2b303a" points="959.79,-30.3 949.69,-33.52 959.59,-37.3 959.79,-30.3"/>
</g>
<!-- limit_default_org_member_privileges&#45;&gt;exfil_org_secrets -->
<g id="edge28" class="edge">
<title>limit_default_org_member_privileges&#45;&gt;exfil_org_secrets</title>
<path fill="none" stroke="#2b303a" d="M1332.29,-330.77C1339.3,-327.64 1346.45,-324.7 1353.4,-322.2 1405.44,-303.48 1421.28,-308.57 1474.4,-293.2 1499.54,-285.93 1526.9,-276.86 1550.51,-268.66"/>
<polygon fill="#2b303a" stroke="#2b303a" points="1551.76,-271.93 1560.04,-265.33 1549.45,-265.33 1551.76,-271.93"/>
</g>
<!-- gha_limit_allowed_actions&#45;&gt;pwn_build_artifact -->
<g id="edge9" class="edge">
<title>gha_limit_allowed_actions&#45;&gt;pwn_build_artifact</title>
<path fill="none" stroke="#2b303a" d="M816.59,-99.17C825.31,-89.67 835.07,-79.02 844.22,-69.05"/>
<polygon fill="#2b303a" stroke="#2b303a" points="846.89,-71.32 851.08,-61.58 841.74,-66.59 846.89,-71.32"/>
</g>
<!-- use_fined_grained_pats&#45;&gt;pivot -->
<g id="edge4" class="edge">
<title>use_fined_grained_pats&#45;&gt;pivot</title>
<path fill="none" stroke="#2b303a" d="M1583.4,-99.17C1583.4,-90.51 1583.4,-80.89 1583.4,-71.7"/>
<polygon fill="#2b303a" stroke="#2b303a" points="1586.9,-71.58 1583.4,-61.58 1579.9,-71.58 1586.9,-71.58"/>
</g>
</g>
</svg>
