<?xml version="1.0" encoding="UTF-8" standalone="no"?>
<!DOCTYPE svg PUBLIC "-//W3C//DTD SVG 1.1//EN"
 "http://www.w3.org/Graphics/SVG/1.1/DTD/svg11.dtd">
<!-- Generated by graphviz version 2.46.1 (20210214.0559)
 -->
<!-- Pages: 1 -->
<svg width="1945pt" height="1779pt"
 viewBox="0.00 0.00 1944.65 1779.20" xmlns="http://www.w3.org/2000/svg" xmlns:xlink="http://www.w3.org/1999/xlink">
<g id="graph0" class="graph" transform="scale(1 1) rotate(0) translate(4 1775.2)">
<polygon fill="white" stroke="transparent" points="-4,4 -4,-1775.2 1940.65,-1775.2 1940.65,4 -4,4"/>
<text text-anchor="middle" x="968.32" y="-1754.6" font-family="Arial" font-size="14.00">Software Supply Chain Attack Tree &#45; Source Control Management</text>
<!-- reality -->
<g id="node1" class="node">
<title>reality</title>
<path fill="#272727" stroke="transparent" d="M1110.35,-1746.3C1110.35,-1746.3 1063.8,-1746.3 1063.8,-1746.3 1057.8,-1746.3 1051.8,-1740.3 1051.8,-1734.3 1051.8,-1734.3 1051.8,-1713.7 1051.8,-1713.7 1051.8,-1707.7 1057.8,-1701.7 1063.8,-1701.7 1063.8,-1701.7 1110.35,-1701.7 1110.35,-1701.7 1116.35,-1701.7 1122.35,-1707.7 1122.35,-1713.7 1122.35,-1713.7 1122.35,-1734.3 1122.35,-1734.3 1122.35,-1740.3 1116.35,-1746.3 1110.35,-1746.3"/>
<text text-anchor="middle" x="1087.08" y="-1719.8" font-family="Arial" font-size="14.00" fill="#ffffff">Reality</text>
</g>
<!-- uses_GitHub -->
<g id="node2" class="node">
<title>uses_GitHub</title>
<path fill="#d2d5dd" stroke="transparent" d="M1128.92,-1672.5C1128.92,-1672.5 1045.24,-1672.5 1045.24,-1672.5 1039.24,-1672.5 1033.24,-1666.5 1033.24,-1660.5 1033.24,-1660.5 1033.24,-1639.9 1033.24,-1639.9 1033.24,-1633.9 1039.24,-1627.9 1045.24,-1627.9 1045.24,-1627.9 1128.92,-1627.9 1128.92,-1627.9 1134.92,-1627.9 1140.92,-1633.9 1140.92,-1639.9 1140.92,-1639.9 1140.92,-1660.5 1140.92,-1660.5 1140.92,-1666.5 1134.92,-1672.5 1128.92,-1672.5"/>
<text text-anchor="middle" x="1087.08" y="-1646" font-family="Arial" font-size="14.00">Uses GitHub</text>
</g>
<!-- reality&#45;&gt;uses_GitHub -->
<g id="edge65" class="edge">
<title>reality&#45;&gt;uses_GitHub</title>
<path fill="none" stroke="#2b303a" d="M1087.08,-1701.46C1087.08,-1695.64 1087.08,-1689.21 1087.08,-1682.96"/>
<polygon fill="#2b303a" stroke="#2b303a" points="1090.58,-1682.73 1087.08,-1672.73 1083.58,-1682.73 1090.58,-1682.73"/>
</g>
<!-- attacker_has_no_repo_access -->
<g id="node3" class="node">
<title>attacker_has_no_repo_access</title>
<path fill="#d2d5dd" stroke="transparent" d="M1153.73,-1598.6C1153.73,-1598.6 1020.42,-1598.6 1020.42,-1598.6 1014.42,-1598.6 1008.42,-1592.6 1008.42,-1586.6 1008.42,-1586.6 1008.42,-1549.4 1008.42,-1549.4 1008.42,-1543.4 1014.42,-1537.4 1020.42,-1537.4 1020.42,-1537.4 1153.73,-1537.4 1153.73,-1537.4 1159.73,-1537.4 1165.73,-1543.4 1165.73,-1549.4 1165.73,-1549.4 1165.73,-1586.6 1165.73,-1586.6 1165.73,-1592.6 1159.73,-1598.6 1153.73,-1598.6"/>
<text text-anchor="middle" x="1087.08" y="-1572.2" font-family="Arial" font-size="14.00">Attacker has no repo</text>
<text text-anchor="middle" x="1087.08" y="-1555.4" font-family="Arial" font-size="14.00">access</text>
</g>
<!-- uses_GitHub&#45;&gt;attacker_has_no_repo_access -->
<g id="edge66" class="edge">
<title>uses_GitHub&#45;&gt;attacker_has_no_repo_access</title>
<path fill="none" stroke="#2b303a" d="M1087.08,-1627.71C1087.08,-1621.86 1087.08,-1615.34 1087.08,-1608.82"/>
<polygon fill="#2b303a" stroke="#2b303a" points="1090.58,-1608.69 1087.08,-1598.69 1083.58,-1608.69 1090.58,-1608.69"/>
</g>
<!-- attacker_has_repo_write_access -->
<g id="node4" class="node">
<title>attacker_has_repo_write_access</title>
<path fill="#d2d5dd" stroke="transparent" d="M1027.78,-747.8C1027.78,-747.8 914.38,-747.8 914.38,-747.8 908.38,-747.8 902.38,-741.8 902.38,-735.8 902.38,-735.8 902.38,-698.6 902.38,-698.6 902.38,-692.6 908.38,-686.6 914.38,-686.6 914.38,-686.6 1027.78,-686.6 1027.78,-686.6 1033.78,-686.6 1039.78,-692.6 1039.78,-698.6 1039.78,-698.6 1039.78,-735.8 1039.78,-735.8 1039.78,-741.8 1033.78,-747.8 1027.78,-747.8"/>
<text text-anchor="middle" x="971.08" y="-721.4" font-family="Arial" font-size="14.00">Attacker has repo</text>
<text text-anchor="middle" x="971.08" y="-704.6" font-family="Arial" font-size="14.00">write access</text>
</g>
<!-- uses_GitHub&#45;&gt;attacker_has_repo_write_access -->
<g id="edge67" class="edge">
<title>uses_GitHub&#45;&gt;attacker_has_repo_write_access</title>
<path fill="none" stroke="#2b303a" d="M1033.29,-1640.73C908.54,-1619.56 610.08,-1559.57 610.08,-1470 610.08,-1470 610.08,-1470 610.08,-956.2 610.08,-868.46 639.14,-838.38 709.08,-785.4 761.85,-745.43 835.95,-729.1 891.89,-722.5"/>
<polygon fill="#2b303a" stroke="#2b303a" points="892.55,-725.95 902.11,-721.38 891.79,-718.99 892.55,-725.95"/>
</g>
<!-- attacker_has_repo_admin -->
<g id="node5" class="node">
<title>attacker_has_repo_admin</title>
<path fill="#d2d5dd" stroke="transparent" d="M1597.78,-1202.6C1597.78,-1202.6 1484.38,-1202.6 1484.38,-1202.6 1478.38,-1202.6 1472.38,-1196.6 1472.38,-1190.6 1472.38,-1190.6 1472.38,-1153.4 1472.38,-1153.4 1472.38,-1147.4 1478.38,-1141.4 1484.38,-1141.4 1484.38,-1141.4 1597.78,-1141.4 1597.78,-1141.4 1603.78,-1141.4 1609.78,-1147.4 1609.78,-1153.4 1609.78,-1153.4 1609.78,-1190.6 1609.78,-1190.6 1609.78,-1196.6 1603.78,-1202.6 1597.78,-1202.6"/>
<text text-anchor="middle" x="1541.08" y="-1176.2" font-family="Arial" font-size="14.00">Attacker has repo</text>
<text text-anchor="middle" x="1541.08" y="-1159.4" font-family="Arial" font-size="14.00">admin</text>
</g>
<!-- uses_GitHub&#45;&gt;attacker_has_repo_admin -->
<g id="edge70" class="edge">
<title>uses_GitHub&#45;&gt;attacker_has_repo_admin</title>
<path fill="none" stroke="#2b303a" d="M1140.87,-1642.37C1273.98,-1623.98 1608.08,-1568.04 1608.08,-1470 1608.08,-1470 1608.08,-1470 1608.08,-1360.6 1608.08,-1302.97 1616.58,-1284.42 1593.08,-1231.8 1589.79,-1224.45 1585.26,-1217.36 1580.22,-1210.81"/>
<polygon fill="#2b303a" stroke="#2b303a" points="1582.69,-1208.3 1573.63,-1202.81 1577.29,-1212.75 1582.69,-1208.3"/>
</g>
<!-- compromise_GitHub_App -->
<g id="node19" class="node">
<title>compromise_GitHub_App</title>
<path fill="#ff92cc" stroke="transparent" d="M994.35,-1499.6C994.35,-1499.6 863.8,-1499.6 863.8,-1499.6 857.8,-1499.6 851.8,-1493.6 851.8,-1487.6 851.8,-1487.6 851.8,-1450.4 851.8,-1450.4 851.8,-1444.4 857.8,-1438.4 863.8,-1438.4 863.8,-1438.4 994.35,-1438.4 994.35,-1438.4 1000.35,-1438.4 1006.35,-1444.4 1006.35,-1450.4 1006.35,-1450.4 1006.35,-1487.6 1006.35,-1487.6 1006.35,-1493.6 1000.35,-1499.6 994.35,-1499.6"/>
<text text-anchor="middle" x="929.08" y="-1473.2" font-family="Arial" font-size="14.00">Compromise GitHub</text>
<text text-anchor="middle" x="929.08" y="-1456.4" font-family="Arial" font-size="14.00">App</text>
</g>
<!-- attacker_has_no_repo_access&#45;&gt;compromise_GitHub_App -->
<g id="edge17" class="edge">
<title>attacker_has_no_repo_access&#45;&gt;compromise_GitHub_App</title>
<path fill="none" stroke="#2b303a" d="M1038.81,-1537.37C1022.2,-1527.17 1003.43,-1515.65 986.18,-1505.06"/>
<polygon fill="#2b303a" stroke="#2b303a" points="987.67,-1501.87 977.32,-1499.62 984.01,-1507.83 987.67,-1501.87"/>
</g>
<!-- compromise_org_member_account -->
<g id="node20" class="node">
<title>compromise_org_member_account</title>
<path fill="#ff92cc" stroke="transparent" d="M1141.32,-1499.6C1141.32,-1499.6 1032.83,-1499.6 1032.83,-1499.6 1026.83,-1499.6 1020.83,-1493.6 1020.83,-1487.6 1020.83,-1487.6 1020.83,-1450.4 1020.83,-1450.4 1020.83,-1444.4 1026.83,-1438.4 1032.83,-1438.4 1032.83,-1438.4 1141.32,-1438.4 1141.32,-1438.4 1147.32,-1438.4 1153.32,-1444.4 1153.32,-1450.4 1153.32,-1450.4 1153.32,-1487.6 1153.32,-1487.6 1153.32,-1493.6 1147.32,-1499.6 1141.32,-1499.6"/>
<text text-anchor="middle" x="1087.08" y="-1473.2" font-family="Arial" font-size="14.00">Compromise org</text>
<text text-anchor="middle" x="1087.08" y="-1456.4" font-family="Arial" font-size="14.00">member account</text>
</g>
<!-- attacker_has_no_repo_access&#45;&gt;compromise_org_member_account -->
<g id="edge19" class="edge">
<title>attacker_has_no_repo_access&#45;&gt;compromise_org_member_account</title>
<path fill="none" stroke="#2b303a" d="M1087.08,-1537.37C1087.08,-1528.71 1087.08,-1519.09 1087.08,-1509.9"/>
<polygon fill="#2b303a" stroke="#2b303a" points="1090.58,-1509.78 1087.08,-1499.78 1083.58,-1509.78 1090.58,-1509.78"/>
</g>
<!-- steal_SSH_key_with_repo_write_access -->
<g id="node21" class="node">
<title>steal_SSH_key_with_repo_write_access</title>
<path fill="#ff92cc" stroke="transparent" d="M1311.42,-1508.4C1311.42,-1508.4 1178.73,-1508.4 1178.73,-1508.4 1172.73,-1508.4 1166.73,-1502.4 1166.73,-1496.4 1166.73,-1496.4 1166.73,-1441.6 1166.73,-1441.6 1166.73,-1435.6 1172.73,-1429.6 1178.73,-1429.6 1178.73,-1429.6 1311.42,-1429.6 1311.42,-1429.6 1317.42,-1429.6 1323.42,-1435.6 1323.42,-1441.6 1323.42,-1441.6 1323.42,-1496.4 1323.42,-1496.4 1323.42,-1502.4 1317.42,-1508.4 1311.42,-1508.4"/>
<text text-anchor="middle" x="1245.08" y="-1481.6" font-family="Arial" font-size="14.00">Steal SSH key with</text>
<text text-anchor="middle" x="1245.08" y="-1464.8" font-family="Arial" font-size="14.00">write access</text>
<text text-anchor="middle" x="1245.08" y="-1448" font-family="Arial" font-size="14.00">(user or Deploy Key)</text>
</g>
<!-- attacker_has_no_repo_access&#45;&gt;steal_SSH_key_with_repo_write_access -->
<g id="edge20" class="edge">
<title>attacker_has_no_repo_access&#45;&gt;steal_SSH_key_with_repo_write_access</title>
<path fill="none" stroke="#2b303a" d="M1135.34,-1537.37C1147.62,-1529.83 1161.08,-1521.57 1174.23,-1513.49"/>
<polygon fill="#2b303a" stroke="#2b303a" points="1176.13,-1516.44 1182.82,-1508.22 1172.47,-1510.47 1176.13,-1516.44"/>
</g>
<!-- target_branch_has_Branch_Protection -->
<g id="node6" class="node">
<title>target_branch_has_Branch_Protection</title>
<path fill="#d2d5dd" stroke="transparent" d="M875.67,-648.8C875.67,-648.8 758.49,-648.8 758.49,-648.8 752.49,-648.8 746.49,-642.8 746.49,-636.8 746.49,-636.8 746.49,-599.6 746.49,-599.6 746.49,-593.6 752.49,-587.6 758.49,-587.6 758.49,-587.6 875.67,-587.6 875.67,-587.6 881.67,-587.6 887.67,-593.6 887.67,-599.6 887.67,-599.6 887.67,-636.8 887.67,-636.8 887.67,-642.8 881.67,-648.8 875.67,-648.8"/>
<text text-anchor="middle" x="817.08" y="-622.4" font-family="Arial" font-size="14.00">Target branch has</text>
<text text-anchor="middle" x="817.08" y="-605.6" font-family="Arial" font-size="14.00">Branch Protection</text>
</g>
<!-- attacker_has_repo_write_access&#45;&gt;target_branch_has_Branch_Protection -->
<g id="edge73" class="edge">
<title>attacker_has_repo_write_access&#45;&gt;target_branch_has_Branch_Protection</title>
<path fill="none" stroke="#2b303a" d="M924.03,-686.57C907.84,-676.37 889.55,-664.85 872.74,-654.26"/>
<polygon fill="#2b303a" stroke="#2b303a" points="874.42,-651.18 864.1,-648.82 870.69,-657.11 874.42,-651.18"/>
</g>
<!-- repo_has_no_Tag_Protection_Rule -->
<g id="node7" class="node">
<title>repo_has_no_Tag_Protection_Rule</title>
<path fill="#d2d5dd" stroke="transparent" d="M1030.95,-648.8C1030.95,-648.8 919.2,-648.8 919.2,-648.8 913.2,-648.8 907.2,-642.8 907.2,-636.8 907.2,-636.8 907.2,-599.6 907.2,-599.6 907.2,-593.6 913.2,-587.6 919.2,-587.6 919.2,-587.6 1030.95,-587.6 1030.95,-587.6 1036.95,-587.6 1042.95,-593.6 1042.95,-599.6 1042.95,-599.6 1042.95,-636.8 1042.95,-636.8 1042.95,-642.8 1036.95,-648.8 1030.95,-648.8"/>
<text text-anchor="middle" x="975.08" y="-622.4" font-family="Arial" font-size="14.00">Repo has no Tag</text>
<text text-anchor="middle" x="975.08" y="-605.6" font-family="Arial" font-size="14.00">Protection Rule</text>
</g>
<!-- attacker_has_repo_write_access&#45;&gt;repo_has_no_Tag_Protection_Rule -->
<g id="edge74" class="edge">
<title>attacker_has_repo_write_access&#45;&gt;repo_has_no_Tag_Protection_Rule</title>
<path fill="none" stroke="#2b303a" d="M972.3,-686.57C972.66,-677.91 973.05,-668.29 973.43,-659.1"/>
<polygon fill="#2b303a" stroke="#2b303a" points="976.93,-659.12 973.85,-648.98 969.94,-658.83 976.93,-659.12"/>
</g>
<!-- Attacker_has_reviewer_access -->
<g id="node10" class="node">
<title>Attacker_has_reviewer_access</title>
<path fill="#d2d5dd" stroke="transparent" d="M1230.41,-747.8C1230.41,-747.8 1125.74,-747.8 1125.74,-747.8 1119.74,-747.8 1113.74,-741.8 1113.74,-735.8 1113.74,-735.8 1113.74,-698.6 1113.74,-698.6 1113.74,-692.6 1119.74,-686.6 1125.74,-686.6 1125.74,-686.6 1230.41,-686.6 1230.41,-686.6 1236.41,-686.6 1242.41,-692.6 1242.41,-698.6 1242.41,-698.6 1242.41,-735.8 1242.41,-735.8 1242.41,-741.8 1236.41,-747.8 1230.41,-747.8"/>
<text text-anchor="middle" x="1178.08" y="-721.4" font-family="Arial" font-size="14.00">Attacker has</text>
<text text-anchor="middle" x="1178.08" y="-704.6" font-family="Arial" font-size="14.00">reviewer access</text>
</g>
<!-- attacker_has_repo_write_access&#45;&gt;Attacker_has_reviewer_access -->
<!-- target_branch_has_no_Branch_Protection -->
<g id="node15" class="node">
<title>target_branch_has_no_Branch_Protection</title>
<path fill="#d2d5dd" stroke="transparent" d="M1363.62,-648.8C1363.62,-648.8 1226.53,-648.8 1226.53,-648.8 1220.53,-648.8 1214.53,-642.8 1214.53,-636.8 1214.53,-636.8 1214.53,-599.6 1214.53,-599.6 1214.53,-593.6 1220.53,-587.6 1226.53,-587.6 1226.53,-587.6 1363.62,-587.6 1363.62,-587.6 1369.62,-587.6 1375.62,-593.6 1375.62,-599.6 1375.62,-599.6 1375.62,-636.8 1375.62,-636.8 1375.62,-642.8 1369.62,-648.8 1363.62,-648.8"/>
<text text-anchor="middle" x="1295.08" y="-622.4" font-family="Arial" font-size="14.00">Target branch has no</text>
<text text-anchor="middle" x="1295.08" y="-605.6" font-family="Arial" font-size="14.00">Branch Protection</text>
</g>
<!-- attacker_has_repo_write_access&#45;&gt;target_branch_has_no_Branch_Protection -->
<g id="edge86" class="edge">
<title>attacker_has_repo_write_access&#45;&gt;target_branch_has_no_Branch_Protection</title>
<path fill="none" stroke="#2b303a" d="M1039.79,-695.63C1087.88,-681.23 1152.61,-661.85 1204.85,-646.21"/>
<polygon fill="#2b303a" stroke="#2b303a" points="1205.88,-649.56 1214.45,-643.34 1203.87,-642.85 1205.88,-649.56"/>
</g>
<!-- Attacker_can_elevate_permissions -->
<g id="node16" class="node">
<title>Attacker_can_elevate_permissions</title>
<path fill="#d2d5dd" stroke="transparent" d="M1274.88,-1112.4C1274.88,-1112.4 1193.28,-1112.4 1193.28,-1112.4 1187.28,-1112.4 1181.28,-1106.4 1181.28,-1100.4 1181.28,-1100.4 1181.28,-1045.6 1181.28,-1045.6 1181.28,-1039.6 1187.28,-1033.6 1193.28,-1033.6 1193.28,-1033.6 1274.88,-1033.6 1274.88,-1033.6 1280.88,-1033.6 1286.88,-1039.6 1286.88,-1045.6 1286.88,-1045.6 1286.88,-1100.4 1286.88,-1100.4 1286.88,-1106.4 1280.88,-1112.4 1274.88,-1112.4"/>
<text text-anchor="middle" x="1234.08" y="-1085.6" font-family="Arial" font-size="14.00">Attacker can</text>
<text text-anchor="middle" x="1234.08" y="-1068.8" font-family="Arial" font-size="14.00">elevate</text>
<text text-anchor="middle" x="1234.08" y="-1052" font-family="Arial" font-size="14.00">permissions</text>
</g>
<!-- attacker_has_repo_admin&#45;&gt;Attacker_can_elevate_permissions -->
<g id="edge88" class="edge">
<title>attacker_has_repo_admin&#45;&gt;Attacker_can_elevate_permissions</title>
<path fill="none" stroke="#2b303a" d="M1471.93,-1154.83C1428.94,-1144.15 1372.77,-1129.04 1324.08,-1112.2 1315.03,-1109.07 1305.6,-1105.47 1296.39,-1101.75"/>
<polygon fill="#2b303a" stroke="#2b303a" points="1297.49,-1098.41 1286.91,-1097.84 1294.82,-1104.89 1297.49,-1098.41"/>
</g>
<!-- bypass_Branch_Protection -->
<g id="node25" class="node">
<title>bypass_Branch_Protection</title>
<path fill="#ff92cc" stroke="transparent" d="M1441.21,-1103.6C1441.21,-1103.6 1342.94,-1103.6 1342.94,-1103.6 1336.94,-1103.6 1330.94,-1097.6 1330.94,-1091.6 1330.94,-1091.6 1330.94,-1054.4 1330.94,-1054.4 1330.94,-1048.4 1336.94,-1042.4 1342.94,-1042.4 1342.94,-1042.4 1441.21,-1042.4 1441.21,-1042.4 1447.21,-1042.4 1453.21,-1048.4 1453.21,-1054.4 1453.21,-1054.4 1453.21,-1091.6 1453.21,-1091.6 1453.21,-1097.6 1447.21,-1103.6 1441.21,-1103.6"/>
<text text-anchor="middle" x="1392.08" y="-1077.2" font-family="Arial" font-size="14.00">Bypass Branch</text>
<text text-anchor="middle" x="1392.08" y="-1060.4" font-family="Arial" font-size="14.00">Protection</text>
</g>
<!-- attacker_has_repo_admin&#45;&gt;bypass_Branch_Protection -->
<g id="edge25" class="edge">
<title>attacker_has_repo_admin&#45;&gt;bypass_Branch_Protection</title>
<path fill="none" stroke="#2b303a" d="M1495.56,-1141.37C1480.04,-1131.26 1462.52,-1119.86 1446.38,-1109.35"/>
<polygon fill="#2b303a" stroke="#2b303a" points="1447.86,-1106.14 1437.57,-1103.62 1444.04,-1112 1447.86,-1106.14"/>
</g>
<!-- abuse_admin_rights_and_skip_Tag_Protection -->
<g id="node28" class="node">
<title>abuse_admin_rights_and_skip_Tag_Protection</title>
<path fill="#ff92cc" stroke="transparent" d="M1602.88,-1112.4C1602.88,-1112.4 1479.27,-1112.4 1479.27,-1112.4 1473.27,-1112.4 1467.27,-1106.4 1467.27,-1100.4 1467.27,-1100.4 1467.27,-1045.6 1467.27,-1045.6 1467.27,-1039.6 1473.27,-1033.6 1479.27,-1033.6 1479.27,-1033.6 1602.88,-1033.6 1602.88,-1033.6 1608.88,-1033.6 1614.88,-1039.6 1614.88,-1045.6 1614.88,-1045.6 1614.88,-1100.4 1614.88,-1100.4 1614.88,-1106.4 1608.88,-1112.4 1602.88,-1112.4"/>
<text text-anchor="middle" x="1541.08" y="-1085.6" font-family="Arial" font-size="14.00">Abuse admin rights</text>
<text text-anchor="middle" x="1541.08" y="-1068.8" font-family="Arial" font-size="14.00">and skip Tag</text>
<text text-anchor="middle" x="1541.08" y="-1052" font-family="Arial" font-size="14.00">Protection</text>
</g>
<!-- attacker_has_repo_admin&#45;&gt;abuse_admin_rights_and_skip_Tag_Protection -->
<g id="edge30" class="edge">
<title>attacker_has_repo_admin&#45;&gt;abuse_admin_rights_and_skip_Tag_Protection</title>
<path fill="none" stroke="#2b303a" d="M1541.08,-1141.37C1541.08,-1135.37 1541.08,-1128.92 1541.08,-1122.47"/>
<polygon fill="#2b303a" stroke="#2b303a" points="1544.58,-1122.4 1541.08,-1112.4 1537.58,-1122.4 1544.58,-1122.4"/>
</g>
<!-- Monitoring_access_rights_management -->
<g id="node52" class="node">
<title>Monitoring_access_rights_management</title>
<path fill="#b9d6f2" stroke="transparent" d="M1658.88,-747.8C1658.88,-747.8 1535.27,-747.8 1535.27,-747.8 1529.27,-747.8 1523.27,-741.8 1523.27,-735.8 1523.27,-735.8 1523.27,-698.6 1523.27,-698.6 1523.27,-692.6 1529.27,-686.6 1535.27,-686.6 1535.27,-686.6 1658.88,-686.6 1658.88,-686.6 1664.88,-686.6 1670.88,-692.6 1670.88,-698.6 1670.88,-698.6 1670.88,-735.8 1670.88,-735.8 1670.88,-741.8 1664.88,-747.8 1658.88,-747.8"/>
<text text-anchor="middle" x="1597.08" y="-721.4" font-family="Arial" font-size="14.00">Monitoring access</text>
<text text-anchor="middle" x="1597.08" y="-704.6" font-family="Arial" font-size="14.00">rights management</text>
</g>
<!-- attacker_has_repo_admin&#45;&gt;Monitoring_access_rights_management -->
<g id="edge60" class="edge">
<title>attacker_has_repo_admin&#45;&gt;Monitoring_access_rights_management</title>
<path fill="none" stroke="#2b303a" d="M1597.24,-1141.14C1607.25,-1133.14 1616.32,-1123.5 1622.08,-1112.2 1681.83,-994.98 1637.91,-832 1612.2,-757.81"/>
<polygon fill="#2b303a" stroke="#2b303a" points="1615.34,-756.21 1608.71,-747.95 1608.75,-758.54 1615.34,-756.21"/>
</g>
<!-- Repository_deletion_monitoring -->
<g id="node53" class="node">
<title>Repository_deletion_monitoring</title>
<path fill="#b9d6f2" stroke="transparent" d="M1767.47,-756.6C1767.47,-756.6 1696.68,-756.6 1696.68,-756.6 1690.68,-756.6 1684.68,-750.6 1684.68,-744.6 1684.68,-744.6 1684.68,-689.8 1684.68,-689.8 1684.68,-683.8 1690.68,-677.8 1696.68,-677.8 1696.68,-677.8 1767.47,-677.8 1767.47,-677.8 1773.47,-677.8 1779.47,-683.8 1779.47,-689.8 1779.47,-689.8 1779.47,-744.6 1779.47,-744.6 1779.47,-750.6 1773.47,-756.6 1767.47,-756.6"/>
<text text-anchor="middle" x="1732.08" y="-729.8" font-family="Arial" font-size="14.00">Repository</text>
<text text-anchor="middle" x="1732.08" y="-713" font-family="Arial" font-size="14.00">deletion</text>
<text text-anchor="middle" x="1732.08" y="-696.2" font-family="Arial" font-size="14.00">monitoring</text>
</g>
<!-- attacker_has_repo_admin&#45;&gt;Repository_deletion_monitoring -->
<g id="edge62" class="edge">
<title>attacker_has_repo_admin&#45;&gt;Repository_deletion_monitoring</title>
<path fill="none" stroke="#2b303a" d="M1609.92,-1142.98C1623.24,-1134.8 1635.89,-1124.62 1645.08,-1112.2 1722.61,-1007.36 1733.39,-846.67 1733.5,-766.78"/>
<polygon fill="#2b303a" stroke="#2b303a" points="1737,-766.51 1733.45,-756.52 1730,-766.54 1737,-766.51"/>
</g>
<!-- Periodic_backup_of_the_repository -->
<g id="node54" class="node">
<title>Periodic_backup_of_the_repository</title>
<path fill="#b9d6f2" stroke="transparent" d="M1924.72,-747.8C1924.72,-747.8 1805.43,-747.8 1805.43,-747.8 1799.43,-747.8 1793.43,-741.8 1793.43,-735.8 1793.43,-735.8 1793.43,-698.6 1793.43,-698.6 1793.43,-692.6 1799.43,-686.6 1805.43,-686.6 1805.43,-686.6 1924.72,-686.6 1924.72,-686.6 1930.72,-686.6 1936.72,-692.6 1936.72,-698.6 1936.72,-698.6 1936.72,-735.8 1936.72,-735.8 1936.72,-741.8 1930.72,-747.8 1924.72,-747.8"/>
<text text-anchor="middle" x="1865.08" y="-721.4" font-family="Arial" font-size="14.00">Periodic backup of</text>
<text text-anchor="middle" x="1865.08" y="-704.6" font-family="Arial" font-size="14.00">the repository</text>
</g>
<!-- attacker_has_repo_admin&#45;&gt;Periodic_backup_of_the_repository -->
<g id="edge64" class="edge">
<title>attacker_has_repo_admin&#45;&gt;Periodic_backup_of_the_repository</title>
<path fill="none" stroke="#2b303a" d="M1609.87,-1151.87C1633.05,-1142.8 1657.67,-1129.94 1676.08,-1112.2 1782.31,-1009.77 1836.22,-835.53 1855.99,-757.74"/>
<polygon fill="#2b303a" stroke="#2b303a" points="1859.43,-758.41 1858.45,-747.86 1852.64,-756.72 1859.43,-758.41"/>
</g>
<!-- target_branch_has_Branch_Protection&#45;&gt;repo_has_no_Tag_Protection_Rule -->
<!-- obtain_genuine_PR_approval_with_initially_good_code -->
<g id="node14" class="node">
<title>obtain_genuine_PR_approval_with_initially_good_code</title>
<path fill="#d2d5dd" stroke="transparent" d="M142.34,-550.2C142.34,-550.2 19.81,-550.2 19.81,-550.2 13.81,-550.2 7.81,-544.2 7.81,-538.2 7.81,-538.2 7.81,-483.4 7.81,-483.4 7.81,-477.4 13.81,-471.4 19.81,-471.4 19.81,-471.4 142.34,-471.4 142.34,-471.4 148.34,-471.4 154.34,-477.4 154.34,-483.4 154.34,-483.4 154.34,-538.2 154.34,-538.2 154.34,-544.2 148.34,-550.2 142.34,-550.2"/>
<text text-anchor="middle" x="81.08" y="-523.4" font-family="Arial" font-size="14.00">Obtain genuine PR</text>
<text text-anchor="middle" x="81.08" y="-506.6" font-family="Arial" font-size="14.00">approval with</text>
<text text-anchor="middle" x="81.08" y="-489.8" font-family="Arial" font-size="14.00">initially good code</text>
</g>
<!-- target_branch_has_Branch_Protection&#45;&gt;obtain_genuine_PR_approval_with_initially_good_code -->
<g id="edge85" class="edge">
<title>target_branch_has_Branch_Protection&#45;&gt;obtain_genuine_PR_approval_with_initially_good_code</title>
<path fill="none" stroke="#2b303a" d="M746.39,-614.69C600.22,-608.87 269.46,-592.3 162.08,-558.4 158.27,-557.2 154.45,-555.8 150.64,-554.24"/>
<polygon fill="#2b303a" stroke="#2b303a" points="151.82,-550.94 141.26,-550.11 149,-557.34 151.82,-550.94"/>
</g>
<!-- forge_second_valid_identity -->
<g id="node18" class="node">
<title>forge_second_valid_identity</title>
<path fill="#ff92cc" stroke="transparent" d="M293.48,-550.2C293.48,-550.2 180.67,-550.2 180.67,-550.2 174.67,-550.2 168.67,-544.2 168.67,-538.2 168.67,-538.2 168.67,-483.4 168.67,-483.4 168.67,-477.4 174.67,-471.4 180.67,-471.4 180.67,-471.4 293.48,-471.4 293.48,-471.4 299.48,-471.4 305.48,-477.4 305.48,-483.4 305.48,-483.4 305.48,-538.2 305.48,-538.2 305.48,-544.2 299.48,-550.2 293.48,-550.2"/>
<text text-anchor="middle" x="237.08" y="-523.4" font-family="Arial" font-size="14.00">Forge 2nd valid</text>
<text text-anchor="middle" x="237.08" y="-506.6" font-family="Arial" font-size="14.00">membership with</text>
<text text-anchor="middle" x="237.08" y="-489.8" font-family="Arial" font-size="14.00">repo write access</text>
</g>
<!-- target_branch_has_Branch_Protection&#45;&gt;forge_second_valid_identity -->
<g id="edge16" class="edge">
<title>target_branch_has_Branch_Protection&#45;&gt;forge_second_valid_identity</title>
<path fill="none" stroke="#2b303a" d="M746.17,-612.78C626.67,-604.69 390.51,-585.79 312.08,-558.4 308.79,-557.25 305.5,-555.94 302.23,-554.51"/>
<polygon fill="#2b303a" stroke="#2b303a" points="303.62,-551.3 293.09,-550.17 300.62,-557.62 303.62,-551.3"/>
</g>
<!-- abuse_Github_Action_PR_approval_permission -->
<g id="node22" class="node">
<title>abuse_Github_Action_PR_approval_permission</title>
<path fill="#ff92cc" stroke="transparent" d="M462.68,-550.2C462.68,-550.2 331.48,-550.2 331.48,-550.2 325.48,-550.2 319.48,-544.2 319.48,-538.2 319.48,-538.2 319.48,-483.4 319.48,-483.4 319.48,-477.4 325.48,-471.4 331.48,-471.4 331.48,-471.4 462.68,-471.4 462.68,-471.4 468.68,-471.4 474.68,-477.4 474.68,-483.4 474.68,-483.4 474.68,-538.2 474.68,-538.2 474.68,-544.2 468.68,-550.2 462.68,-550.2"/>
<text text-anchor="middle" x="397.08" y="-523.4" font-family="Arial" font-size="14.00">Abuse Github Action</text>
<text text-anchor="middle" x="397.08" y="-506.6" font-family="Arial" font-size="14.00">PR approval</text>
<text text-anchor="middle" x="397.08" y="-489.8" font-family="Arial" font-size="14.00">permission</text>
</g>
<!-- target_branch_has_Branch_Protection&#45;&gt;abuse_Github_Action_PR_approval_permission -->
<g id="edge21" class="edge">
<title>target_branch_has_Branch_Protection&#45;&gt;abuse_Github_Action_PR_approval_permission</title>
<path fill="none" stroke="#2b303a" d="M746.41,-611.57C677.42,-604.51 570.25,-589.35 482.08,-558.4 478.53,-557.16 474.96,-555.78 471.39,-554.29"/>
<polygon fill="#2b303a" stroke="#2b303a" points="472.54,-550.97 461.98,-550.14 469.72,-557.38 472.54,-550.97"/>
</g>
<!-- Approve_malicious_PR_from_another_compromised_account -->
<g id="node27" class="node">
<title>Approve_malicious_PR_from_another_compromised_account</title>
<path fill="#ff92cc" stroke="transparent" d="M619.42,-558.5C619.42,-558.5 500.73,-558.5 500.73,-558.5 494.73,-558.5 488.73,-552.5 488.73,-546.5 488.73,-546.5 488.73,-475.1 488.73,-475.1 488.73,-469.1 494.73,-463.1 500.73,-463.1 500.73,-463.1 619.42,-463.1 619.42,-463.1 625.42,-463.1 631.42,-469.1 631.42,-475.1 631.42,-475.1 631.42,-546.5 631.42,-546.5 631.42,-552.5 625.42,-558.5 619.42,-558.5"/>
<text text-anchor="middle" x="560.08" y="-531.8" font-family="Arial" font-size="14.00">Approve malicious</text>
<text text-anchor="middle" x="560.08" y="-515" font-family="Arial" font-size="14.00">PR from another</text>
<text text-anchor="middle" x="560.08" y="-498.2" font-family="Arial" font-size="14.00">compromised</text>
<text text-anchor="middle" x="560.08" y="-481.4" font-family="Arial" font-size="14.00">account</text>
</g>
<!-- target_branch_has_Branch_Protection&#45;&gt;Approve_malicious_PR_from_another_compromised_account -->
<g id="edge28" class="edge">
<title>target_branch_has_Branch_Protection&#45;&gt;Approve_malicious_PR_from_another_compromised_account</title>
<path fill="none" stroke="#2b303a" d="M746.05,-591.1C742.35,-589.83 738.67,-588.59 735.08,-587.4 695.28,-574.23 681.19,-576.16 640.87,-559.41"/>
<polygon fill="#2b303a" stroke="#2b303a" points="642.12,-556.13 631.55,-555.41 639.35,-562.57 642.12,-556.13"/>
</g>
<!-- add_evil_commits_to_good_PR_and_self_approve -->
<g id="node30" class="node">
<title>add_evil_commits_to_good_PR_and_self_approve</title>
<path fill="#ff92cc" stroke="transparent" d="M782.92,-550.2C782.92,-550.2 657.23,-550.2 657.23,-550.2 651.23,-550.2 645.23,-544.2 645.23,-538.2 645.23,-538.2 645.23,-483.4 645.23,-483.4 645.23,-477.4 651.23,-471.4 657.23,-471.4 657.23,-471.4 782.92,-471.4 782.92,-471.4 788.92,-471.4 794.92,-477.4 794.92,-483.4 794.92,-483.4 794.92,-538.2 794.92,-538.2 794.92,-544.2 788.92,-550.2 782.92,-550.2"/>
<text text-anchor="middle" x="720.08" y="-523.4" font-family="Arial" font-size="14.00">Add evil commits to</text>
<text text-anchor="middle" x="720.08" y="-506.6" font-family="Arial" font-size="14.00">good PR and self</text>
<text text-anchor="middle" x="720.08" y="-489.8" font-family="Arial" font-size="14.00">approve</text>
</g>
<!-- target_branch_has_Branch_Protection&#45;&gt;add_evil_commits_to_good_PR_and_self_approve -->
<g id="edge32" class="edge">
<title>target_branch_has_Branch_Protection&#45;&gt;add_evil_commits_to_good_PR_and_self_approve</title>
<path fill="none" stroke="#2b303a" d="M789.8,-587.56C781.31,-578.34 771.75,-567.95 762.49,-557.88"/>
<polygon fill="#2b303a" stroke="#2b303a" points="764.83,-555.27 755.49,-550.28 759.68,-560.01 764.83,-555.27"/>
</g>
<!-- fool_PR_reviewer_of_huge_diff_with_evil_code -->
<g id="node31" class="node">
<title>fool_PR_reviewer_of_huge_diff_with_evil_code</title>
<path fill="#ff92cc" stroke="transparent" d="M947.47,-558.5C947.47,-558.5 820.68,-558.5 820.68,-558.5 814.68,-558.5 808.68,-552.5 808.68,-546.5 808.68,-546.5 808.68,-475.1 808.68,-475.1 808.68,-469.1 814.68,-463.1 820.68,-463.1 820.68,-463.1 947.47,-463.1 947.47,-463.1 953.47,-463.1 959.47,-469.1 959.47,-475.1 959.47,-475.1 959.47,-546.5 959.47,-546.5 959.47,-552.5 953.47,-558.5 947.47,-558.5"/>
<text text-anchor="middle" x="884.08" y="-531.8" font-family="Arial" font-size="14.00">Fool PR reviewer of</text>
<text text-anchor="middle" x="884.08" y="-515" font-family="Arial" font-size="14.00">huge diff with evil</text>
<text text-anchor="middle" x="884.08" y="-498.2" font-family="Arial" font-size="14.00">code</text>
<text text-anchor="middle" x="884.08" y="-481.4" font-family="Arial" font-size="14.00">(LGTM)</text>
</g>
<!-- target_branch_has_Branch_Protection&#45;&gt;fool_PR_reviewer_of_huge_diff_with_evil_code -->
<g id="edge33" class="edge">
<title>target_branch_has_Branch_Protection&#45;&gt;fool_PR_reviewer_of_huge_diff_with_evil_code</title>
<path fill="none" stroke="#2b303a" d="M835.92,-587.56C839.95,-581.22 844.33,-574.33 848.75,-567.38"/>
<polygon fill="#2b303a" stroke="#2b303a" points="851.94,-568.88 854.35,-558.56 846.03,-565.13 851.94,-568.88"/>
</g>
<!-- fool_PR_reviewer_by_adding_evil_dependency_reference -->
<g id="node32" class="node">
<title>fool_PR_reviewer_by_adding_evil_dependency_reference</title>
<path fill="#ff92cc" stroke="transparent" d="M1115.08,-558.5C1115.08,-558.5 985.07,-558.5 985.07,-558.5 979.07,-558.5 973.07,-552.5 973.07,-546.5 973.07,-546.5 973.07,-475.1 973.07,-475.1 973.07,-469.1 979.07,-463.1 985.07,-463.1 985.07,-463.1 1115.08,-463.1 1115.08,-463.1 1121.08,-463.1 1127.08,-469.1 1127.08,-475.1 1127.08,-475.1 1127.08,-546.5 1127.08,-546.5 1127.08,-552.5 1121.08,-558.5 1115.08,-558.5"/>
<text text-anchor="middle" x="1050.08" y="-531.8" font-family="Arial" font-size="14.00">Fool PR reviewer by</text>
<text text-anchor="middle" x="1050.08" y="-515" font-family="Arial" font-size="14.00">adding evil</text>
<text text-anchor="middle" x="1050.08" y="-498.2" font-family="Arial" font-size="14.00">dependency</text>
<text text-anchor="middle" x="1050.08" y="-481.4" font-family="Arial" font-size="14.00">reference</text>
</g>
<!-- target_branch_has_Branch_Protection&#45;&gt;fool_PR_reviewer_by_adding_evil_dependency_reference -->
<g id="edge34" class="edge">
<title>target_branch_has_Branch_Protection&#45;&gt;fool_PR_reviewer_by_adding_evil_dependency_reference</title>
<path fill="none" stroke="#2b303a" d="M887.99,-591.39C910.54,-582.67 935.6,-572.45 963.69,-559.43"/>
<polygon fill="#2b303a" stroke="#2b303a" points="965.35,-562.51 972.92,-555.1 962.38,-556.18 965.35,-562.51"/>
</g>
<!-- repo_has_no_Tag_Protection_Rule&#45;&gt;target_branch_has_no_Branch_Protection -->
<!-- push_remote_release_tag -->
<g id="node26" class="node">
<title>push_remote_release_tag</title>
<path fill="#ff92cc" stroke="transparent" d="M1286.72,-541.4C1286.72,-541.4 1153.44,-541.4 1153.44,-541.4 1147.44,-541.4 1141.44,-535.4 1141.44,-529.4 1141.44,-529.4 1141.44,-492.2 1141.44,-492.2 1141.44,-486.2 1147.44,-480.2 1153.44,-480.2 1153.44,-480.2 1286.72,-480.2 1286.72,-480.2 1292.72,-480.2 1298.72,-486.2 1298.72,-492.2 1298.72,-492.2 1298.72,-529.4 1298.72,-529.4 1298.72,-535.4 1292.72,-541.4 1286.72,-541.4"/>
<text text-anchor="middle" x="1220.08" y="-515" font-family="Arial" font-size="14.00">Push remote release</text>
<text text-anchor="middle" x="1220.08" y="-498.2" font-family="Arial" font-size="14.00">tag</text>
</g>
<!-- repo_has_no_Tag_Protection_Rule&#45;&gt;push_remote_release_tag -->
<g id="edge26" class="edge">
<title>repo_has_no_Tag_Protection_Rule&#45;&gt;push_remote_release_tag</title>
<path fill="none" stroke="#2b303a" d="M1042.85,-594.54C1071.39,-584.38 1104.72,-571.7 1134.08,-558.4 1142.26,-554.69 1150.72,-550.53 1159.01,-546.26"/>
<polygon fill="#2b303a" stroke="#2b303a" points="1160.68,-549.34 1167.92,-541.6 1157.44,-543.13 1160.68,-549.34"/>
</g>
<!-- victim_has_repo_write_access -->
<g id="node8" class="node">
<title>victim_has_repo_write_access</title>
<path fill="#d2d5dd" stroke="transparent" d="M744.53,-1293.2C744.53,-1293.2 643.62,-1293.2 643.62,-1293.2 637.62,-1293.2 631.62,-1287.2 631.62,-1281.2 631.62,-1281.2 631.62,-1244 631.62,-1244 631.62,-1238 637.62,-1232 643.62,-1232 643.62,-1232 744.53,-1232 744.53,-1232 750.53,-1232 756.53,-1238 756.53,-1244 756.53,-1244 756.53,-1281.2 756.53,-1281.2 756.53,-1287.2 750.53,-1293.2 744.53,-1293.2"/>
<text text-anchor="middle" x="694.08" y="-1266.8" font-family="Arial" font-size="14.00">Victim has repo</text>
<text text-anchor="middle" x="694.08" y="-1250" font-family="Arial" font-size="14.00">write access</text>
</g>
<!-- victim_has_repo_write_access&#45;&gt;attacker_has_repo_write_access -->
<g id="edge68" class="edge">
<title>victim_has_repo_write_access&#45;&gt;attacker_has_repo_write_access</title>
<path fill="none" stroke="#2b303a" d="M694.08,-1231.71C694.08,-1194.69 694.08,-1129.69 694.08,-1074 694.08,-1074 694.08,-1074 694.08,-956.2 694.08,-862.91 743.53,-844.05 816.08,-785.4 838.52,-767.25 866.62,-753.13 892.7,-742.61"/>
<polygon fill="#2b303a" stroke="#2b303a" points="894.17,-745.8 902.21,-738.9 891.62,-739.28 894.17,-745.8"/>
</g>
<!-- victim_has_reviewer_access -->
<g id="node9" class="node">
<title>victim_has_reviewer_access</title>
<path fill="#d2d5dd" stroke="transparent" d="M907.91,-1293.2C907.91,-1293.2 782.25,-1293.2 782.25,-1293.2 776.25,-1293.2 770.25,-1287.2 770.25,-1281.2 770.25,-1281.2 770.25,-1244 770.25,-1244 770.25,-1238 776.25,-1232 782.25,-1232 782.25,-1232 907.91,-1232 907.91,-1232 913.91,-1232 919.91,-1238 919.91,-1244 919.91,-1244 919.91,-1281.2 919.91,-1281.2 919.91,-1287.2 913.91,-1293.2 907.91,-1293.2"/>
<text text-anchor="middle" x="845.08" y="-1266.8" font-family="Arial" font-size="14.00">Victim has reviewer</text>
<text text-anchor="middle" x="845.08" y="-1250" font-family="Arial" font-size="14.00">access</text>
</g>
<!-- victim_has_repo_write_access&#45;&gt;victim_has_reviewer_access -->
<!-- victim_has_repo_write_access&#45;&gt;victim_has_reviewer_access -->
<!-- victim_is_repo_admin -->
<g id="node11" class="node">
<title>victim_is_repo_admin</title>
<path fill="#d2d5dd" stroke="transparent" d="M1076.08,-1284.9C1076.08,-1284.9 946.07,-1284.9 946.07,-1284.9 940.07,-1284.9 934.07,-1278.9 934.07,-1272.9 934.07,-1272.9 934.07,-1252.3 934.07,-1252.3 934.07,-1246.3 940.07,-1240.3 946.07,-1240.3 946.07,-1240.3 1076.08,-1240.3 1076.08,-1240.3 1082.08,-1240.3 1088.08,-1246.3 1088.08,-1252.3 1088.08,-1252.3 1088.08,-1272.9 1088.08,-1272.9 1088.08,-1278.9 1082.08,-1284.9 1076.08,-1284.9"/>
<text text-anchor="middle" x="1011.08" y="-1258.4" font-family="Arial" font-size="14.00">Victim is repo admin</text>
</g>
<!-- victim_has_reviewer_access&#45;&gt;victim_is_repo_admin -->
<!-- victim_has_reviewer_access&#45;&gt;victim_is_repo_admin -->
<!-- victim_has_reviewer_access&#45;&gt;Approve_malicious_PR_from_another_compromised_account -->
<g id="edge27" class="edge">
<title>victim_has_reviewer_access&#45;&gt;Approve_malicious_PR_from_another_compromised_account</title>
<path fill="none" stroke="#2b303a" d="M810.4,-1231.89C774.65,-1197.76 724.08,-1138.14 724.08,-1074 724.08,-1074 724.08,-1074 724.08,-716.2 724.08,-655.04 678.85,-601.75 635.9,-564.93"/>
<polygon fill="#2b303a" stroke="#2b303a" points="638.12,-562.22 628.2,-558.48 633.62,-567.58 638.12,-562.22"/>
</g>
<!-- Attacker_has_reviewer_access&#45;&gt;Approve_malicious_PR_from_another_compromised_account -->
<g id="edge29" class="edge">
<title>Attacker_has_reviewer_access&#45;&gt;Approve_malicious_PR_from_another_compromised_account</title>
<path fill="none" stroke="#2b303a" d="M1158.58,-686.59C1136.39,-655.73 1097.08,-608.92 1050.08,-587.4 969.4,-550.46 741.47,-583.55 641.17,-558.81"/>
<polygon fill="#2b303a" stroke="#2b303a" points="641.88,-555.37 631.3,-556.05 639.99,-562.12 641.88,-555.37"/>
</g>
<!-- victim_is_repo_admin&#45;&gt;attacker_has_repo_admin -->
<g id="edge71" class="edge">
<title>victim_is_repo_admin&#45;&gt;attacker_has_repo_admin</title>
<path fill="none" stroke="#2b303a" d="M1066.16,-1240.21C1075.7,-1237.04 1085.6,-1234.08 1095.08,-1231.8 1221.57,-1201.38 1372.29,-1185.65 1462.14,-1178.38"/>
<polygon fill="#2b303a" stroke="#2b303a" points="1462.57,-1181.85 1472.26,-1177.57 1462.01,-1174.88 1462.57,-1181.85"/>
</g>
<!-- victim_is_GitHub_App_Manager -->
<g id="node12" class="node">
<title>victim_is_GitHub_App_Manager</title>
<path fill="#d2d5dd" stroke="transparent" d="M1246.42,-1293.2C1246.42,-1293.2 1113.74,-1293.2 1113.74,-1293.2 1107.74,-1293.2 1101.74,-1287.2 1101.74,-1281.2 1101.74,-1281.2 1101.74,-1244 1101.74,-1244 1101.74,-1238 1107.74,-1232 1113.74,-1232 1113.74,-1232 1246.42,-1232 1246.42,-1232 1252.42,-1232 1258.42,-1238 1258.42,-1244 1258.42,-1244 1258.42,-1281.2 1258.42,-1281.2 1258.42,-1287.2 1252.42,-1293.2 1246.42,-1293.2"/>
<text text-anchor="middle" x="1180.08" y="-1266.8" font-family="Arial" font-size="14.00">Victim is GitHub App</text>
<text text-anchor="middle" x="1180.08" y="-1250" font-family="Arial" font-size="14.00">Manager</text>
</g>
<!-- victim_is_repo_admin&#45;&gt;victim_is_GitHub_App_Manager -->
<!-- victim_is_org_owner -->
<g id="node13" class="node">
<title>victim_is_org_owner</title>
<path fill="#d2d5dd" stroke="transparent" d="M1406.3,-1284.9C1406.3,-1284.9 1283.86,-1284.9 1283.86,-1284.9 1277.86,-1284.9 1271.86,-1278.9 1271.86,-1272.9 1271.86,-1272.9 1271.86,-1252.3 1271.86,-1252.3 1271.86,-1246.3 1277.86,-1240.3 1283.86,-1240.3 1283.86,-1240.3 1406.3,-1240.3 1406.3,-1240.3 1412.3,-1240.3 1418.3,-1246.3 1418.3,-1252.3 1418.3,-1252.3 1418.3,-1272.9 1418.3,-1272.9 1418.3,-1278.9 1412.3,-1284.9 1406.3,-1284.9"/>
<text text-anchor="middle" x="1345.08" y="-1258.4" font-family="Arial" font-size="14.00">Victim is org owner</text>
</g>
<!-- victim_is_repo_admin&#45;&gt;victim_is_org_owner -->
<!-- victim_is_GitHub_App_Manager&#45;&gt;victim_is_org_owner -->
<!-- victim_is_GitHub_App_Manager&#45;&gt;compromise_GitHub_App -->
<g id="edge18" class="edge">
<title>victim_is_GitHub_App_Manager&#45;&gt;compromise_GitHub_App</title>
<path fill="none" stroke="#7692ff" stroke-width="3" stroke-dasharray="1,5" d="M1179.27,-1293.21C1176.76,-1324.44 1167.92,-1372.9 1138.08,-1400.8 1096.73,-1439.45 1067.69,-1411.67 1014.08,-1429.8 1008.33,-1431.74 1002.44,-1433.94 996.58,-1436.27"/>
<polygon fill="#7692ff" stroke="#7692ff" stroke-width="3" points="995.64,-1434.76 991.66,-1438.25 996.95,-1438 995.64,-1434.76"/>
</g>
<!-- modify_release_tag_to_point_vulnerable_commit -->
<g id="node55" class="node">
<title>modify_release_tag_to_point_vulnerable_commit</title>
<path fill="#5f00c2" stroke="transparent" d="M1208.45,-87C1208.45,-87 1089.71,-87 1089.71,-87 1083.71,-87 1077.71,-81 1077.71,-75 1077.71,-75 1077.71,-20.2 1077.71,-20.2 1077.71,-14.2 1083.71,-8.2 1089.71,-8.2 1089.71,-8.2 1208.45,-8.2 1208.45,-8.2 1214.45,-8.2 1220.45,-14.2 1220.45,-20.2 1220.45,-20.2 1220.45,-75 1220.45,-75 1220.45,-81 1214.45,-87 1208.45,-87"/>
<text text-anchor="middle" x="1149.08" y="-60.2" font-family="Arial" font-size="14.00" fill="#ffffff">Modify release tag</text>
<text text-anchor="middle" x="1149.08" y="-43.4" font-family="Arial" font-size="14.00" fill="#ffffff">to point vulnerable</text>
<text text-anchor="middle" x="1149.08" y="-26.6" font-family="Arial" font-size="14.00" fill="#ffffff">commit</text>
</g>
<!-- victim_is_GitHub_App_Manager&#45;&gt;modify_release_tag_to_point_vulnerable_commit -->
<!-- remove_malicious_code -->
<g id="node56" class="node">
<title>remove_malicious_code</title>
<path fill="#5f00c2" stroke="transparent" d="M1497.49,-95.3C1497.49,-95.3 1384.67,-95.3 1384.67,-95.3 1378.67,-95.3 1372.67,-89.3 1372.67,-83.3 1372.67,-83.3 1372.67,-11.9 1372.67,-11.9 1372.67,-5.9 1378.67,0.1 1384.67,0.1 1384.67,0.1 1497.49,0.1 1497.49,0.1 1503.49,0.1 1509.49,-5.9 1509.49,-11.9 1509.49,-11.9 1509.49,-83.3 1509.49,-83.3 1509.49,-89.3 1503.49,-95.3 1497.49,-95.3"/>
<text text-anchor="middle" x="1441.08" y="-68.6" font-family="Arial" font-size="14.00" fill="#ffffff">Delete malicious</text>
<text text-anchor="middle" x="1441.08" y="-51.8" font-family="Arial" font-size="14.00" fill="#ffffff">code from history</text>
<text text-anchor="middle" x="1441.08" y="-35" font-family="Arial" font-size="14.00" fill="#ffffff">(i.e. force push or</text>
<text text-anchor="middle" x="1441.08" y="-18.2" font-family="Arial" font-size="14.00" fill="#ffffff">delete branch)</text>
</g>
<!-- victim_is_GitHub_App_Manager&#45;&gt;remove_malicious_code -->
<!-- submit_malicious_code -->
<g id="node57" class="node">
<title>submit_malicious_code</title>
<path fill="#5f00c2" stroke="transparent" d="M827.85,-78.2C827.85,-78.2 718.3,-78.2 718.3,-78.2 712.3,-78.2 706.3,-72.2 706.3,-66.2 706.3,-66.2 706.3,-29 706.3,-29 706.3,-23 712.3,-17 718.3,-17 718.3,-17 827.85,-17 827.85,-17 833.85,-17 839.85,-23 839.85,-29 839.85,-29 839.85,-66.2 839.85,-66.2 839.85,-72.2 833.85,-78.2 827.85,-78.2"/>
<text text-anchor="middle" x="773.08" y="-51.8" font-family="Arial" font-size="14.00" fill="#ffffff">Submit malicious</text>
<text text-anchor="middle" x="773.08" y="-35" font-family="Arial" font-size="14.00" fill="#ffffff">code</text>
</g>
<!-- victim_is_GitHub_App_Manager&#45;&gt;submit_malicious_code -->
<!-- Remove_a_repository -->
<g id="node58" class="node">
<title>Remove_a_repository</title>
<path fill="#5f00c2" stroke="transparent" d="M1798.7,-69.9C1798.7,-69.9 1665.45,-69.9 1665.45,-69.9 1659.45,-69.9 1653.45,-63.9 1653.45,-57.9 1653.45,-57.9 1653.45,-37.3 1653.45,-37.3 1653.45,-31.3 1659.45,-25.3 1665.45,-25.3 1665.45,-25.3 1798.7,-25.3 1798.7,-25.3 1804.7,-25.3 1810.7,-31.3 1810.7,-37.3 1810.7,-37.3 1810.7,-57.9 1810.7,-57.9 1810.7,-63.9 1804.7,-69.9 1798.7,-69.9"/>
<text text-anchor="middle" x="1732.08" y="-43.4" font-family="Arial" font-size="14.00" fill="#ffffff">Remove a repository</text>
</g>
<!-- victim_is_GitHub_App_Manager&#45;&gt;Remove_a_repository -->
<!-- victim_is_org_owner&#45;&gt;attacker_has_repo_admin -->
<g id="edge72" class="edge">
<title>victim_is_org_owner&#45;&gt;attacker_has_repo_admin</title>
<path fill="none" stroke="#2b303a" d="M1392.52,-1240.15C1414.62,-1230.16 1441.45,-1218.04 1466.19,-1206.85"/>
<polygon fill="#2b303a" stroke="#2b303a" points="1467.89,-1209.93 1475.56,-1202.62 1465,-1203.55 1467.89,-1209.93"/>
</g>
<!-- obtain_genuine_PR_approval_with_initially_good_code&#45;&gt;forge_second_valid_identity -->
<!-- abuse_PR_approval_to_sneak_in_bad_code -->
<g id="node24" class="node">
<title>abuse_PR_approval_to_sneak_in_bad_code</title>
<path fill="#ff92cc" stroke="transparent" d="M152.23,-425.6C152.23,-425.6 11.92,-425.6 11.92,-425.6 5.92,-425.6 -0.08,-419.6 -0.08,-413.6 -0.08,-413.6 -0.08,-376.4 -0.08,-376.4 -0.08,-370.4 5.92,-364.4 11.92,-364.4 11.92,-364.4 152.23,-364.4 152.23,-364.4 158.23,-364.4 164.23,-370.4 164.23,-376.4 164.23,-376.4 164.23,-413.6 164.23,-413.6 164.23,-419.6 158.23,-425.6 152.23,-425.6"/>
<text text-anchor="middle" x="82.08" y="-399.2" font-family="Arial" font-size="14.00">Abuse PR approval to</text>
<text text-anchor="middle" x="82.08" y="-382.4" font-family="Arial" font-size="14.00">sneak in bad code</text>
</g>
<!-- obtain_genuine_PR_approval_with_initially_good_code&#45;&gt;abuse_PR_approval_to_sneak_in_bad_code -->
<g id="edge24" class="edge">
<title>obtain_genuine_PR_approval_with_initially_good_code&#45;&gt;abuse_PR_approval_to_sneak_in_bad_code</title>
<path fill="none" stroke="#2b303a" d="M81.41,-471.59C81.51,-460.12 81.62,-447.51 81.73,-435.93"/>
<polygon fill="#2b303a" stroke="#2b303a" points="85.23,-435.68 81.82,-425.65 78.23,-435.62 85.23,-435.68"/>
</g>
<!-- setup_robust_branch_protection -->
<g id="node44" class="node">
<title>setup_robust_branch_protection</title>
<path fill="#b9d6f2" stroke="transparent" d="M1355.12,-202.4C1355.12,-202.4 1225.03,-202.4 1225.03,-202.4 1219.03,-202.4 1213.03,-196.4 1213.03,-190.4 1213.03,-190.4 1213.03,-153.2 1213.03,-153.2 1213.03,-147.2 1219.03,-141.2 1225.03,-141.2 1225.03,-141.2 1355.12,-141.2 1355.12,-141.2 1361.12,-141.2 1367.12,-147.2 1367.12,-153.2 1367.12,-153.2 1367.12,-190.4 1367.12,-190.4 1367.12,-196.4 1361.12,-202.4 1355.12,-202.4"/>
<text text-anchor="middle" x="1290.08" y="-176" font-family="Arial" font-size="14.00">Setup robust branch</text>
<text text-anchor="middle" x="1290.08" y="-159.2" font-family="Arial" font-size="14.00">protection</text>
</g>
<!-- target_branch_has_no_Branch_Protection&#45;&gt;setup_robust_branch_protection -->
<g id="edge48" class="edge">
<title>target_branch_has_no_Branch_Protection&#45;&gt;setup_robust_branch_protection</title>
<path fill="none" stroke="#2b303a" d="M1339.98,-587.4C1348.93,-579.15 1357.1,-569.4 1362.08,-558.4 1415.78,-439.81 1349.13,-283.31 1311.93,-211.65"/>
<polygon fill="#2b303a" stroke="#2b303a" points="1314.87,-209.73 1307.11,-202.52 1308.68,-213 1314.87,-209.73"/>
</g>
<!-- Attacker_has_other_compromised_account_with_low_rights -->
<g id="node17" class="node">
<title>Attacker_has_other_compromised_account_with_low_rights</title>
<path fill="#d2d5dd" stroke="transparent" d="M1274.67,-1004.9C1274.67,-1004.9 1157.49,-1004.9 1157.49,-1004.9 1151.49,-1004.9 1145.49,-998.9 1145.49,-992.9 1145.49,-992.9 1145.49,-921.5 1145.49,-921.5 1145.49,-915.5 1151.49,-909.5 1157.49,-909.5 1157.49,-909.5 1274.67,-909.5 1274.67,-909.5 1280.67,-909.5 1286.67,-915.5 1286.67,-921.5 1286.67,-921.5 1286.67,-992.9 1286.67,-992.9 1286.67,-998.9 1280.67,-1004.9 1274.67,-1004.9"/>
<text text-anchor="middle" x="1216.08" y="-978.2" font-family="Arial" font-size="14.00">Attacker has other</text>
<text text-anchor="middle" x="1216.08" y="-961.4" font-family="Arial" font-size="14.00">compromised</text>
<text text-anchor="middle" x="1216.08" y="-944.6" font-family="Arial" font-size="14.00">account with low</text>
<text text-anchor="middle" x="1216.08" y="-927.8" font-family="Arial" font-size="14.00">rights</text>
</g>
<!-- Attacker_can_elevate_permissions&#45;&gt;Attacker_has_other_compromised_account_with_low_rights -->
<g id="edge89" class="edge">
<title>Attacker_can_elevate_permissions&#45;&gt;Attacker_has_other_compromised_account_with_low_rights</title>
<path fill="none" stroke="#2b303a" d="M1228.03,-1033.79C1227.07,-1027.69 1226.05,-1021.26 1225.04,-1014.84"/>
<polygon fill="#2b303a" stroke="#2b303a" points="1228.47,-1014.14 1223.45,-1004.8 1221.55,-1015.23 1228.47,-1014.14"/>
</g>
<!-- Attacker_can_elevate_permissions&#45;&gt;bypass_Branch_Protection -->
<!-- Elevate_to_repo_deleting_rights -->
<g id="node33" class="node">
<title>Elevate_to_repo_deleting_rights</title>
<path fill="#ff92cc" stroke="transparent" d="M1138.22,-863.6C1138.22,-863.6 1039.93,-863.6 1039.93,-863.6 1033.93,-863.6 1027.93,-857.6 1027.93,-851.6 1027.93,-851.6 1027.93,-814.4 1027.93,-814.4 1027.93,-808.4 1033.93,-802.4 1039.93,-802.4 1039.93,-802.4 1138.22,-802.4 1138.22,-802.4 1144.22,-802.4 1150.22,-808.4 1150.22,-814.4 1150.22,-814.4 1150.22,-851.6 1150.22,-851.6 1150.22,-857.6 1144.22,-863.6 1138.22,-863.6"/>
<text text-anchor="middle" x="1089.08" y="-837.2" font-family="Arial" font-size="14.00">Elevate to repo</text>
<text text-anchor="middle" x="1089.08" y="-820.4" font-family="Arial" font-size="14.00">deleting rights</text>
</g>
<!-- Attacker_has_other_compromised_account_with_low_rights&#45;&gt;Elevate_to_repo_deleting_rights -->
<g id="edge35" class="edge">
<title>Attacker_has_other_compromised_account_with_low_rights&#45;&gt;Elevate_to_repo_deleting_rights</title>
<path fill="none" stroke="#2b303a" d="M1167.34,-909.3C1154.01,-896.48 1139.75,-882.76 1127.12,-870.6"/>
<polygon fill="#2b303a" stroke="#2b303a" points="1129.51,-868.05 1119.88,-863.64 1124.66,-873.1 1129.51,-868.05"/>
</g>
<!-- Other_elavation -->
<g id="node34" class="node">
<title>Other_elavation</title>
<path fill="#ff92cc" stroke="transparent" d="M1275.49,-855.3C1275.49,-855.3 1176.66,-855.3 1176.66,-855.3 1170.66,-855.3 1164.66,-849.3 1164.66,-843.3 1164.66,-843.3 1164.66,-822.7 1164.66,-822.7 1164.66,-816.7 1170.66,-810.7 1176.66,-810.7 1176.66,-810.7 1275.49,-810.7 1275.49,-810.7 1281.49,-810.7 1287.49,-816.7 1287.49,-822.7 1287.49,-822.7 1287.49,-843.3 1287.49,-843.3 1287.49,-849.3 1281.49,-855.3 1275.49,-855.3"/>
<text text-anchor="middle" x="1226.08" y="-828.8" font-family="Arial" font-size="14.00">Other elavation</text>
</g>
<!-- Attacker_has_other_compromised_account_with_low_rights&#45;&gt;Other_elavation -->
<g id="edge36" class="edge">
<title>Attacker_has_other_compromised_account_with_low_rights&#45;&gt;Other_elavation</title>
<path fill="none" stroke="#2b303a" d="M1219.91,-909.3C1221.11,-894.65 1222.41,-878.83 1223.5,-865.5"/>
<polygon fill="#2b303a" stroke="#2b303a" points="1227,-865.66 1224.32,-855.41 1220.02,-865.09 1227,-865.66"/>
</g>
<!-- forge_second_valid_identity&#45;&gt;abuse_Github_Action_PR_approval_permission -->
<!-- allow_one_membership_per_identity -->
<g id="node36" class="node">
<title>allow_one_membership_per_identity</title>
<path fill="#b9d6f2" stroke="transparent" d="M295.69,-434.4C295.69,-434.4 190.46,-434.4 190.46,-434.4 184.46,-434.4 178.46,-428.4 178.46,-422.4 178.46,-422.4 178.46,-367.6 178.46,-367.6 178.46,-361.6 184.46,-355.6 190.46,-355.6 190.46,-355.6 295.69,-355.6 295.69,-355.6 301.69,-355.6 307.69,-361.6 307.69,-367.6 307.69,-367.6 307.69,-422.4 307.69,-422.4 307.69,-428.4 301.69,-434.4 295.69,-434.4"/>
<text text-anchor="middle" x="243.08" y="-407.6" font-family="Arial" font-size="14.00">Allow one</text>
<text text-anchor="middle" x="243.08" y="-390.8" font-family="Arial" font-size="14.00">membership per</text>
<text text-anchor="middle" x="243.08" y="-374" font-family="Arial" font-size="14.00">identity</text>
</g>
<!-- forge_second_valid_identity&#45;&gt;allow_one_membership_per_identity -->
<g id="edge38" class="edge">
<title>forge_second_valid_identity&#45;&gt;allow_one_membership_per_identity</title>
<path fill="none" stroke="#2b303a" d="M239.09,-471.59C239.55,-462.86 240.05,-453.48 240.53,-444.39"/>
<polygon fill="#2b303a" stroke="#2b303a" points="244.03,-444.47 241.06,-434.3 237.04,-444.11 244.03,-444.47"/>
</g>
<!-- compromise_GitHub_App&#45;&gt;compromise_org_member_account -->
<!-- only_install_necessary_and_trusted_GitHub_App -->
<g id="node50" class="node">
<title>only_install_necessary_and_trusted_GitHub_App</title>
<path fill="#b9d6f2" stroke="transparent" d="M990.61,-1401C990.61,-1401 867.54,-1401 867.54,-1401 861.54,-1401 855.54,-1395 855.54,-1389 855.54,-1389 855.54,-1334.2 855.54,-1334.2 855.54,-1328.2 861.54,-1322.2 867.54,-1322.2 867.54,-1322.2 990.61,-1322.2 990.61,-1322.2 996.61,-1322.2 1002.61,-1328.2 1002.61,-1334.2 1002.61,-1334.2 1002.61,-1389 1002.61,-1389 1002.61,-1395 996.61,-1401 990.61,-1401"/>
<text text-anchor="middle" x="929.08" y="-1374.2" font-family="Arial" font-size="14.00">Only install</text>
<text text-anchor="middle" x="929.08" y="-1357.4" font-family="Arial" font-size="14.00">necessary and</text>
<text text-anchor="middle" x="929.08" y="-1340.6" font-family="Arial" font-size="14.00">trusted GitHub App</text>
</g>
<!-- compromise_GitHub_App&#45;&gt;only_install_necessary_and_trusted_GitHub_App -->
<g id="edge57" class="edge">
<title>compromise_GitHub_App&#45;&gt;only_install_necessary_and_trusted_GitHub_App</title>
<path fill="none" stroke="#2b303a" d="M929.08,-1438.36C929.08,-1429.95 929.08,-1420.57 929.08,-1411.36"/>
<polygon fill="#2b303a" stroke="#2b303a" points="932.58,-1411.08 929.08,-1401.08 925.58,-1411.08 932.58,-1411.08"/>
</g>
<!-- compromise_org_member_account&#45;&gt;steal_SSH_key_with_repo_write_access -->
<!-- enforce_2FA -->
<g id="node51" class="node">
<title>enforce_2FA</title>
<path fill="#b9d6f2" stroke="transparent" d="M1118.87,-1383.9C1118.87,-1383.9 1037.28,-1383.9 1037.28,-1383.9 1031.28,-1383.9 1025.28,-1377.9 1025.28,-1371.9 1025.28,-1371.9 1025.28,-1351.3 1025.28,-1351.3 1025.28,-1345.3 1031.28,-1339.3 1037.28,-1339.3 1037.28,-1339.3 1118.87,-1339.3 1118.87,-1339.3 1124.87,-1339.3 1130.87,-1345.3 1130.87,-1351.3 1130.87,-1351.3 1130.87,-1371.9 1130.87,-1371.9 1130.87,-1377.9 1124.87,-1383.9 1118.87,-1383.9"/>
<text text-anchor="middle" x="1078.08" y="-1357.4" font-family="Arial" font-size="14.00">Enforce 2FA</text>
</g>
<!-- compromise_org_member_account&#45;&gt;enforce_2FA -->
<g id="edge58" class="edge">
<title>compromise_org_member_account&#45;&gt;enforce_2FA</title>
<path fill="none" stroke="#2b303a" d="M1084.55,-1438.36C1083.37,-1424.58 1081.97,-1408.18 1080.77,-1394.17"/>
<polygon fill="#2b303a" stroke="#2b303a" points="1084.24,-1393.67 1079.9,-1384 1077.27,-1394.26 1084.24,-1393.67"/>
</g>
<!-- encrypt_SSH_private_key -->
<g id="node35" class="node">
<title>encrypt_SSH_private_key</title>
<path fill="#b9d6f2" stroke="transparent" d="M1574.1,-1293.2C1574.1,-1293.2 1444.06,-1293.2 1444.06,-1293.2 1438.06,-1293.2 1432.06,-1287.2 1432.06,-1281.2 1432.06,-1281.2 1432.06,-1244 1432.06,-1244 1432.06,-1238 1438.06,-1232 1444.06,-1232 1444.06,-1232 1574.1,-1232 1574.1,-1232 1580.1,-1232 1586.1,-1238 1586.1,-1244 1586.1,-1244 1586.1,-1281.2 1586.1,-1281.2 1586.1,-1287.2 1580.1,-1293.2 1574.1,-1293.2"/>
<text text-anchor="middle" x="1509.08" y="-1266.8" font-family="Arial" font-size="14.00">Encrypt SSH private</text>
<text text-anchor="middle" x="1509.08" y="-1250" font-family="Arial" font-size="14.00">key</text>
</g>
<!-- steal_SSH_key_with_repo_write_access&#45;&gt;encrypt_SSH_private_key -->
<g id="edge37" class="edge">
<title>steal_SSH_key_with_repo_write_access&#45;&gt;encrypt_SSH_private_key</title>
<path fill="none" stroke="#2b303a" d="M1294.42,-1429.79C1342.67,-1392.44 1415.57,-1335.99 1462.76,-1299.46"/>
<polygon fill="#2b303a" stroke="#2b303a" points="1464.91,-1302.22 1470.68,-1293.33 1460.63,-1296.68 1464.91,-1302.22"/>
</g>
<!-- abuse_Github_Action_PR_approval_permission&#45;&gt;Approve_malicious_PR_from_another_compromised_account -->
<!-- disable_GitHub_Actions_PR_approval_permission -->
<g id="node39" class="node">
<title>disable_GitHub_Actions_PR_approval_permission</title>
<path fill="#b9d6f2" stroke="transparent" d="M464.38,-434.4C464.38,-434.4 333.77,-434.4 333.77,-434.4 327.77,-434.4 321.77,-428.4 321.77,-422.4 321.77,-422.4 321.77,-367.6 321.77,-367.6 321.77,-361.6 327.77,-355.6 333.77,-355.6 333.77,-355.6 464.38,-355.6 464.38,-355.6 470.38,-355.6 476.38,-361.6 476.38,-367.6 476.38,-367.6 476.38,-422.4 476.38,-422.4 476.38,-428.4 470.38,-434.4 464.38,-434.4"/>
<text text-anchor="middle" x="399.08" y="-407.6" font-family="Arial" font-size="14.00">Disable GitHub</text>
<text text-anchor="middle" x="399.08" y="-390.8" font-family="Arial" font-size="14.00">Actions PR approval</text>
<text text-anchor="middle" x="399.08" y="-374" font-family="Arial" font-size="14.00">permission</text>
</g>
<!-- abuse_Github_Action_PR_approval_permission&#45;&gt;disable_GitHub_Actions_PR_approval_permission -->
<g id="edge41" class="edge">
<title>abuse_Github_Action_PR_approval_permission&#45;&gt;disable_GitHub_Actions_PR_approval_permission</title>
<path fill="none" stroke="#2b303a" d="M397.75,-471.59C397.9,-462.86 398.07,-453.48 398.23,-444.39"/>
<polygon fill="#2b303a" stroke="#2b303a" points="401.73,-444.36 398.4,-434.3 394.73,-444.24 401.73,-444.36"/>
</g>
<!-- get_enough_fake_PR_approvals -->
<g id="node23" class="node">
<title>get_enough_fake_PR_approvals</title>
<path fill="#ff92cc" stroke="transparent" d="M464.41,-318.2C464.41,-318.2 333.75,-318.2 333.75,-318.2 327.75,-318.2 321.75,-312.2 321.75,-306.2 321.75,-306.2 321.75,-269 321.75,-269 321.75,-263 327.75,-257 333.75,-257 333.75,-257 464.41,-257 464.41,-257 470.41,-257 476.41,-263 476.41,-269 476.41,-269 476.41,-306.2 476.41,-306.2 476.41,-312.2 470.41,-318.2 464.41,-318.2"/>
<text text-anchor="middle" x="399.08" y="-291.8" font-family="Arial" font-size="14.00">Get enough fake PR</text>
<text text-anchor="middle" x="399.08" y="-275" font-family="Arial" font-size="14.00">approvals</text>
</g>
<!-- require_two_person_review -->
<g id="node40" class="node">
<title>require_two_person_review</title>
<path fill="#b9d6f2" stroke="transparent" d="M463.2,-202.4C463.2,-202.4 336.95,-202.4 336.95,-202.4 330.95,-202.4 324.95,-196.4 324.95,-190.4 324.95,-190.4 324.95,-153.2 324.95,-153.2 324.95,-147.2 330.95,-141.2 336.95,-141.2 336.95,-141.2 463.2,-141.2 463.2,-141.2 469.2,-141.2 475.2,-147.2 475.2,-153.2 475.2,-153.2 475.2,-190.4 475.2,-190.4 475.2,-196.4 469.2,-202.4 463.2,-202.4"/>
<text text-anchor="middle" x="400.08" y="-176" font-family="Arial" font-size="14.00">Require two&#45;person</text>
<text text-anchor="middle" x="400.08" y="-159.2" font-family="Arial" font-size="14.00">review</text>
</g>
<!-- get_enough_fake_PR_approvals&#45;&gt;require_two_person_review -->
<g id="edge42" class="edge">
<title>get_enough_fake_PR_approvals&#45;&gt;require_two_person_review</title>
<path fill="none" stroke="#2b303a" d="M399.34,-257C399.45,-243.54 399.6,-227.41 399.72,-212.88"/>
<polygon fill="#2b303a" stroke="#2b303a" points="403.23,-212.68 399.81,-202.65 396.23,-212.62 403.23,-212.68"/>
</g>
<!-- require_security_champion_review -->
<g id="node41" class="node">
<title>require_security_champion_review</title>
<path fill="#b9d6f2" stroke="transparent" d="M628.76,-219.5C628.76,-219.5 501.4,-219.5 501.4,-219.5 495.4,-219.5 489.4,-213.5 489.4,-207.5 489.4,-207.5 489.4,-136.1 489.4,-136.1 489.4,-130.1 495.4,-124.1 501.4,-124.1 501.4,-124.1 628.76,-124.1 628.76,-124.1 634.76,-124.1 640.76,-130.1 640.76,-136.1 640.76,-136.1 640.76,-207.5 640.76,-207.5 640.76,-213.5 634.76,-219.5 628.76,-219.5"/>
<text text-anchor="middle" x="565.08" y="-192.8" font-family="Arial" font-size="14.00">Require review by a</text>
<text text-anchor="middle" x="565.08" y="-176" font-family="Arial" font-size="14.00">Security champion</text>
<text text-anchor="middle" x="565.08" y="-159.2" font-family="Arial" font-size="14.00">or Information</text>
<text text-anchor="middle" x="565.08" y="-142.4" font-family="Arial" font-size="14.00">security officer</text>
</g>
<!-- get_enough_fake_PR_approvals&#45;&gt;require_security_champion_review -->
<g id="edge44" class="edge">
<title>get_enough_fake_PR_approvals&#45;&gt;require_security_champion_review</title>
<path fill="none" stroke="#2b303a" d="M442.26,-257C456.49,-247.24 472.77,-236.08 488.73,-225.14"/>
<polygon fill="#2b303a" stroke="#2b303a" points="490.76,-227.99 497.02,-219.45 486.8,-222.22 490.76,-227.99"/>
</g>
<!-- dismiss_stale_PR_approvals -->
<g id="node37" class="node">
<title>dismiss_stale_PR_approvals</title>
<path fill="#b9d6f2" stroke="transparent" d="M215.84,-318.2C215.84,-318.2 106.31,-318.2 106.31,-318.2 100.31,-318.2 94.31,-312.2 94.31,-306.2 94.31,-306.2 94.31,-269 94.31,-269 94.31,-263 100.31,-257 106.31,-257 106.31,-257 215.84,-257 215.84,-257 221.84,-257 227.84,-263 227.84,-269 227.84,-269 227.84,-306.2 227.84,-306.2 227.84,-312.2 221.84,-318.2 215.84,-318.2"/>
<text text-anchor="middle" x="161.08" y="-291.8" font-family="Arial" font-size="14.00">Dismiss stale PR</text>
<text text-anchor="middle" x="161.08" y="-275" font-family="Arial" font-size="14.00">approvals</text>
</g>
<!-- abuse_PR_approval_to_sneak_in_bad_code&#45;&gt;dismiss_stale_PR_approvals -->
<g id="edge39" class="edge">
<title>abuse_PR_approval_to_sneak_in_bad_code&#45;&gt;dismiss_stale_PR_approvals</title>
<path fill="none" stroke="#2b303a" d="M104.29,-364.36C113.04,-352.68 123.2,-339.13 132.49,-326.74"/>
<polygon fill="#2b303a" stroke="#2b303a" points="135.56,-328.48 138.75,-318.38 129.96,-324.29 135.56,-328.48"/>
</g>
<!-- bypass_Branch_Protection&#45;&gt;abuse_admin_rights_and_skip_Tag_Protection -->
<!-- enforce_branch_protection_for_admins -->
<g id="node43" class="node">
<title>enforce_branch_protection_for_admins</title>
<path fill="#b9d6f2" stroke="transparent" d="M1448.49,-996.6C1448.49,-996.6 1349.66,-996.6 1349.66,-996.6 1343.66,-996.6 1337.66,-990.6 1337.66,-984.6 1337.66,-984.6 1337.66,-929.8 1337.66,-929.8 1337.66,-923.8 1343.66,-917.8 1349.66,-917.8 1349.66,-917.8 1448.49,-917.8 1448.49,-917.8 1454.49,-917.8 1460.49,-923.8 1460.49,-929.8 1460.49,-929.8 1460.49,-984.6 1460.49,-984.6 1460.49,-990.6 1454.49,-996.6 1448.49,-996.6"/>
<text text-anchor="middle" x="1399.08" y="-969.8" font-family="Arial" font-size="14.00">Enforce branch</text>
<text text-anchor="middle" x="1399.08" y="-953" font-family="Arial" font-size="14.00">protection for</text>
<text text-anchor="middle" x="1399.08" y="-936.2" font-family="Arial" font-size="14.00">admins</text>
</g>
<!-- bypass_Branch_Protection&#45;&gt;enforce_branch_protection_for_admins -->
<g id="edge47" class="edge">
<title>bypass_Branch_Protection&#45;&gt;enforce_branch_protection_for_admins</title>
<path fill="none" stroke="#2b303a" d="M1393.9,-1042.4C1394.57,-1031.49 1395.35,-1018.83 1396.09,-1006.69"/>
<polygon fill="#2b303a" stroke="#2b303a" points="1399.59,-1006.86 1396.71,-996.67 1392.6,-1006.43 1399.59,-1006.86"/>
</g>
<!-- setup_Tag_Protection_Rule -->
<g id="node42" class="node">
<title>setup_Tag_Protection_Rule</title>
<path fill="#b9d6f2" stroke="transparent" d="M1156.76,-202.4C1156.76,-202.4 1057.39,-202.4 1057.39,-202.4 1051.39,-202.4 1045.39,-196.4 1045.39,-190.4 1045.39,-190.4 1045.39,-153.2 1045.39,-153.2 1045.39,-147.2 1051.39,-141.2 1057.39,-141.2 1057.39,-141.2 1156.76,-141.2 1156.76,-141.2 1162.76,-141.2 1168.76,-147.2 1168.76,-153.2 1168.76,-153.2 1168.76,-190.4 1168.76,-190.4 1168.76,-196.4 1162.76,-202.4 1156.76,-202.4"/>
<text text-anchor="middle" x="1107.08" y="-176" font-family="Arial" font-size="14.00">Setup Tag</text>
<text text-anchor="middle" x="1107.08" y="-159.2" font-family="Arial" font-size="14.00">Protection Rule</text>
</g>
<!-- push_remote_release_tag&#45;&gt;setup_Tag_Protection_Rule -->
<g id="edge46" class="edge">
<title>push_remote_release_tag&#45;&gt;setup_Tag_Protection_Rule</title>
<path fill="none" stroke="#2b303a" d="M1213.21,-479.98C1205.77,-448.74 1193.07,-398.38 1179.08,-355.8 1162.49,-305.33 1139.47,-248.61 1123.96,-211.88"/>
<polygon fill="#2b303a" stroke="#2b303a" points="1127.12,-210.37 1119.99,-202.53 1120.68,-213.1 1127.12,-210.37"/>
</g>
<!-- Approve_malicious_PR_from_another_compromised_account&#45;&gt;add_evil_commits_to_good_PR_and_self_approve -->
<!-- Approve_malicious_PR_from_another_compromised_account&#45;&gt;require_two_person_review -->
<g id="edge43" class="edge">
<title>Approve_malicious_PR_from_another_compromised_account&#45;&gt;require_two_person_review</title>
<path fill="none" stroke="#2b303a" d="M554.06,-462.74C545.35,-407.84 525.37,-315.97 483.08,-248.4 474.08,-234.03 461.63,-220.7 449.09,-209.37"/>
<polygon fill="#2b303a" stroke="#2b303a" points="451.14,-206.51 441.31,-202.57 446.54,-211.78 451.14,-206.51"/>
</g>
<!-- Approve_malicious_PR_from_another_compromised_account&#45;&gt;require_security_champion_review -->
<g id="edge45" class="edge">
<title>Approve_malicious_PR_from_another_compromised_account&#45;&gt;require_security_champion_review</title>
<path fill="none" stroke="#2b303a" d="M560.77,-462.94C561.68,-401.91 563.26,-295.3 564.23,-229.69"/>
<polygon fill="#2b303a" stroke="#2b303a" points="567.73,-229.58 564.38,-219.53 560.73,-229.48 567.73,-229.58"/>
</g>
<!-- manage_org_and_repo_settings_as_code -->
<g id="node45" class="node">
<title>manage_org_and_repo_settings_as_code</title>
<path fill="#b9d6f2" stroke="transparent" d="M1560.9,-202.4C1560.9,-202.4 1423.25,-202.4 1423.25,-202.4 1417.25,-202.4 1411.25,-196.4 1411.25,-190.4 1411.25,-190.4 1411.25,-153.2 1411.25,-153.2 1411.25,-147.2 1417.25,-141.2 1423.25,-141.2 1423.25,-141.2 1560.9,-141.2 1560.9,-141.2 1566.9,-141.2 1572.9,-147.2 1572.9,-153.2 1572.9,-153.2 1572.9,-190.4 1572.9,-190.4 1572.9,-196.4 1566.9,-202.4 1560.9,-202.4"/>
<text text-anchor="middle" x="1492.08" y="-176" font-family="Arial" font-size="14.00">Manage org and repo</text>
<text text-anchor="middle" x="1492.08" y="-159.2" font-family="Arial" font-size="14.00">settings as code</text>
</g>
<!-- abuse_admin_rights_and_skip_Tag_Protection&#45;&gt;manage_org_and_repo_settings_as_code -->
<g id="edge50" class="edge">
<title>abuse_admin_rights_and_skip_Tag_Protection&#45;&gt;manage_org_and_repo_settings_as_code</title>
<path fill="none" stroke="#2b303a" d="M1530.57,-1033.58C1518.72,-986.81 1501.08,-905.23 1501.08,-834 1501.08,-834 1501.08,-834 1501.08,-394 1501.08,-330.49 1497.33,-256.8 1494.67,-212.54"/>
<polygon fill="#2b303a" stroke="#2b303a" points="1498.16,-212.25 1494.05,-202.48 1491.17,-212.68 1498.16,-212.25"/>
</g>
<!-- abuse_admin_rights_and_disable_Branch_Protection_admin_enforcement -->
<g id="node29" class="node">
<title>abuse_admin_rights_and_disable_Branch_Protection_admin_enforcement</title>
<path fill="#ff92cc" stroke="transparent" d="M1466.89,-880.7C1466.89,-880.7 1343.26,-880.7 1343.26,-880.7 1337.26,-880.7 1331.26,-874.7 1331.26,-868.7 1331.26,-868.7 1331.26,-797.3 1331.26,-797.3 1331.26,-791.3 1337.26,-785.3 1343.26,-785.3 1343.26,-785.3 1466.89,-785.3 1466.89,-785.3 1472.89,-785.3 1478.89,-791.3 1478.89,-797.3 1478.89,-797.3 1478.89,-868.7 1478.89,-868.7 1478.89,-874.7 1472.89,-880.7 1466.89,-880.7"/>
<text text-anchor="middle" x="1405.08" y="-854" font-family="Arial" font-size="14.00">Abuse admin rights</text>
<text text-anchor="middle" x="1405.08" y="-837.2" font-family="Arial" font-size="14.00">and disable Branch</text>
<text text-anchor="middle" x="1405.08" y="-820.4" font-family="Arial" font-size="14.00">Protection admin</text>
<text text-anchor="middle" x="1405.08" y="-803.6" font-family="Arial" font-size="14.00">enforcement</text>
</g>
<!-- abuse_admin_rights_and_disable_Branch_Protection_admin_enforcement&#45;&gt;manage_org_and_repo_settings_as_code -->
<g id="edge49" class="edge">
<title>abuse_admin_rights_and_disable_Branch_Protection_admin_enforcement&#45;&gt;manage_org_and_repo_settings_as_code</title>
<path fill="none" stroke="#2b303a" d="M1434.25,-785.14C1439.11,-775.87 1443.67,-766.02 1447.08,-756.4 1467.73,-698.04 1471.08,-681.1 1471.08,-619.2 1471.08,-619.2 1471.08,-619.2 1471.08,-394 1471.08,-330.25 1479.83,-256.63 1486.03,-212.45"/>
<polygon fill="#2b303a" stroke="#2b303a" points="1489.52,-212.81 1487.47,-202.41 1482.59,-211.81 1489.52,-212.81"/>
</g>
<!-- add_evil_commits_to_good_PR_and_self_approve&#45;&gt;fool_PR_reviewer_of_huge_diff_with_evil_code -->
<!-- require_Last_Push_Approval_branch_protection -->
<g id="node38" class="node">
<title>require_Last_Push_Approval_branch_protection</title>
<path fill="#b9d6f2" stroke="transparent" d="M785.72,-211.2C785.72,-211.2 666.43,-211.2 666.43,-211.2 660.43,-211.2 654.43,-205.2 654.43,-199.2 654.43,-199.2 654.43,-144.4 654.43,-144.4 654.43,-138.4 660.43,-132.4 666.43,-132.4 666.43,-132.4 785.72,-132.4 785.72,-132.4 791.72,-132.4 797.72,-138.4 797.72,-144.4 797.72,-144.4 797.72,-199.2 797.72,-199.2 797.72,-205.2 791.72,-211.2 785.72,-211.2"/>
<text text-anchor="middle" x="726.08" y="-184.4" font-family="Arial" font-size="14.00">Require Last Push</text>
<text text-anchor="middle" x="726.08" y="-167.6" font-family="Arial" font-size="14.00">Approval branch</text>
<text text-anchor="middle" x="726.08" y="-150.8" font-family="Arial" font-size="14.00">protection</text>
</g>
<!-- add_evil_commits_to_good_PR_and_self_approve&#45;&gt;require_Last_Push_Approval_branch_protection -->
<g id="edge40" class="edge">
<title>add_evil_commits_to_good_PR_and_self_approve&#45;&gt;require_Last_Push_Approval_branch_protection</title>
<path fill="none" stroke="#2b303a" d="M720.76,-471.47C721.86,-409.9 724.01,-289.04 725.21,-221.46"/>
<polygon fill="#2b303a" stroke="#2b303a" points="728.72,-221.16 725.39,-211.09 721.72,-221.03 728.72,-221.16"/>
</g>
<!-- fool_PR_reviewer_of_huge_diff_with_evil_code&#45;&gt;fool_PR_reviewer_by_adding_evil_dependency_reference -->
<!-- only_accept_PR_with_small_changes_and_review_carefully -->
<g id="node46" class="node">
<title>only_accept_PR_with_small_changes_and_review_carefully</title>
<path fill="#b9d6f2" stroke="transparent" d="M887.1,-327C887.1,-327 757.06,-327 757.06,-327 751.06,-327 745.06,-321 745.06,-315 745.06,-315 745.06,-260.2 745.06,-260.2 745.06,-254.2 751.06,-248.2 757.06,-248.2 757.06,-248.2 887.1,-248.2 887.1,-248.2 893.1,-248.2 899.1,-254.2 899.1,-260.2 899.1,-260.2 899.1,-315 899.1,-315 899.1,-321 893.1,-327 887.1,-327"/>
<text text-anchor="middle" x="822.08" y="-300.2" font-family="Arial" font-size="14.00">Only accept PR with</text>
<text text-anchor="middle" x="822.08" y="-283.4" font-family="Arial" font-size="14.00">small changes and</text>
<text text-anchor="middle" x="822.08" y="-266.6" font-family="Arial" font-size="14.00">review carefully</text>
</g>
<!-- fool_PR_reviewer_of_huge_diff_with_evil_code&#45;&gt;only_accept_PR_with_small_changes_and_review_carefully -->
<g id="edge51" class="edge">
<title>fool_PR_reviewer_of_huge_diff_with_evil_code&#45;&gt;only_accept_PR_with_small_changes_and_review_carefully</title>
<path fill="none" stroke="#2b303a" d="M871,-463.16C860.6,-426.04 846.09,-374.28 835.58,-336.77"/>
<polygon fill="#2b303a" stroke="#2b303a" points="838.93,-335.76 832.86,-327.08 832.19,-337.65 838.93,-335.76"/>
</g>
<!-- only_accept_trusted_dependencies -->
<g id="node47" class="node">
<title>only_accept_trusted_dependencies</title>
<path fill="#b9d6f2" stroke="transparent" d="M1053.17,-318.2C1053.17,-318.2 928.99,-318.2 928.99,-318.2 922.99,-318.2 916.99,-312.2 916.99,-306.2 916.99,-306.2 916.99,-269 916.99,-269 916.99,-263 922.99,-257 928.99,-257 928.99,-257 1053.17,-257 1053.17,-257 1059.17,-257 1065.17,-263 1065.17,-269 1065.17,-269 1065.17,-306.2 1065.17,-306.2 1065.17,-312.2 1059.17,-318.2 1053.17,-318.2"/>
<text text-anchor="middle" x="991.08" y="-291.8" font-family="Arial" font-size="14.00">Only accept trusted</text>
<text text-anchor="middle" x="991.08" y="-275" font-family="Arial" font-size="14.00">dependencies</text>
</g>
<!-- fool_PR_reviewer_by_adding_evil_dependency_reference&#45;&gt;only_accept_trusted_dependencies -->
<g id="edge52" class="edge">
<title>fool_PR_reviewer_by_adding_evil_dependency_reference&#45;&gt;only_accept_trusted_dependencies</title>
<path fill="none" stroke="#2b303a" d="M1037.64,-463.16C1026.97,-423.19 1011.78,-366.23 1001.69,-328.38"/>
<polygon fill="#2b303a" stroke="#2b303a" points="1004.94,-327 998.98,-318.24 998.18,-328.81 1004.94,-327"/>
</g>
<!-- implement_SCA -->
<g id="node48" class="node">
<title>implement_SCA</title>
<path fill="#b9d6f2" stroke="transparent" d="M988.09,-417.3C988.09,-417.3 886.07,-417.3 886.07,-417.3 880.07,-417.3 874.07,-411.3 874.07,-405.3 874.07,-405.3 874.07,-384.7 874.07,-384.7 874.07,-378.7 880.07,-372.7 886.07,-372.7 886.07,-372.7 988.09,-372.7 988.09,-372.7 994.09,-372.7 1000.09,-378.7 1000.09,-384.7 1000.09,-384.7 1000.09,-405.3 1000.09,-405.3 1000.09,-411.3 994.09,-417.3 988.09,-417.3"/>
<text text-anchor="middle" x="937.08" y="-390.8" font-family="Arial" font-size="14.00">Implement SCA</text>
</g>
<!-- fool_PR_reviewer_by_adding_evil_dependency_reference&#45;&gt;implement_SCA -->
<g id="edge55" class="edge">
<title>fool_PR_reviewer_by_adding_evil_dependency_reference&#45;&gt;implement_SCA</title>
<path fill="none" stroke="#2b303a" d="M1003.79,-463.18C990.89,-450.19 977.26,-436.46 965.7,-424.82"/>
<polygon fill="#2b303a" stroke="#2b303a" points="967.96,-422.14 958.43,-417.51 962.99,-427.07 967.96,-422.14"/>
</g>
<!-- Implement_base_image_analysis -->
<g id="node49" class="node">
<title>Implement_base_image_analysis</title>
<path fill="#b9d6f2" stroke="transparent" d="M1159.65,-425.6C1159.65,-425.6 1056.5,-425.6 1056.5,-425.6 1050.5,-425.6 1044.5,-419.6 1044.5,-413.6 1044.5,-413.6 1044.5,-376.4 1044.5,-376.4 1044.5,-370.4 1050.5,-364.4 1056.5,-364.4 1056.5,-364.4 1159.65,-364.4 1159.65,-364.4 1165.65,-364.4 1171.65,-370.4 1171.65,-376.4 1171.65,-376.4 1171.65,-413.6 1171.65,-413.6 1171.65,-419.6 1165.65,-425.6 1159.65,-425.6"/>
<text text-anchor="middle" x="1108.08" y="-399.2" font-family="Arial" font-size="14.00">Implement base</text>
<text text-anchor="middle" x="1108.08" y="-382.4" font-family="Arial" font-size="14.00">image analysis</text>
</g>
<!-- fool_PR_reviewer_by_adding_evil_dependency_reference&#45;&gt;Implement_base_image_analysis -->
<g id="edge56" class="edge">
<title>fool_PR_reviewer_by_adding_evil_dependency_reference&#45;&gt;Implement_base_image_analysis</title>
<path fill="none" stroke="#2b303a" d="M1073.83,-463.18C1078.62,-453.8 1083.6,-444.03 1088.23,-434.94"/>
<polygon fill="#2b303a" stroke="#2b303a" points="1091.49,-436.26 1092.91,-425.76 1085.25,-433.08 1091.49,-436.26"/>
</g>
<!-- Elevate_to_repo_deleting_rights&#45;&gt;Other_elavation -->
<!-- Elevate_to_repo_deleting_rights&#45;&gt;Monitoring_access_rights_management -->
<g id="edge59" class="edge">
<title>Elevate_to_repo_deleting_rights&#45;&gt;Monitoring_access_rights_management</title>
<path fill="none" stroke="#2b303a" d="M1125.92,-802.27C1135.84,-795.66 1146.93,-789.43 1158.08,-785.4 1279.47,-741.5 1319.95,-778.84 1447.08,-756.4 1468.76,-752.57 1491.94,-747.28 1513.42,-741.86"/>
<polygon fill="#2b303a" stroke="#2b303a" points="1514.35,-745.23 1523.16,-739.36 1512.61,-738.45 1514.35,-745.23"/>
</g>
<!-- Elevate_to_repo_deleting_rights&#45;&gt;Repository_deletion_monitoring -->
<g id="edge61" class="edge">
<title>Elevate_to_repo_deleting_rights&#45;&gt;Repository_deletion_monitoring</title>
<path fill="none" stroke="#2b303a" d="M1125.44,-802.17C1135.46,-795.47 1146.71,-789.23 1158.08,-785.4 1374.33,-712.57 1457.17,-829.26 1675.07,-757.04"/>
<polygon fill="#2b303a" stroke="#2b303a" points="1676.21,-760.35 1684.54,-753.81 1673.95,-753.72 1676.21,-760.35"/>
</g>
<!-- Elevate_to_repo_deleting_rights&#45;&gt;Periodic_backup_of_the_repository -->
<g id="edge63" class="edge">
<title>Elevate_to_repo_deleting_rights&#45;&gt;Periodic_backup_of_the_repository</title>
<path fill="none" stroke="#2b303a" d="M1125.06,-802.33C1135.16,-795.55 1146.55,-789.22 1158.08,-785.4 1290.69,-741.44 1650.66,-790.73 1786.08,-756.4 1791.12,-755.12 1796.22,-753.51 1801.27,-751.67"/>
<polygon fill="#2b303a" stroke="#2b303a" points="1802.88,-754.79 1810.91,-747.88 1800.32,-748.28 1802.88,-754.79"/>
</g>
<!-- Other_elavation&#45;&gt;attacker_has_repo_write_access -->
<g id="edge69" class="edge">
<title>Other_elavation&#45;&gt;attacker_has_repo_write_access</title>
<path fill="none" stroke="#2b303a" d="M1197.84,-810.61C1185.72,-802.05 1171.12,-792.54 1157.08,-785.4 1123.09,-768.12 1083.6,-753.19 1049.76,-741.82"/>
<polygon fill="#2b303a" stroke="#2b303a" points="1050.51,-738.38 1039.92,-738.56 1048.31,-745.03 1050.51,-738.38"/>
</g>
<!-- Other_elavation&#45;&gt;Attacker_has_reviewer_access -->
<g id="edge79" class="edge">
<title>Other_elavation&#45;&gt;Attacker_has_reviewer_access</title>
<path fill="none" stroke="#2b303a" d="M1217.05,-810.6C1210.77,-795.71 1202.22,-775.43 1194.72,-757.66"/>
<polygon fill="#2b303a" stroke="#2b303a" points="1197.8,-755.95 1190.69,-748.1 1191.35,-758.67 1197.8,-755.95"/>
</g>
<!-- encrypt_SSH_private_key&#45;&gt;target_branch_has_no_Branch_Protection -->
<g id="edge87" class="edge">
<title>encrypt_SSH_private_key&#45;&gt;target_branch_has_no_Branch_Protection</title>
<path fill="none" stroke="#2b303a" d="M1441.09,-1231.94C1383.11,-1201.51 1309.08,-1148.15 1309.08,-1074 1309.08,-1074 1309.08,-1074 1309.08,-832 1309.08,-771.63 1303.4,-701.83 1299.27,-659.11"/>
<polygon fill="#2b303a" stroke="#2b303a" points="1302.75,-658.72 1298.29,-649.11 1295.79,-659.41 1302.75,-658.72"/>
</g>
<!-- allow_one_membership_per_identity&#45;&gt;get_enough_fake_PR_approvals -->
<g id="edge22" class="edge">
<title>allow_one_membership_per_identity&#45;&gt;get_enough_fake_PR_approvals</title>
<path fill="none" stroke="#2b303a" d="M299.84,-355.65C314.98,-345.42 331.29,-334.4 346.22,-324.31"/>
<polygon fill="#2b303a" stroke="#2b303a" points="348.5,-326.99 354.83,-318.5 344.58,-321.19 348.5,-326.99"/>
</g>
<!-- dismiss_stale_PR_approvals&#45;&gt;submit_malicious_code -->
<g id="edge9" class="edge">
<title>dismiss_stale_PR_approvals&#45;&gt;submit_malicious_code</title>
<path fill="none" stroke="#2b303a" d="M180.71,-256.73C207.14,-219.18 257.84,-155.83 318.08,-124.2 382.36,-90.45 583.88,-66.58 695.95,-55.53"/>
<polygon fill="#2b303a" stroke="#2b303a" points="696.57,-58.98 706.18,-54.53 695.89,-52.02 696.57,-58.98"/>
</g>
<!-- require_Last_Push_Approval_branch_protection&#45;&gt;submit_malicious_code -->
<g id="edge6" class="edge">
<title>require_Last_Push_Approval_branch_protection&#45;&gt;submit_malicious_code</title>
<path fill="none" stroke="#2b303a" d="M740.82,-132.47C746.29,-118.25 752.49,-102.12 757.99,-87.82"/>
<polygon fill="#2b303a" stroke="#2b303a" points="761.34,-88.85 761.67,-78.26 754.81,-86.34 761.34,-88.85"/>
</g>
<!-- disable_GitHub_Actions_PR_approval_permission&#45;&gt;get_enough_fake_PR_approvals -->
<g id="edge23" class="edge">
<title>disable_GitHub_Actions_PR_approval_permission&#45;&gt;get_enough_fake_PR_approvals</title>
<path fill="none" stroke="#2b303a" d="M399.08,-355.65C399.08,-346.85 399.08,-337.47 399.08,-328.61"/>
<polygon fill="#2b303a" stroke="#2b303a" points="402.58,-328.5 399.08,-318.5 395.58,-328.5 402.58,-328.5"/>
</g>
<!-- require_two_person_review&#45;&gt;require_security_champion_review -->
<!-- require_two_person_review&#45;&gt;require_security_champion_review -->
<!-- require_two_person_review&#45;&gt;submit_malicious_code -->
<g id="edge7" class="edge">
<title>require_two_person_review&#45;&gt;submit_malicious_code</title>
<path fill="none" stroke="#2b303a" d="M447.58,-141.02C458.63,-134.89 470.55,-128.88 482.08,-124.2 552.26,-95.72 636.37,-75.24 696.08,-62.84"/>
<polygon fill="#2b303a" stroke="#2b303a" points="697.09,-66.2 706.19,-60.76 695.69,-59.34 697.09,-66.2"/>
</g>
<!-- require_security_champion_review&#45;&gt;submit_malicious_code -->
<g id="edge12" class="edge">
<title>require_security_champion_review&#45;&gt;submit_malicious_code</title>
<path fill="none" stroke="#2b303a" d="M640.76,-126.34C664.75,-112.24 690.93,-96.86 713.61,-83.54"/>
<polygon fill="#2b303a" stroke="#2b303a" points="715.6,-86.43 722.45,-78.34 712.05,-80.39 715.6,-86.43"/>
</g>
<!-- setup_Tag_Protection_Rule&#45;&gt;modify_release_tag_to_point_vulnerable_commit -->
<g id="edge2" class="edge">
<title>setup_Tag_Protection_Rule&#45;&gt;modify_release_tag_to_point_vulnerable_commit</title>
<path fill="none" stroke="#2b303a" d="M1117.35,-140.91C1121.93,-127.58 1127.45,-111.53 1132.58,-96.59"/>
<polygon fill="#2b303a" stroke="#2b303a" points="1135.95,-97.56 1135.89,-86.97 1129.33,-95.29 1135.95,-97.56"/>
</g>
<!-- enforce_branch_protection_for_admins&#45;&gt;abuse_admin_rights_and_disable_Branch_Protection_admin_enforcement -->
<g id="edge31" class="edge">
<title>enforce_branch_protection_for_admins&#45;&gt;abuse_admin_rights_and_disable_Branch_Protection_admin_enforcement</title>
<path fill="none" stroke="#2b303a" d="M1400.96,-917.87C1401.38,-909.33 1401.83,-900.09 1402.28,-890.98"/>
<polygon fill="#2b303a" stroke="#2b303a" points="1405.78,-890.94 1402.78,-880.78 1398.79,-890.6 1405.78,-890.94"/>
</g>
<!-- setup_robust_branch_protection&#45;&gt;remove_malicious_code -->
<g id="edge3" class="edge">
<title>setup_robust_branch_protection&#45;&gt;remove_malicious_code</title>
<path fill="none" stroke="#2b303a" d="M1327.02,-140.91C1341.57,-129.13 1358.74,-115.23 1375.28,-101.85"/>
<polygon fill="#2b303a" stroke="#2b303a" points="1377.76,-104.34 1383.34,-95.33 1373.36,-98.9 1377.76,-104.34"/>
</g>
<!-- setup_robust_branch_protection&#45;&gt;submit_malicious_code -->
<g id="edge5" class="edge">
<title>setup_robust_branch_protection&#45;&gt;submit_malicious_code</title>
<path fill="none" stroke="#2b303a" d="M1223.97,-141.14C1208.47,-134.93 1191.87,-128.86 1176.08,-124.2 1064.81,-91.39 931.91,-69.72 850,-58.3"/>
<polygon fill="#2b303a" stroke="#2b303a" points="850.4,-54.82 840.02,-56.92 849.45,-61.76 850.4,-54.82"/>
</g>
<!-- manage_org_and_repo_settings_as_code&#45;&gt;modify_release_tag_to_point_vulnerable_commit -->
<g id="edge1" class="edge">
<title>manage_org_and_repo_settings_as_code&#45;&gt;modify_release_tag_to_point_vulnerable_commit</title>
<path fill="none" stroke="#2b303a" d="M1418.66,-141.12C1403.94,-135.37 1388.56,-129.49 1374.08,-124.2 1326.57,-106.85 1272.91,-88.76 1229.91,-74.63"/>
<polygon fill="#2b303a" stroke="#2b303a" points="1230.93,-71.29 1220.34,-71.5 1228.75,-77.94 1230.93,-71.29"/>
</g>
<!-- manage_org_and_repo_settings_as_code&#45;&gt;remove_malicious_code -->
<g id="edge4" class="edge">
<title>manage_org_and_repo_settings_as_code&#45;&gt;remove_malicious_code</title>
<path fill="none" stroke="#2b303a" d="M1479.6,-140.91C1475.04,-129.98 1469.72,-117.24 1464.52,-104.77"/>
<polygon fill="#2b303a" stroke="#2b303a" points="1467.66,-103.21 1460.58,-95.33 1461.2,-105.91 1467.66,-103.21"/>
</g>
<!-- manage_org_and_repo_settings_as_code&#45;&gt;submit_malicious_code -->
<g id="edge8" class="edge">
<title>manage_org_and_repo_settings_as_code&#45;&gt;submit_malicious_code</title>
<path fill="none" stroke="#2b303a" d="M1426.36,-141.09C1409.61,-134.56 1391.42,-128.37 1374.08,-124.2 1242.54,-92.6 1205.3,-112.1 1071.08,-95.2 995.81,-85.72 910.3,-72.05 850.24,-61.96"/>
<polygon fill="#2b303a" stroke="#2b303a" points="850.52,-58.46 840.08,-60.25 849.36,-65.36 850.52,-58.46"/>
</g>
<!-- only_accept_PR_with_small_changes_and_review_carefully&#45;&gt;submit_malicious_code -->
<g id="edge10" class="edge">
<title>only_accept_PR_with_small_changes_and_review_carefully&#45;&gt;submit_malicious_code</title>
<path fill="none" stroke="#2b303a" d="M821.25,-248.3C819.78,-215.03 815.8,-165.79 805.08,-124.2 801.93,-112.02 797.15,-99.25 792.24,-87.74"/>
<polygon fill="#2b303a" stroke="#2b303a" points="795.36,-86.14 788.11,-78.42 788.96,-88.98 795.36,-86.14"/>
</g>
<!-- only_accept_trusted_dependencies&#45;&gt;submit_malicious_code -->
<g id="edge11" class="edge">
<title>only_accept_trusted_dependencies&#45;&gt;submit_malicious_code</title>
<path fill="none" stroke="#2b303a" d="M963.91,-256.94C924.23,-213.62 850.45,-133.07 807.18,-85.83"/>
<polygon fill="#2b303a" stroke="#2b303a" points="809.58,-83.27 800.24,-78.26 804.42,-88 809.58,-83.27"/>
</g>
<!-- implement_SCA&#45;&gt;only_accept_trusted_dependencies -->
<g id="edge53" class="edge">
<title>implement_SCA&#45;&gt;only_accept_trusted_dependencies</title>
<path fill="none" stroke="#2b303a" d="M948,-372.67C954.64,-359.72 963.31,-342.79 971.13,-327.53"/>
<polygon fill="#2b303a" stroke="#2b303a" points="974.42,-328.78 975.87,-318.28 968.19,-325.59 974.42,-328.78"/>
</g>
<!-- implement_SCA&#45;&gt;Implement_base_image_analysis -->
<!-- Implement_base_image_analysis&#45;&gt;only_accept_trusted_dependencies -->
<g id="edge54" class="edge">
<title>Implement_base_image_analysis&#45;&gt;only_accept_trusted_dependencies</title>
<path fill="none" stroke="#2b303a" d="M1075.17,-364.36C1061.72,-352.24 1046,-338.08 1031.83,-325.31"/>
<polygon fill="#2b303a" stroke="#2b303a" points="1033.91,-322.48 1024.14,-318.38 1029.22,-327.68 1033.91,-322.48"/>
</g>
<!-- only_install_necessary_and_trusted_GitHub_App&#45;&gt;victim_has_repo_write_access -->
<g id="edge76" class="edge">
<title>only_install_necessary_and_trusted_GitHub_App&#45;&gt;victim_has_repo_write_access</title>
<path fill="none" stroke="#2b303a" d="M855.38,-1331.19C829.01,-1320.57 798.89,-1308.32 765.87,-1294.55"/>
<polygon fill="#2b303a" stroke="#2b303a" points="767.06,-1291.25 756.48,-1290.63 764.36,-1297.71 767.06,-1291.25"/>
</g>
<!-- only_install_necessary_and_trusted_GitHub_App&#45;&gt;victim_has_reviewer_access -->
<g id="edge78" class="edge">
<title>only_install_necessary_and_trusted_GitHub_App&#45;&gt;victim_has_reviewer_access</title>
<path fill="none" stroke="#2b303a" d="M895.88,-1322.26C889.88,-1315.34 883.63,-1308.12 877.65,-1301.21"/>
<polygon fill="#2b303a" stroke="#2b303a" points="879.97,-1298.55 870.78,-1293.28 874.68,-1303.13 879.97,-1298.55"/>
</g>
<!-- only_install_necessary_and_trusted_GitHub_App&#45;&gt;victim_is_repo_admin -->
<g id="edge81" class="edge">
<title>only_install_necessary_and_trusted_GitHub_App&#45;&gt;victim_is_repo_admin</title>
<path fill="none" stroke="#2b303a" d="M961.48,-1322.26C969.79,-1312.43 978.6,-1302.02 986.44,-1292.74"/>
<polygon fill="#2b303a" stroke="#2b303a" points="989.27,-1294.81 993.06,-1284.92 983.93,-1290.29 989.27,-1294.81"/>
</g>
<!-- only_install_necessary_and_trusted_GitHub_App&#45;&gt;victim_is_org_owner -->
<g id="edge84" class="edge">
<title>only_install_necessary_and_trusted_GitHub_App&#45;&gt;victim_is_org_owner</title>
<path fill="none" stroke="#2b303a" d="M1002.81,-1327.06C1007.92,-1325.33 1013.04,-1323.75 1018.08,-1322.4 1124.86,-1293.86 1157.63,-1319.32 1265.08,-1293.4 1271.13,-1291.94 1277.35,-1290.16 1283.52,-1288.2"/>
<polygon fill="#2b303a" stroke="#2b303a" points="1284.76,-1291.47 1293.14,-1284.99 1282.54,-1284.83 1284.76,-1291.47"/>
</g>
<!-- enforce_2FA&#45;&gt;victim_has_repo_write_access -->
<g id="edge75" class="edge">
<title>enforce_2FA&#45;&gt;victim_has_repo_write_access</title>
<path fill="none" stroke="#2b303a" d="M1046.08,-1339.2C1035.09,-1332.8 1022.44,-1326.42 1010.08,-1322.4 908.04,-1289.22 871.95,-1320.13 766.36,-1294.04"/>
<polygon fill="#2b303a" stroke="#2b303a" points="767.16,-1290.63 756.6,-1291.52 765.41,-1297.41 767.16,-1290.63"/>
</g>
<!-- enforce_2FA&#45;&gt;victim_has_reviewer_access -->
<g id="edge77" class="edge">
<title>enforce_2FA&#45;&gt;victim_has_reviewer_access</title>
<path fill="none" stroke="#2b303a" d="M1042.69,-1339.17C1032.37,-1333.35 1020.94,-1327.3 1010.08,-1322.4 977.24,-1307.58 965.69,-1306.59 929.81,-1294.3"/>
<polygon fill="#2b303a" stroke="#2b303a" points="930.73,-1290.92 920.14,-1290.92 928.42,-1297.52 930.73,-1290.92"/>
</g>
<!-- enforce_2FA&#45;&gt;victim_is_repo_admin -->
<g id="edge80" class="edge">
<title>enforce_2FA&#45;&gt;victim_is_repo_admin</title>
<path fill="none" stroke="#2b303a" d="M1063.21,-1339.07C1053.93,-1325.64 1041.85,-1308.15 1031.65,-1293.39"/>
<polygon fill="#2b303a" stroke="#2b303a" points="1034.47,-1291.31 1025.9,-1285.07 1028.71,-1295.28 1034.47,-1291.31"/>
</g>
<!-- enforce_2FA&#45;&gt;victim_is_GitHub_App_Manager -->
<g id="edge82" class="edge">
<title>enforce_2FA&#45;&gt;victim_is_GitHub_App_Manager</title>
<path fill="none" stroke="#2b303a" d="M1100.71,-1339.07C1112.6,-1327.77 1127.5,-1313.6 1141.17,-1300.6"/>
<polygon fill="#2b303a" stroke="#2b303a" points="1143.77,-1302.96 1148.61,-1293.53 1138.95,-1297.88 1143.77,-1302.96"/>
</g>
<!-- enforce_2FA&#45;&gt;victim_is_org_owner -->
<g id="edge83" class="edge">
<title>enforce_2FA&#45;&gt;victim_is_org_owner</title>
<path fill="none" stroke="#2b303a" d="M1130.93,-1341.79C1168.42,-1328.41 1219.88,-1309.94 1265.08,-1293.4 1269.34,-1291.84 1273.73,-1290.23 1278.16,-1288.59"/>
<polygon fill="#2b303a" stroke="#2b303a" points="1279.69,-1291.76 1287.86,-1285.01 1277.27,-1285.19 1279.69,-1291.76"/>
</g>
<!-- Monitoring_access_rights_management&#45;&gt;Repository_deletion_monitoring -->
<!-- Monitoring_access_rights_management&#45;&gt;Remove_a_repository -->
<g id="edge13" class="edge">
<title>Monitoring_access_rights_management&#45;&gt;Remove_a_repository</title>
<path fill="none" stroke="#2b303a" d="M1618.56,-686.34C1644.03,-647.93 1683.08,-578.21 1683.08,-511.8 1683.08,-511.8 1683.08,-511.8 1683.08,-286.6 1683.08,-211.06 1707.05,-124.76 1721.46,-79.71"/>
<polygon fill="#2b303a" stroke="#2b303a" points="1724.86,-80.55 1724.63,-69.95 1718.21,-78.38 1724.86,-80.55"/>
</g>
<!-- Repository_deletion_monitoring&#45;&gt;Periodic_backup_of_the_repository -->
<!-- Repository_deletion_monitoring&#45;&gt;Remove_a_repository -->
<g id="edge14" class="edge">
<title>Repository_deletion_monitoring&#45;&gt;Remove_a_repository</title>
<path fill="none" stroke="#2b303a" d="M1732.08,-677.77C1732.08,-636.69 1732.08,-569.64 1732.08,-511.8 1732.08,-511.8 1732.08,-511.8 1732.08,-286.6 1732.08,-212.58 1732.08,-125.61 1732.08,-80.06"/>
<polygon fill="#2b303a" stroke="#2b303a" points="1735.58,-79.93 1732.08,-69.93 1728.58,-79.93 1735.58,-79.93"/>
</g>
<!-- Periodic_backup_of_the_repository&#45;&gt;Remove_a_repository -->
<g id="edge15" class="edge">
<title>Periodic_backup_of_the_repository&#45;&gt;Remove_a_repository</title>
<path fill="none" stroke="#2b303a" d="M1852.49,-686.33C1837.1,-647.04 1813.08,-575.51 1813.08,-511.8 1813.08,-511.8 1813.08,-511.8 1813.08,-286.6 1813.08,-208.36 1773.36,-123 1749.55,-78.85"/>
<polygon fill="#2b303a" stroke="#2b303a" points="1752.61,-77.16 1744.73,-70.07 1746.48,-80.52 1752.61,-77.16"/>
</g>
</g>
</svg>
