<?xml version="1.0" encoding="UTF-8" standalone="no"?>
<!DOCTYPE svg PUBLIC "-//W3C//DTD SVG 1.1//EN"
 "http://www.w3.org/Graphics/SVG/1.1/DTD/svg11.dtd">
<!-- Generated by graphviz version 2.46.1 (20210214.0559)
 -->
<!-- Pages: 1 -->
<svg width="1651pt" height="1299pt"
 viewBox="0.00 0.00 1650.88 1299.20" xmlns="http://www.w3.org/2000/svg" xmlns:xlink="http://www.w3.org/1999/xlink">
<g id="graph0" class="graph" transform="scale(1 1) rotate(0) translate(4 1295.2)">
<polygon fill="white" stroke="transparent" points="-4,4 -4,-1295.2 1646.88,-1295.2 1646.88,4 -4,4"/>
<text text-anchor="middle" x="821.44" y="-1274.6" font-family="Arial" font-size="14.00">Software Supply Chain Attack Tree &#45; Source Control Management</text>
<!-- reality -->
<g id="node1" class="node">
<title>reality</title>
<path fill="#272727" stroke="transparent" d="M1168.35,-1266.3C1168.35,-1266.3 1121.8,-1266.3 1121.8,-1266.3 1115.8,-1266.3 1109.8,-1260.3 1109.8,-1254.3 1109.8,-1254.3 1109.8,-1233.7 1109.8,-1233.7 1109.8,-1227.7 1115.8,-1221.7 1121.8,-1221.7 1121.8,-1221.7 1168.35,-1221.7 1168.35,-1221.7 1174.35,-1221.7 1180.35,-1227.7 1180.35,-1233.7 1180.35,-1233.7 1180.35,-1254.3 1180.35,-1254.3 1180.35,-1260.3 1174.35,-1266.3 1168.35,-1266.3"/>
<text text-anchor="middle" x="1145.08" y="-1239.8" font-family="Arial" font-size="14.00" fill="#ffffff">Reality</text>
</g>
<!-- uses_GitHub -->
<g id="node2" class="node">
<title>uses_GitHub</title>
<path fill="#d2d5dd" stroke="transparent" d="M1186.92,-1192.5C1186.92,-1192.5 1103.24,-1192.5 1103.24,-1192.5 1097.24,-1192.5 1091.24,-1186.5 1091.24,-1180.5 1091.24,-1180.5 1091.24,-1159.9 1091.24,-1159.9 1091.24,-1153.9 1097.24,-1147.9 1103.24,-1147.9 1103.24,-1147.9 1186.92,-1147.9 1186.92,-1147.9 1192.92,-1147.9 1198.92,-1153.9 1198.92,-1159.9 1198.92,-1159.9 1198.92,-1180.5 1198.92,-1180.5 1198.92,-1186.5 1192.92,-1192.5 1186.92,-1192.5"/>
<text text-anchor="middle" x="1145.08" y="-1166" font-family="Arial" font-size="14.00">Uses GitHub</text>
</g>
<!-- reality&#45;&gt;uses_GitHub -->
<g id="edge45" class="edge">
<title>reality&#45;&gt;uses_GitHub</title>
<path fill="none" stroke="#2b303a" d="M1145.08,-1221.46C1145.08,-1215.64 1145.08,-1209.21 1145.08,-1202.96"/>
<polygon fill="#2b303a" stroke="#2b303a" points="1148.58,-1202.73 1145.08,-1192.73 1141.58,-1202.73 1148.58,-1202.73"/>
</g>
<!-- attacker_has_no_repo_access -->
<g id="node3" class="node">
<title>attacker_has_no_repo_access</title>
<path fill="#d2d5dd" stroke="transparent" d="M1211.73,-1118.6C1211.73,-1118.6 1078.42,-1118.6 1078.42,-1118.6 1072.42,-1118.6 1066.42,-1112.6 1066.42,-1106.6 1066.42,-1106.6 1066.42,-1069.4 1066.42,-1069.4 1066.42,-1063.4 1072.42,-1057.4 1078.42,-1057.4 1078.42,-1057.4 1211.73,-1057.4 1211.73,-1057.4 1217.73,-1057.4 1223.73,-1063.4 1223.73,-1069.4 1223.73,-1069.4 1223.73,-1106.6 1223.73,-1106.6 1223.73,-1112.6 1217.73,-1118.6 1211.73,-1118.6"/>
<text text-anchor="middle" x="1145.08" y="-1092.2" font-family="Arial" font-size="14.00">Attacker has no repo</text>
<text text-anchor="middle" x="1145.08" y="-1075.4" font-family="Arial" font-size="14.00">access</text>
</g>
<!-- uses_GitHub&#45;&gt;attacker_has_no_repo_access -->
<g id="edge46" class="edge">
<title>uses_GitHub&#45;&gt;attacker_has_no_repo_access</title>
<path fill="none" stroke="#2b303a" d="M1145.08,-1147.71C1145.08,-1141.86 1145.08,-1135.34 1145.08,-1128.82"/>
<polygon fill="#2b303a" stroke="#2b303a" points="1148.58,-1128.69 1145.08,-1118.69 1141.58,-1128.69 1148.58,-1128.69"/>
</g>
<!-- attacker_has_repo_write_access -->
<g id="node4" class="node">
<title>attacker_has_repo_write_access</title>
<path fill="#d2d5dd" stroke="transparent" d="M882.78,-722.6C882.78,-722.6 769.38,-722.6 769.38,-722.6 763.38,-722.6 757.38,-716.6 757.38,-710.6 757.38,-710.6 757.38,-673.4 757.38,-673.4 757.38,-667.4 763.38,-661.4 769.38,-661.4 769.38,-661.4 882.78,-661.4 882.78,-661.4 888.78,-661.4 894.78,-667.4 894.78,-673.4 894.78,-673.4 894.78,-710.6 894.78,-710.6 894.78,-716.6 888.78,-722.6 882.78,-722.6"/>
<text text-anchor="middle" x="826.08" y="-696.2" font-family="Arial" font-size="14.00">Attacker has repo</text>
<text text-anchor="middle" x="826.08" y="-679.4" font-family="Arial" font-size="14.00">write access</text>
</g>
<!-- uses_GitHub&#45;&gt;attacker_has_repo_write_access -->
<g id="edge47" class="edge">
<title>uses_GitHub&#45;&gt;attacker_has_repo_write_access</title>
<path fill="none" stroke="#2b303a" d="M1091.14,-1169.08C981.33,-1165.71 742.08,-1141.04 742.08,-990 742.08,-990 742.08,-990 742.08,-880.6 742.08,-822.97 729.93,-802.64 757.08,-751.8 761.38,-743.75 767.27,-736.32 773.82,-729.66"/>
<polygon fill="#2b303a" stroke="#2b303a" points="776.28,-732.15 781.13,-722.73 771.47,-727.06 776.28,-732.15"/>
</g>
<!-- attacker_has_repo_admin -->
<g id="node5" class="node">
<title>attacker_has_repo_admin</title>
<path fill="#d2d5dd" stroke="transparent" d="M1364.78,-722.6C1364.78,-722.6 1251.38,-722.6 1251.38,-722.6 1245.38,-722.6 1239.38,-716.6 1239.38,-710.6 1239.38,-710.6 1239.38,-673.4 1239.38,-673.4 1239.38,-667.4 1245.38,-661.4 1251.38,-661.4 1251.38,-661.4 1364.78,-661.4 1364.78,-661.4 1370.78,-661.4 1376.78,-667.4 1376.78,-673.4 1376.78,-673.4 1376.78,-710.6 1376.78,-710.6 1376.78,-716.6 1370.78,-722.6 1364.78,-722.6"/>
<text text-anchor="middle" x="1308.08" y="-696.2" font-family="Arial" font-size="14.00">Attacker has repo</text>
<text text-anchor="middle" x="1308.08" y="-679.4" font-family="Arial" font-size="14.00">admin</text>
</g>
<!-- uses_GitHub&#45;&gt;attacker_has_repo_admin -->
<g id="edge49" class="edge">
<title>uses_GitHub&#45;&gt;attacker_has_repo_admin</title>
<path fill="none" stroke="#2b303a" d="M1198.93,-1157.98C1275.88,-1138.44 1408.08,-1090.28 1408.08,-990 1408.08,-990 1408.08,-990 1408.08,-880.6 1408.08,-822.97 1422.75,-801.21 1393.08,-751.8 1387.95,-743.26 1381.05,-735.66 1373.39,-729"/>
<polygon fill="#2b303a" stroke="#2b303a" points="1375.49,-726.19 1365.51,-722.64 1371.1,-731.64 1375.49,-726.19"/>
</g>
<!-- compromise_GitHub_App -->
<g id="node15" class="node">
<title>compromise_GitHub_App</title>
<path fill="#ff92cc" stroke="transparent" d="M1052.35,-1019.6C1052.35,-1019.6 921.8,-1019.6 921.8,-1019.6 915.8,-1019.6 909.8,-1013.6 909.8,-1007.6 909.8,-1007.6 909.8,-970.4 909.8,-970.4 909.8,-964.4 915.8,-958.4 921.8,-958.4 921.8,-958.4 1052.35,-958.4 1052.35,-958.4 1058.35,-958.4 1064.35,-964.4 1064.35,-970.4 1064.35,-970.4 1064.35,-1007.6 1064.35,-1007.6 1064.35,-1013.6 1058.35,-1019.6 1052.35,-1019.6"/>
<text text-anchor="middle" x="987.08" y="-993.2" font-family="Arial" font-size="14.00">Compromise GitHub</text>
<text text-anchor="middle" x="987.08" y="-976.4" font-family="Arial" font-size="14.00">App</text>
</g>
<!-- attacker_has_no_repo_access&#45;&gt;compromise_GitHub_App -->
<g id="edge15" class="edge">
<title>attacker_has_no_repo_access&#45;&gt;compromise_GitHub_App</title>
<path fill="none" stroke="#2b303a" d="M1096.81,-1057.37C1080.2,-1047.17 1061.43,-1035.65 1044.18,-1025.06"/>
<polygon fill="#2b303a" stroke="#2b303a" points="1045.67,-1021.87 1035.32,-1019.62 1042.01,-1027.83 1045.67,-1021.87"/>
</g>
<!-- compromise_org_member_account -->
<g id="node16" class="node">
<title>compromise_org_member_account</title>
<path fill="#ff92cc" stroke="transparent" d="M1199.32,-1019.6C1199.32,-1019.6 1090.83,-1019.6 1090.83,-1019.6 1084.83,-1019.6 1078.83,-1013.6 1078.83,-1007.6 1078.83,-1007.6 1078.83,-970.4 1078.83,-970.4 1078.83,-964.4 1084.83,-958.4 1090.83,-958.4 1090.83,-958.4 1199.32,-958.4 1199.32,-958.4 1205.32,-958.4 1211.32,-964.4 1211.32,-970.4 1211.32,-970.4 1211.32,-1007.6 1211.32,-1007.6 1211.32,-1013.6 1205.32,-1019.6 1199.32,-1019.6"/>
<text text-anchor="middle" x="1145.08" y="-993.2" font-family="Arial" font-size="14.00">Compromise org</text>
<text text-anchor="middle" x="1145.08" y="-976.4" font-family="Arial" font-size="14.00">member account</text>
</g>
<!-- attacker_has_no_repo_access&#45;&gt;compromise_org_member_account -->
<g id="edge17" class="edge">
<title>attacker_has_no_repo_access&#45;&gt;compromise_org_member_account</title>
<path fill="none" stroke="#2b303a" d="M1145.08,-1057.37C1145.08,-1048.71 1145.08,-1039.09 1145.08,-1029.9"/>
<polygon fill="#2b303a" stroke="#2b303a" points="1148.58,-1029.78 1145.08,-1019.78 1141.58,-1029.78 1148.58,-1029.78"/>
</g>
<!-- steal_SSH_key_with_repo_write_access -->
<g id="node17" class="node">
<title>steal_SSH_key_with_repo_write_access</title>
<path fill="#ff92cc" stroke="transparent" d="M1369.42,-1028.4C1369.42,-1028.4 1236.73,-1028.4 1236.73,-1028.4 1230.73,-1028.4 1224.73,-1022.4 1224.73,-1016.4 1224.73,-1016.4 1224.73,-961.6 1224.73,-961.6 1224.73,-955.6 1230.73,-949.6 1236.73,-949.6 1236.73,-949.6 1369.42,-949.6 1369.42,-949.6 1375.42,-949.6 1381.42,-955.6 1381.42,-961.6 1381.42,-961.6 1381.42,-1016.4 1381.42,-1016.4 1381.42,-1022.4 1375.42,-1028.4 1369.42,-1028.4"/>
<text text-anchor="middle" x="1303.08" y="-1001.6" font-family="Arial" font-size="14.00">Steal SSH key with</text>
<text text-anchor="middle" x="1303.08" y="-984.8" font-family="Arial" font-size="14.00">write access</text>
<text text-anchor="middle" x="1303.08" y="-968" font-family="Arial" font-size="14.00">(user or Deploy Key)</text>
</g>
<!-- attacker_has_no_repo_access&#45;&gt;steal_SSH_key_with_repo_write_access -->
<g id="edge18" class="edge">
<title>attacker_has_no_repo_access&#45;&gt;steal_SSH_key_with_repo_write_access</title>
<path fill="none" stroke="#2b303a" d="M1193.34,-1057.37C1205.62,-1049.83 1219.08,-1041.57 1232.23,-1033.49"/>
<polygon fill="#2b303a" stroke="#2b303a" points="1234.13,-1036.44 1240.82,-1028.22 1230.47,-1030.47 1234.13,-1036.44"/>
</g>
<!-- target_branch_has_Branch_Protection -->
<g id="node6" class="node">
<title>target_branch_has_Branch_Protection</title>
<path fill="#d2d5dd" stroke="transparent" d="M704.67,-623.6C704.67,-623.6 587.49,-623.6 587.49,-623.6 581.49,-623.6 575.49,-617.6 575.49,-611.6 575.49,-611.6 575.49,-574.4 575.49,-574.4 575.49,-568.4 581.49,-562.4 587.49,-562.4 587.49,-562.4 704.67,-562.4 704.67,-562.4 710.67,-562.4 716.67,-568.4 716.67,-574.4 716.67,-574.4 716.67,-611.6 716.67,-611.6 716.67,-617.6 710.67,-623.6 704.67,-623.6"/>
<text text-anchor="middle" x="646.08" y="-597.2" font-family="Arial" font-size="14.00">Target branch has</text>
<text text-anchor="middle" x="646.08" y="-580.4" font-family="Arial" font-size="14.00">Branch Protection</text>
</g>
<!-- attacker_has_repo_write_access&#45;&gt;target_branch_has_Branch_Protection -->
<g id="edge52" class="edge">
<title>attacker_has_repo_write_access&#45;&gt;target_branch_has_Branch_Protection</title>
<path fill="none" stroke="#2b303a" d="M771.09,-661.37C751.82,-650.98 730,-639.23 710.05,-628.48"/>
<polygon fill="#2b303a" stroke="#2b303a" points="711.5,-625.28 701.03,-623.62 708.18,-631.44 711.5,-625.28"/>
</g>
<!-- repo_has_no_Tag_Protection_Rule -->
<g id="node7" class="node">
<title>repo_has_no_Tag_Protection_Rule</title>
<path fill="#d2d5dd" stroke="transparent" d="M912.95,-623.6C912.95,-623.6 801.2,-623.6 801.2,-623.6 795.2,-623.6 789.2,-617.6 789.2,-611.6 789.2,-611.6 789.2,-574.4 789.2,-574.4 789.2,-568.4 795.2,-562.4 801.2,-562.4 801.2,-562.4 912.95,-562.4 912.95,-562.4 918.95,-562.4 924.95,-568.4 924.95,-574.4 924.95,-574.4 924.95,-611.6 924.95,-611.6 924.95,-617.6 918.95,-623.6 912.95,-623.6"/>
<text text-anchor="middle" x="857.08" y="-597.2" font-family="Arial" font-size="14.00">Repo has no Tag</text>
<text text-anchor="middle" x="857.08" y="-580.4" font-family="Arial" font-size="14.00">Protection Rule</text>
</g>
<!-- attacker_has_repo_write_access&#45;&gt;repo_has_no_Tag_Protection_Rule -->
<g id="edge53" class="edge">
<title>attacker_has_repo_write_access&#45;&gt;repo_has_no_Tag_Protection_Rule</title>
<path fill="none" stroke="#2b303a" d="M835.55,-661.37C838.37,-652.52 841.52,-642.68 844.51,-633.31"/>
<polygon fill="#2b303a" stroke="#2b303a" points="847.85,-634.37 847.56,-623.78 841.18,-632.24 847.85,-634.37"/>
</g>
<!-- target_branch_has_no_Branch_Protection -->
<g id="node13" class="node">
<title>target_branch_has_no_Branch_Protection</title>
<path fill="#d2d5dd" stroke="transparent" d="M1575.62,-623.6C1575.62,-623.6 1438.53,-623.6 1438.53,-623.6 1432.53,-623.6 1426.53,-617.6 1426.53,-611.6 1426.53,-611.6 1426.53,-574.4 1426.53,-574.4 1426.53,-568.4 1432.53,-562.4 1438.53,-562.4 1438.53,-562.4 1575.62,-562.4 1575.62,-562.4 1581.62,-562.4 1587.62,-568.4 1587.62,-574.4 1587.62,-574.4 1587.62,-611.6 1587.62,-611.6 1587.62,-617.6 1581.62,-623.6 1575.62,-623.6"/>
<text text-anchor="middle" x="1507.08" y="-597.2" font-family="Arial" font-size="14.00">Target branch has no</text>
<text text-anchor="middle" x="1507.08" y="-580.4" font-family="Arial" font-size="14.00">Branch Protection</text>
</g>
<!-- attacker_has_repo_write_access&#45;&gt;target_branch_has_no_Branch_Protection -->
<g id="edge62" class="edge">
<title>attacker_has_repo_write_access&#45;&gt;target_branch_has_no_Branch_Protection</title>
<path fill="none" stroke="#2b303a" d="M894.82,-688.45C1001.62,-683.45 1213.37,-669.39 1389.08,-632.2 1398.14,-630.28 1407.5,-627.93 1416.79,-625.34"/>
<polygon fill="#2b303a" stroke="#2b303a" points="1417.79,-628.69 1426.43,-622.57 1415.85,-621.97 1417.79,-628.69"/>
</g>
<!-- bypass_Branch_Protection -->
<g id="node21" class="node">
<title>bypass_Branch_Protection</title>
<path fill="#ff92cc" stroke="transparent" d="M1208.21,-623.6C1208.21,-623.6 1109.94,-623.6 1109.94,-623.6 1103.94,-623.6 1097.94,-617.6 1097.94,-611.6 1097.94,-611.6 1097.94,-574.4 1097.94,-574.4 1097.94,-568.4 1103.94,-562.4 1109.94,-562.4 1109.94,-562.4 1208.21,-562.4 1208.21,-562.4 1214.21,-562.4 1220.21,-568.4 1220.21,-574.4 1220.21,-574.4 1220.21,-611.6 1220.21,-611.6 1220.21,-617.6 1214.21,-623.6 1208.21,-623.6"/>
<text text-anchor="middle" x="1159.08" y="-597.2" font-family="Arial" font-size="14.00">Bypass Branch</text>
<text text-anchor="middle" x="1159.08" y="-580.4" font-family="Arial" font-size="14.00">Protection</text>
</g>
<!-- attacker_has_repo_admin&#45;&gt;bypass_Branch_Protection -->
<g id="edge23" class="edge">
<title>attacker_has_repo_admin&#45;&gt;bypass_Branch_Protection</title>
<path fill="none" stroke="#2b303a" d="M1262.56,-661.37C1247.04,-651.26 1229.52,-639.86 1213.38,-629.35"/>
<polygon fill="#2b303a" stroke="#2b303a" points="1214.86,-626.14 1204.57,-623.62 1211.04,-632 1214.86,-626.14"/>
</g>
<!-- abuse_admin_rights_and_skip_Tag_Protection -->
<g id="node23" class="node">
<title>abuse_admin_rights_and_skip_Tag_Protection</title>
<path fill="#ff92cc" stroke="transparent" d="M1369.88,-632.4C1369.88,-632.4 1246.27,-632.4 1246.27,-632.4 1240.27,-632.4 1234.27,-626.4 1234.27,-620.4 1234.27,-620.4 1234.27,-565.6 1234.27,-565.6 1234.27,-559.6 1240.27,-553.6 1246.27,-553.6 1246.27,-553.6 1369.88,-553.6 1369.88,-553.6 1375.88,-553.6 1381.88,-559.6 1381.88,-565.6 1381.88,-565.6 1381.88,-620.4 1381.88,-620.4 1381.88,-626.4 1375.88,-632.4 1369.88,-632.4"/>
<text text-anchor="middle" x="1308.08" y="-605.6" font-family="Arial" font-size="14.00">Abuse admin rights</text>
<text text-anchor="middle" x="1308.08" y="-588.8" font-family="Arial" font-size="14.00">and skip Tag</text>
<text text-anchor="middle" x="1308.08" y="-572" font-family="Arial" font-size="14.00">Protection</text>
</g>
<!-- attacker_has_repo_admin&#45;&gt;abuse_admin_rights_and_skip_Tag_Protection -->
<g id="edge25" class="edge">
<title>attacker_has_repo_admin&#45;&gt;abuse_admin_rights_and_skip_Tag_Protection</title>
<path fill="none" stroke="#2b303a" d="M1308.08,-661.37C1308.08,-655.37 1308.08,-648.92 1308.08,-642.47"/>
<polygon fill="#2b303a" stroke="#2b303a" points="1311.58,-642.4 1308.08,-632.4 1304.58,-642.4 1311.58,-642.4"/>
</g>
<!-- target_branch_has_Branch_Protection&#45;&gt;repo_has_no_Tag_Protection_Rule -->
<!-- obtain_genuine_PR_approval_with_initially_good_code -->
<g id="node12" class="node">
<title>obtain_genuine_PR_approval_with_initially_good_code</title>
<path fill="#d2d5dd" stroke="transparent" d="M143.34,-516.6C143.34,-516.6 20.81,-516.6 20.81,-516.6 14.81,-516.6 8.81,-510.6 8.81,-504.6 8.81,-504.6 8.81,-449.8 8.81,-449.8 8.81,-443.8 14.81,-437.8 20.81,-437.8 20.81,-437.8 143.34,-437.8 143.34,-437.8 149.34,-437.8 155.34,-443.8 155.34,-449.8 155.34,-449.8 155.34,-504.6 155.34,-504.6 155.34,-510.6 149.34,-516.6 143.34,-516.6"/>
<text text-anchor="middle" x="82.08" y="-489.8" font-family="Arial" font-size="14.00">Obtain genuine PR</text>
<text text-anchor="middle" x="82.08" y="-473" font-family="Arial" font-size="14.00">approval with</text>
<text text-anchor="middle" x="82.08" y="-456.2" font-family="Arial" font-size="14.00">initially good code</text>
</g>
<!-- target_branch_has_Branch_Protection&#45;&gt;obtain_genuine_PR_approval_with_initially_good_code -->
<g id="edge61" class="edge">
<title>target_branch_has_Branch_Protection&#45;&gt;obtain_genuine_PR_approval_with_initially_good_code</title>
<path fill="none" stroke="#2b303a" d="M575.35,-590.57C479.47,-586.75 304.03,-573.11 163.08,-524.8 159.57,-523.6 156.05,-522.24 152.53,-520.76"/>
<polygon fill="#2b303a" stroke="#2b303a" points="153.84,-517.51 143.28,-516.6 150.97,-523.9 153.84,-517.51"/>
</g>
<!-- forge_second_valid_identity -->
<g id="node14" class="node">
<title>forge_second_valid_identity</title>
<path fill="#ff92cc" stroke="transparent" d="M294.48,-516.6C294.48,-516.6 181.67,-516.6 181.67,-516.6 175.67,-516.6 169.67,-510.6 169.67,-504.6 169.67,-504.6 169.67,-449.8 169.67,-449.8 169.67,-443.8 175.67,-437.8 181.67,-437.8 181.67,-437.8 294.48,-437.8 294.48,-437.8 300.48,-437.8 306.48,-443.8 306.48,-449.8 306.48,-449.8 306.48,-504.6 306.48,-504.6 306.48,-510.6 300.48,-516.6 294.48,-516.6"/>
<text text-anchor="middle" x="238.08" y="-489.8" font-family="Arial" font-size="14.00">Forge 2nd valid</text>
<text text-anchor="middle" x="238.08" y="-473" font-family="Arial" font-size="14.00">membership with</text>
<text text-anchor="middle" x="238.08" y="-456.2" font-family="Arial" font-size="14.00">repo write access</text>
</g>
<!-- target_branch_has_Branch_Protection&#45;&gt;forge_second_valid_identity -->
<g id="edge14" class="edge">
<title>target_branch_has_Branch_Protection&#45;&gt;forge_second_valid_identity</title>
<path fill="none" stroke="#2b303a" d="M575.45,-585.14C506.58,-576.75 399.84,-559.21 313.08,-524.8 310.18,-523.65 307.27,-522.39 304.36,-521.04"/>
<polygon fill="#2b303a" stroke="#2b303a" points="305.65,-517.77 295.14,-516.47 302.54,-524.05 305.65,-517.77"/>
</g>
<!-- abuse_Github_Action_PR_approval_permission -->
<g id="node18" class="node">
<title>abuse_Github_Action_PR_approval_permission</title>
<path fill="#ff92cc" stroke="transparent" d="M463.68,-516.6C463.68,-516.6 332.48,-516.6 332.48,-516.6 326.48,-516.6 320.48,-510.6 320.48,-504.6 320.48,-504.6 320.48,-449.8 320.48,-449.8 320.48,-443.8 326.48,-437.8 332.48,-437.8 332.48,-437.8 463.68,-437.8 463.68,-437.8 469.68,-437.8 475.68,-443.8 475.68,-449.8 475.68,-449.8 475.68,-504.6 475.68,-504.6 475.68,-510.6 469.68,-516.6 463.68,-516.6"/>
<text text-anchor="middle" x="398.08" y="-489.8" font-family="Arial" font-size="14.00">Abuse Github Action</text>
<text text-anchor="middle" x="398.08" y="-473" font-family="Arial" font-size="14.00">PR approval</text>
<text text-anchor="middle" x="398.08" y="-456.2" font-family="Arial" font-size="14.00">permission</text>
</g>
<!-- target_branch_has_Branch_Protection&#45;&gt;abuse_Github_Action_PR_approval_permission -->
<g id="edge19" class="edge">
<title>target_branch_has_Branch_Protection&#45;&gt;abuse_Github_Action_PR_approval_permission</title>
<path fill="none" stroke="#2b303a" d="M575.46,-565.17C546.22,-553.52 512.17,-539.25 482.08,-524.8 479.62,-523.62 477.14,-522.41 474.65,-521.16"/>
<polygon fill="#2b303a" stroke="#2b303a" points="476.07,-517.96 465.57,-516.54 472.89,-524.19 476.07,-517.96"/>
</g>
<!-- add_evil_commits_to_good_PR_and_self_approve -->
<g id="node25" class="node">
<title>add_evil_commits_to_good_PR_and_self_approve</title>
<path fill="#ff92cc" stroke="transparent" d="M626.92,-516.6C626.92,-516.6 501.23,-516.6 501.23,-516.6 495.23,-516.6 489.23,-510.6 489.23,-504.6 489.23,-504.6 489.23,-449.8 489.23,-449.8 489.23,-443.8 495.23,-437.8 501.23,-437.8 501.23,-437.8 626.92,-437.8 626.92,-437.8 632.92,-437.8 638.92,-443.8 638.92,-449.8 638.92,-449.8 638.92,-504.6 638.92,-504.6 638.92,-510.6 632.92,-516.6 626.92,-516.6"/>
<text text-anchor="middle" x="564.08" y="-489.8" font-family="Arial" font-size="14.00">Add evil commits to</text>
<text text-anchor="middle" x="564.08" y="-473" font-family="Arial" font-size="14.00">good PR and self</text>
<text text-anchor="middle" x="564.08" y="-456.2" font-family="Arial" font-size="14.00">approve</text>
</g>
<!-- target_branch_has_Branch_Protection&#45;&gt;add_evil_commits_to_good_PR_and_self_approve -->
<g id="edge27" class="edge">
<title>target_branch_has_Branch_Protection&#45;&gt;add_evil_commits_to_good_PR_and_self_approve</title>
<path fill="none" stroke="#2b303a" d="M624.75,-562.4C616.49,-550.94 606.85,-537.56 597.71,-524.87"/>
<polygon fill="#2b303a" stroke="#2b303a" points="600.48,-522.73 591.79,-516.67 594.8,-526.82 600.48,-522.73"/>
</g>
<!-- fool_PR_reviewer_of_huge_diff_with_evil_code -->
<g id="node26" class="node">
<title>fool_PR_reviewer_of_huge_diff_with_evil_code</title>
<path fill="#ff92cc" stroke="transparent" d="M791.47,-524.9C791.47,-524.9 664.68,-524.9 664.68,-524.9 658.68,-524.9 652.68,-518.9 652.68,-512.9 652.68,-512.9 652.68,-441.5 652.68,-441.5 652.68,-435.5 658.68,-429.5 664.68,-429.5 664.68,-429.5 791.47,-429.5 791.47,-429.5 797.47,-429.5 803.47,-435.5 803.47,-441.5 803.47,-441.5 803.47,-512.9 803.47,-512.9 803.47,-518.9 797.47,-524.9 791.47,-524.9"/>
<text text-anchor="middle" x="728.08" y="-498.2" font-family="Arial" font-size="14.00">Fool PR reviewer of</text>
<text text-anchor="middle" x="728.08" y="-481.4" font-family="Arial" font-size="14.00">huge diff with evil</text>
<text text-anchor="middle" x="728.08" y="-464.6" font-family="Arial" font-size="14.00">code</text>
<text text-anchor="middle" x="728.08" y="-447.8" font-family="Arial" font-size="14.00">(LGTM)</text>
</g>
<!-- target_branch_has_Branch_Protection&#45;&gt;fool_PR_reviewer_of_huge_diff_with_evil_code -->
<g id="edge28" class="edge">
<title>target_branch_has_Branch_Protection&#45;&gt;fool_PR_reviewer_of_huge_diff_with_evil_code</title>
<path fill="none" stroke="#2b303a" d="M667.41,-562.4C673.86,-553.45 681.16,-543.31 688.41,-533.25"/>
<polygon fill="#2b303a" stroke="#2b303a" points="691.45,-535.01 694.46,-524.85 685.77,-530.92 691.45,-535.01"/>
</g>
<!-- fool_PR_reviewer_by_adding_evil_dependency_reference -->
<g id="node27" class="node">
<title>fool_PR_reviewer_by_adding_evil_dependency_reference</title>
<path fill="#ff92cc" stroke="transparent" d="M959.08,-524.9C959.08,-524.9 829.07,-524.9 829.07,-524.9 823.07,-524.9 817.07,-518.9 817.07,-512.9 817.07,-512.9 817.07,-441.5 817.07,-441.5 817.07,-435.5 823.07,-429.5 829.07,-429.5 829.07,-429.5 959.08,-429.5 959.08,-429.5 965.08,-429.5 971.08,-435.5 971.08,-441.5 971.08,-441.5 971.08,-512.9 971.08,-512.9 971.08,-518.9 965.08,-524.9 959.08,-524.9"/>
<text text-anchor="middle" x="894.08" y="-498.2" font-family="Arial" font-size="14.00">Fool PR reviewer by</text>
<text text-anchor="middle" x="894.08" y="-481.4" font-family="Arial" font-size="14.00">adding evil</text>
<text text-anchor="middle" x="894.08" y="-464.6" font-family="Arial" font-size="14.00">dependency</text>
<text text-anchor="middle" x="894.08" y="-447.8" font-family="Arial" font-size="14.00">reference</text>
</g>
<!-- target_branch_has_Branch_Protection&#45;&gt;fool_PR_reviewer_by_adding_evil_dependency_reference -->
<g id="edge29" class="edge">
<title>target_branch_has_Branch_Protection&#45;&gt;fool_PR_reviewer_by_adding_evil_dependency_reference</title>
<path fill="none" stroke="#2b303a" d="M716.7,-565.17C743.54,-554.48 774.43,-541.58 807.88,-525.77"/>
<polygon fill="#2b303a" stroke="#2b303a" points="809.39,-528.93 816.9,-521.46 806.37,-522.61 809.39,-528.93"/>
</g>
<!-- repo_has_no_Tag_Protection_Rule&#45;&gt;target_branch_has_no_Branch_Protection -->
<!-- push_remote_release_tag -->
<g id="node22" class="node">
<title>push_remote_release_tag</title>
<path fill="#ff92cc" stroke="transparent" d="M1130.72,-507.8C1130.72,-507.8 997.44,-507.8 997.44,-507.8 991.44,-507.8 985.44,-501.8 985.44,-495.8 985.44,-495.8 985.44,-458.6 985.44,-458.6 985.44,-452.6 991.44,-446.6 997.44,-446.6 997.44,-446.6 1130.72,-446.6 1130.72,-446.6 1136.72,-446.6 1142.72,-452.6 1142.72,-458.6 1142.72,-458.6 1142.72,-495.8 1142.72,-495.8 1142.72,-501.8 1136.72,-507.8 1130.72,-507.8"/>
<text text-anchor="middle" x="1064.08" y="-481.4" font-family="Arial" font-size="14.00">Push remote release</text>
<text text-anchor="middle" x="1064.08" y="-464.6" font-family="Arial" font-size="14.00">tag</text>
</g>
<!-- repo_has_no_Tag_Protection_Rule&#45;&gt;push_remote_release_tag -->
<g id="edge24" class="edge">
<title>repo_has_no_Tag_Protection_Rule&#45;&gt;push_remote_release_tag</title>
<path fill="none" stroke="#2b303a" d="M910.92,-562.4C938.61,-547.18 972.5,-528.55 1001.36,-512.68"/>
<polygon fill="#2b303a" stroke="#2b303a" points="1003.06,-515.74 1010.14,-507.85 999.69,-509.6 1003.06,-515.74"/>
</g>
<!-- victim_has_repo_write_access -->
<g id="node8" class="node">
<title>victim_has_repo_write_access</title>
<path fill="#d2d5dd" stroke="transparent" d="M876.53,-813.2C876.53,-813.2 775.62,-813.2 775.62,-813.2 769.62,-813.2 763.62,-807.2 763.62,-801.2 763.62,-801.2 763.62,-764 763.62,-764 763.62,-758 769.62,-752 775.62,-752 775.62,-752 876.53,-752 876.53,-752 882.53,-752 888.53,-758 888.53,-764 888.53,-764 888.53,-801.2 888.53,-801.2 888.53,-807.2 882.53,-813.2 876.53,-813.2"/>
<text text-anchor="middle" x="826.08" y="-786.8" font-family="Arial" font-size="14.00">Victim has repo</text>
<text text-anchor="middle" x="826.08" y="-770" font-family="Arial" font-size="14.00">write access</text>
</g>
<!-- victim_has_repo_write_access&#45;&gt;attacker_has_repo_write_access -->
<g id="edge48" class="edge">
<title>victim_has_repo_write_access&#45;&gt;attacker_has_repo_write_access</title>
<path fill="none" stroke="#2b303a" d="M826.08,-751.6C826.08,-745.62 826.08,-739.25 826.08,-732.99"/>
<polygon fill="#2b303a" stroke="#2b303a" points="829.58,-732.66 826.08,-722.66 822.58,-732.66 829.58,-732.66"/>
</g>
<!-- victim_is_repo_admin -->
<g id="node9" class="node">
<title>victim_is_repo_admin</title>
<path fill="#d2d5dd" stroke="transparent" d="M1044.08,-804.9C1044.08,-804.9 914.07,-804.9 914.07,-804.9 908.07,-804.9 902.07,-798.9 902.07,-792.9 902.07,-792.9 902.07,-772.3 902.07,-772.3 902.07,-766.3 908.07,-760.3 914.07,-760.3 914.07,-760.3 1044.08,-760.3 1044.08,-760.3 1050.08,-760.3 1056.08,-766.3 1056.08,-772.3 1056.08,-772.3 1056.08,-792.9 1056.08,-792.9 1056.08,-798.9 1050.08,-804.9 1044.08,-804.9"/>
<text text-anchor="middle" x="979.08" y="-778.4" font-family="Arial" font-size="14.00">Victim is repo admin</text>
</g>
<!-- victim_has_repo_write_access&#45;&gt;victim_is_repo_admin -->
<!-- victim_has_repo_write_access&#45;&gt;victim_is_repo_admin -->
<!-- victim_is_repo_admin&#45;&gt;attacker_has_repo_admin -->
<g id="edge50" class="edge">
<title>victim_is_repo_admin&#45;&gt;attacker_has_repo_admin</title>
<path fill="none" stroke="#2b303a" d="M1036.65,-760.27C1045.45,-757.28 1054.47,-754.35 1063.08,-751.8 1118.1,-735.49 1181.08,-720.45 1229.41,-709.66"/>
<polygon fill="#2b303a" stroke="#2b303a" points="1230.18,-713.08 1239.18,-707.5 1228.66,-706.25 1230.18,-713.08"/>
</g>
<!-- victim_is_GitHub_App_Manager -->
<g id="node10" class="node">
<title>victim_is_GitHub_App_Manager</title>
<path fill="#d2d5dd" stroke="transparent" d="M1214.42,-813.2C1214.42,-813.2 1081.74,-813.2 1081.74,-813.2 1075.74,-813.2 1069.74,-807.2 1069.74,-801.2 1069.74,-801.2 1069.74,-764 1069.74,-764 1069.74,-758 1075.74,-752 1081.74,-752 1081.74,-752 1214.42,-752 1214.42,-752 1220.42,-752 1226.42,-758 1226.42,-764 1226.42,-764 1226.42,-801.2 1226.42,-801.2 1226.42,-807.2 1220.42,-813.2 1214.42,-813.2"/>
<text text-anchor="middle" x="1148.08" y="-786.8" font-family="Arial" font-size="14.00">Victim is GitHub App</text>
<text text-anchor="middle" x="1148.08" y="-770" font-family="Arial" font-size="14.00">Manager</text>
</g>
<!-- victim_is_repo_admin&#45;&gt;victim_is_GitHub_App_Manager -->
<!-- victim_is_org_owner -->
<g id="node11" class="node">
<title>victim_is_org_owner</title>
<path fill="#d2d5dd" stroke="transparent" d="M1374.3,-804.9C1374.3,-804.9 1251.86,-804.9 1251.86,-804.9 1245.86,-804.9 1239.86,-798.9 1239.86,-792.9 1239.86,-792.9 1239.86,-772.3 1239.86,-772.3 1239.86,-766.3 1245.86,-760.3 1251.86,-760.3 1251.86,-760.3 1374.3,-760.3 1374.3,-760.3 1380.3,-760.3 1386.3,-766.3 1386.3,-772.3 1386.3,-772.3 1386.3,-792.9 1386.3,-792.9 1386.3,-798.9 1380.3,-804.9 1374.3,-804.9"/>
<text text-anchor="middle" x="1313.08" y="-778.4" font-family="Arial" font-size="14.00">Victim is org owner</text>
</g>
<!-- victim_is_repo_admin&#45;&gt;victim_is_org_owner -->
<!-- victim_is_GitHub_App_Manager&#45;&gt;victim_is_org_owner -->
<!-- victim_is_GitHub_App_Manager&#45;&gt;compromise_GitHub_App -->
<g id="edge16" class="edge">
<title>victim_is_GitHub_App_Manager&#45;&gt;compromise_GitHub_App</title>
<path fill="none" stroke="#7692ff" stroke-width="3" stroke-dasharray="1,5" d="M1185.51,-813.5C1193.46,-821.92 1200.75,-831.73 1205.08,-842.4 1218.16,-874.69 1226.93,-893.66 1205.08,-920.8 1167.13,-967.92 1129.53,-930.85 1072.08,-949.8 1066.08,-951.78 1059.93,-954.04 1053.82,-956.46"/>
<polygon fill="#7692ff" stroke="#7692ff" stroke-width="3" points="1053.14,-954.84 1049.16,-958.33 1054.45,-958.09 1053.14,-954.84"/>
</g>
<!-- submit_malicious_code -->
<g id="node42" class="node">
<title>submit_malicious_code</title>
<path fill="#5f00c2" stroke="transparent" d="M782.85,-69.8C782.85,-69.8 673.3,-69.8 673.3,-69.8 667.3,-69.8 661.3,-63.8 661.3,-57.8 661.3,-57.8 661.3,-20.6 661.3,-20.6 661.3,-14.6 667.3,-8.6 673.3,-8.6 673.3,-8.6 782.85,-8.6 782.85,-8.6 788.85,-8.6 794.85,-14.6 794.85,-20.6 794.85,-20.6 794.85,-57.8 794.85,-57.8 794.85,-63.8 788.85,-69.8 782.85,-69.8"/>
<text text-anchor="middle" x="728.08" y="-43.4" font-family="Arial" font-size="14.00" fill="#ffffff">Submit malicious</text>
<text text-anchor="middle" x="728.08" y="-26.6" font-family="Arial" font-size="14.00" fill="#ffffff">code</text>
</g>
<!-- victim_is_GitHub_App_Manager&#45;&gt;submit_malicious_code -->
<!-- rewrite_code_history -->
<g id="node43" class="node">
<title>rewrite_code_history</title>
<path fill="#5f00c2" stroke="transparent" d="M1319.75,-78.6C1319.75,-78.6 1234.4,-78.6 1234.4,-78.6 1228.4,-78.6 1222.4,-72.6 1222.4,-66.6 1222.4,-66.6 1222.4,-11.8 1222.4,-11.8 1222.4,-5.8 1228.4,0.2 1234.4,0.2 1234.4,0.2 1319.75,0.2 1319.75,0.2 1325.75,0.2 1331.75,-5.8 1331.75,-11.8 1331.75,-11.8 1331.75,-66.6 1331.75,-66.6 1331.75,-72.6 1325.75,-78.6 1319.75,-78.6"/>
<text text-anchor="middle" x="1277.08" y="-51.8" font-family="Arial" font-size="14.00" fill="#ffffff">Rewrite code</text>
<text text-anchor="middle" x="1277.08" y="-35" font-family="Arial" font-size="14.00" fill="#ffffff">history</text>
<text text-anchor="middle" x="1277.08" y="-18.2" font-family="Arial" font-size="14.00" fill="#ffffff">(force push)</text>
</g>
<!-- victim_is_GitHub_App_Manager&#45;&gt;rewrite_code_history -->
<!-- delete_source_code_branch -->
<g id="node44" class="node">
<title>delete_source_code_branch</title>
<path fill="#5f00c2" stroke="transparent" d="M1511.17,-69.8C1511.17,-69.8 1386.99,-69.8 1386.99,-69.8 1380.99,-69.8 1374.99,-63.8 1374.99,-57.8 1374.99,-57.8 1374.99,-20.6 1374.99,-20.6 1374.99,-14.6 1380.99,-8.6 1386.99,-8.6 1386.99,-8.6 1511.17,-8.6 1511.17,-8.6 1517.17,-8.6 1523.17,-14.6 1523.17,-20.6 1523.17,-20.6 1523.17,-57.8 1523.17,-57.8 1523.17,-63.8 1517.17,-69.8 1511.17,-69.8"/>
<text text-anchor="middle" x="1449.08" y="-43.4" font-family="Arial" font-size="14.00" fill="#ffffff">Delete source code</text>
<text text-anchor="middle" x="1449.08" y="-26.6" font-family="Arial" font-size="14.00" fill="#ffffff">branch</text>
</g>
<!-- victim_is_GitHub_App_Manager&#45;&gt;delete_source_code_branch -->
<!-- modify_release_tag_to_point_vulnerable_commit -->
<g id="node45" class="node">
<title>modify_release_tag_to_point_vulnerable_commit</title>
<path fill="#5f00c2" stroke="transparent" d="M1173.45,-78.6C1173.45,-78.6 1054.71,-78.6 1054.71,-78.6 1048.71,-78.6 1042.71,-72.6 1042.71,-66.6 1042.71,-66.6 1042.71,-11.8 1042.71,-11.8 1042.71,-5.8 1048.71,0.2 1054.71,0.2 1054.71,0.2 1173.45,0.2 1173.45,0.2 1179.45,0.2 1185.45,-5.8 1185.45,-11.8 1185.45,-11.8 1185.45,-66.6 1185.45,-66.6 1185.45,-72.6 1179.45,-78.6 1173.45,-78.6"/>
<text text-anchor="middle" x="1114.08" y="-51.8" font-family="Arial" font-size="14.00" fill="#ffffff">Modify release tag</text>
<text text-anchor="middle" x="1114.08" y="-35" font-family="Arial" font-size="14.00" fill="#ffffff">to point vulnerable</text>
<text text-anchor="middle" x="1114.08" y="-18.2" font-family="Arial" font-size="14.00" fill="#ffffff">commit</text>
</g>
<!-- victim_is_GitHub_App_Manager&#45;&gt;modify_release_tag_to_point_vulnerable_commit -->
<!-- victim_is_org_owner&#45;&gt;attacker_has_repo_admin -->
<g id="edge51" class="edge">
<title>victim_is_org_owner&#45;&gt;attacker_has_repo_admin</title>
<path fill="none" stroke="#2b303a" d="M1311.87,-760.15C1311.4,-751.88 1310.85,-742.14 1310.32,-732.68"/>
<polygon fill="#2b303a" stroke="#2b303a" points="1313.81,-732.4 1309.75,-722.62 1306.82,-732.8 1313.81,-732.4"/>
</g>
<!-- obtain_genuine_PR_approval_with_initially_good_code&#45;&gt;forge_second_valid_identity -->
<!-- abuse_PR_approval_to_sneak_in_bad_code -->
<g id="node20" class="node">
<title>abuse_PR_approval_to_sneak_in_bad_code</title>
<path fill="#ff92cc" stroke="transparent" d="M152.23,-383.6C152.23,-383.6 11.92,-383.6 11.92,-383.6 5.92,-383.6 -0.08,-377.6 -0.08,-371.6 -0.08,-371.6 -0.08,-334.4 -0.08,-334.4 -0.08,-328.4 5.92,-322.4 11.92,-322.4 11.92,-322.4 152.23,-322.4 152.23,-322.4 158.23,-322.4 164.23,-328.4 164.23,-334.4 164.23,-334.4 164.23,-371.6 164.23,-371.6 164.23,-377.6 158.23,-383.6 152.23,-383.6"/>
<text text-anchor="middle" x="82.08" y="-357.2" font-family="Arial" font-size="14.00">Abuse PR approval to</text>
<text text-anchor="middle" x="82.08" y="-340.4" font-family="Arial" font-size="14.00">sneak in bad code</text>
</g>
<!-- obtain_genuine_PR_approval_with_initially_good_code&#45;&gt;abuse_PR_approval_to_sneak_in_bad_code -->
<g id="edge22" class="edge">
<title>obtain_genuine_PR_approval_with_initially_good_code&#45;&gt;abuse_PR_approval_to_sneak_in_bad_code</title>
<path fill="none" stroke="#2b303a" d="M82.08,-437.87C82.08,-423.93 82.08,-408.14 82.08,-394.05"/>
<polygon fill="#2b303a" stroke="#2b303a" points="85.58,-393.66 82.08,-383.66 78.58,-393.66 85.58,-393.66"/>
</g>
<!-- setup_robust_branch_protection -->
<g id="node36" class="node">
<title>setup_robust_branch_protection</title>
<path fill="#b9d6f2" stroke="transparent" d="M1529.12,-168.8C1529.12,-168.8 1399.03,-168.8 1399.03,-168.8 1393.03,-168.8 1387.03,-162.8 1387.03,-156.8 1387.03,-156.8 1387.03,-119.6 1387.03,-119.6 1387.03,-113.6 1393.03,-107.6 1399.03,-107.6 1399.03,-107.6 1529.12,-107.6 1529.12,-107.6 1535.12,-107.6 1541.12,-113.6 1541.12,-119.6 1541.12,-119.6 1541.12,-156.8 1541.12,-156.8 1541.12,-162.8 1535.12,-168.8 1529.12,-168.8"/>
<text text-anchor="middle" x="1464.08" y="-142.4" font-family="Arial" font-size="14.00">Setup robust branch</text>
<text text-anchor="middle" x="1464.08" y="-125.6" font-family="Arial" font-size="14.00">protection</text>
</g>
<!-- target_branch_has_no_Branch_Protection&#45;&gt;setup_robust_branch_protection -->
<g id="edge38" class="edge">
<title>target_branch_has_no_Branch_Protection&#45;&gt;setup_robust_branch_protection</title>
<path fill="none" stroke="#2b303a" d="M1504.26,-562.29C1496.76,-483.37 1476.35,-268.43 1467.86,-179.03"/>
<polygon fill="#2b303a" stroke="#2b303a" points="1471.34,-178.64 1466.91,-169.02 1464.37,-179.3 1471.34,-178.64"/>
</g>
<!-- forge_second_valid_identity&#45;&gt;abuse_Github_Action_PR_approval_permission -->
<!-- allow_one_membership_per_identity -->
<g id="node29" class="node">
<title>allow_one_membership_per_identity</title>
<path fill="#b9d6f2" stroke="transparent" d="M295.69,-392.4C295.69,-392.4 190.46,-392.4 190.46,-392.4 184.46,-392.4 178.46,-386.4 178.46,-380.4 178.46,-380.4 178.46,-325.6 178.46,-325.6 178.46,-319.6 184.46,-313.6 190.46,-313.6 190.46,-313.6 295.69,-313.6 295.69,-313.6 301.69,-313.6 307.69,-319.6 307.69,-325.6 307.69,-325.6 307.69,-380.4 307.69,-380.4 307.69,-386.4 301.69,-392.4 295.69,-392.4"/>
<text text-anchor="middle" x="243.08" y="-365.6" font-family="Arial" font-size="14.00">Allow one</text>
<text text-anchor="middle" x="243.08" y="-348.8" font-family="Arial" font-size="14.00">membership per</text>
<text text-anchor="middle" x="243.08" y="-332" font-family="Arial" font-size="14.00">identity</text>
</g>
<!-- forge_second_valid_identity&#45;&gt;allow_one_membership_per_identity -->
<g id="edge31" class="edge">
<title>forge_second_valid_identity&#45;&gt;allow_one_membership_per_identity</title>
<path fill="none" stroke="#2b303a" d="M239.64,-437.87C240.1,-426.72 240.61,-414.39 241.08,-402.69"/>
<polygon fill="#2b303a" stroke="#2b303a" points="244.58,-402.75 241.5,-392.61 237.59,-402.46 244.58,-402.75"/>
</g>
<!-- compromise_GitHub_App&#45;&gt;compromise_org_member_account -->
<!-- only_install_necessary_and_trusted_GitHub_App -->
<g id="node40" class="node">
<title>only_install_necessary_and_trusted_GitHub_App</title>
<path fill="#b9d6f2" stroke="transparent" d="M1043.61,-921C1043.61,-921 920.54,-921 920.54,-921 914.54,-921 908.54,-915 908.54,-909 908.54,-909 908.54,-854.2 908.54,-854.2 908.54,-848.2 914.54,-842.2 920.54,-842.2 920.54,-842.2 1043.61,-842.2 1043.61,-842.2 1049.61,-842.2 1055.61,-848.2 1055.61,-854.2 1055.61,-854.2 1055.61,-909 1055.61,-909 1055.61,-915 1049.61,-921 1043.61,-921"/>
<text text-anchor="middle" x="982.08" y="-894.2" font-family="Arial" font-size="14.00">Only install</text>
<text text-anchor="middle" x="982.08" y="-877.4" font-family="Arial" font-size="14.00">necessary and</text>
<text text-anchor="middle" x="982.08" y="-860.6" font-family="Arial" font-size="14.00">trusted GitHub App</text>
</g>
<!-- compromise_GitHub_App&#45;&gt;only_install_necessary_and_trusted_GitHub_App -->
<g id="edge43" class="edge">
<title>compromise_GitHub_App&#45;&gt;only_install_necessary_and_trusted_GitHub_App</title>
<path fill="none" stroke="#2b303a" d="M985.67,-958.36C985.27,-949.95 984.83,-940.57 984.39,-931.36"/>
<polygon fill="#2b303a" stroke="#2b303a" points="987.87,-930.9 983.9,-921.08 980.88,-931.23 987.87,-930.9"/>
</g>
<!-- compromise_org_member_account&#45;&gt;steal_SSH_key_with_repo_write_access -->
<!-- enforce_2FA -->
<g id="node41" class="node">
<title>enforce_2FA</title>
<path fill="#b9d6f2" stroke="transparent" d="M1185.87,-903.9C1185.87,-903.9 1104.28,-903.9 1104.28,-903.9 1098.28,-903.9 1092.28,-897.9 1092.28,-891.9 1092.28,-891.9 1092.28,-871.3 1092.28,-871.3 1092.28,-865.3 1098.28,-859.3 1104.28,-859.3 1104.28,-859.3 1185.87,-859.3 1185.87,-859.3 1191.87,-859.3 1197.87,-865.3 1197.87,-871.3 1197.87,-871.3 1197.87,-891.9 1197.87,-891.9 1197.87,-897.9 1191.87,-903.9 1185.87,-903.9"/>
<text text-anchor="middle" x="1145.08" y="-877.4" font-family="Arial" font-size="14.00">Enforce 2FA</text>
</g>
<!-- compromise_org_member_account&#45;&gt;enforce_2FA -->
<g id="edge44" class="edge">
<title>compromise_org_member_account&#45;&gt;enforce_2FA</title>
<path fill="none" stroke="#2b303a" d="M1145.08,-958.36C1145.08,-944.58 1145.08,-928.18 1145.08,-914.17"/>
<polygon fill="#2b303a" stroke="#2b303a" points="1148.58,-914 1145.08,-904 1141.58,-914 1148.58,-914"/>
</g>
<!-- encrypt_SSH_private_key -->
<g id="node28" class="node">
<title>encrypt_SSH_private_key</title>
<path fill="#b9d6f2" stroke="transparent" d="M1572.1,-813.2C1572.1,-813.2 1442.06,-813.2 1442.06,-813.2 1436.06,-813.2 1430.06,-807.2 1430.06,-801.2 1430.06,-801.2 1430.06,-764 1430.06,-764 1430.06,-758 1436.06,-752 1442.06,-752 1442.06,-752 1572.1,-752 1572.1,-752 1578.1,-752 1584.1,-758 1584.1,-764 1584.1,-764 1584.1,-801.2 1584.1,-801.2 1584.1,-807.2 1578.1,-813.2 1572.1,-813.2"/>
<text text-anchor="middle" x="1507.08" y="-786.8" font-family="Arial" font-size="14.00">Encrypt SSH private</text>
<text text-anchor="middle" x="1507.08" y="-770" font-family="Arial" font-size="14.00">key</text>
</g>
<!-- steal_SSH_key_with_repo_write_access&#45;&gt;encrypt_SSH_private_key -->
<g id="edge30" class="edge">
<title>steal_SSH_key_with_repo_write_access&#45;&gt;encrypt_SSH_private_key</title>
<path fill="none" stroke="#2b303a" d="M1341.45,-949.55C1378.3,-912.63 1433.6,-857.22 1470.01,-820.74"/>
<polygon fill="#2b303a" stroke="#2b303a" points="1472.89,-822.81 1477.48,-813.26 1467.94,-817.86 1472.89,-822.81"/>
</g>
<!-- abuse_Github_Action_PR_approval_permission&#45;&gt;add_evil_commits_to_good_PR_and_self_approve -->
<!-- disable_GitHub_Actions_PR_approval_permission -->
<g id="node32" class="node">
<title>disable_GitHub_Actions_PR_approval_permission</title>
<path fill="#b9d6f2" stroke="transparent" d="M464.38,-392.4C464.38,-392.4 333.77,-392.4 333.77,-392.4 327.77,-392.4 321.77,-386.4 321.77,-380.4 321.77,-380.4 321.77,-325.6 321.77,-325.6 321.77,-319.6 327.77,-313.6 333.77,-313.6 333.77,-313.6 464.38,-313.6 464.38,-313.6 470.38,-313.6 476.38,-319.6 476.38,-325.6 476.38,-325.6 476.38,-380.4 476.38,-380.4 476.38,-386.4 470.38,-392.4 464.38,-392.4"/>
<text text-anchor="middle" x="399.08" y="-365.6" font-family="Arial" font-size="14.00">Disable GitHub</text>
<text text-anchor="middle" x="399.08" y="-348.8" font-family="Arial" font-size="14.00">Actions PR approval</text>
<text text-anchor="middle" x="399.08" y="-332" font-family="Arial" font-size="14.00">permission</text>
</g>
<!-- abuse_Github_Action_PR_approval_permission&#45;&gt;disable_GitHub_Actions_PR_approval_permission -->
<g id="edge34" class="edge">
<title>abuse_Github_Action_PR_approval_permission&#45;&gt;disable_GitHub_Actions_PR_approval_permission</title>
<path fill="none" stroke="#2b303a" d="M398.39,-437.87C398.48,-426.72 398.58,-414.39 398.68,-402.69"/>
<polygon fill="#2b303a" stroke="#2b303a" points="402.18,-402.64 398.76,-392.61 395.18,-402.58 402.18,-402.64"/>
</g>
<!-- get_enough_fake_PR_approvals -->
<g id="node19" class="node">
<title>get_enough_fake_PR_approvals</title>
<path fill="#ff92cc" stroke="transparent" d="M464.41,-267.8C464.41,-267.8 333.75,-267.8 333.75,-267.8 327.75,-267.8 321.75,-261.8 321.75,-255.8 321.75,-255.8 321.75,-218.6 321.75,-218.6 321.75,-212.6 327.75,-206.6 333.75,-206.6 333.75,-206.6 464.41,-206.6 464.41,-206.6 470.41,-206.6 476.41,-212.6 476.41,-218.6 476.41,-218.6 476.41,-255.8 476.41,-255.8 476.41,-261.8 470.41,-267.8 464.41,-267.8"/>
<text text-anchor="middle" x="399.08" y="-241.4" font-family="Arial" font-size="14.00">Get enough fake PR</text>
<text text-anchor="middle" x="399.08" y="-224.6" font-family="Arial" font-size="14.00">approvals</text>
</g>
<!-- require_two_person_review -->
<g id="node33" class="node">
<title>require_two_person_review</title>
<path fill="#b9d6f2" stroke="transparent" d="M529.2,-168.8C529.2,-168.8 402.95,-168.8 402.95,-168.8 396.95,-168.8 390.95,-162.8 390.95,-156.8 390.95,-156.8 390.95,-119.6 390.95,-119.6 390.95,-113.6 396.95,-107.6 402.95,-107.6 402.95,-107.6 529.2,-107.6 529.2,-107.6 535.2,-107.6 541.2,-113.6 541.2,-119.6 541.2,-119.6 541.2,-156.8 541.2,-156.8 541.2,-162.8 535.2,-168.8 529.2,-168.8"/>
<text text-anchor="middle" x="466.08" y="-142.4" font-family="Arial" font-size="14.00">Require two&#45;person</text>
<text text-anchor="middle" x="466.08" y="-125.6" font-family="Arial" font-size="14.00">review</text>
</g>
<!-- get_enough_fake_PR_approvals&#45;&gt;require_two_person_review -->
<g id="edge35" class="edge">
<title>get_enough_fake_PR_approvals&#45;&gt;require_two_person_review</title>
<path fill="none" stroke="#2b303a" d="M419.54,-206.57C425.91,-197.35 433.03,-187.05 439.74,-177.33"/>
<polygon fill="#2b303a" stroke="#2b303a" points="442.7,-179.2 445.5,-168.98 436.94,-175.22 442.7,-179.2"/>
</g>
<!-- dismiss_stale_PR_approvals -->
<g id="node30" class="node">
<title>dismiss_stale_PR_approvals</title>
<path fill="#b9d6f2" stroke="transparent" d="M216.84,-267.8C216.84,-267.8 107.31,-267.8 107.31,-267.8 101.31,-267.8 95.31,-261.8 95.31,-255.8 95.31,-255.8 95.31,-218.6 95.31,-218.6 95.31,-212.6 101.31,-206.6 107.31,-206.6 107.31,-206.6 216.84,-206.6 216.84,-206.6 222.84,-206.6 228.84,-212.6 228.84,-218.6 228.84,-218.6 228.84,-255.8 228.84,-255.8 228.84,-261.8 222.84,-267.8 216.84,-267.8"/>
<text text-anchor="middle" x="162.08" y="-241.4" font-family="Arial" font-size="14.00">Dismiss stale PR</text>
<text text-anchor="middle" x="162.08" y="-224.6" font-family="Arial" font-size="14.00">approvals</text>
</g>
<!-- abuse_PR_approval_to_sneak_in_bad_code&#45;&gt;dismiss_stale_PR_approvals -->
<g id="edge32" class="edge">
<title>abuse_PR_approval_to_sneak_in_bad_code&#45;&gt;dismiss_stale_PR_approvals</title>
<path fill="none" stroke="#2b303a" d="M102.89,-322.4C112.72,-308.41 124.57,-291.55 135.08,-276.6"/>
<polygon fill="#2b303a" stroke="#2b303a" points="138.2,-278.24 141.09,-268.05 132.48,-274.22 138.2,-278.24"/>
</g>
<!-- bypass_Branch_Protection&#45;&gt;abuse_admin_rights_and_skip_Tag_Protection -->
<!-- enforce_branch_protection_for_admins -->
<g id="node35" class="node">
<title>enforce_branch_protection_for_admins</title>
<path fill="#b9d6f2" stroke="transparent" d="M1327.49,-516.6C1327.49,-516.6 1228.66,-516.6 1228.66,-516.6 1222.66,-516.6 1216.66,-510.6 1216.66,-504.6 1216.66,-504.6 1216.66,-449.8 1216.66,-449.8 1216.66,-443.8 1222.66,-437.8 1228.66,-437.8 1228.66,-437.8 1327.49,-437.8 1327.49,-437.8 1333.49,-437.8 1339.49,-443.8 1339.49,-449.8 1339.49,-449.8 1339.49,-504.6 1339.49,-504.6 1339.49,-510.6 1333.49,-516.6 1327.49,-516.6"/>
<text text-anchor="middle" x="1278.08" y="-489.8" font-family="Arial" font-size="14.00">Enforce branch</text>
<text text-anchor="middle" x="1278.08" y="-473" font-family="Arial" font-size="14.00">protection for</text>
<text text-anchor="middle" x="1278.08" y="-456.2" font-family="Arial" font-size="14.00">admins</text>
</g>
<!-- bypass_Branch_Protection&#45;&gt;enforce_branch_protection_for_admins -->
<g id="edge37" class="edge">
<title>bypass_Branch_Protection&#45;&gt;enforce_branch_protection_for_admins</title>
<path fill="none" stroke="#2b303a" d="M1190.03,-562.4C1202.35,-550.62 1216.81,-536.79 1230.41,-523.79"/>
<polygon fill="#2b303a" stroke="#2b303a" points="1233.05,-526.11 1237.85,-516.67 1228.21,-521.05 1233.05,-526.11"/>
</g>
<!-- setup_Tag_Protection_Rule -->
<g id="node34" class="node">
<title>setup_Tag_Protection_Rule</title>
<path fill="#b9d6f2" stroke="transparent" d="M1114.76,-168.8C1114.76,-168.8 1015.39,-168.8 1015.39,-168.8 1009.39,-168.8 1003.39,-162.8 1003.39,-156.8 1003.39,-156.8 1003.39,-119.6 1003.39,-119.6 1003.39,-113.6 1009.39,-107.6 1015.39,-107.6 1015.39,-107.6 1114.76,-107.6 1114.76,-107.6 1120.76,-107.6 1126.76,-113.6 1126.76,-119.6 1126.76,-119.6 1126.76,-156.8 1126.76,-156.8 1126.76,-162.8 1120.76,-168.8 1114.76,-168.8"/>
<text text-anchor="middle" x="1065.08" y="-142.4" font-family="Arial" font-size="14.00">Setup Tag</text>
<text text-anchor="middle" x="1065.08" y="-125.6" font-family="Arial" font-size="14.00">Protection Rule</text>
</g>
<!-- push_remote_release_tag&#45;&gt;setup_Tag_Protection_Rule -->
<g id="edge36" class="edge">
<title>push_remote_release_tag&#45;&gt;setup_Tag_Protection_Rule</title>
<path fill="none" stroke="#2b303a" d="M1064.16,-446.59C1064.34,-386.06 1064.75,-248.11 1064.96,-179.5"/>
<polygon fill="#2b303a" stroke="#2b303a" points="1068.46,-179.12 1064.99,-169.11 1061.46,-179.1 1068.46,-179.12"/>
</g>
<!-- manage_org_and_repo_settings_as_code -->
<g id="node37" class="node">
<title>manage_org_and_repo_settings_as_code</title>
<path fill="#b9d6f2" stroke="transparent" d="M1330.9,-168.8C1330.9,-168.8 1193.25,-168.8 1193.25,-168.8 1187.25,-168.8 1181.25,-162.8 1181.25,-156.8 1181.25,-156.8 1181.25,-119.6 1181.25,-119.6 1181.25,-113.6 1187.25,-107.6 1193.25,-107.6 1193.25,-107.6 1330.9,-107.6 1330.9,-107.6 1336.9,-107.6 1342.9,-113.6 1342.9,-119.6 1342.9,-119.6 1342.9,-156.8 1342.9,-156.8 1342.9,-162.8 1336.9,-168.8 1330.9,-168.8"/>
<text text-anchor="middle" x="1262.08" y="-142.4" font-family="Arial" font-size="14.00">Manage org and repo</text>
<text text-anchor="middle" x="1262.08" y="-125.6" font-family="Arial" font-size="14.00">settings as code</text>
</g>
<!-- abuse_admin_rights_and_skip_Tag_Protection&#45;&gt;manage_org_and_repo_settings_as_code -->
<g id="edge40" class="edge">
<title>abuse_admin_rights_and_skip_Tag_Protection&#45;&gt;manage_org_and_repo_settings_as_code</title>
<path fill="none" stroke="#2b303a" d="M1334.17,-553.66C1339.08,-544.58 1343.48,-534.65 1346.08,-524.8 1349.61,-511.38 1348.01,-317.61 1345.08,-305.4 1333.86,-258.67 1307.58,-210.04 1287.58,-177.55"/>
<polygon fill="#2b303a" stroke="#2b303a" points="1290.39,-175.45 1282.12,-168.83 1284.46,-179.16 1290.39,-175.45"/>
</g>
<!-- abuse_admin_rights_and_disable_Branch_Protection_admin_enforcement -->
<g id="node24" class="node">
<title>abuse_admin_rights_and_disable_Branch_Protection_admin_enforcement</title>
<path fill="#ff92cc" stroke="transparent" d="M1325.89,-400.7C1325.89,-400.7 1202.26,-400.7 1202.26,-400.7 1196.26,-400.7 1190.26,-394.7 1190.26,-388.7 1190.26,-388.7 1190.26,-317.3 1190.26,-317.3 1190.26,-311.3 1196.26,-305.3 1202.26,-305.3 1202.26,-305.3 1325.89,-305.3 1325.89,-305.3 1331.89,-305.3 1337.89,-311.3 1337.89,-317.3 1337.89,-317.3 1337.89,-388.7 1337.89,-388.7 1337.89,-394.7 1331.89,-400.7 1325.89,-400.7"/>
<text text-anchor="middle" x="1264.08" y="-374" font-family="Arial" font-size="14.00">Abuse admin rights</text>
<text text-anchor="middle" x="1264.08" y="-357.2" font-family="Arial" font-size="14.00">and disable Branch</text>
<text text-anchor="middle" x="1264.08" y="-340.4" font-family="Arial" font-size="14.00">Protection admin</text>
<text text-anchor="middle" x="1264.08" y="-323.6" font-family="Arial" font-size="14.00">enforcement</text>
</g>
<!-- abuse_admin_rights_and_disable_Branch_Protection_admin_enforcement&#45;&gt;manage_org_and_repo_settings_as_code -->
<g id="edge39" class="edge">
<title>abuse_admin_rights_and_disable_Branch_Protection_admin_enforcement&#45;&gt;manage_org_and_repo_settings_as_code</title>
<path fill="none" stroke="#2b303a" d="M1263.64,-305.3C1263.28,-267.55 1262.79,-214.98 1262.45,-179.16"/>
<polygon fill="#2b303a" stroke="#2b303a" points="1265.95,-179.04 1262.36,-169.07 1258.95,-179.1 1265.95,-179.04"/>
</g>
<!-- add_evil_commits_to_good_PR_and_self_approve&#45;&gt;fool_PR_reviewer_of_huge_diff_with_evil_code -->
<!-- require_Last_Push_Approval_branch_protection -->
<g id="node31" class="node">
<title>require_Last_Push_Approval_branch_protection</title>
<path fill="#b9d6f2" stroke="transparent" d="M623.72,-276.6C623.72,-276.6 504.43,-276.6 504.43,-276.6 498.43,-276.6 492.43,-270.6 492.43,-264.6 492.43,-264.6 492.43,-209.8 492.43,-209.8 492.43,-203.8 498.43,-197.8 504.43,-197.8 504.43,-197.8 623.72,-197.8 623.72,-197.8 629.72,-197.8 635.72,-203.8 635.72,-209.8 635.72,-209.8 635.72,-264.6 635.72,-264.6 635.72,-270.6 629.72,-276.6 623.72,-276.6"/>
<text text-anchor="middle" x="564.08" y="-249.8" font-family="Arial" font-size="14.00">Require Last Push</text>
<text text-anchor="middle" x="564.08" y="-233" font-family="Arial" font-size="14.00">Approval branch</text>
<text text-anchor="middle" x="564.08" y="-216.2" font-family="Arial" font-size="14.00">protection</text>
</g>
<!-- add_evil_commits_to_good_PR_and_self_approve&#45;&gt;require_Last_Push_Approval_branch_protection -->
<g id="edge33" class="edge">
<title>add_evil_commits_to_good_PR_and_self_approve&#45;&gt;require_Last_Push_Approval_branch_protection</title>
<path fill="none" stroke="#2b303a" d="M564.08,-437.96C564.08,-396.88 564.08,-331.48 564.08,-286.79"/>
<polygon fill="#2b303a" stroke="#2b303a" points="567.58,-286.74 564.08,-276.74 560.58,-286.74 567.58,-286.74"/>
</g>
<!-- fool_PR_reviewer_of_huge_diff_with_evil_code&#45;&gt;fool_PR_reviewer_by_adding_evil_dependency_reference -->
<!-- only_accept_PR_with_small_changes_and_review_carefully -->
<g id="node38" class="node">
<title>only_accept_PR_with_small_changes_and_review_carefully</title>
<path fill="#b9d6f2" stroke="transparent" d="M793.1,-276.6C793.1,-276.6 663.06,-276.6 663.06,-276.6 657.06,-276.6 651.06,-270.6 651.06,-264.6 651.06,-264.6 651.06,-209.8 651.06,-209.8 651.06,-203.8 657.06,-197.8 663.06,-197.8 663.06,-197.8 793.1,-197.8 793.1,-197.8 799.1,-197.8 805.1,-203.8 805.1,-209.8 805.1,-209.8 805.1,-264.6 805.1,-264.6 805.1,-270.6 799.1,-276.6 793.1,-276.6"/>
<text text-anchor="middle" x="728.08" y="-249.8" font-family="Arial" font-size="14.00">Only accept PR with</text>
<text text-anchor="middle" x="728.08" y="-233" font-family="Arial" font-size="14.00">small changes and</text>
<text text-anchor="middle" x="728.08" y="-216.2" font-family="Arial" font-size="14.00">review carefully</text>
</g>
<!-- fool_PR_reviewer_of_huge_diff_with_evil_code&#45;&gt;only_accept_PR_with_small_changes_and_review_carefully -->
<g id="edge41" class="edge">
<title>fool_PR_reviewer_of_huge_diff_with_evil_code&#45;&gt;only_accept_PR_with_small_changes_and_review_carefully</title>
<path fill="none" stroke="#2b303a" d="M728.08,-429.46C728.08,-388.28 728.08,-328.51 728.08,-286.78"/>
<polygon fill="#2b303a" stroke="#2b303a" points="731.58,-286.59 728.08,-276.59 724.58,-286.59 731.58,-286.59"/>
</g>
<!-- only_accept_trusted_dependencies -->
<g id="node39" class="node">
<title>only_accept_trusted_dependencies</title>
<path fill="#b9d6f2" stroke="transparent" d="M902.17,-168.8C902.17,-168.8 777.99,-168.8 777.99,-168.8 771.99,-168.8 765.99,-162.8 765.99,-156.8 765.99,-156.8 765.99,-119.6 765.99,-119.6 765.99,-113.6 771.99,-107.6 777.99,-107.6 777.99,-107.6 902.17,-107.6 902.17,-107.6 908.17,-107.6 914.17,-113.6 914.17,-119.6 914.17,-119.6 914.17,-156.8 914.17,-156.8 914.17,-162.8 908.17,-168.8 902.17,-168.8"/>
<text text-anchor="middle" x="840.08" y="-142.4" font-family="Arial" font-size="14.00">Only accept trusted</text>
<text text-anchor="middle" x="840.08" y="-125.6" font-family="Arial" font-size="14.00">dependencies</text>
</g>
<!-- fool_PR_reviewer_by_adding_evil_dependency_reference&#45;&gt;only_accept_trusted_dependencies -->
<g id="edge42" class="edge">
<title>fool_PR_reviewer_by_adding_evil_dependency_reference&#45;&gt;only_accept_trusted_dependencies</title>
<path fill="none" stroke="#2b303a" d="M886.57,-429.34C875.89,-362.7 856.5,-241.7 846.47,-179.1"/>
<polygon fill="#2b303a" stroke="#2b303a" points="849.92,-178.53 844.88,-169.21 843.01,-179.64 849.92,-178.53"/>
</g>
<!-- encrypt_SSH_private_key&#45;&gt;target_branch_has_no_Branch_Protection -->
<g id="edge63" class="edge">
<title>encrypt_SSH_private_key&#45;&gt;target_branch_has_no_Branch_Protection</title>
<path fill="none" stroke="#2b303a" d="M1507.08,-751.87C1507.08,-720.13 1507.08,-669.64 1507.08,-634.33"/>
<polygon fill="#2b303a" stroke="#2b303a" points="1510.58,-633.9 1507.08,-623.9 1503.58,-633.9 1510.58,-633.9"/>
</g>
<!-- allow_one_membership_per_identity&#45;&gt;get_enough_fake_PR_approvals -->
<g id="edge20" class="edge">
<title>allow_one_membership_per_identity&#45;&gt;get_enough_fake_PR_approvals</title>
<path fill="none" stroke="#2b303a" d="M295.46,-313.79C313.1,-300.92 332.72,-286.61 350.1,-273.93"/>
<polygon fill="#2b303a" stroke="#2b303a" points="352.41,-276.57 358.43,-267.85 348.28,-270.92 352.41,-276.57"/>
</g>
<!-- dismiss_stale_PR_approvals&#45;&gt;submit_malicious_code -->
<g id="edge5" class="edge">
<title>dismiss_stale_PR_approvals&#45;&gt;submit_malicious_code</title>
<path fill="none" stroke="#2b303a" d="M203.36,-206.57C246.43,-177.07 316.92,-132.63 384.08,-107.4 472.31,-74.26 579.69,-56.62 650.76,-47.86"/>
<polygon fill="#2b303a" stroke="#2b303a" points="651.47,-51.3 660.98,-46.63 650.63,-44.35 651.47,-51.3"/>
</g>
<!-- require_Last_Push_Approval_branch_protection&#45;&gt;submit_malicious_code -->
<g id="edge2" class="edge">
<title>require_Last_Push_Approval_branch_protection&#45;&gt;submit_malicious_code</title>
<path fill="none" stroke="#2b303a" d="M596.09,-197.94C625.08,-163.29 667.56,-112.52 696.44,-78.01"/>
<polygon fill="#2b303a" stroke="#2b303a" points="699.38,-79.95 703.11,-70.03 694.01,-75.46 699.38,-79.95"/>
</g>
<!-- disable_GitHub_Actions_PR_approval_permission&#45;&gt;get_enough_fake_PR_approvals -->
<g id="edge21" class="edge">
<title>disable_GitHub_Actions_PR_approval_permission&#45;&gt;get_enough_fake_PR_approvals</title>
<path fill="none" stroke="#2b303a" d="M399.08,-313.79C399.08,-302.32 399.08,-289.71 399.08,-278.13"/>
<polygon fill="#2b303a" stroke="#2b303a" points="402.58,-277.85 399.08,-267.85 395.58,-277.85 402.58,-277.85"/>
</g>
<!-- require_two_person_review&#45;&gt;submit_malicious_code -->
<g id="edge3" class="edge">
<title>require_two_person_review&#45;&gt;submit_malicious_code</title>
<path fill="none" stroke="#2b303a" d="M541.16,-109.4C575.71,-96.61 616.65,-81.45 651.4,-68.59"/>
<polygon fill="#2b303a" stroke="#2b303a" points="652.86,-71.78 661.03,-65.02 650.43,-65.21 652.86,-71.78"/>
</g>
<!-- setup_Tag_Protection_Rule&#45;&gt;modify_release_tag_to_point_vulnerable_commit -->
<g id="edge13" class="edge">
<title>setup_Tag_Protection_Rule&#45;&gt;modify_release_tag_to_point_vulnerable_commit</title>
<path fill="none" stroke="#2b303a" d="M1080.04,-107.57C1083.22,-101.29 1086.64,-94.51 1090.06,-87.75"/>
<polygon fill="#2b303a" stroke="#2b303a" points="1093.29,-89.1 1094.68,-78.6 1087.05,-85.95 1093.29,-89.1"/>
</g>
<!-- enforce_branch_protection_for_admins&#45;&gt;abuse_admin_rights_and_disable_Branch_Protection_admin_enforcement -->
<g id="edge26" class="edge">
<title>enforce_branch_protection_for_admins&#45;&gt;abuse_admin_rights_and_disable_Branch_Protection_admin_enforcement</title>
<path fill="none" stroke="#2b303a" d="M1273.69,-437.87C1272.71,-429.33 1271.65,-420.09 1270.6,-410.98"/>
<polygon fill="#2b303a" stroke="#2b303a" points="1274.05,-410.32 1269.44,-400.78 1267.1,-411.12 1274.05,-410.32"/>
</g>
<!-- setup_robust_branch_protection&#45;&gt;submit_malicious_code -->
<g id="edge1" class="edge">
<title>setup_robust_branch_protection&#45;&gt;submit_malicious_code</title>
<path fill="none" stroke="#2b303a" d="M1386.88,-115.2C1374.64,-112.24 1362.06,-109.51 1350.08,-107.4 1212.04,-83.15 1175.41,-93.47 1036.08,-78.4 957.3,-69.88 867.39,-58.54 805.13,-50.44"/>
<polygon fill="#2b303a" stroke="#2b303a" points="805.37,-46.94 795,-49.11 804.46,-53.88 805.37,-46.94"/>
</g>
<!-- setup_robust_branch_protection&#45;&gt;rewrite_code_history -->
<g id="edge8" class="edge">
<title>setup_robust_branch_protection&#45;&gt;rewrite_code_history</title>
<path fill="none" stroke="#2b303a" d="M1406.95,-107.57C1386.09,-96.75 1362.36,-84.44 1340.95,-73.33"/>
<polygon fill="#2b303a" stroke="#2b303a" points="1342.42,-70.15 1331.93,-68.65 1339.19,-76.36 1342.42,-70.15"/>
</g>
<!-- setup_robust_branch_protection&#45;&gt;delete_source_code_branch -->
<g id="edge10" class="edge">
<title>setup_robust_branch_protection&#45;&gt;delete_source_code_branch</title>
<path fill="none" stroke="#2b303a" d="M1459.49,-107.57C1458.15,-98.91 1456.67,-89.29 1455.25,-80.1"/>
<polygon fill="#2b303a" stroke="#2b303a" points="1458.67,-79.33 1453.68,-69.98 1451.75,-80.4 1458.67,-79.33"/>
</g>
<!-- manage_org_and_repo_settings_as_code&#45;&gt;submit_malicious_code -->
<g id="edge4" class="edge">
<title>manage_org_and_repo_settings_as_code&#45;&gt;submit_malicious_code</title>
<path fill="none" stroke="#2b303a" d="M1180.99,-117.49C1165.46,-113.95 1149.29,-110.43 1134.08,-107.4 1020.06,-84.72 886.96,-63.72 805.1,-51.43"/>
<polygon fill="#2b303a" stroke="#2b303a" points="805.54,-47.96 795.13,-49.94 804.5,-54.88 805.54,-47.96"/>
</g>
<!-- manage_org_and_repo_settings_as_code&#45;&gt;rewrite_code_history -->
<g id="edge9" class="edge">
<title>manage_org_and_repo_settings_as_code&#45;&gt;rewrite_code_history</title>
<path fill="none" stroke="#2b303a" d="M1266.66,-107.57C1267.59,-101.57 1268.58,-95.12 1269.58,-88.67"/>
<polygon fill="#2b303a" stroke="#2b303a" points="1273.07,-89.02 1271.14,-78.6 1266.15,-87.95 1273.07,-89.02"/>
</g>
<!-- manage_org_and_repo_settings_as_code&#45;&gt;delete_source_code_branch -->
<g id="edge11" class="edge">
<title>manage_org_and_repo_settings_as_code&#45;&gt;delete_source_code_branch</title>
<path fill="none" stroke="#2b303a" d="M1319.2,-107.57C1339.31,-97.14 1362.09,-85.32 1382.89,-74.53"/>
<polygon fill="#2b303a" stroke="#2b303a" points="1384.72,-77.53 1391.98,-69.82 1381.49,-71.31 1384.72,-77.53"/>
</g>
<!-- manage_org_and_repo_settings_as_code&#45;&gt;modify_release_tag_to_point_vulnerable_commit -->
<g id="edge12" class="edge">
<title>manage_org_and_repo_settings_as_code&#45;&gt;modify_release_tag_to_point_vulnerable_commit</title>
<path fill="none" stroke="#2b303a" d="M1216.87,-107.57C1205.47,-100.1 1193,-91.92 1180.79,-83.92"/>
<polygon fill="#2b303a" stroke="#2b303a" points="1182.68,-80.98 1172.39,-78.42 1178.84,-86.83 1182.68,-80.98"/>
</g>
<!-- only_accept_PR_with_small_changes_and_review_carefully&#45;&gt;submit_malicious_code -->
<g id="edge6" class="edge">
<title>only_accept_PR_with_small_changes_and_review_carefully&#45;&gt;submit_malicious_code</title>
<path fill="none" stroke="#2b303a" d="M728.08,-197.94C728.08,-164.02 728.08,-114.65 728.08,-80.21"/>
<polygon fill="#2b303a" stroke="#2b303a" points="731.58,-80.03 728.08,-70.03 724.58,-80.03 731.58,-80.03"/>
</g>
<!-- only_accept_trusted_dependencies&#45;&gt;submit_malicious_code -->
<g id="edge7" class="edge">
<title>only_accept_trusted_dependencies&#45;&gt;submit_malicious_code</title>
<path fill="none" stroke="#2b303a" d="M805.86,-107.57C794.57,-97.79 781.88,-86.8 770.07,-76.57"/>
<polygon fill="#2b303a" stroke="#2b303a" points="772.32,-73.88 762.47,-69.98 767.73,-79.18 772.32,-73.88"/>
</g>
<!-- only_install_necessary_and_trusted_GitHub_App&#45;&gt;victim_has_repo_write_access -->
<g id="edge55" class="edge">
<title>only_install_necessary_and_trusted_GitHub_App&#45;&gt;victim_has_repo_write_access</title>
<path fill="none" stroke="#2b303a" d="M920.42,-842.26C907.95,-834.51 894.89,-826.39 882.61,-818.75"/>
<polygon fill="#2b303a" stroke="#2b303a" points="884.16,-815.59 873.82,-813.28 880.46,-821.54 884.16,-815.59"/>
</g>
<!-- only_install_necessary_and_trusted_GitHub_App&#45;&gt;victim_is_repo_admin -->
<g id="edge57" class="edge">
<title>only_install_necessary_and_trusted_GitHub_App&#45;&gt;victim_is_repo_admin</title>
<path fill="none" stroke="#2b303a" d="M980.89,-842.26C980.61,-833.23 980.32,-823.7 980.05,-815.01"/>
<polygon fill="#2b303a" stroke="#2b303a" points="983.54,-814.8 979.74,-804.92 976.55,-815.02 983.54,-814.8"/>
</g>
<!-- only_install_necessary_and_trusted_GitHub_App&#45;&gt;victim_is_org_owner -->
<g id="edge60" class="edge">
<title>only_install_necessary_and_trusted_GitHub_App&#45;&gt;victim_is_org_owner</title>
<path fill="none" stroke="#2b303a" d="M1055.87,-851.61C1065.61,-848.26 1075.53,-845.09 1085.08,-842.4 1149.6,-824.24 1168.57,-831.6 1233.08,-813.4 1238.43,-811.89 1243.92,-810.18 1249.41,-808.37"/>
<polygon fill="#2b303a" stroke="#2b303a" points="1250.92,-811.55 1259.25,-805.01 1248.66,-804.93 1250.92,-811.55"/>
</g>
<!-- enforce_2FA&#45;&gt;victim_has_repo_write_access -->
<g id="edge54" class="edge">
<title>enforce_2FA&#45;&gt;victim_has_repo_write_access</title>
<path fill="none" stroke="#2b303a" d="M1104.63,-859.17C1091.65,-853 1077.01,-846.76 1063.08,-842.4 993.87,-820.73 969.77,-833.78 898.53,-814.21"/>
<polygon fill="#2b303a" stroke="#2b303a" points="899.22,-810.76 888.64,-811.37 897.29,-817.49 899.22,-810.76"/>
</g>
<!-- enforce_2FA&#45;&gt;victim_is_repo_admin -->
<g id="edge56" class="edge">
<title>enforce_2FA&#45;&gt;victim_is_repo_admin</title>
<path fill="none" stroke="#2b303a" d="M1108.24,-859.07C1083.52,-844.63 1050.8,-825.51 1024.48,-810.13"/>
<polygon fill="#2b303a" stroke="#2b303a" points="1026.21,-807.09 1015.81,-805.07 1022.68,-813.13 1026.21,-807.09"/>
</g>
<!-- enforce_2FA&#45;&gt;victim_is_GitHub_App_Manager -->
<g id="edge58" class="edge">
<title>enforce_2FA&#45;&gt;victim_is_GitHub_App_Manager</title>
<path fill="none" stroke="#2b303a" d="M1145.74,-859.07C1146.06,-848.71 1146.46,-835.94 1146.83,-823.88"/>
<polygon fill="#2b303a" stroke="#2b303a" points="1150.34,-823.63 1147.15,-813.53 1143.34,-823.41 1150.34,-823.63"/>
</g>
<!-- enforce_2FA&#45;&gt;victim_is_org_owner -->
<g id="edge59" class="edge">
<title>enforce_2FA&#45;&gt;victim_is_org_owner</title>
<path fill="none" stroke="#2b303a" d="M1182.36,-859.07C1207.37,-844.63 1240.49,-825.51 1267.13,-810.13"/>
<polygon fill="#2b303a" stroke="#2b303a" points="1268.99,-813.1 1275.9,-805.07 1265.49,-807.04 1268.99,-813.1"/>
</g>
</g>
</svg>
