<?xml version="1.0" encoding="UTF-8" standalone="no"?>
<!DOCTYPE svg PUBLIC "-//W3C//DTD SVG 1.1//EN"
 "http://www.w3.org/Graphics/SVG/1.1/DTD/svg11.dtd">
<!-- Generated by graphviz version 2.46.1 (20210214.0559)
 -->
<!-- Pages: 1 -->
<svg width="1677pt" height="1316pt"
 viewBox="0.00 0.00 1676.85 1316.00" xmlns="http://www.w3.org/2000/svg" xmlns:xlink="http://www.w3.org/1999/xlink">
<g id="graph0" class="graph" transform="scale(1 1) rotate(0) translate(4 1312)">
<polygon fill="white" stroke="transparent" points="-4,4 -4,-1312 1672.85,-1312 1672.85,4 -4,4"/>
<text text-anchor="middle" x="834.42" y="-1291.4" font-family="Arial" font-size="14.00">Software Supply Chain Attack Tree &#45; Source Control Management</text>
<!-- reality -->
<g id="node1" class="node">
<title>reality</title>
<path fill="#272727" stroke="transparent" d="M1311.04,-1283.1C1311.04,-1283.1 1264.49,-1283.1 1264.49,-1283.1 1258.49,-1283.1 1252.49,-1277.1 1252.49,-1271.1 1252.49,-1271.1 1252.49,-1250.5 1252.49,-1250.5 1252.49,-1244.5 1258.49,-1238.5 1264.49,-1238.5 1264.49,-1238.5 1311.04,-1238.5 1311.04,-1238.5 1317.04,-1238.5 1323.04,-1244.5 1323.04,-1250.5 1323.04,-1250.5 1323.04,-1271.1 1323.04,-1271.1 1323.04,-1277.1 1317.04,-1283.1 1311.04,-1283.1"/>
<text text-anchor="middle" x="1287.77" y="-1256.6" font-family="Arial" font-size="14.00" fill="#ffffff">Reality</text>
</g>
<!-- uses_GitHub -->
<g id="node2" class="node">
<title>uses_GitHub</title>
<path fill="#d2d5dd" stroke="transparent" d="M1329.61,-1209.3C1329.61,-1209.3 1245.93,-1209.3 1245.93,-1209.3 1239.93,-1209.3 1233.93,-1203.3 1233.93,-1197.3 1233.93,-1197.3 1233.93,-1176.7 1233.93,-1176.7 1233.93,-1170.7 1239.93,-1164.7 1245.93,-1164.7 1245.93,-1164.7 1329.61,-1164.7 1329.61,-1164.7 1335.61,-1164.7 1341.61,-1170.7 1341.61,-1176.7 1341.61,-1176.7 1341.61,-1197.3 1341.61,-1197.3 1341.61,-1203.3 1335.61,-1209.3 1329.61,-1209.3"/>
<text text-anchor="middle" x="1287.77" y="-1182.8" font-family="Arial" font-size="14.00">Uses GitHub</text>
</g>
<!-- reality&#45;&gt;uses_GitHub -->
<g id="edge43" class="edge">
<title>reality&#45;&gt;uses_GitHub</title>
<path fill="none" stroke="#2b303a" d="M1287.77,-1238.26C1287.77,-1232.44 1287.77,-1226.01 1287.77,-1219.76"/>
<polygon fill="#2b303a" stroke="#2b303a" points="1291.27,-1219.53 1287.77,-1209.53 1284.27,-1219.53 1291.27,-1219.53"/>
</g>
<!-- attacker_has_no_repo_access -->
<g id="node3" class="node">
<title>attacker_has_no_repo_access</title>
<path fill="#d2d5dd" stroke="transparent" d="M1175.42,-1135.4C1175.42,-1135.4 1042.11,-1135.4 1042.11,-1135.4 1036.11,-1135.4 1030.11,-1129.4 1030.11,-1123.4 1030.11,-1123.4 1030.11,-1086.2 1030.11,-1086.2 1030.11,-1080.2 1036.11,-1074.2 1042.11,-1074.2 1042.11,-1074.2 1175.42,-1074.2 1175.42,-1074.2 1181.42,-1074.2 1187.42,-1080.2 1187.42,-1086.2 1187.42,-1086.2 1187.42,-1123.4 1187.42,-1123.4 1187.42,-1129.4 1181.42,-1135.4 1175.42,-1135.4"/>
<text text-anchor="middle" x="1108.77" y="-1109" font-family="Arial" font-size="14.00">Attacker has no repo</text>
<text text-anchor="middle" x="1108.77" y="-1092.2" font-family="Arial" font-size="14.00">access</text>
</g>
<!-- uses_GitHub&#45;&gt;attacker_has_no_repo_access -->
<g id="edge44" class="edge">
<title>uses_GitHub&#45;&gt;attacker_has_no_repo_access</title>
<path fill="none" stroke="#2b303a" d="M1239.8,-1164.51C1222.71,-1156.85 1203.03,-1148.03 1184.2,-1139.6"/>
<polygon fill="#2b303a" stroke="#2b303a" points="1185.59,-1136.39 1175.04,-1135.49 1182.73,-1142.78 1185.59,-1136.39"/>
</g>
<!-- attacker_has_repo_write_access -->
<g id="node4" class="node">
<title>attacker_has_repo_write_access</title>
<path fill="#d2d5dd" stroke="transparent" d="M1077.46,-739.4C1077.46,-739.4 964.07,-739.4 964.07,-739.4 958.07,-739.4 952.07,-733.4 952.07,-727.4 952.07,-727.4 952.07,-690.2 952.07,-690.2 952.07,-684.2 958.07,-678.2 964.07,-678.2 964.07,-678.2 1077.46,-678.2 1077.46,-678.2 1083.46,-678.2 1089.46,-684.2 1089.46,-690.2 1089.46,-690.2 1089.46,-727.4 1089.46,-727.4 1089.46,-733.4 1083.46,-739.4 1077.46,-739.4"/>
<text text-anchor="middle" x="1020.77" y="-713" font-family="Arial" font-size="14.00">Attacker has repo</text>
<text text-anchor="middle" x="1020.77" y="-696.2" font-family="Arial" font-size="14.00">write access</text>
</g>
<!-- uses_GitHub&#45;&gt;attacker_has_repo_write_access -->
<g id="edge45" class="edge">
<title>uses_GitHub&#45;&gt;attacker_has_repo_write_access</title>
<path fill="none" stroke="#2b303a" d="M1287.77,-1164.48C1287.77,-1130.84 1287.77,-1063.73 1287.77,-1006.8 1287.77,-1006.8 1287.77,-1006.8 1287.77,-897.4 1287.77,-839.77 1311.15,-811.59 1272.77,-768.6 1249.94,-743.03 1164.8,-727.05 1099.73,-718.32"/>
<polygon fill="#2b303a" stroke="#2b303a" points="1099.85,-714.8 1089.48,-716.98 1098.94,-721.74 1099.85,-714.8"/>
</g>
<!-- attacker_has_repo_admin -->
<g id="node5" class="node">
<title>attacker_has_repo_admin</title>
<path fill="#d2d5dd" stroke="transparent" d="M1395.46,-739.4C1395.46,-739.4 1282.07,-739.4 1282.07,-739.4 1276.07,-739.4 1270.07,-733.4 1270.07,-727.4 1270.07,-727.4 1270.07,-690.2 1270.07,-690.2 1270.07,-684.2 1276.07,-678.2 1282.07,-678.2 1282.07,-678.2 1395.46,-678.2 1395.46,-678.2 1401.46,-678.2 1407.46,-684.2 1407.46,-690.2 1407.46,-690.2 1407.46,-727.4 1407.46,-727.4 1407.46,-733.4 1401.46,-739.4 1395.46,-739.4"/>
<text text-anchor="middle" x="1338.77" y="-713" font-family="Arial" font-size="14.00">Attacker has repo</text>
<text text-anchor="middle" x="1338.77" y="-696.2" font-family="Arial" font-size="14.00">admin</text>
</g>
<!-- uses_GitHub&#45;&gt;attacker_has_repo_admin -->
<g id="edge47" class="edge">
<title>uses_GitHub&#45;&gt;attacker_has_repo_admin</title>
<path fill="none" stroke="#2b303a" d="M1341.61,-1164.77C1400.24,-1137.68 1485.77,-1084.81 1485.77,-1006.8 1485.77,-1006.8 1485.77,-1006.8 1485.77,-897.4 1485.77,-839.77 1504.9,-815.04 1470.77,-768.6 1457.56,-750.63 1437.61,-738.05 1417.19,-729.29"/>
<polygon fill="#2b303a" stroke="#2b303a" points="1418.39,-725.99 1407.8,-725.52 1415.78,-732.49 1418.39,-725.99"/>
</g>
<!-- compromise_GitHub_App -->
<g id="node15" class="node">
<title>compromise_GitHub_App</title>
<path fill="#ff92cc" stroke="transparent" d="M937.04,-1036.4C937.04,-1036.4 806.49,-1036.4 806.49,-1036.4 800.49,-1036.4 794.49,-1030.4 794.49,-1024.4 794.49,-1024.4 794.49,-987.2 794.49,-987.2 794.49,-981.2 800.49,-975.2 806.49,-975.2 806.49,-975.2 937.04,-975.2 937.04,-975.2 943.04,-975.2 949.04,-981.2 949.04,-987.2 949.04,-987.2 949.04,-1024.4 949.04,-1024.4 949.04,-1030.4 943.04,-1036.4 937.04,-1036.4"/>
<text text-anchor="middle" x="871.77" y="-1010" font-family="Arial" font-size="14.00">Compromise GitHub</text>
<text text-anchor="middle" x="871.77" y="-993.2" font-family="Arial" font-size="14.00">App</text>
</g>
<!-- attacker_has_no_repo_access&#45;&gt;compromise_GitHub_App -->
<g id="edge13" class="edge">
<title>attacker_has_no_repo_access&#45;&gt;compromise_GitHub_App</title>
<path fill="none" stroke="#2b303a" d="M1029.95,-1074.23C1006.31,-1065.11 980.39,-1054.87 956.77,-1045 953.36,-1043.58 949.88,-1042.1 946.37,-1040.6"/>
<polygon fill="#2b303a" stroke="#2b303a" points="947.61,-1037.32 937.05,-1036.56 944.83,-1043.74 947.61,-1037.32"/>
</g>
<!-- compromise_org_member_account -->
<g id="node16" class="node">
<title>compromise_org_member_account</title>
<path fill="#ff92cc" stroke="transparent" d="M1084.01,-1036.4C1084.01,-1036.4 975.52,-1036.4 975.52,-1036.4 969.52,-1036.4 963.52,-1030.4 963.52,-1024.4 963.52,-1024.4 963.52,-987.2 963.52,-987.2 963.52,-981.2 969.52,-975.2 975.52,-975.2 975.52,-975.2 1084.01,-975.2 1084.01,-975.2 1090.01,-975.2 1096.01,-981.2 1096.01,-987.2 1096.01,-987.2 1096.01,-1024.4 1096.01,-1024.4 1096.01,-1030.4 1090.01,-1036.4 1084.01,-1036.4"/>
<text text-anchor="middle" x="1029.77" y="-1010" font-family="Arial" font-size="14.00">Compromise org</text>
<text text-anchor="middle" x="1029.77" y="-993.2" font-family="Arial" font-size="14.00">member account</text>
</g>
<!-- attacker_has_no_repo_access&#45;&gt;compromise_org_member_account -->
<g id="edge15" class="edge">
<title>attacker_has_no_repo_access&#45;&gt;compromise_org_member_account</title>
<path fill="none" stroke="#2b303a" d="M1084.63,-1074.17C1076.97,-1064.76 1068.4,-1054.23 1060.34,-1044.34"/>
<polygon fill="#2b303a" stroke="#2b303a" points="1063.05,-1042.13 1054.02,-1036.58 1057.62,-1046.55 1063.05,-1042.13"/>
</g>
<!-- steal_SSH_key_with_repo_write_access -->
<g id="node17" class="node">
<title>steal_SSH_key_with_repo_write_access</title>
<path fill="#ff92cc" stroke="transparent" d="M1254.11,-1045.2C1254.11,-1045.2 1121.42,-1045.2 1121.42,-1045.2 1115.42,-1045.2 1109.42,-1039.2 1109.42,-1033.2 1109.42,-1033.2 1109.42,-978.4 1109.42,-978.4 1109.42,-972.4 1115.42,-966.4 1121.42,-966.4 1121.42,-966.4 1254.11,-966.4 1254.11,-966.4 1260.11,-966.4 1266.11,-972.4 1266.11,-978.4 1266.11,-978.4 1266.11,-1033.2 1266.11,-1033.2 1266.11,-1039.2 1260.11,-1045.2 1254.11,-1045.2"/>
<text text-anchor="middle" x="1187.77" y="-1018.4" font-family="Arial" font-size="14.00">Steal SSH key with</text>
<text text-anchor="middle" x="1187.77" y="-1001.6" font-family="Arial" font-size="14.00">write access</text>
<text text-anchor="middle" x="1187.77" y="-984.8" font-family="Arial" font-size="14.00">(user or Deploy Key)</text>
</g>
<!-- attacker_has_no_repo_access&#45;&gt;steal_SSH_key_with_repo_write_access -->
<g id="edge16" class="edge">
<title>attacker_has_no_repo_access&#45;&gt;steal_SSH_key_with_repo_write_access</title>
<path fill="none" stroke="#2b303a" d="M1132.9,-1074.17C1138.36,-1067.46 1144.29,-1060.18 1150.17,-1052.97"/>
<polygon fill="#2b303a" stroke="#2b303a" points="1152.89,-1055.16 1156.49,-1045.2 1147.46,-1050.74 1152.89,-1055.16"/>
</g>
<!-- target_branch_has_Branch_Protection -->
<g id="node6" class="node">
<title>target_branch_has_Branch_Protection</title>
<path fill="#d2d5dd" stroke="transparent" d="M746.36,-640.4C746.36,-640.4 629.18,-640.4 629.18,-640.4 623.18,-640.4 617.18,-634.4 617.18,-628.4 617.18,-628.4 617.18,-591.2 617.18,-591.2 617.18,-585.2 623.18,-579.2 629.18,-579.2 629.18,-579.2 746.36,-579.2 746.36,-579.2 752.36,-579.2 758.36,-585.2 758.36,-591.2 758.36,-591.2 758.36,-628.4 758.36,-628.4 758.36,-634.4 752.36,-640.4 746.36,-640.4"/>
<text text-anchor="middle" x="687.77" y="-614" font-family="Arial" font-size="14.00">Target branch has</text>
<text text-anchor="middle" x="687.77" y="-597.2" font-family="Arial" font-size="14.00">Branch Protection</text>
</g>
<!-- attacker_has_repo_write_access&#45;&gt;target_branch_has_Branch_Protection -->
<g id="edge50" class="edge">
<title>attacker_has_repo_write_access&#45;&gt;target_branch_has_Branch_Protection</title>
<path fill="none" stroke="#2b303a" d="M951.77,-687.7C898.39,-672.15 824.38,-650.59 768.3,-634.26"/>
<polygon fill="#2b303a" stroke="#2b303a" points="768.98,-630.81 758.4,-631.37 767.02,-637.53 768.98,-630.81"/>
</g>
<!-- repo_has_no_Tag_Protection_Rule -->
<g id="node7" class="node">
<title>repo_has_no_Tag_Protection_Rule</title>
<path fill="#d2d5dd" stroke="transparent" d="M1076.64,-640.4C1076.64,-640.4 964.89,-640.4 964.89,-640.4 958.89,-640.4 952.89,-634.4 952.89,-628.4 952.89,-628.4 952.89,-591.2 952.89,-591.2 952.89,-585.2 958.89,-579.2 964.89,-579.2 964.89,-579.2 1076.64,-579.2 1076.64,-579.2 1082.64,-579.2 1088.64,-585.2 1088.64,-591.2 1088.64,-591.2 1088.64,-628.4 1088.64,-628.4 1088.64,-634.4 1082.64,-640.4 1076.64,-640.4"/>
<text text-anchor="middle" x="1020.77" y="-614" font-family="Arial" font-size="14.00">Repo has no Tag</text>
<text text-anchor="middle" x="1020.77" y="-597.2" font-family="Arial" font-size="14.00">Protection Rule</text>
</g>
<!-- attacker_has_repo_write_access&#45;&gt;repo_has_no_Tag_Protection_Rule -->
<g id="edge51" class="edge">
<title>attacker_has_repo_write_access&#45;&gt;repo_has_no_Tag_Protection_Rule</title>
<path fill="none" stroke="#2b303a" d="M1020.77,-678.17C1020.77,-669.51 1020.77,-659.89 1020.77,-650.7"/>
<polygon fill="#2b303a" stroke="#2b303a" points="1024.27,-650.58 1020.77,-640.58 1017.27,-650.58 1024.27,-650.58"/>
</g>
<!-- target_branch_has_no_Branch_Protection -->
<g id="node13" class="node">
<title>target_branch_has_no_Branch_Protection</title>
<path fill="#d2d5dd" stroke="transparent" d="M1251.31,-640.4C1251.31,-640.4 1114.22,-640.4 1114.22,-640.4 1108.22,-640.4 1102.22,-634.4 1102.22,-628.4 1102.22,-628.4 1102.22,-591.2 1102.22,-591.2 1102.22,-585.2 1108.22,-579.2 1114.22,-579.2 1114.22,-579.2 1251.31,-579.2 1251.31,-579.2 1257.31,-579.2 1263.31,-585.2 1263.31,-591.2 1263.31,-591.2 1263.31,-628.4 1263.31,-628.4 1263.31,-634.4 1257.31,-640.4 1251.31,-640.4"/>
<text text-anchor="middle" x="1182.77" y="-614" font-family="Arial" font-size="14.00">Target branch has no</text>
<text text-anchor="middle" x="1182.77" y="-597.2" font-family="Arial" font-size="14.00">Branch Protection</text>
</g>
<!-- attacker_has_repo_write_access&#45;&gt;target_branch_has_no_Branch_Protection -->
<g id="edge60" class="edge">
<title>attacker_has_repo_write_access&#45;&gt;target_branch_has_no_Branch_Protection</title>
<path fill="none" stroke="#2b303a" d="M1070.25,-678.17C1087.44,-667.88 1106.88,-656.24 1124.7,-645.57"/>
<polygon fill="#2b303a" stroke="#2b303a" points="1126.52,-648.56 1133.3,-640.42 1122.93,-642.55 1126.52,-648.56"/>
</g>
<!-- bypass_Branch_Protection -->
<g id="node21" class="node">
<title>bypass_Branch_Protection</title>
<path fill="#ff92cc" stroke="transparent" d="M1387.9,-640.4C1387.9,-640.4 1289.63,-640.4 1289.63,-640.4 1283.63,-640.4 1277.63,-634.4 1277.63,-628.4 1277.63,-628.4 1277.63,-591.2 1277.63,-591.2 1277.63,-585.2 1283.63,-579.2 1289.63,-579.2 1289.63,-579.2 1387.9,-579.2 1387.9,-579.2 1393.9,-579.2 1399.9,-585.2 1399.9,-591.2 1399.9,-591.2 1399.9,-628.4 1399.9,-628.4 1399.9,-634.4 1393.9,-640.4 1387.9,-640.4"/>
<text text-anchor="middle" x="1338.77" y="-614" font-family="Arial" font-size="14.00">Bypass Branch</text>
<text text-anchor="middle" x="1338.77" y="-597.2" font-family="Arial" font-size="14.00">Protection</text>
</g>
<!-- attacker_has_repo_admin&#45;&gt;bypass_Branch_Protection -->
<g id="edge21" class="edge">
<title>attacker_has_repo_admin&#45;&gt;bypass_Branch_Protection</title>
<path fill="none" stroke="#2b303a" d="M1338.77,-678.17C1338.77,-669.51 1338.77,-659.89 1338.77,-650.7"/>
<polygon fill="#2b303a" stroke="#2b303a" points="1342.27,-650.58 1338.77,-640.58 1335.27,-650.58 1342.27,-650.58"/>
</g>
<!-- abuse_admin_rights_and_skip_Tag_Protection -->
<g id="node23" class="node">
<title>abuse_admin_rights_and_skip_Tag_Protection</title>
<path fill="#ff92cc" stroke="transparent" d="M1549.57,-649.2C1549.57,-649.2 1425.96,-649.2 1425.96,-649.2 1419.96,-649.2 1413.96,-643.2 1413.96,-637.2 1413.96,-637.2 1413.96,-582.4 1413.96,-582.4 1413.96,-576.4 1419.96,-570.4 1425.96,-570.4 1425.96,-570.4 1549.57,-570.4 1549.57,-570.4 1555.57,-570.4 1561.57,-576.4 1561.57,-582.4 1561.57,-582.4 1561.57,-637.2 1561.57,-637.2 1561.57,-643.2 1555.57,-649.2 1549.57,-649.2"/>
<text text-anchor="middle" x="1487.77" y="-622.4" font-family="Arial" font-size="14.00">Abuse admin rights</text>
<text text-anchor="middle" x="1487.77" y="-605.6" font-family="Arial" font-size="14.00">and skip Tag</text>
<text text-anchor="middle" x="1487.77" y="-588.8" font-family="Arial" font-size="14.00">Protection</text>
</g>
<!-- attacker_has_repo_admin&#45;&gt;abuse_admin_rights_and_skip_Tag_Protection -->
<g id="edge23" class="edge">
<title>attacker_has_repo_admin&#45;&gt;abuse_admin_rights_and_skip_Tag_Protection</title>
<path fill="none" stroke="#2b303a" d="M1384.28,-678.17C1395.75,-670.7 1408.31,-662.52 1420.61,-654.52"/>
<polygon fill="#2b303a" stroke="#2b303a" points="1422.58,-657.41 1429.05,-649.02 1418.76,-651.54 1422.58,-657.41"/>
</g>
<!-- target_branch_has_Branch_Protection&#45;&gt;repo_has_no_Tag_Protection_Rule -->
<!-- obtain_genuine_PR_approval_with_initially_good_code -->
<g id="node12" class="node">
<title>obtain_genuine_PR_approval_with_initially_good_code</title>
<path fill="#d2d5dd" stroke="transparent" d="M185.03,-533.4C185.03,-533.4 62.5,-533.4 62.5,-533.4 56.5,-533.4 50.5,-527.4 50.5,-521.4 50.5,-521.4 50.5,-466.6 50.5,-466.6 50.5,-460.6 56.5,-454.6 62.5,-454.6 62.5,-454.6 185.03,-454.6 185.03,-454.6 191.03,-454.6 197.03,-460.6 197.03,-466.6 197.03,-466.6 197.03,-521.4 197.03,-521.4 197.03,-527.4 191.03,-533.4 185.03,-533.4"/>
<text text-anchor="middle" x="123.77" y="-506.6" font-family="Arial" font-size="14.00">Obtain genuine PR</text>
<text text-anchor="middle" x="123.77" y="-489.8" font-family="Arial" font-size="14.00">approval with</text>
<text text-anchor="middle" x="123.77" y="-473" font-family="Arial" font-size="14.00">initially good code</text>
</g>
<!-- target_branch_has_Branch_Protection&#45;&gt;obtain_genuine_PR_approval_with_initially_good_code -->
<g id="edge59" class="edge">
<title>target_branch_has_Branch_Protection&#45;&gt;obtain_genuine_PR_approval_with_initially_good_code</title>
<path fill="none" stroke="#2b303a" d="M617.07,-600.48C492.4,-585.58 242.96,-554.69 204.77,-541.6 201.26,-540.4 197.74,-539.04 194.22,-537.56"/>
<polygon fill="#2b303a" stroke="#2b303a" points="195.53,-534.31 184.97,-533.4 192.65,-540.7 195.53,-534.31"/>
</g>
<!-- forge_second_valid_identity -->
<g id="node14" class="node">
<title>forge_second_valid_identity</title>
<path fill="#ff92cc" stroke="transparent" d="M336.17,-533.4C336.17,-533.4 223.36,-533.4 223.36,-533.4 217.36,-533.4 211.36,-527.4 211.36,-521.4 211.36,-521.4 211.36,-466.6 211.36,-466.6 211.36,-460.6 217.36,-454.6 223.36,-454.6 223.36,-454.6 336.17,-454.6 336.17,-454.6 342.17,-454.6 348.17,-460.6 348.17,-466.6 348.17,-466.6 348.17,-521.4 348.17,-521.4 348.17,-527.4 342.17,-533.4 336.17,-533.4"/>
<text text-anchor="middle" x="279.77" y="-506.6" font-family="Arial" font-size="14.00">Forge 2nd valid</text>
<text text-anchor="middle" x="279.77" y="-489.8" font-family="Arial" font-size="14.00">membership with</text>
<text text-anchor="middle" x="279.77" y="-473" font-family="Arial" font-size="14.00">repo write access</text>
</g>
<!-- target_branch_has_Branch_Protection&#45;&gt;forge_second_valid_identity -->
<g id="edge12" class="edge">
<title>target_branch_has_Branch_Protection&#45;&gt;forge_second_valid_identity</title>
<path fill="none" stroke="#2b303a" d="M617.14,-601.94C548.27,-593.55 441.53,-576.01 354.77,-541.6 351.87,-540.45 348.96,-539.19 346.05,-537.84"/>
<polygon fill="#2b303a" stroke="#2b303a" points="347.34,-534.57 336.83,-533.27 344.23,-540.85 347.34,-534.57"/>
</g>
<!-- abuse_Github_Action_PR_approval_permission -->
<g id="node18" class="node">
<title>abuse_Github_Action_PR_approval_permission</title>
<path fill="#ff92cc" stroke="transparent" d="M505.37,-533.4C505.37,-533.4 374.17,-533.4 374.17,-533.4 368.17,-533.4 362.17,-527.4 362.17,-521.4 362.17,-521.4 362.17,-466.6 362.17,-466.6 362.17,-460.6 368.17,-454.6 374.17,-454.6 374.17,-454.6 505.37,-454.6 505.37,-454.6 511.37,-454.6 517.37,-460.6 517.37,-466.6 517.37,-466.6 517.37,-521.4 517.37,-521.4 517.37,-527.4 511.37,-533.4 505.37,-533.4"/>
<text text-anchor="middle" x="439.77" y="-506.6" font-family="Arial" font-size="14.00">Abuse Github Action</text>
<text text-anchor="middle" x="439.77" y="-489.8" font-family="Arial" font-size="14.00">PR approval</text>
<text text-anchor="middle" x="439.77" y="-473" font-family="Arial" font-size="14.00">permission</text>
</g>
<!-- target_branch_has_Branch_Protection&#45;&gt;abuse_Github_Action_PR_approval_permission -->
<g id="edge17" class="edge">
<title>target_branch_has_Branch_Protection&#45;&gt;abuse_Github_Action_PR_approval_permission</title>
<path fill="none" stroke="#2b303a" d="M617.15,-581.97C587.91,-570.32 553.86,-556.05 523.77,-541.6 521.31,-540.42 518.83,-539.21 516.34,-537.96"/>
<polygon fill="#2b303a" stroke="#2b303a" points="517.76,-534.76 507.26,-533.34 514.58,-540.99 517.76,-534.76"/>
</g>
<!-- add_evil_commits_to_good_PR_and_self_approve -->
<g id="node25" class="node">
<title>add_evil_commits_to_good_PR_and_self_approve</title>
<path fill="#ff92cc" stroke="transparent" d="M668.61,-533.4C668.61,-533.4 542.92,-533.4 542.92,-533.4 536.92,-533.4 530.92,-527.4 530.92,-521.4 530.92,-521.4 530.92,-466.6 530.92,-466.6 530.92,-460.6 536.92,-454.6 542.92,-454.6 542.92,-454.6 668.61,-454.6 668.61,-454.6 674.61,-454.6 680.61,-460.6 680.61,-466.6 680.61,-466.6 680.61,-521.4 680.61,-521.4 680.61,-527.4 674.61,-533.4 668.61,-533.4"/>
<text text-anchor="middle" x="605.77" y="-506.6" font-family="Arial" font-size="14.00">Add evil commits to</text>
<text text-anchor="middle" x="605.77" y="-489.8" font-family="Arial" font-size="14.00">good PR and self</text>
<text text-anchor="middle" x="605.77" y="-473" font-family="Arial" font-size="14.00">approve</text>
</g>
<!-- target_branch_has_Branch_Protection&#45;&gt;add_evil_commits_to_good_PR_and_self_approve -->
<g id="edge25" class="edge">
<title>target_branch_has_Branch_Protection&#45;&gt;add_evil_commits_to_good_PR_and_self_approve</title>
<path fill="none" stroke="#2b303a" d="M666.44,-579.2C658.18,-567.74 648.54,-554.36 639.4,-541.67"/>
<polygon fill="#2b303a" stroke="#2b303a" points="642.17,-539.53 633.48,-533.47 636.49,-543.62 642.17,-539.53"/>
</g>
<!-- fool_PR_reviewer_of_huge_diff_with_evil_code -->
<g id="node26" class="node">
<title>fool_PR_reviewer_of_huge_diff_with_evil_code</title>
<path fill="#ff92cc" stroke="transparent" d="M833.16,-541.7C833.16,-541.7 706.37,-541.7 706.37,-541.7 700.37,-541.7 694.37,-535.7 694.37,-529.7 694.37,-529.7 694.37,-458.3 694.37,-458.3 694.37,-452.3 700.37,-446.3 706.37,-446.3 706.37,-446.3 833.16,-446.3 833.16,-446.3 839.16,-446.3 845.16,-452.3 845.16,-458.3 845.16,-458.3 845.16,-529.7 845.16,-529.7 845.16,-535.7 839.16,-541.7 833.16,-541.7"/>
<text text-anchor="middle" x="769.77" y="-515" font-family="Arial" font-size="14.00">Fool PR reviewer of</text>
<text text-anchor="middle" x="769.77" y="-498.2" font-family="Arial" font-size="14.00">huge diff with evil</text>
<text text-anchor="middle" x="769.77" y="-481.4" font-family="Arial" font-size="14.00">code</text>
<text text-anchor="middle" x="769.77" y="-464.6" font-family="Arial" font-size="14.00">(LGTM)</text>
</g>
<!-- target_branch_has_Branch_Protection&#45;&gt;fool_PR_reviewer_of_huge_diff_with_evil_code -->
<g id="edge26" class="edge">
<title>target_branch_has_Branch_Protection&#45;&gt;fool_PR_reviewer_of_huge_diff_with_evil_code</title>
<path fill="none" stroke="#2b303a" d="M709.1,-579.2C715.55,-570.25 722.85,-560.11 730.1,-550.05"/>
<polygon fill="#2b303a" stroke="#2b303a" points="733.14,-551.81 736.15,-541.65 727.46,-547.72 733.14,-551.81"/>
</g>
<!-- fool_PR_reviewer_by_adding_evil_dependency_reference -->
<g id="node27" class="node">
<title>fool_PR_reviewer_by_adding_evil_dependency_reference</title>
<path fill="#ff92cc" stroke="transparent" d="M1000.77,-541.7C1000.77,-541.7 870.76,-541.7 870.76,-541.7 864.76,-541.7 858.76,-535.7 858.76,-529.7 858.76,-529.7 858.76,-458.3 858.76,-458.3 858.76,-452.3 864.76,-446.3 870.76,-446.3 870.76,-446.3 1000.77,-446.3 1000.77,-446.3 1006.77,-446.3 1012.77,-452.3 1012.77,-458.3 1012.77,-458.3 1012.77,-529.7 1012.77,-529.7 1012.77,-535.7 1006.77,-541.7 1000.77,-541.7"/>
<text text-anchor="middle" x="935.77" y="-515" font-family="Arial" font-size="14.00">Fool PR reviewer by</text>
<text text-anchor="middle" x="935.77" y="-498.2" font-family="Arial" font-size="14.00">adding evil</text>
<text text-anchor="middle" x="935.77" y="-481.4" font-family="Arial" font-size="14.00">dependency</text>
<text text-anchor="middle" x="935.77" y="-464.6" font-family="Arial" font-size="14.00">reference</text>
</g>
<!-- target_branch_has_Branch_Protection&#45;&gt;fool_PR_reviewer_by_adding_evil_dependency_reference -->
<g id="edge27" class="edge">
<title>target_branch_has_Branch_Protection&#45;&gt;fool_PR_reviewer_by_adding_evil_dependency_reference</title>
<path fill="none" stroke="#2b303a" d="M758.39,-581.97C785.23,-571.28 816.12,-558.38 849.57,-542.57"/>
<polygon fill="#2b303a" stroke="#2b303a" points="851.08,-545.73 858.59,-538.26 848.06,-539.41 851.08,-545.73"/>
</g>
<!-- repo_has_no_Tag_Protection_Rule&#45;&gt;target_branch_has_no_Branch_Protection -->
<!-- push_remote_release_tag -->
<g id="node22" class="node">
<title>push_remote_release_tag</title>
<path fill="#ff92cc" stroke="transparent" d="M1202.41,-524.6C1202.41,-524.6 1069.13,-524.6 1069.13,-524.6 1063.13,-524.6 1057.13,-518.6 1057.13,-512.6 1057.13,-512.6 1057.13,-475.4 1057.13,-475.4 1057.13,-469.4 1063.13,-463.4 1069.13,-463.4 1069.13,-463.4 1202.41,-463.4 1202.41,-463.4 1208.41,-463.4 1214.41,-469.4 1214.41,-475.4 1214.41,-475.4 1214.41,-512.6 1214.41,-512.6 1214.41,-518.6 1208.41,-524.6 1202.41,-524.6"/>
<text text-anchor="middle" x="1135.77" y="-498.2" font-family="Arial" font-size="14.00">Push remote release</text>
<text text-anchor="middle" x="1135.77" y="-481.4" font-family="Arial" font-size="14.00">tag</text>
</g>
<!-- repo_has_no_Tag_Protection_Rule&#45;&gt;push_remote_release_tag -->
<g id="edge22" class="edge">
<title>repo_has_no_Tag_Protection_Rule&#45;&gt;push_remote_release_tag</title>
<path fill="none" stroke="#2b303a" d="M1050.68,-579.2C1065.21,-564.82 1082.81,-547.4 1098.23,-532.14"/>
<polygon fill="#2b303a" stroke="#2b303a" points="1100.96,-534.37 1105.6,-524.85 1096.03,-529.4 1100.96,-534.37"/>
</g>
<!-- victim_has_repo_write_access -->
<g id="node8" class="node">
<title>victim_has_repo_write_access</title>
<path fill="#d2d5dd" stroke="transparent" d="M756.22,-830C756.22,-830 655.31,-830 655.31,-830 649.31,-830 643.31,-824 643.31,-818 643.31,-818 643.31,-780.8 643.31,-780.8 643.31,-774.8 649.31,-768.8 655.31,-768.8 655.31,-768.8 756.22,-768.8 756.22,-768.8 762.22,-768.8 768.22,-774.8 768.22,-780.8 768.22,-780.8 768.22,-818 768.22,-818 768.22,-824 762.22,-830 756.22,-830"/>
<text text-anchor="middle" x="705.77" y="-803.6" font-family="Arial" font-size="14.00">Victim has repo</text>
<text text-anchor="middle" x="705.77" y="-786.8" font-family="Arial" font-size="14.00">write access</text>
</g>
<!-- victim_has_repo_write_access&#45;&gt;attacker_has_repo_write_access -->
<g id="edge46" class="edge">
<title>victim_has_repo_write_access&#45;&gt;attacker_has_repo_write_access</title>
<path fill="none" stroke="#2b303a" d="M768.01,-770.94C770.28,-770.13 772.54,-769.34 774.77,-768.6 829.73,-750.32 893.37,-735.26 942.14,-724.96"/>
<polygon fill="#2b303a" stroke="#2b303a" points="942.93,-728.38 952.01,-722.9 941.5,-721.52 942.93,-728.38"/>
</g>
<!-- victim_is_repo_admin -->
<g id="node9" class="node">
<title>victim_is_repo_admin</title>
<path fill="#d2d5dd" stroke="transparent" d="M923.77,-821.7C923.77,-821.7 793.76,-821.7 793.76,-821.7 787.76,-821.7 781.76,-815.7 781.76,-809.7 781.76,-809.7 781.76,-789.1 781.76,-789.1 781.76,-783.1 787.76,-777.1 793.76,-777.1 793.76,-777.1 923.77,-777.1 923.77,-777.1 929.77,-777.1 935.77,-783.1 935.77,-789.1 935.77,-789.1 935.77,-809.7 935.77,-809.7 935.77,-815.7 929.77,-821.7 923.77,-821.7"/>
<text text-anchor="middle" x="858.77" y="-795.2" font-family="Arial" font-size="14.00">Victim is repo admin</text>
</g>
<!-- victim_has_repo_write_access&#45;&gt;victim_is_repo_admin -->
<!-- victim_has_repo_write_access&#45;&gt;victim_is_repo_admin -->
<!-- victim_is_repo_admin&#45;&gt;attacker_has_repo_admin -->
<g id="edge48" class="edge">
<title>victim_is_repo_admin&#45;&gt;attacker_has_repo_admin</title>
<path fill="none" stroke="#2b303a" d="M914.33,-776.99C923.73,-773.86 933.46,-770.92 942.77,-768.6 1001.23,-754.04 1162.12,-732.23 1259.89,-719.67"/>
<polygon fill="#2b303a" stroke="#2b303a" points="1260.56,-723.12 1270.03,-718.37 1259.67,-716.17 1260.56,-723.12"/>
</g>
<!-- victim_is_GitHub_App_Manager -->
<g id="node10" class="node">
<title>victim_is_GitHub_App_Manager</title>
<path fill="#d2d5dd" stroke="transparent" d="M1094.11,-830C1094.11,-830 961.43,-830 961.43,-830 955.43,-830 949.43,-824 949.43,-818 949.43,-818 949.43,-780.8 949.43,-780.8 949.43,-774.8 955.43,-768.8 961.43,-768.8 961.43,-768.8 1094.11,-768.8 1094.11,-768.8 1100.11,-768.8 1106.11,-774.8 1106.11,-780.8 1106.11,-780.8 1106.11,-818 1106.11,-818 1106.11,-824 1100.11,-830 1094.11,-830"/>
<text text-anchor="middle" x="1027.77" y="-803.6" font-family="Arial" font-size="14.00">Victim is GitHub App</text>
<text text-anchor="middle" x="1027.77" y="-786.8" font-family="Arial" font-size="14.00">Manager</text>
</g>
<!-- victim_is_repo_admin&#45;&gt;victim_is_GitHub_App_Manager -->
<!-- victim_is_org_owner -->
<g id="node11" class="node">
<title>victim_is_org_owner</title>
<path fill="#d2d5dd" stroke="transparent" d="M1253.99,-821.7C1253.99,-821.7 1131.55,-821.7 1131.55,-821.7 1125.55,-821.7 1119.55,-815.7 1119.55,-809.7 1119.55,-809.7 1119.55,-789.1 1119.55,-789.1 1119.55,-783.1 1125.55,-777.1 1131.55,-777.1 1131.55,-777.1 1253.99,-777.1 1253.99,-777.1 1259.99,-777.1 1265.99,-783.1 1265.99,-789.1 1265.99,-789.1 1265.99,-809.7 1265.99,-809.7 1265.99,-815.7 1259.99,-821.7 1253.99,-821.7"/>
<text text-anchor="middle" x="1192.77" y="-795.2" font-family="Arial" font-size="14.00">Victim is org owner</text>
</g>
<!-- victim_is_repo_admin&#45;&gt;victim_is_org_owner -->
<!-- victim_is_GitHub_App_Manager&#45;&gt;victim_is_org_owner -->
<!-- victim_is_GitHub_App_Manager&#45;&gt;compromise_GitHub_App -->
<g id="edge14" class="edge">
<title>victim_is_GitHub_App_Manager&#45;&gt;compromise_GitHub_App</title>
<path fill="none" stroke="#7692ff" stroke-width="3" stroke-dasharray="1,5" d="M993.84,-830.03C985.18,-838.79 976.44,-848.83 969.77,-859.2 949.57,-890.57 960.16,-906.36 939.77,-937.6 931.85,-949.73 921.42,-961.4 911.12,-971.51"/>
<polygon fill="#7692ff" stroke="#7692ff" stroke-width="3" points="909.72,-970.44 907.34,-975.17 912.15,-972.95 909.72,-970.44"/>
</g>
<!-- modify_release_tag_to_point_vulnerable_commit -->
<g id="node42" class="node">
<title>modify_release_tag_to_point_vulnerable_commit</title>
<path fill="#5f00c2" stroke="transparent" d="M1179.14,-87C1179.14,-87 1060.4,-87 1060.4,-87 1054.4,-87 1048.4,-81 1048.4,-75 1048.4,-75 1048.4,-20.2 1048.4,-20.2 1048.4,-14.2 1054.4,-8.2 1060.4,-8.2 1060.4,-8.2 1179.14,-8.2 1179.14,-8.2 1185.14,-8.2 1191.14,-14.2 1191.14,-20.2 1191.14,-20.2 1191.14,-75 1191.14,-75 1191.14,-81 1185.14,-87 1179.14,-87"/>
<text text-anchor="middle" x="1119.77" y="-60.2" font-family="Arial" font-size="14.00" fill="#ffffff">Modify release tag</text>
<text text-anchor="middle" x="1119.77" y="-43.4" font-family="Arial" font-size="14.00" fill="#ffffff">to point vulnerable</text>
<text text-anchor="middle" x="1119.77" y="-26.6" font-family="Arial" font-size="14.00" fill="#ffffff">commit</text>
</g>
<!-- victim_is_GitHub_App_Manager&#45;&gt;modify_release_tag_to_point_vulnerable_commit -->
<!-- remove_malicious_code -->
<g id="node43" class="node">
<title>remove_malicious_code</title>
<path fill="#5f00c2" stroke="transparent" d="M1415.18,-95.3C1415.18,-95.3 1302.36,-95.3 1302.36,-95.3 1296.36,-95.3 1290.36,-89.3 1290.36,-83.3 1290.36,-83.3 1290.36,-11.9 1290.36,-11.9 1290.36,-5.9 1296.36,0.1 1302.36,0.1 1302.36,0.1 1415.18,0.1 1415.18,0.1 1421.18,0.1 1427.18,-5.9 1427.18,-11.9 1427.18,-11.9 1427.18,-83.3 1427.18,-83.3 1427.18,-89.3 1421.18,-95.3 1415.18,-95.3"/>
<text text-anchor="middle" x="1358.77" y="-68.6" font-family="Arial" font-size="14.00" fill="#ffffff">Delete malicious</text>
<text text-anchor="middle" x="1358.77" y="-51.8" font-family="Arial" font-size="14.00" fill="#ffffff">code from history</text>
<text text-anchor="middle" x="1358.77" y="-35" font-family="Arial" font-size="14.00" fill="#ffffff">(i.e. force push or</text>
<text text-anchor="middle" x="1358.77" y="-18.2" font-family="Arial" font-size="14.00" fill="#ffffff">delete branch)</text>
</g>
<!-- victim_is_GitHub_App_Manager&#45;&gt;remove_malicious_code -->
<!-- submit_malicious_code -->
<g id="node44" class="node">
<title>submit_malicious_code</title>
<path fill="#5f00c2" stroke="transparent" d="M824.54,-78.2C824.54,-78.2 714.99,-78.2 714.99,-78.2 708.99,-78.2 702.99,-72.2 702.99,-66.2 702.99,-66.2 702.99,-29 702.99,-29 702.99,-23 708.99,-17 714.99,-17 714.99,-17 824.54,-17 824.54,-17 830.54,-17 836.54,-23 836.54,-29 836.54,-29 836.54,-66.2 836.54,-66.2 836.54,-72.2 830.54,-78.2 824.54,-78.2"/>
<text text-anchor="middle" x="769.77" y="-51.8" font-family="Arial" font-size="14.00" fill="#ffffff">Submit malicious</text>
<text text-anchor="middle" x="769.77" y="-35" font-family="Arial" font-size="14.00" fill="#ffffff">code</text>
</g>
<!-- victim_is_GitHub_App_Manager&#45;&gt;submit_malicious_code -->
<!-- victim_is_org_owner&#45;&gt;attacker_has_repo_admin -->
<g id="edge49" class="edge">
<title>victim_is_org_owner&#45;&gt;attacker_has_repo_admin</title>
<path fill="none" stroke="#2b303a" d="M1228.11,-776.95C1244.06,-767.27 1263.32,-755.58 1281.27,-744.69"/>
<polygon fill="#2b303a" stroke="#2b303a" points="1283.23,-747.6 1289.96,-739.42 1279.6,-741.61 1283.23,-747.6"/>
</g>
<!-- obtain_genuine_PR_approval_with_initially_good_code&#45;&gt;forge_second_valid_identity -->
<!-- abuse_PR_approval_to_sneak_in_bad_code -->
<g id="node20" class="node">
<title>abuse_PR_approval_to_sneak_in_bad_code</title>
<path fill="#ff92cc" stroke="transparent" d="M193.92,-400.4C193.92,-400.4 53.61,-400.4 53.61,-400.4 47.61,-400.4 41.61,-394.4 41.61,-388.4 41.61,-388.4 41.61,-351.2 41.61,-351.2 41.61,-345.2 47.61,-339.2 53.61,-339.2 53.61,-339.2 193.92,-339.2 193.92,-339.2 199.92,-339.2 205.92,-345.2 205.92,-351.2 205.92,-351.2 205.92,-388.4 205.92,-388.4 205.92,-394.4 199.92,-400.4 193.92,-400.4"/>
<text text-anchor="middle" x="123.77" y="-374" font-family="Arial" font-size="14.00">Abuse PR approval to</text>
<text text-anchor="middle" x="123.77" y="-357.2" font-family="Arial" font-size="14.00">sneak in bad code</text>
</g>
<!-- obtain_genuine_PR_approval_with_initially_good_code&#45;&gt;abuse_PR_approval_to_sneak_in_bad_code -->
<g id="edge20" class="edge">
<title>obtain_genuine_PR_approval_with_initially_good_code&#45;&gt;abuse_PR_approval_to_sneak_in_bad_code</title>
<path fill="none" stroke="#2b303a" d="M123.77,-454.67C123.77,-440.73 123.77,-424.94 123.77,-410.85"/>
<polygon fill="#2b303a" stroke="#2b303a" points="127.27,-410.46 123.77,-400.46 120.27,-410.46 127.27,-410.46"/>
</g>
<!-- setup_robust_branch_protection -->
<g id="node36" class="node">
<title>setup_robust_branch_protection</title>
<path fill="#b9d6f2" stroke="transparent" d="M1294.81,-185.6C1294.81,-185.6 1164.72,-185.6 1164.72,-185.6 1158.72,-185.6 1152.72,-179.6 1152.72,-173.6 1152.72,-173.6 1152.72,-136.4 1152.72,-136.4 1152.72,-130.4 1158.72,-124.4 1164.72,-124.4 1164.72,-124.4 1294.81,-124.4 1294.81,-124.4 1300.81,-124.4 1306.81,-130.4 1306.81,-136.4 1306.81,-136.4 1306.81,-173.6 1306.81,-173.6 1306.81,-179.6 1300.81,-185.6 1294.81,-185.6"/>
<text text-anchor="middle" x="1229.77" y="-159.2" font-family="Arial" font-size="14.00">Setup robust branch</text>
<text text-anchor="middle" x="1229.77" y="-142.4" font-family="Arial" font-size="14.00">protection</text>
</g>
<!-- target_branch_has_no_Branch_Protection&#45;&gt;setup_robust_branch_protection -->
<g id="edge36" class="edge">
<title>target_branch_has_no_Branch_Protection&#45;&gt;setup_robust_branch_protection</title>
<path fill="none" stroke="#2b303a" d="M1204.3,-579.15C1211.24,-567.95 1218.09,-554.72 1221.77,-541.6 1255.97,-419.56 1243.97,-267.19 1235.39,-196.05"/>
<polygon fill="#2b303a" stroke="#2b303a" points="1238.82,-195.24 1234.1,-185.75 1231.87,-196.11 1238.82,-195.24"/>
</g>
<!-- forge_second_valid_identity&#45;&gt;abuse_Github_Action_PR_approval_permission -->
<!-- allow_one_membership_per_identity -->
<g id="node29" class="node">
<title>allow_one_membership_per_identity</title>
<path fill="#b9d6f2" stroke="transparent" d="M337.38,-409.2C337.38,-409.2 232.15,-409.2 232.15,-409.2 226.15,-409.2 220.15,-403.2 220.15,-397.2 220.15,-397.2 220.15,-342.4 220.15,-342.4 220.15,-336.4 226.15,-330.4 232.15,-330.4 232.15,-330.4 337.38,-330.4 337.38,-330.4 343.38,-330.4 349.38,-336.4 349.38,-342.4 349.38,-342.4 349.38,-397.2 349.38,-397.2 349.38,-403.2 343.38,-409.2 337.38,-409.2"/>
<text text-anchor="middle" x="284.77" y="-382.4" font-family="Arial" font-size="14.00">Allow one</text>
<text text-anchor="middle" x="284.77" y="-365.6" font-family="Arial" font-size="14.00">membership per</text>
<text text-anchor="middle" x="284.77" y="-348.8" font-family="Arial" font-size="14.00">identity</text>
</g>
<!-- forge_second_valid_identity&#45;&gt;allow_one_membership_per_identity -->
<g id="edge29" class="edge">
<title>forge_second_valid_identity&#45;&gt;allow_one_membership_per_identity</title>
<path fill="none" stroke="#2b303a" d="M281.33,-454.67C281.79,-443.52 282.3,-431.19 282.77,-419.49"/>
<polygon fill="#2b303a" stroke="#2b303a" points="286.27,-419.55 283.19,-409.41 279.28,-419.26 286.27,-419.55"/>
</g>
<!-- compromise_GitHub_App&#45;&gt;compromise_org_member_account -->
<!-- only_install_necessary_and_trusted_GitHub_App -->
<g id="node40" class="node">
<title>only_install_necessary_and_trusted_GitHub_App</title>
<path fill="#b9d6f2" stroke="transparent" d="M920.3,-937.8C920.3,-937.8 797.23,-937.8 797.23,-937.8 791.23,-937.8 785.23,-931.8 785.23,-925.8 785.23,-925.8 785.23,-871 785.23,-871 785.23,-865 791.23,-859 797.23,-859 797.23,-859 920.3,-859 920.3,-859 926.3,-859 932.3,-865 932.3,-871 932.3,-871 932.3,-925.8 932.3,-925.8 932.3,-931.8 926.3,-937.8 920.3,-937.8"/>
<text text-anchor="middle" x="858.77" y="-911" font-family="Arial" font-size="14.00">Only install</text>
<text text-anchor="middle" x="858.77" y="-894.2" font-family="Arial" font-size="14.00">necessary and</text>
<text text-anchor="middle" x="858.77" y="-877.4" font-family="Arial" font-size="14.00">trusted GitHub App</text>
</g>
<!-- compromise_GitHub_App&#45;&gt;only_install_necessary_and_trusted_GitHub_App -->
<g id="edge41" class="edge">
<title>compromise_GitHub_App&#45;&gt;only_install_necessary_and_trusted_GitHub_App</title>
<path fill="none" stroke="#2b303a" d="M868.11,-975.16C867.06,-966.66 865.89,-957.17 864.74,-947.86"/>
<polygon fill="#2b303a" stroke="#2b303a" points="868.21,-947.37 863.51,-937.88 861.26,-948.23 868.21,-947.37"/>
</g>
<!-- compromise_org_member_account&#45;&gt;steal_SSH_key_with_repo_write_access -->
<!-- enforce_2FA -->
<g id="node41" class="node">
<title>enforce_2FA</title>
<path fill="#b9d6f2" stroke="transparent" d="M1070.56,-920.7C1070.56,-920.7 988.97,-920.7 988.97,-920.7 982.97,-920.7 976.97,-914.7 976.97,-908.7 976.97,-908.7 976.97,-888.1 976.97,-888.1 976.97,-882.1 982.97,-876.1 988.97,-876.1 988.97,-876.1 1070.56,-876.1 1070.56,-876.1 1076.56,-876.1 1082.56,-882.1 1082.56,-888.1 1082.56,-888.1 1082.56,-908.7 1082.56,-908.7 1082.56,-914.7 1076.56,-920.7 1070.56,-920.7"/>
<text text-anchor="middle" x="1029.77" y="-894.2" font-family="Arial" font-size="14.00">Enforce 2FA</text>
</g>
<!-- compromise_org_member_account&#45;&gt;enforce_2FA -->
<g id="edge42" class="edge">
<title>compromise_org_member_account&#45;&gt;enforce_2FA</title>
<path fill="none" stroke="#2b303a" d="M1029.77,-975.16C1029.77,-961.38 1029.77,-944.98 1029.77,-930.97"/>
<polygon fill="#2b303a" stroke="#2b303a" points="1033.27,-930.8 1029.77,-920.8 1026.27,-930.8 1033.27,-930.8"/>
</g>
<!-- encrypt_SSH_private_key -->
<g id="node28" class="node">
<title>encrypt_SSH_private_key</title>
<path fill="#b9d6f2" stroke="transparent" d="M1451.79,-830C1451.79,-830 1321.75,-830 1321.75,-830 1315.75,-830 1309.75,-824 1309.75,-818 1309.75,-818 1309.75,-780.8 1309.75,-780.8 1309.75,-774.8 1315.75,-768.8 1321.75,-768.8 1321.75,-768.8 1451.79,-768.8 1451.79,-768.8 1457.79,-768.8 1463.79,-774.8 1463.79,-780.8 1463.79,-780.8 1463.79,-818 1463.79,-818 1463.79,-824 1457.79,-830 1451.79,-830"/>
<text text-anchor="middle" x="1386.77" y="-803.6" font-family="Arial" font-size="14.00">Encrypt SSH private</text>
<text text-anchor="middle" x="1386.77" y="-786.8" font-family="Arial" font-size="14.00">key</text>
</g>
<!-- steal_SSH_key_with_repo_write_access&#45;&gt;encrypt_SSH_private_key -->
<g id="edge28" class="edge">
<title>steal_SSH_key_with_repo_write_access&#45;&gt;encrypt_SSH_private_key</title>
<path fill="none" stroke="#2b303a" d="M1225.2,-966.35C1261.14,-929.43 1315.09,-874.02 1350.61,-837.54"/>
<polygon fill="#2b303a" stroke="#2b303a" points="1353.43,-839.66 1357.89,-830.06 1348.41,-834.78 1353.43,-839.66"/>
</g>
<!-- abuse_Github_Action_PR_approval_permission&#45;&gt;add_evil_commits_to_good_PR_and_self_approve -->
<!-- disable_GitHub_Actions_PR_approval_permission -->
<g id="node32" class="node">
<title>disable_GitHub_Actions_PR_approval_permission</title>
<path fill="#b9d6f2" stroke="transparent" d="M506.07,-409.2C506.07,-409.2 375.46,-409.2 375.46,-409.2 369.46,-409.2 363.46,-403.2 363.46,-397.2 363.46,-397.2 363.46,-342.4 363.46,-342.4 363.46,-336.4 369.46,-330.4 375.46,-330.4 375.46,-330.4 506.07,-330.4 506.07,-330.4 512.07,-330.4 518.07,-336.4 518.07,-342.4 518.07,-342.4 518.07,-397.2 518.07,-397.2 518.07,-403.2 512.07,-409.2 506.07,-409.2"/>
<text text-anchor="middle" x="440.77" y="-382.4" font-family="Arial" font-size="14.00">Disable GitHub</text>
<text text-anchor="middle" x="440.77" y="-365.6" font-family="Arial" font-size="14.00">Actions PR approval</text>
<text text-anchor="middle" x="440.77" y="-348.8" font-family="Arial" font-size="14.00">permission</text>
</g>
<!-- abuse_Github_Action_PR_approval_permission&#45;&gt;disable_GitHub_Actions_PR_approval_permission -->
<g id="edge32" class="edge">
<title>abuse_Github_Action_PR_approval_permission&#45;&gt;disable_GitHub_Actions_PR_approval_permission</title>
<path fill="none" stroke="#2b303a" d="M440.08,-454.67C440.17,-443.52 440.27,-431.19 440.37,-419.49"/>
<polygon fill="#2b303a" stroke="#2b303a" points="443.87,-419.44 440.45,-409.41 436.87,-419.38 443.87,-419.44"/>
</g>
<!-- get_enough_fake_PR_approvals -->
<g id="node19" class="node">
<title>get_enough_fake_PR_approvals</title>
<path fill="#ff92cc" stroke="transparent" d="M506.1,-284.6C506.1,-284.6 375.44,-284.6 375.44,-284.6 369.44,-284.6 363.44,-278.6 363.44,-272.6 363.44,-272.6 363.44,-235.4 363.44,-235.4 363.44,-229.4 369.44,-223.4 375.44,-223.4 375.44,-223.4 506.1,-223.4 506.1,-223.4 512.1,-223.4 518.1,-229.4 518.1,-235.4 518.1,-235.4 518.1,-272.6 518.1,-272.6 518.1,-278.6 512.1,-284.6 506.1,-284.6"/>
<text text-anchor="middle" x="440.77" y="-258.2" font-family="Arial" font-size="14.00">Get enough fake PR</text>
<text text-anchor="middle" x="440.77" y="-241.4" font-family="Arial" font-size="14.00">approvals</text>
</g>
<!-- require_two_person_review -->
<g id="node33" class="node">
<title>require_two_person_review</title>
<path fill="#b9d6f2" stroke="transparent" d="M628.89,-185.6C628.89,-185.6 502.64,-185.6 502.64,-185.6 496.64,-185.6 490.64,-179.6 490.64,-173.6 490.64,-173.6 490.64,-136.4 490.64,-136.4 490.64,-130.4 496.64,-124.4 502.64,-124.4 502.64,-124.4 628.89,-124.4 628.89,-124.4 634.89,-124.4 640.89,-130.4 640.89,-136.4 640.89,-136.4 640.89,-173.6 640.89,-173.6 640.89,-179.6 634.89,-185.6 628.89,-185.6"/>
<text text-anchor="middle" x="565.77" y="-159.2" font-family="Arial" font-size="14.00">Require two&#45;person</text>
<text text-anchor="middle" x="565.77" y="-142.4" font-family="Arial" font-size="14.00">review</text>
</g>
<!-- get_enough_fake_PR_approvals&#45;&gt;require_two_person_review -->
<g id="edge33" class="edge">
<title>get_enough_fake_PR_approvals&#45;&gt;require_two_person_review</title>
<path fill="none" stroke="#2b303a" d="M478.95,-223.37C491.67,-213.5 505.99,-202.39 519.27,-192.08"/>
<polygon fill="#2b303a" stroke="#2b303a" points="521.63,-194.68 527.39,-185.78 517.34,-189.15 521.63,-194.68"/>
</g>
<!-- dismiss_stale_PR_approvals -->
<g id="node30" class="node">
<title>dismiss_stale_PR_approvals</title>
<path fill="#b9d6f2" stroke="transparent" d="M294.53,-284.6C294.53,-284.6 185,-284.6 185,-284.6 179,-284.6 173,-278.6 173,-272.6 173,-272.6 173,-235.4 173,-235.4 173,-229.4 179,-223.4 185,-223.4 185,-223.4 294.53,-223.4 294.53,-223.4 300.53,-223.4 306.53,-229.4 306.53,-235.4 306.53,-235.4 306.53,-272.6 306.53,-272.6 306.53,-278.6 300.53,-284.6 294.53,-284.6"/>
<text text-anchor="middle" x="239.77" y="-258.2" font-family="Arial" font-size="14.00">Dismiss stale PR</text>
<text text-anchor="middle" x="239.77" y="-241.4" font-family="Arial" font-size="14.00">approvals</text>
</g>
<!-- abuse_PR_approval_to_sneak_in_bad_code&#45;&gt;dismiss_stale_PR_approvals -->
<g id="edge30" class="edge">
<title>abuse_PR_approval_to_sneak_in_bad_code&#45;&gt;dismiss_stale_PR_approvals</title>
<path fill="none" stroke="#2b303a" d="M153.94,-339.2C168.59,-324.82 186.35,-307.4 201.91,-292.14"/>
<polygon fill="#2b303a" stroke="#2b303a" points="204.65,-294.35 209.34,-284.85 199.75,-289.35 204.65,-294.35"/>
</g>
<!-- bypass_Branch_Protection&#45;&gt;abuse_admin_rights_and_skip_Tag_Protection -->
<!-- enforce_branch_protection_for_admins -->
<g id="node35" class="node">
<title>enforce_branch_protection_for_admins</title>
<path fill="#b9d6f2" stroke="transparent" d="M1398.18,-533.4C1398.18,-533.4 1299.35,-533.4 1299.35,-533.4 1293.35,-533.4 1287.35,-527.4 1287.35,-521.4 1287.35,-521.4 1287.35,-466.6 1287.35,-466.6 1287.35,-460.6 1293.35,-454.6 1299.35,-454.6 1299.35,-454.6 1398.18,-454.6 1398.18,-454.6 1404.18,-454.6 1410.18,-460.6 1410.18,-466.6 1410.18,-466.6 1410.18,-521.4 1410.18,-521.4 1410.18,-527.4 1404.18,-533.4 1398.18,-533.4"/>
<text text-anchor="middle" x="1348.77" y="-506.6" font-family="Arial" font-size="14.00">Enforce branch</text>
<text text-anchor="middle" x="1348.77" y="-489.8" font-family="Arial" font-size="14.00">protection for</text>
<text text-anchor="middle" x="1348.77" y="-473" font-family="Arial" font-size="14.00">admins</text>
</g>
<!-- bypass_Branch_Protection&#45;&gt;enforce_branch_protection_for_admins -->
<g id="edge35" class="edge">
<title>bypass_Branch_Protection&#45;&gt;enforce_branch_protection_for_admins</title>
<path fill="none" stroke="#2b303a" d="M1341.37,-579.2C1342.33,-568.29 1343.44,-555.63 1344.51,-543.49"/>
<polygon fill="#2b303a" stroke="#2b303a" points="1348,-543.73 1345.39,-533.47 1341.02,-543.12 1348,-543.73"/>
</g>
<!-- setup_Tag_Protection_Rule -->
<g id="node34" class="node">
<title>setup_Tag_Protection_Rule</title>
<path fill="#b9d6f2" stroke="transparent" d="M1126.45,-185.6C1126.45,-185.6 1027.08,-185.6 1027.08,-185.6 1021.08,-185.6 1015.08,-179.6 1015.08,-173.6 1015.08,-173.6 1015.08,-136.4 1015.08,-136.4 1015.08,-130.4 1021.08,-124.4 1027.08,-124.4 1027.08,-124.4 1126.45,-124.4 1126.45,-124.4 1132.45,-124.4 1138.45,-130.4 1138.45,-136.4 1138.45,-136.4 1138.45,-173.6 1138.45,-173.6 1138.45,-179.6 1132.45,-185.6 1126.45,-185.6"/>
<text text-anchor="middle" x="1076.77" y="-159.2" font-family="Arial" font-size="14.00">Setup Tag</text>
<text text-anchor="middle" x="1076.77" y="-142.4" font-family="Arial" font-size="14.00">Protection Rule</text>
</g>
<!-- push_remote_release_tag&#45;&gt;setup_Tag_Protection_Rule -->
<g id="edge34" class="edge">
<title>push_remote_release_tag&#45;&gt;setup_Tag_Protection_Rule</title>
<path fill="none" stroke="#2b303a" d="M1130.58,-463.39C1119.96,-402.74 1095.73,-264.35 1083.75,-195.88"/>
<polygon fill="#2b303a" stroke="#2b303a" points="1087.17,-195.15 1082,-185.91 1080.28,-196.36 1087.17,-195.15"/>
</g>
<!-- manage_org_and_repo_settings_as_code -->
<g id="node37" class="node">
<title>manage_org_and_repo_settings_as_code</title>
<path fill="#b9d6f2" stroke="transparent" d="M1470.59,-185.6C1470.59,-185.6 1332.94,-185.6 1332.94,-185.6 1326.94,-185.6 1320.94,-179.6 1320.94,-173.6 1320.94,-173.6 1320.94,-136.4 1320.94,-136.4 1320.94,-130.4 1326.94,-124.4 1332.94,-124.4 1332.94,-124.4 1470.59,-124.4 1470.59,-124.4 1476.59,-124.4 1482.59,-130.4 1482.59,-136.4 1482.59,-136.4 1482.59,-173.6 1482.59,-173.6 1482.59,-179.6 1476.59,-185.6 1470.59,-185.6"/>
<text text-anchor="middle" x="1401.77" y="-159.2" font-family="Arial" font-size="14.00">Manage org and repo</text>
<text text-anchor="middle" x="1401.77" y="-142.4" font-family="Arial" font-size="14.00">settings as code</text>
</g>
<!-- abuse_admin_rights_and_skip_Tag_Protection&#45;&gt;manage_org_and_repo_settings_as_code -->
<g id="edge38" class="edge">
<title>abuse_admin_rights_and_skip_Tag_Protection&#45;&gt;manage_org_and_repo_settings_as_code</title>
<path fill="none" stroke="#2b303a" d="M1482.04,-570.19C1473.69,-515.03 1457.25,-410.54 1439.77,-322.2 1431.15,-278.65 1419.59,-229.08 1411.49,-195.5"/>
<polygon fill="#2b303a" stroke="#2b303a" points="1414.85,-194.5 1409.09,-185.61 1408.04,-196.15 1414.85,-194.5"/>
</g>
<!-- abuse_admin_rights_and_disable_Branch_Protection_admin_enforcement -->
<g id="node24" class="node">
<title>abuse_admin_rights_and_disable_Branch_Protection_admin_enforcement</title>
<path fill="#ff92cc" stroke="transparent" d="M1420.58,-417.5C1420.58,-417.5 1296.95,-417.5 1296.95,-417.5 1290.95,-417.5 1284.95,-411.5 1284.95,-405.5 1284.95,-405.5 1284.95,-334.1 1284.95,-334.1 1284.95,-328.1 1290.95,-322.1 1296.95,-322.1 1296.95,-322.1 1420.58,-322.1 1420.58,-322.1 1426.58,-322.1 1432.58,-328.1 1432.58,-334.1 1432.58,-334.1 1432.58,-405.5 1432.58,-405.5 1432.58,-411.5 1426.58,-417.5 1420.58,-417.5"/>
<text text-anchor="middle" x="1358.77" y="-390.8" font-family="Arial" font-size="14.00">Abuse admin rights</text>
<text text-anchor="middle" x="1358.77" y="-374" font-family="Arial" font-size="14.00">and disable Branch</text>
<text text-anchor="middle" x="1358.77" y="-357.2" font-family="Arial" font-size="14.00">Protection admin</text>
<text text-anchor="middle" x="1358.77" y="-340.4" font-family="Arial" font-size="14.00">enforcement</text>
</g>
<!-- abuse_admin_rights_and_disable_Branch_Protection_admin_enforcement&#45;&gt;manage_org_and_repo_settings_as_code -->
<g id="edge37" class="edge">
<title>abuse_admin_rights_and_disable_Branch_Protection_admin_enforcement&#45;&gt;manage_org_and_repo_settings_as_code</title>
<path fill="none" stroke="#2b303a" d="M1368.2,-322.1C1375.83,-284.35 1386.45,-231.78 1393.69,-195.96"/>
<polygon fill="#2b303a" stroke="#2b303a" points="1397.18,-196.37 1395.73,-185.87 1390.32,-194.98 1397.18,-196.37"/>
</g>
<!-- add_evil_commits_to_good_PR_and_self_approve&#45;&gt;fool_PR_reviewer_of_huge_diff_with_evil_code -->
<!-- require_Last_Push_Approval_branch_protection -->
<g id="node31" class="node">
<title>require_Last_Push_Approval_branch_protection</title>
<path fill="#b9d6f2" stroke="transparent" d="M666.41,-293.4C666.41,-293.4 547.12,-293.4 547.12,-293.4 541.12,-293.4 535.12,-287.4 535.12,-281.4 535.12,-281.4 535.12,-226.6 535.12,-226.6 535.12,-220.6 541.12,-214.6 547.12,-214.6 547.12,-214.6 666.41,-214.6 666.41,-214.6 672.41,-214.6 678.41,-220.6 678.41,-226.6 678.41,-226.6 678.41,-281.4 678.41,-281.4 678.41,-287.4 672.41,-293.4 666.41,-293.4"/>
<text text-anchor="middle" x="606.77" y="-266.6" font-family="Arial" font-size="14.00">Require Last Push</text>
<text text-anchor="middle" x="606.77" y="-249.8" font-family="Arial" font-size="14.00">Approval branch</text>
<text text-anchor="middle" x="606.77" y="-233" font-family="Arial" font-size="14.00">protection</text>
</g>
<!-- add_evil_commits_to_good_PR_and_self_approve&#45;&gt;require_Last_Push_Approval_branch_protection -->
<g id="edge31" class="edge">
<title>add_evil_commits_to_good_PR_and_self_approve&#45;&gt;require_Last_Push_Approval_branch_protection</title>
<path fill="none" stroke="#2b303a" d="M605.93,-454.76C606.1,-413.68 606.37,-348.28 606.56,-303.59"/>
<polygon fill="#2b303a" stroke="#2b303a" points="610.06,-303.55 606.6,-293.54 603.06,-303.52 610.06,-303.55"/>
</g>
<!-- fool_PR_reviewer_of_huge_diff_with_evil_code&#45;&gt;fool_PR_reviewer_by_adding_evil_dependency_reference -->
<!-- only_accept_PR_with_small_changes_and_review_carefully -->
<g id="node38" class="node">
<title>only_accept_PR_with_small_changes_and_review_carefully</title>
<path fill="#b9d6f2" stroke="transparent" d="M834.79,-293.4C834.79,-293.4 704.75,-293.4 704.75,-293.4 698.75,-293.4 692.75,-287.4 692.75,-281.4 692.75,-281.4 692.75,-226.6 692.75,-226.6 692.75,-220.6 698.75,-214.6 704.75,-214.6 704.75,-214.6 834.79,-214.6 834.79,-214.6 840.79,-214.6 846.79,-220.6 846.79,-226.6 846.79,-226.6 846.79,-281.4 846.79,-281.4 846.79,-287.4 840.79,-293.4 834.79,-293.4"/>
<text text-anchor="middle" x="769.77" y="-266.6" font-family="Arial" font-size="14.00">Only accept PR with</text>
<text text-anchor="middle" x="769.77" y="-249.8" font-family="Arial" font-size="14.00">small changes and</text>
<text text-anchor="middle" x="769.77" y="-233" font-family="Arial" font-size="14.00">review carefully</text>
</g>
<!-- fool_PR_reviewer_of_huge_diff_with_evil_code&#45;&gt;only_accept_PR_with_small_changes_and_review_carefully -->
<g id="edge39" class="edge">
<title>fool_PR_reviewer_of_huge_diff_with_evil_code&#45;&gt;only_accept_PR_with_small_changes_and_review_carefully</title>
<path fill="none" stroke="#2b303a" d="M769.77,-446.26C769.77,-405.08 769.77,-345.31 769.77,-303.58"/>
<polygon fill="#2b303a" stroke="#2b303a" points="773.27,-303.39 769.77,-293.39 766.27,-303.39 773.27,-303.39"/>
</g>
<!-- only_accept_trusted_dependencies -->
<g id="node39" class="node">
<title>only_accept_trusted_dependencies</title>
<path fill="#b9d6f2" stroke="transparent" d="M935.86,-185.6C935.86,-185.6 811.68,-185.6 811.68,-185.6 805.68,-185.6 799.68,-179.6 799.68,-173.6 799.68,-173.6 799.68,-136.4 799.68,-136.4 799.68,-130.4 805.68,-124.4 811.68,-124.4 811.68,-124.4 935.86,-124.4 935.86,-124.4 941.86,-124.4 947.86,-130.4 947.86,-136.4 947.86,-136.4 947.86,-173.6 947.86,-173.6 947.86,-179.6 941.86,-185.6 935.86,-185.6"/>
<text text-anchor="middle" x="873.77" y="-159.2" font-family="Arial" font-size="14.00">Only accept trusted</text>
<text text-anchor="middle" x="873.77" y="-142.4" font-family="Arial" font-size="14.00">dependencies</text>
</g>
<!-- fool_PR_reviewer_by_adding_evil_dependency_reference&#45;&gt;only_accept_trusted_dependencies -->
<g id="edge40" class="edge">
<title>fool_PR_reviewer_by_adding_evil_dependency_reference&#45;&gt;only_accept_trusted_dependencies</title>
<path fill="none" stroke="#2b303a" d="M927.15,-446.14C914.88,-379.5 892.62,-258.5 881.11,-195.9"/>
<polygon fill="#2b303a" stroke="#2b303a" points="884.54,-195.21 879.29,-186.01 877.65,-196.48 884.54,-195.21"/>
</g>
<!-- encrypt_SSH_private_key&#45;&gt;target_branch_has_no_Branch_Protection -->
<g id="edge61" class="edge">
<title>encrypt_SSH_private_key&#45;&gt;target_branch_has_no_Branch_Protection</title>
<path fill="none" stroke="#2b303a" d="M1309.74,-770.28C1293.12,-762.01 1276.45,-751.82 1262.77,-739.6 1234.81,-714.63 1213.2,-677.59 1199.53,-649.63"/>
<polygon fill="#2b303a" stroke="#2b303a" points="1202.65,-648.05 1195.2,-640.52 1196.33,-651.06 1202.65,-648.05"/>
</g>
<!-- allow_one_membership_per_identity&#45;&gt;get_enough_fake_PR_approvals -->
<g id="edge18" class="edge">
<title>allow_one_membership_per_identity&#45;&gt;get_enough_fake_PR_approvals</title>
<path fill="none" stroke="#2b303a" d="M337.15,-330.59C354.79,-317.72 374.41,-303.41 391.79,-290.73"/>
<polygon fill="#2b303a" stroke="#2b303a" points="394.1,-293.37 400.12,-284.65 389.97,-287.72 394.1,-293.37"/>
</g>
<!-- dismiss_stale_PR_approvals&#45;&gt;submit_malicious_code -->
<g id="edge9" class="edge">
<title>dismiss_stale_PR_approvals&#45;&gt;submit_malicious_code</title>
<path fill="none" stroke="#2b303a" d="M288.21,-223.19C336.36,-194.6 413.04,-151.8 483.77,-124.2 552.63,-97.33 634.46,-76.78 692.91,-63.93"/>
<polygon fill="#2b303a" stroke="#2b303a" points="693.78,-67.32 702.81,-61.78 692.3,-60.48 693.78,-67.32"/>
</g>
<!-- require_Last_Push_Approval_branch_protection&#45;&gt;submit_malicious_code -->
<g id="edge6" class="edge">
<title>require_Last_Push_Approval_branch_protection&#45;&gt;submit_malicious_code</title>
<path fill="none" stroke="#2b303a" d="M637.43,-214.55C666.75,-177.78 710.69,-122.68 739.78,-86.2"/>
<polygon fill="#2b303a" stroke="#2b303a" points="742.62,-88.26 746.12,-78.26 737.15,-83.89 742.62,-88.26"/>
</g>
<!-- disable_GitHub_Actions_PR_approval_permission&#45;&gt;get_enough_fake_PR_approvals -->
<g id="edge19" class="edge">
<title>disable_GitHub_Actions_PR_approval_permission&#45;&gt;get_enough_fake_PR_approvals</title>
<path fill="none" stroke="#2b303a" d="M440.77,-330.59C440.77,-319.12 440.77,-306.51 440.77,-294.93"/>
<polygon fill="#2b303a" stroke="#2b303a" points="444.27,-294.65 440.77,-284.65 437.27,-294.65 444.27,-294.65"/>
</g>
<!-- require_two_person_review&#45;&gt;submit_malicious_code -->
<g id="edge7" class="edge">
<title>require_two_person_review&#45;&gt;submit_malicious_code</title>
<path fill="none" stroke="#2b303a" d="M623.13,-124.36C648.01,-111.51 677.3,-96.37 703.14,-83.02"/>
<polygon fill="#2b303a" stroke="#2b303a" points="704.84,-86.08 712.12,-78.38 701.63,-79.86 704.84,-86.08"/>
</g>
<!-- setup_Tag_Protection_Rule&#45;&gt;modify_release_tag_to_point_vulnerable_commit -->
<g id="edge2" class="edge">
<title>setup_Tag_Protection_Rule&#45;&gt;modify_release_tag_to_point_vulnerable_commit</title>
<path fill="none" stroke="#2b303a" d="M1088.86,-124.36C1092.4,-115.68 1096.36,-105.97 1100.24,-96.46"/>
<polygon fill="#2b303a" stroke="#2b303a" points="1103.53,-97.66 1104.07,-87.08 1097.05,-95.01 1103.53,-97.66"/>
</g>
<!-- enforce_branch_protection_for_admins&#45;&gt;abuse_admin_rights_and_disable_Branch_Protection_admin_enforcement -->
<g id="edge24" class="edge">
<title>enforce_branch_protection_for_admins&#45;&gt;abuse_admin_rights_and_disable_Branch_Protection_admin_enforcement</title>
<path fill="none" stroke="#2b303a" d="M1351.9,-454.67C1352.6,-446.13 1353.36,-436.89 1354.1,-427.78"/>
<polygon fill="#2b303a" stroke="#2b303a" points="1357.61,-427.83 1354.94,-417.58 1350.63,-427.26 1357.61,-427.83"/>
</g>
<!-- setup_robust_branch_protection&#45;&gt;remove_malicious_code -->
<g id="edge3" class="edge">
<title>setup_robust_branch_protection&#45;&gt;remove_malicious_code</title>
<path fill="none" stroke="#2b303a" d="M1266.04,-124.36C1274.66,-117.32 1284.11,-109.6 1293.59,-101.86"/>
<polygon fill="#2b303a" stroke="#2b303a" points="1296,-104.4 1301.53,-95.36 1291.57,-98.98 1296,-104.4"/>
</g>
<!-- setup_robust_branch_protection&#45;&gt;submit_malicious_code -->
<g id="edge5" class="edge">
<title>setup_robust_branch_protection&#45;&gt;submit_malicious_code</title>
<path fill="none" stroke="#2b303a" d="M1152.55,-126.14C1150.27,-125.47 1148,-124.82 1145.77,-124.2 1043.66,-95.98 923.23,-73.63 846.7,-60.76"/>
<polygon fill="#2b303a" stroke="#2b303a" points="847.1,-57.28 836.66,-59.09 845.95,-64.19 847.1,-57.28"/>
</g>
<!-- manage_org_and_repo_settings_as_code&#45;&gt;modify_release_tag_to_point_vulnerable_commit -->
<g id="edge1" class="edge">
<title>manage_org_and_repo_settings_as_code&#45;&gt;modify_release_tag_to_point_vulnerable_commit</title>
<path fill="none" stroke="#2b303a" d="M1322.46,-124.36C1284.47,-110.16 1239.03,-93.17 1200.81,-78.89"/>
<polygon fill="#2b303a" stroke="#2b303a" points="1201.85,-75.54 1191.26,-75.32 1199.4,-82.1 1201.85,-75.54"/>
</g>
<!-- manage_org_and_repo_settings_as_code&#45;&gt;remove_malicious_code -->
<g id="edge4" class="edge">
<title>manage_org_and_repo_settings_as_code&#45;&gt;remove_malicious_code</title>
<path fill="none" stroke="#2b303a" d="M1389.67,-124.36C1387.15,-118.16 1384.4,-111.44 1381.63,-104.64"/>
<polygon fill="#2b303a" stroke="#2b303a" points="1384.86,-103.3 1377.84,-95.36 1378.38,-105.95 1384.86,-103.3"/>
</g>
<!-- manage_org_and_repo_settings_as_code&#45;&gt;submit_malicious_code -->
<g id="edge8" class="edge">
<title>manage_org_and_repo_settings_as_code&#45;&gt;submit_malicious_code</title>
<path fill="none" stroke="#2b303a" d="M1320.92,-125.88C1318.52,-125.28 1316.13,-124.72 1313.77,-124.2 1195.03,-98.1 1162.19,-111.92 1041.77,-95.2 975.65,-86.02 900.93,-73.03 846.56,-63.1"/>
<polygon fill="#2b303a" stroke="#2b303a" points="847.12,-59.64 836.65,-61.28 845.85,-66.52 847.12,-59.64"/>
</g>
<!-- only_accept_PR_with_small_changes_and_review_carefully&#45;&gt;submit_malicious_code -->
<g id="edge10" class="edge">
<title>only_accept_PR_with_small_changes_and_review_carefully&#45;&gt;submit_malicious_code</title>
<path fill="none" stroke="#2b303a" d="M769.77,-214.55C769.77,-178.56 769.77,-124.99 769.77,-88.52"/>
<polygon fill="#2b303a" stroke="#2b303a" points="773.27,-88.26 769.77,-78.26 766.27,-88.26 773.27,-88.26"/>
</g>
<!-- only_accept_trusted_dependencies&#45;&gt;submit_malicious_code -->
<g id="edge11" class="edge">
<title>only_accept_trusted_dependencies&#45;&gt;submit_malicious_code</title>
<path fill="none" stroke="#2b303a" d="M844.52,-124.36C832.67,-112.35 818.85,-98.34 806.34,-85.67"/>
<polygon fill="#2b303a" stroke="#2b303a" points="808.67,-83.04 799.15,-78.38 803.69,-87.96 808.67,-83.04"/>
</g>
<!-- only_install_necessary_and_trusted_GitHub_App&#45;&gt;victim_has_repo_write_access -->
<g id="edge53" class="edge">
<title>only_install_necessary_and_trusted_GitHub_App&#45;&gt;victim_has_repo_write_access</title>
<path fill="none" stroke="#2b303a" d="M798.3,-859.06C786.06,-851.31 773.26,-843.19 761.21,-835.55"/>
<polygon fill="#2b303a" stroke="#2b303a" points="762.91,-832.48 752.59,-830.08 759.16,-838.39 762.91,-832.48"/>
</g>
<!-- only_install_necessary_and_trusted_GitHub_App&#45;&gt;victim_is_repo_admin -->
<g id="edge55" class="edge">
<title>only_install_necessary_and_trusted_GitHub_App&#45;&gt;victim_is_repo_admin</title>
<path fill="none" stroke="#2b303a" d="M858.77,-859.06C858.77,-850.03 858.77,-840.5 858.77,-831.81"/>
<polygon fill="#2b303a" stroke="#2b303a" points="862.27,-831.72 858.77,-821.72 855.27,-831.72 862.27,-831.72"/>
</g>
<!-- only_install_necessary_and_trusted_GitHub_App&#45;&gt;victim_is_org_owner -->
<g id="edge58" class="edge">
<title>only_install_necessary_and_trusted_GitHub_App&#45;&gt;victim_is_org_owner</title>
<path fill="none" stroke="#2b303a" d="M932.38,-870.55C944.78,-866.47 957.57,-862.52 969.77,-859.2 1032.34,-842.17 1050.41,-848.02 1112.77,-830.2 1118.11,-828.67 1123.61,-826.95 1129.09,-825.13"/>
<polygon fill="#2b303a" stroke="#2b303a" points="1130.6,-828.31 1138.93,-821.76 1128.33,-821.69 1130.6,-828.31"/>
</g>
<!-- enforce_2FA&#45;&gt;victim_has_repo_write_access -->
<g id="edge52" class="edge">
<title>enforce_2FA&#45;&gt;victim_has_repo_write_access</title>
<path fill="none" stroke="#2b303a" d="M984.72,-875.91C970.58,-869.81 954.74,-863.63 939.77,-859.2 871.44,-838.98 848.1,-850.46 778.06,-830.98"/>
<polygon fill="#2b303a" stroke="#2b303a" points="778.92,-827.58 768.34,-828.16 776.97,-834.3 778.92,-827.58"/>
</g>
<!-- enforce_2FA&#45;&gt;victim_is_repo_admin -->
<g id="edge54" class="edge">
<title>enforce_2FA&#45;&gt;victim_is_repo_admin</title>
<path fill="none" stroke="#2b303a" d="M991.82,-875.87C966.36,-861.43 932.65,-842.31 905.53,-826.93"/>
<polygon fill="#2b303a" stroke="#2b303a" points="907.04,-823.76 896.61,-821.87 903.58,-829.85 907.04,-823.76"/>
</g>
<!-- enforce_2FA&#45;&gt;victim_is_GitHub_App_Manager -->
<g id="edge56" class="edge">
<title>enforce_2FA&#45;&gt;victim_is_GitHub_App_Manager</title>
<path fill="none" stroke="#2b303a" d="M1029.32,-875.87C1029.11,-865.51 1028.85,-852.74 1028.6,-840.68"/>
<polygon fill="#2b303a" stroke="#2b303a" points="1032.09,-840.25 1028.38,-830.33 1025.09,-840.4 1032.09,-840.25"/>
</g>
<!-- enforce_2FA&#45;&gt;victim_is_org_owner -->
<g id="edge57" class="edge">
<title>enforce_2FA&#45;&gt;victim_is_org_owner</title>
<path fill="none" stroke="#2b303a" d="M1065.94,-875.87C1090.1,-861.49 1122.06,-842.48 1147.85,-827.13"/>
<polygon fill="#2b303a" stroke="#2b303a" points="1149.89,-829.99 1156.69,-821.87 1146.31,-823.97 1149.89,-829.99"/>
</g>
</g>
</svg>
